<svg width="207" height="38" viewBox="0 0 207 38" fill="none" xmlns="http://www.w3.org/2000/svg">
<path d="M34.0487 27.1549L21.6903 17.4867L19.5044 1.93363C22.3628 2.0177 25.0531 2.77434 27.5752 4.20354C30.1814 5.71681 32.3673 7.90266 33.8805 10.5089C35.3938 13.115 36.1505 16.0575 36.1505 19.0841C36.0664 21.8584 35.3938 24.6327 34.0487 27.1549ZM27.4911 33.8805C24.8849 35.3938 21.9425 36.1504 18.9159 36.1504C15.8894 36.1504 12.9469 35.3938 10.3407 33.8805C7.9027 32.4513 5.8009 30.4336 4.3717 28.0796L18.9159 22.1947L33.4602 28.0796C32.031 30.4336 30.0133 32.4513 27.4911 33.8805ZM1.7655 19C1.7655 15.9735 2.5221 13.031 4.0354 10.4248C5.5487 7.81858 7.7345 5.63274 10.3407 4.11947C12.7788 2.69026 15.5531 1.93363 18.4115 1.84956L16.2257 17.4027L3.8673 27.0708C2.5221 24.6327 1.7655 21.8584 1.7655 19ZM35.4779 9.5C33.7965 6.64159 31.3584 4.20354 28.5 2.52212C25.6416 0.840708 22.2788 0 19 0C15.6372 0 12.3584 0.840708 9.5 2.52212C6.6416 4.20354 4.2036 6.64159 2.5221 9.5C0.840699 12.3584 0 15.7212 0 19C0 22.3628 0.840699 25.6416 2.5221 28.5C4.2036 31.3584 6.6416 33.7965 9.5 35.4779C12.3584 37.1593 15.7213 38 19 38C22.3628 38 25.6416 37.1593 28.5 35.4779C31.3584 33.7965 33.7965 31.3584 35.4779 28.5C37.1593 25.6416 38 22.2788 38 19C38 15.7212 37.1593 12.3584 35.4779 9.5Z" fill="white"/>
<path d="M68.9244 24.2022C68.9988 25.9373 69.3211 26.1355 70.9818 26.2843V26.8544C69.1476 26.7305 68.8501 26.7056 67.8338 26.7056H67.6356C66.8174 26.7056 65.9747 26.7552 64.4626 26.8544V26.2843C66.2225 26.1355 66.5448 25.9373 66.4704 24.2518L66.0242 12.3041L60.695 26.4825H60.2984L55.0186 12.2794L54.5724 24.1773C54.4981 26.0116 54.8947 26.1355 56.5059 26.2843V26.8544C55.5392 26.7801 54.6716 26.7056 54.1263 26.7056C53.4074 26.7056 52.639 26.7801 51.7715 26.8544V26.2843C53.457 26.1355 53.7793 25.9373 53.8536 24.2022L54.275 12.7752C54.3494 11.0895 54.0271 10.8913 52.4655 10.7674V10.1973C53.5314 10.2716 54.2254 10.3212 54.8947 10.3212C55.5392 10.3212 56.1341 10.2965 56.9025 10.2469L61.389 22.5414L66.049 10.2469C66.6687 10.2965 67.2389 10.3212 67.8834 10.3212C68.4535 10.3212 69.1723 10.2716 70.2878 10.1973V10.7674C68.7509 10.8913 68.4286 11.0895 68.5031 12.7752L68.9244 24.2022Z" fill="white"/>
<path d="M81.3331 22.9883H81.9777C81.8042 25.3678 80.0195 27.0533 77.4168 27.0533C73.7235 27.0533 72.0378 24.3515 72.0378 21.0052C72.0378 17.2375 74.467 14.957 77.2928 14.957C79.9203 14.957 81.9281 17.0144 81.9281 20.4599V20.683H74.467V20.9805C74.467 24.4755 75.4833 26.285 77.9373 26.285C79.722 26.285 81.1596 24.9465 81.3331 22.9883ZM77.2433 15.6016C75.508 15.6016 74.6405 17.2128 74.4919 20.0386H79.6724C79.6476 17.0144 78.8049 15.6016 77.2433 15.6016Z" fill="white"/>
<path d="M90.247 14.957C92.0812 14.957 92.7505 16.023 92.6017 17.1136C92.5027 17.9812 92.0812 18.3282 91.412 18.3282C90.6435 18.3282 90.1974 17.7581 90.3461 16.9897C90.4453 16.4692 90.3957 15.8246 89.5281 15.8246C88.2392 15.8246 87.2476 17.4606 87.2476 19.8898V24.3267C87.2476 26.0122 87.5699 26.1858 89.305 26.3097V26.8551C88.2392 26.7559 87.1486 26.7063 86.3057 26.7063H86.1322C85.2894 26.7063 84.4218 26.7559 83.4057 26.8551V26.3097C84.8185 26.1858 85.0416 25.9379 85.0416 24.4259V17.6589C85.0416 16.0726 84.9672 15.8495 83.2817 15.7751V15.2546C84.4714 15.2297 85.4382 15.205 86.5536 15.0811H87.1237V17.2871C87.6442 15.8246 88.6853 14.957 90.247 14.957Z" fill="white"/>
<path d="M102.204 22.9864H102.848C102.699 25.5147 100.989 27.0515 98.6093 27.0515C95.2878 27.0515 93.4783 24.2753 93.4783 21.0282C93.4783 17.2108 95.8827 14.9552 98.9316 14.9552C100.146 14.9552 101.063 15.4014 101.708 15.9962L102.179 14.8809H102.6V19.0947H102.129C101.683 16.7399 100.741 15.5996 99.0308 15.5996C96.8742 15.5996 95.8827 17.7809 95.8827 20.9537C95.8827 24.3745 96.8246 26.2831 99.1051 26.2831C100.642 26.2831 102.03 25.0932 102.204 22.9864Z" fill="white"/>
<path d="M113.76 22.9883H114.404C114.231 25.3678 112.446 27.0533 109.843 27.0533C106.15 27.0533 104.464 24.3515 104.464 21.0052C104.464 17.2375 106.894 14.957 109.719 14.957C112.347 14.957 114.355 17.0144 114.355 20.4599V20.683H106.894V20.9805C106.894 24.4755 107.91 26.285 110.364 26.285C112.148 26.285 113.586 24.9465 113.76 22.9883ZM109.67 15.6016C107.935 15.6016 107.067 17.2128 106.918 20.0386H112.099C112.074 17.0144 111.231 15.6016 109.67 15.6016Z" fill="white"/>
<path d="M126.121 24.3272C126.121 25.9135 126.195 26.1366 127.881 26.2111V26.7316C126.691 26.7563 125.725 26.7812 124.609 26.9051H124.039V24.7485C123.419 26.2358 122.353 27.0538 120.767 27.0538C118.189 27.0538 116.057 24.9468 116.057 21.0056C116.057 17.238 118.487 14.9575 120.99 14.9575C122.353 14.9575 123.32 15.6268 123.915 16.8661V12.5779C123.915 10.9915 123.841 10.7684 122.155 10.694V10.1735C123.345 10.1488 124.312 10.1239 125.427 10H126.121V24.3272ZM121.238 26.2854C122.899 26.2854 123.989 24.6493 123.989 20.956C123.989 17.2627 122.849 15.6019 121.139 15.6019C119.329 15.6019 118.487 17.5354 118.487 20.956C118.487 24.3766 119.404 26.2854 121.238 26.2854Z" fill="white"/>
<path d="M138.276 22.9883H138.921C138.747 25.3678 136.963 27.0533 134.36 27.0533C130.666 27.0533 128.981 24.3515 128.981 21.0052C128.981 17.2375 131.41 14.957 134.236 14.957C136.863 14.957 138.871 17.0144 138.871 20.4599V20.683H131.41V20.9805C131.41 24.4755 132.426 26.285 134.88 26.285C136.665 26.285 138.103 24.9465 138.276 22.9883ZM134.186 15.6016C132.451 15.6016 131.584 17.2128 131.435 20.0386H136.616C136.591 17.0144 135.748 15.6016 134.186 15.6016Z" fill="white"/>
<path d="M146.348 20.3093C147.389 20.7306 149.025 21.5487 149.025 23.6309C149.025 26.0353 146.993 27.0515 144.96 27.0515C143.547 27.0515 142.432 26.6301 141.663 25.9361L141.217 27.1259H140.796V22.9119H141.267C141.564 25.0189 142.878 26.407 144.886 26.407C146.571 26.407 147.389 25.5642 147.389 24.4488C147.389 23.259 146.497 22.8129 145.257 22.3171L143.448 21.5983C141.787 20.9537 140.821 19.8383 140.821 18.2272C140.821 16.0458 142.754 14.9552 144.638 14.9552C145.877 14.9552 146.844 15.3767 147.488 15.9466L147.91 14.8809H148.281V18.5989H147.811C147.464 16.963 146.546 15.5996 144.662 15.5996C143.299 15.5996 142.456 16.3433 142.456 17.3843C142.456 18.5495 143.225 19.0451 144.563 19.5905L146.348 20.3093Z" fill="white"/>
<path d="M150.967 19.2461H156.594V20.5846H150.967V19.2461Z" fill="white"/>
<path d="M166.643 18.1056C169.32 18.4526 171.204 19.9399 171.204 22.3443C171.204 25.0709 168.874 26.806 165.627 26.806H158.017V26.2359C159.703 26.1616 160 25.9384 160 24.2777V12.7764C160 11.1156 159.703 10.8925 158.017 10.8182V10.248H164.536C168.081 10.248 170.213 11.8345 170.213 14.2141C170.213 16.1227 168.75 17.5108 166.643 18.0809V18.1056ZM163.991 10.967H162.454V17.8827H164.016C166.569 17.8827 167.709 16.7424 167.709 14.4123C167.709 12.1319 166.569 10.967 163.991 10.967ZM165.007 26.0872C167.362 26.0872 168.552 24.8478 168.552 22.3443C168.552 19.8656 167.362 18.6014 165.007 18.6014H162.454V24.8231C162.454 25.641 162.553 26.0872 164.016 26.0872H165.007Z" fill="white"/>
<path d="M182.369 22.9883H183.013C182.84 25.3678 181.055 27.0533 178.452 27.0533C174.759 27.0533 173.073 24.3515 173.073 21.0052C173.073 17.2375 175.503 14.957 178.328 14.957C180.956 14.957 182.964 17.0144 182.964 20.4599V20.683H175.503V20.9805C175.503 24.4755 176.519 26.285 178.973 26.285C180.758 26.285 182.195 24.9465 182.369 22.9883ZM178.279 15.6016C176.544 15.6016 175.676 17.2128 175.528 20.0386H180.708C180.683 17.0144 179.841 15.6016 178.279 15.6016Z" fill="white"/>
<path d="M195.125 24.4259C195.125 25.9379 195.348 26.1858 196.761 26.3097V26.8551C195.745 26.7559 194.877 26.7063 194.034 26.7063H193.96C193.192 26.7063 192.299 26.7559 191.432 26.8551V26.3097C192.646 26.1858 192.919 26.0122 192.919 24.4259V18.0059C192.919 16.3204 192.274 15.7255 191.085 15.7255C189.573 15.7255 188.284 17.0393 188.284 18.8487V24.4259C188.284 26.0122 188.581 26.1858 189.796 26.3097V26.8551C188.928 26.7559 188.036 26.7063 187.267 26.7063H187.168C186.325 26.7063 185.458 26.7559 184.442 26.8551V26.3097C185.854 26.1858 186.078 25.9379 186.078 24.4259V17.6589C186.078 16.0726 186.003 15.8495 184.318 15.7751V15.2546C185.507 15.2297 186.474 15.205 187.59 15.0811H188.16V17.0144C188.705 15.7751 189.944 14.957 191.58 14.957C193.861 14.957 195.125 16.37 195.125 18.7495V24.4259Z" fill="white"/>
<path d="M206.455 23.1633H207L206.232 26.807H197.507V26.5592L204.1 15.7766H202.018C200.307 15.7766 199.366 16.2227 198.548 18.6271H198.002L198.746 15.1816H206.852V15.4543L200.233 26.2121H202.935C204.522 26.2121 205.637 25.7411 206.455 23.1633Z" fill="white"/>
</svg>
