<svg width="106" height="34" viewBox="0 0 106 34" fill="none" xmlns="http://www.w3.org/2000/svg">
<path d="M6.68932 5.69543C7.20388 5.69543 7.80421 5.78173 8.57605 5.86802C9.26214 5.95431 9.94822 6.1269 10.6343 6.47208C11.3204 6.81726 11.835 7.24873 12.2638 7.85279C12.6926 8.45685 12.9498 9.2335 12.8641 10.269V13.8934C12.8641 14.9289 12.6926 15.7056 12.2638 16.3096C11.835 16.9137 11.3204 17.3452 10.6343 17.6904C9.94822 18.0355 9.26214 18.2081 8.57605 18.2944C7.88997 18.3807 7.20388 18.467 6.68932 18.467H2.31553V25.1117H0V5.69543H6.68932ZM10.6343 10.269C10.6343 9.49239 10.4628 8.88832 10.2055 8.37056C9.86246 7.93909 9.51942 7.59391 9.00485 7.33503C8.57605 7.07614 8.06149 6.98985 7.46117 6.90355C6.9466 6.90355 6.43204 6.90355 6.00324 6.90355H2.31553V17.0863H6.089C6.5178 17.0863 6.9466 17.0863 7.54693 17C8.06149 16.9137 8.57605 16.8274 9.09062 16.5685C9.51942 16.3096 9.94822 16.0508 10.2913 15.533C10.6343 15.1015 10.7201 14.4975 10.7201 13.6345V10.269H10.6343Z" fill="white"/>
<path d="M17.0663 5.69543V20.4518C17.0663 21.1421 17.1521 21.7462 17.4094 22.1777C17.6667 22.6091 18.0097 22.9543 18.3528 23.2132C18.6958 23.4721 19.1246 23.6447 19.6392 23.731C20.068 23.8173 20.5825 23.9036 21.0113 23.9036V24.9391C20.6683 24.9391 20.2395 24.9391 19.8107 24.8528C19.3819 24.8528 18.9531 24.7665 18.4385 24.5939C18.0097 24.5076 17.4951 24.335 17.0663 24.0761C16.6375 23.8173 16.2087 23.5584 15.8657 23.2995C15.5227 22.9543 15.2654 22.5228 15.0939 22.0914C14.9223 21.5736 14.8366 21.0558 14.8366 20.3655V5.69543H17.0663Z" fill="white"/>
<path d="M27.7006 10.9594C28.2152 10.9594 28.8155 11.0457 29.5874 11.132C30.2735 11.2183 30.9595 11.3909 31.6456 11.736C32.246 12.0812 32.8463 12.5127 33.2751 13.1168C33.7039 13.7208 33.9612 14.4975 33.8754 15.533V25.0254H28.8155C28.301 25.0254 27.7006 24.9391 26.9288 24.8528C26.2427 24.7665 25.5566 24.5939 24.8705 24.2487C24.2702 23.9036 23.6699 23.4721 23.2411 22.868C22.8123 22.264 22.555 21.4873 22.6408 20.4518C22.6408 19.4162 22.8981 18.5533 23.4984 17.8629C24.0129 17.1726 24.699 16.7411 25.5566 16.3096C26.4142 15.8782 27.3576 15.7056 28.3867 15.6193C29.4159 15.533 30.5307 15.533 31.5599 15.6193V15.533C31.5599 14.7563 31.3884 14.1523 31.1311 13.6345C30.788 13.203 30.445 12.8579 29.9304 12.599C29.4159 12.3401 28.9871 12.2538 28.3867 12.1675C27.7864 12.0812 27.3576 12.0812 27.0146 12.0812H25.2994V11.3046C25.5566 11.2183 25.8139 11.0457 26.157 11.0457C26.5858 10.9594 27.1003 10.9594 27.7006 10.9594ZM31.6456 16.9137C30.788 16.8274 29.9304 16.8274 29.1586 16.9137C28.3867 17 27.6149 17.1726 27.0146 17.3452C26.4142 17.6041 25.8997 17.9492 25.5566 18.467C25.2136 18.9848 24.9563 19.5888 24.9563 20.3655C24.9563 21.1421 25.1278 21.7462 25.3851 22.264C25.7282 22.6954 26.0712 23.0406 26.5858 23.2995C27.1003 23.5584 27.5291 23.6447 28.1295 23.731C28.644 23.8173 29.1586 23.8173 29.5016 23.8173H31.6456V16.9137Z" fill="white"/>
<path d="M42.8803 11.0457C43.5663 11.132 44.2524 11.3046 44.9385 11.6497C45.6246 11.9949 46.1392 12.4264 46.568 13.0305C46.9968 13.6345 47.254 14.4112 47.1683 15.4467V25.0254H44.8527V15.533C44.8527 14.7563 44.767 14.1523 44.4239 13.6345C44.0809 13.203 43.7379 12.8579 43.2233 12.599C42.7087 12.3401 42.1942 12.2538 41.6796 12.1675C41.165 12.0812 40.6505 12.0812 40.2217 12.0812H38.2492V24.9391H35.9337V10.8731H40.9935C41.5938 10.8731 42.1942 10.9594 42.8803 11.0457Z" fill="white"/>
<path d="M54.7152 10.6142C55.4013 10.6142 56.0874 10.7005 56.7735 10.9594C57.4595 11.2183 58.0599 11.4772 58.5744 11.9086C59.089 12.3401 59.5178 12.8579 59.7751 13.4619C60.0324 14.066 60.2039 14.7563 60.1181 15.4467C60.1181 16.1371 59.9466 16.6548 59.6036 17.1726C59.2605 17.6904 58.9175 18.0355 58.4029 18.3807C57.8883 18.7259 57.3738 18.9848 56.7735 19.1574C56.1731 19.3299 55.5728 19.5025 54.8867 19.5888C54.2864 19.6751 53.6003 19.6751 53 19.6751C52.3997 19.6751 51.8851 19.5888 51.3705 19.4162V20.7107C51.3705 21.4873 51.5421 22.0914 51.8851 22.4365C52.2282 22.868 52.5712 23.2132 53.0858 23.3858C53.5146 23.5584 54.0291 23.731 54.5437 23.731C55.0582 23.8173 55.5728 23.8173 55.9159 23.8173H58.6602V24.6802C58.4029 24.7665 58.1456 24.9391 57.8026 24.9391C57.4595 24.9391 56.945 25.0254 56.3447 25.0254H55.3155C54.801 25.0254 54.2006 24.9391 53.4288 24.8528C52.7427 24.7665 52.0566 24.5939 51.3705 24.2487C50.7702 23.9036 50.1699 23.4721 49.7411 22.868C49.3123 22.264 49.055 21.4873 49.1408 20.4518V16.3096C49.1408 15.4467 49.2265 14.7563 49.4838 13.9797C49.7411 13.2893 50.0841 12.6853 50.5987 12.1675C51.1133 11.6497 51.6278 11.2183 52.3997 10.9594C53 10.7005 53.7718 10.6142 54.7152 10.6142ZM57.8883 15.1878C57.8883 14.5838 57.8883 14.1523 57.7168 13.7208C57.5453 13.2893 57.288 12.9442 57.0307 12.6853C56.6877 12.4264 56.3447 12.1675 56.0016 11.9949C55.5728 11.8223 55.144 11.736 54.7152 11.736C53.6861 11.736 52.9142 12.0812 52.3139 12.7716C51.7136 13.4619 51.4563 14.3249 51.4563 15.3604V18.0355C52.3997 18.1218 53.2573 18.1218 54.0291 18.0355C54.801 17.9492 55.4871 17.8629 56.0874 17.6041C56.6877 17.3452 57.1165 17.0863 57.4595 16.6548C57.7168 16.3096 57.8883 15.7919 57.8883 15.1878Z" fill="white"/>
<path d="M64.4919 22.0051C64.7492 22.4365 65.0065 22.7817 65.3495 23.0406C65.6926 23.2995 66.1214 23.4721 66.5502 23.5584C66.979 23.6447 67.4078 23.731 67.8366 23.731V24.9391C67.4935 24.9391 67.0647 24.9391 66.6359 24.8528C66.2071 24.7665 65.7783 24.7665 65.3495 24.5939C64.9207 24.5076 64.4919 24.335 64.0631 24.0761C63.6343 23.9036 63.2913 23.5584 62.9482 23.2995C62.6052 22.9543 62.3479 22.5228 62.1764 22.0914C62.0049 21.6599 61.9191 21.0558 61.9191 20.3655V8.19797H64.1489V12.1675C64.7492 11.9086 65.4353 11.6497 66.1214 11.6497C66.8074 11.5635 67.4078 11.5635 67.9223 11.5635V12.8579C67.4935 12.8579 67.1505 12.9442 66.6359 13.0305C66.2071 13.1168 65.7783 13.2893 65.4353 13.4619C65.0922 13.7208 64.7492 13.9797 64.4919 14.4112C64.2346 14.7563 64.1489 15.2741 64.0631 15.9645V20.5381C64.1489 21.0558 64.2346 21.5736 64.4919 22.0051Z" fill="white"/>
<path d="M89.1052 34C98.4359 34 106 26.3888 106 17C106 7.61116 98.4359 0 89.1052 0C79.7744 0 72.2104 7.61116 72.2104 17C72.2104 26.3888 79.7744 34 89.1052 34Z" fill="white"/>
<path d="M82.4159 6.90355L88.5048 15.0152L88.2476 16.2233L87.0469 16.1371L81.0437 8.02538L81.301 6.81726L82.4159 6.90355Z" fill="url(#paint0_linear_1802_5283)"/>
<path d="M88.4191 16.3096L87.0469 16.2233L80.8722 8.02538L81.1294 6.64467L82.5016 6.73096L88.6764 14.9289L88.4191 16.3096ZM87.1327 15.9645L88.1618 16.0508L88.3333 15.1015L82.3301 7.07614L81.301 6.98985L81.1294 7.93909L87.1327 15.9645Z" fill="url(#paint1_linear_1802_5283)"/>
<path d="M91.0777 17.9492L97.1667 26.0609L96.9094 27.1827L95.7087 27.0964L89.7055 18.9848L89.9628 17.8629L91.0777 17.9492Z" fill="url(#paint2_linear_1802_5283)"/>
<path d="M97.0809 27.3553L95.7087 27.269L89.534 19.0711L89.7913 17.6904L91.1634 17.7766L97.3382 25.9746L97.0809 27.3553ZM95.7945 27.0102L96.8236 27.0964L96.9951 26.1472L90.9919 18.1218L89.9628 18.0355L89.7913 18.9848L95.7945 27.0102Z" fill="url(#paint3_linear_1802_5283)"/>
<path d="M95.7087 6.90355L89.7055 15.0152L89.9628 16.2233L91.0777 16.1371L97.1667 8.02538L96.9094 6.81726L95.7087 6.90355Z" fill="url(#paint4_linear_1802_5283)"/>
<path d="M89.7913 16.3096L89.534 14.9289L95.7087 6.73096L97.0809 6.64467L97.3382 8.02538L91.1634 16.2233L89.7913 16.3096ZM89.877 15.1015L90.0485 16.0508L91.0777 15.9645L97.0809 7.93909L96.9094 6.98985L95.8803 7.07614L89.877 15.1015Z" fill="url(#paint5_linear_1802_5283)"/>
<path d="M87.0469 17.9492L81.0437 26.0609L81.301 27.1827L82.4159 27.0964L88.5048 18.9848L88.2476 17.8629L87.0469 17.9492Z" fill="url(#paint6_linear_1802_5283)"/>
<path d="M81.1294 27.3553L80.8722 25.9746L87.0469 17.7766L88.4191 17.6904L88.6764 19.0711L82.5016 27.269L81.1294 27.3553ZM81.2152 26.0609L81.3867 27.0102L82.4159 26.9239L88.4191 18.8985L88.2476 17.9492L87.2184 18.0355L81.2152 26.0609Z" fill="url(#paint7_linear_1802_5283)"/>
<defs>
<linearGradient id="paint0_linear_1802_5283" x1="64.8208" y1="16.975" x2="177.981" y2="16.975" gradientUnits="userSpaceOnUse">
<stop stop-color="#9D6AFB"/>
<stop offset="1" stop-color="#382EFB"/>
</linearGradient>
<linearGradient id="paint1_linear_1802_5283" x1="64.3012" y1="17.1275" x2="172.488" y2="17.1275" gradientUnits="userSpaceOnUse">
<stop stop-color="#9D6AFB"/>
<stop offset="1" stop-color="#382EFB"/>
</linearGradient>
<linearGradient id="paint2_linear_1802_5283" x1="-58.2366" y1="17.0349" x2="54.9238" y2="17.0349" gradientUnits="userSpaceOnUse">
<stop stop-color="#9D6AFB"/>
<stop offset="1" stop-color="#382EFB"/>
</linearGradient>
<linearGradient id="paint3_linear_1802_5283" x1="-53.3471" y1="17.0167" x2="54.8393" y2="17.0167" gradientUnits="userSpaceOnUse">
<stop stop-color="#9D6AFB"/>
<stop offset="1" stop-color="#382EFB"/>
</linearGradient>
<linearGradient id="paint4_linear_1802_5283" x1="-58.2366" y1="16.975" x2="54.9238" y2="16.975" gradientUnits="userSpaceOnUse">
<stop stop-color="#9D6AFB"/>
<stop offset="1" stop-color="#382EFB"/>
</linearGradient>
<linearGradient id="paint5_linear_1802_5283" x1="-53.3471" y1="17.1275" x2="54.8393" y2="17.1275" gradientUnits="userSpaceOnUse">
<stop stop-color="#9D6AFB"/>
<stop offset="1" stop-color="#382EFB"/>
</linearGradient>
<linearGradient id="paint6_linear_1802_5283" x1="64.8208" y1="17.0349" x2="177.981" y2="17.0349" gradientUnits="userSpaceOnUse">
<stop stop-color="#9D6AFB"/>
<stop offset="1" stop-color="#382EFB"/>
</linearGradient>
<linearGradient id="paint7_linear_1802_5283" x1="85.6064" y1="22.5276" x2="93.5716" y2="22.5276" gradientUnits="userSpaceOnUse">
<stop stop-color="#9D6AFB"/>
<stop offset="1" stop-color="#382EFB"/>
</linearGradient>
</defs>
</svg>
