<svg width="122" height="27" viewBox="0 0 122 27" fill="none" xmlns="http://www.w3.org/2000/svg">
<path d="M13.1331 21.2884V25.428H0V22.1655L5.68409 15.8428H0.201738V11.7032H12.8561V14.9657L7.1715 21.2884H13.1331ZM28.933 18.5539C28.933 18.6376 28.909 19.0808 28.861 19.8834H19.2965C19.4836 20.3852 19.8398 20.8065 20.3041 21.0753C20.8434 21.3684 21.4519 21.5113 22.0657 21.4891C22.5823 21.5024 23.0973 21.4259 23.5875 21.2629C24.072 21.0699 24.5255 20.8072 24.9337 20.4831L27.9025 23.4689C26.5576 24.941 24.5531 25.677 21.8891 25.677C20.3789 25.7092 18.8813 25.396 17.5114 24.7614C16.3159 24.2057 15.3037 23.3223 14.5927 22.2144C13.9199 21.1082 13.5631 19.8396 13.561 18.5458C13.5588 17.252 13.9115 15.9822 14.5807 14.8738C15.2617 13.7934 16.2279 12.9211 17.3734 12.3524C18.5884 11.7717 19.9166 11.4643 21.2639 11.4518C22.6112 11.4394 23.9447 11.7224 25.1703 12.2806C26.2985 12.8144 27.2499 13.6589 27.9123 14.7145C28.6135 15.8688 28.9669 17.1999 28.9303 18.549L28.933 18.5539ZM21.4087 15.3175C20.881 15.2977 20.3635 15.4666 19.9497 15.7938C19.546 16.1428 19.2788 16.6227 19.1951 17.1488H23.6229C23.5326 16.6284 23.2658 16.1547 22.8672 15.8069C22.4567 15.4723 21.9385 15.2983 21.4087 15.3175ZM61.211 11.453C61.961 11.4192 62.71 11.5374 63.4129 11.8005C64.1158 12.0636 64.7578 12.4661 65.3003 12.9837C66.3315 14.0041 66.8471 15.5431 66.8471 17.6007V25.4307H61.1625V18.58C61.1625 17.0075 60.6005 16.2212 59.4766 16.2212C59.1855 16.2111 58.8958 16.2655 58.6283 16.3805C58.3608 16.4955 58.1222 16.6682 57.9298 16.8862C57.4853 17.4904 57.2752 18.2346 57.3382 18.9813V25.4286H51.6557V11.7043H57.0645V13.0593C57.5918 12.5303 58.2265 12.1198 58.9259 11.8554C59.6581 11.5827 60.4343 11.4465 61.2159 11.4536L61.211 11.453ZM68.8841 6.81103H74.5687V25.428H68.8852L68.8841 6.81103ZM82.8225 11.453C85.2379 11.453 87.0828 11.9924 88.3572 13.0712C89.6316 14.1501 90.2688 15.8103 90.2688 18.052V25.428H84.9855V23.6217C84.3312 24.9934 83.0312 25.6792 81.0854 25.6792C80.1272 25.707 79.1756 25.5136 78.3047 25.1143C77.5969 24.7913 76.9994 24.2688 76.5859 23.6111C76.1724 22.9535 75.9609 22.1896 75.9776 21.4135C75.9467 20.8084 76.0743 20.2056 76.3479 19.6646C76.6214 19.1235 77.0314 18.6628 77.5376 18.3277C78.5775 17.6248 80.154 17.2734 82.2669 17.2734H84.5569C84.3723 16.2029 83.5088 15.6677 81.9665 15.6677C81.3269 15.6702 80.6912 15.7669 80.08 15.9548C79.4933 16.1221 78.9399 16.3892 78.4443 16.7443L76.633 13.0055C77.5199 12.4803 78.4829 12.0951 79.4879 11.8636C80.578 11.5909 81.6975 11.4522 82.8214 11.4503L82.8225 11.453ZM82.7974 22.2672C83.1824 22.2718 83.5594 22.1579 83.877 21.9409C84.2128 21.7003 84.4602 21.3565 84.5815 20.9622V20.0084H83.1704C82.013 20.0084 81.4344 20.3931 81.4344 21.1623C81.4316 21.3128 81.463 21.462 81.5261 21.5987C81.5893 21.7354 81.6826 21.8561 81.7991 21.9518C82.0815 22.1748 82.4361 22.2868 82.7958 22.2666L82.7974 22.2672ZM101.49 11.453C102.659 11.4428 103.809 11.7415 104.824 12.3187C105.847 12.9042 106.684 13.7652 107.239 14.8031C107.827 15.969 108.132 17.2557 108.132 18.5604C108.132 19.8652 107.827 21.1519 107.239 22.3178C106.687 23.3607 105.849 24.2263 104.824 24.8141C103.809 25.3913 102.659 25.69 101.49 25.6798C100.799 25.7356 100.103 25.6412 99.4514 25.4029C98.7998 25.1647 98.2078 24.7883 97.7162 24.2997V25.4286H92.3075V6.81103H97.9916V12.6319C98.4676 12.2145 99.0218 11.8954 99.6223 11.6928C100.223 11.4903 100.857 11.4084 101.49 11.452L101.49 11.453ZM100.132 21.2661C100.437 21.2738 100.74 21.2134 101.018 21.0892C101.297 20.965 101.544 20.7802 101.742 20.5484C102.191 19.9834 102.414 19.2729 102.37 18.5534C102.416 17.8376 102.192 17.1308 101.742 16.5714C101.536 16.3498 101.287 16.173 101.01 16.052C100.733 15.9311 100.434 15.8686 100.131 15.8686C99.8288 15.8686 99.5296 15.9311 99.2524 16.052C98.9753 16.173 98.7263 16.3498 98.521 16.5714C98.0708 17.1307 97.8464 17.8376 97.8918 18.5534C97.8476 19.2729 98.0715 19.9834 98.5204 20.5484C98.7183 20.7804 98.9656 20.9652 99.2444 21.0894C99.5232 21.2136 99.8264 21.274 100.132 21.2661ZM114.874 25.6819C113.707 25.6825 112.543 25.5561 111.403 25.3051C110.437 25.1172 109.504 24.7873 108.636 24.3264L110.196 20.5875C110.901 20.9996 111.664 21.3041 112.46 21.4907C113.29 21.7029 114.144 21.8124 115.001 21.817C115.464 21.8432 115.928 21.7879 116.372 21.6538C116.481 21.6242 116.577 21.5608 116.647 21.4728C116.717 21.3848 116.757 21.2768 116.762 21.1645C116.762 20.947 116.598 20.7965 116.271 20.7131C115.744 20.5968 115.211 20.5129 114.674 20.4619C113.707 20.3567 112.749 20.1848 111.806 19.9475C111.015 19.7368 110.298 19.3151 109.73 18.7279C109.416 18.3782 109.176 17.9696 109.022 17.526C108.869 17.0824 108.806 16.6127 108.837 16.1445C108.829 15.2822 109.112 14.4423 109.642 13.7607C110.273 12.9908 111.104 12.4091 112.044 12.0795C113.273 11.6335 114.574 11.4209 115.881 11.4525C116.907 11.4507 117.931 11.5469 118.938 11.7396C119.825 11.896 120.686 12.1801 121.491 12.583L119.931 16.3218C118.716 15.6502 117.346 15.304 115.957 15.3169C114.716 15.3169 114.095 15.5344 114.095 15.9694C114.095 16.1869 114.263 16.3417 114.599 16.4338C115.119 16.5577 115.648 16.6456 116.18 16.697C117.144 16.8008 118.099 16.9769 119.036 17.2239C119.821 17.4441 120.533 17.8684 121.099 18.4533C121.413 18.803 121.654 19.2116 121.807 19.6552C121.96 20.0988 122.023 20.5685 121.992 21.0367C121.995 21.8828 121.711 22.7051 121.187 23.3705C120.553 24.1425 119.717 24.7244 118.772 25.0517C117.522 25.4997 116.2 25.7126 114.873 25.6798L114.874 25.6819Z" fill="white"/>
<path d="M39.8917 27C44.6877 27 48.5757 23.1226 48.5757 18.3397C48.5757 13.5567 44.6877 9.67933 39.8917 9.67933C35.0957 9.67933 31.2077 13.5567 31.2077 18.3397C31.2077 23.1226 35.0957 27 39.8917 27Z" fill="white"/>
<path d="M48.6635 9.67987C51.3438 9.67987 53.5166 7.51296 53.5166 4.83994C53.5166 2.16691 51.3438 0 48.6635 0C45.9831 0 43.8103 2.16691 43.8103 4.83994C43.8103 7.51296 45.9831 9.67987 48.6635 9.67987Z" fill="white"/>
</svg>
