<svg xmlns="http://www.w3.org/2000/svg" xmlns:xlink="http://www.w3.org/1999/xlink" x="0px" y="0px" width="17px" height="17px" viewBox="0 0 17 17" enable-background="new 0 0 17 17" xml:space="preserve">
<g>
	<path d="M15.422,16.707c-0.341,0-0.673-0.141-0.904-0.381l-3.444-3.434c-1.174,0.813-2.58,1.245-4.006,1.245
		C3.163,14.137,0,10.974,0,7.068S3.163,0,7.068,0s7.068,3.163,7.068,7.068c0,1.426-0.432,2.832-1.245,4.006l3.444,3.444
		c0.231,0.231,0.372,0.563,0.372,0.904C16.707,16.125,16.125,16.707,15.422,16.707z M7.068,2.57c-2.48,0-4.498,2.018-4.498,4.498
		s2.018,4.498,4.498,4.498s4.498-2.018,4.498-4.498S9.548,2.57,7.068,2.57z"></path>
</g>
</svg>