<svg fill="none" viewBox="0 0 60 60" xmlns="http://www.w3.org/2000/svg"><g clip-rule="evenodd" fill="#000" fill-rule="evenodd"><path d="M42.5 32.5a5 5 0 1 0 0 9.998 5 5 0 0 0 0-9.998zm-7.501 4.999a7.501 7.501 0 1 1 15.002 0 7.501 7.501 0 0 1-15.002 0zM37.5 50a5 5 0 0 0-5 5v3.75H30V55a7.5 7.5 0 0 1 7.5-7.502h10A7.501 7.501 0 0 1 55.002 55v3.75h-2.502V55a5 5 0 0 0-5-4.999zM6.25 51.248h20v2.502h-20z"/><path d="M9.999 7.498H47.5V27.5h-2.502V10H12.5v42.5H9.999z"/><path d="M26.25 18.75H17.5v-2.502h8.75zM40 18.75h-8.75v-2.502H40zM26.25 27.5H17.5v-2.502h8.75zM26.25 36.25H17.5v-2.502h8.75zM16.249 1.248H41.25V8.75h-2.502v-5H18.75v5h-2.502zM26.25 45H17.5v-2.502h8.75zM40 27.5h-8.75v-2.502H40z"/></g></svg>