<svg fill="none" viewBox="0 0 60 60" xmlns="http://www.w3.org/2000/svg"><clipPath id="a"><path d="M0 0h60v60H0z"/></clipPath><g clip-path="url(#a)" clip-rule="evenodd" fill="#000" fill-rule="evenodd"><path d="M10 6.251a3.75 3.75 0 1 0 0 7.499 3.75 3.75 0 0 0 0-7.499zm-6.25 3.75a6.25 6.25 0 1 1 12.502 0A6.25 6.25 0 0 1 3.75 10zM5.625 21.251a3.124 3.124 0 0 0-3.124 3.124v4.375H0v-4.375a5.626 5.626 0 0 1 5.625-5.626h8.75a5.626 5.626 0 0 1 5.626 5.626v4.375H17.5v-4.375a3.124 3.124 0 0 0-3.124-3.124zM50 6.251a3.75 3.75 0 1 0 0 7.498 3.75 3.75 0 0 0 0-7.498zm-6.25 3.75a6.25 6.25 0 1 1 12.501 0 6.25 6.25 0 0 1-12.501 0zM45.625 21.251a3.124 3.124 0 0 0-3.124 3.124v4.375H40v-4.375a5.626 5.626 0 0 1 5.626-5.626h8.75a5.626 5.626 0 0 1 5.626 5.626v4.375H57.5v-4.375a3.124 3.124 0 0 0-3.124-3.124zM30 36.251a3.75 3.75 0 1 0 0 7.498 3.75 3.75 0 0 0 0-7.498zm-6.25 3.75A6.25 6.25 0 1 1 36.25 40a6.25 6.25 0 0 1-12.501 0zM25.625 51.252a3.124 3.124 0 0 0-3.124 3.124v4.375H20v-4.375a5.626 5.626 0 0 1 5.627-5.626h8.75A5.626 5.626 0 0 1 40 54.376v4.375H37.5v-4.375a3.124 3.124 0 0 0-3.124-3.124zM19.994 4.468a26.345 26.345 0 0 1 20.046.017l-.954 2.313a23.843 23.843 0 0 0-18.142-.015zM55.923 32.951a26.269 26.269 0 0 1-12.354 18.277l-1.293-2.142A23.766 23.766 0 0 0 53.453 32.55zM6.548 32.55a23.765 23.765 0 0 0 11.177 16.536l-1.293 2.142A26.267 26.267 0 0 1 4.078 32.95z"/></g></svg>