<svg width="30" height="30" viewBox="0 0 48 48" fill="none" xmlns="http://www.w3.org/2000/svg"><path fill-rule="evenodd" clip-rule="evenodd" d="M37.323 18.1522C37.3346 18.452 37.3385 18.7517 37.3385 19.0515C37.3385 28.141 30.9444 38.6343 19.252 38.6343C15.6603 38.6343 12.3205 37.4895 9.50659 35.5408C10.004 35.5953 10.5092 35.6363 11.0221 35.6363C14.0001 35.6363 16.743 34.5322 18.9187 32.6789C16.137 32.638 13.7882 30.6348 12.9782 27.9093C13.367 27.9911 13.7675 28.0321 14.1771 28.0321C14.7546 28.0321 15.3153 27.9504 15.8528 27.7869C12.942 27.16 10.7495 24.3801 10.7495 21.0414C10.7495 21.0005 10.7495 20.9868 10.7495 20.9595C11.6074 21.4638 12.5893 21.777 13.6319 21.8179C11.9239 20.5778 10.8011 18.4656 10.8011 16.0808C10.8011 14.8271 11.1138 13.6415 11.6642 12.6194C14.7985 16.7894 19.4846 19.5285 24.7675 19.8147C24.659 19.3105 24.6034 18.7792 24.6034 18.2477C24.6034 14.4456 27.4496 11.3658 30.9612 11.3658C32.7894 11.3658 34.4405 12.1972 35.5994 13.5327C37.0503 13.2329 38.4095 12.6605 39.6395 11.8702C39.1627 13.4782 38.1563 14.827 36.841 15.6719C38.1278 15.5084 39.3553 15.1407 40.4935 14.5956C39.6395 15.972 38.5646 17.1847 37.323 18.1522Z" fill="white"></path></svg>