<svg width="30" height="30" viewBox="0 0 48 48" fill="none" xmlns="http://www.w3.org/2000/svg"><path d="M24.0006 6.54547C19.2604 6.54547 18.6655 6.5662 16.8038 6.65093C14.9456 6.73602 13.6773 7.0302 12.5675 7.46183C11.4196 7.90765 10.4458 8.50402 9.47562 9.47456C8.50474 10.4447 7.9084 11.4186 7.46114 12.5662C7.02842 13.6764 6.73389 14.9451 6.65025 16.8026C6.56698 18.6644 6.54517 19.2597 6.54517 24C6.54517 28.7404 6.56626 29.3335 6.65062 31.1953C6.73607 33.0535 7.03024 34.3218 7.4615 35.4317C7.90767 36.5797 8.50402 37.5535 9.47453 38.5237C10.4443 39.4946 11.4181 40.0924 12.5653 40.5382C13.6759 40.9698 14.9445 41.264 16.8023 41.3491C18.6641 41.4338 19.2586 41.4546 23.9985 41.4546C28.739 41.4546 29.3321 41.4338 31.1939 41.3491C33.052 41.264 34.3218 40.9698 35.4323 40.5382C36.5799 40.0924 37.5522 39.4946 38.522 38.5237C39.4929 37.5535 40.0892 36.5797 40.5365 35.432C40.9656 34.3218 41.2601 33.0531 41.3474 31.1957C41.431 29.3338 41.4528 28.7404 41.4528 24C41.4528 19.2597 41.431 18.6647 41.3474 16.8029C41.2601 14.9447 40.9656 13.6764 40.5365 12.5666C40.0892 11.4186 39.4929 10.4447 38.522 9.47456C37.5511 8.50365 36.5803 7.90729 35.4312 7.46183C34.3185 7.0302 33.0495 6.73602 31.1913 6.65093C29.3296 6.5662 28.7369 6.54547 23.9952 6.54547H24.0006ZM22.4349 9.69093C22.8996 9.6902 23.4181 9.69093 24.0006 9.69093C28.6609 9.69093 29.2132 9.70765 31.0535 9.79129C32.7553 9.86911 33.6789 10.1535 34.2941 10.3924C35.1087 10.7087 35.6894 11.0869 36.2999 11.6978C36.9108 12.3087 37.289 12.8906 37.606 13.7051C37.8449 14.3197 38.1297 15.2433 38.2071 16.9451C38.2907 18.7851 38.3089 19.3378 38.3089 23.996C38.3089 28.6542 38.2907 29.2069 38.2071 31.0469C38.1293 32.7487 37.8449 33.6724 37.606 34.2869C37.2897 35.1015 36.9108 35.6815 36.2999 36.292C35.689 36.9029 35.109 37.2811 34.2941 37.5975C33.6796 37.8375 32.7553 38.1211 31.0535 38.1989C29.2136 38.2826 28.6609 38.3007 24.0006 38.3007C19.3401 38.3007 18.7877 38.2826 16.9478 38.1989C15.246 38.1204 14.3224 37.836 13.7068 37.5971C12.8922 37.2807 12.3104 36.9026 11.6996 36.2917C11.0887 35.6807 10.7105 35.1004 10.3934 34.2855C10.1545 33.6709 9.86979 32.7473 9.79234 31.0455C9.70871 29.2055 9.69198 28.6527 9.69198 23.9917C9.69198 19.3306 9.70871 18.7807 9.79234 16.9407C9.87016 15.2389 10.1545 14.3153 10.3934 13.7C10.7098 12.8855 11.0887 12.3037 11.6996 11.6927C12.3104 11.0818 12.8922 10.7037 13.7068 10.3866C14.322 10.1466 15.246 9.86293 16.9478 9.78474C18.5579 9.71202 19.1819 9.6902 22.4349 9.68656V9.69093ZM33.3174 12.5891C32.1611 12.5891 31.223 13.5262 31.223 14.6829C31.223 15.8393 32.1611 16.7775 33.3174 16.7775C34.4738 16.7775 35.4119 15.8393 35.4119 14.6829C35.4119 13.5266 34.4738 12.5884 33.3174 12.5884V12.5891ZM24.0006 15.0364C19.0506 15.0364 15.0373 19.0498 15.0373 24C15.0373 28.9502 19.0506 32.9618 24.0006 32.9618C28.9507 32.9618 32.9625 28.9502 32.9625 24C32.9625 19.0498 28.9503 15.0364 24.0003 15.0364H24.0006ZM24.0006 18.1818C27.2136 18.1818 29.8186 20.7866 29.8186 24C29.8186 27.2131 27.2136 29.8182 24.0006 29.8182C20.7873 29.8182 18.1826 27.2131 18.1826 24C18.1826 20.7866 20.7873 18.1818 24.0006 18.1818V18.1818Z" fill="white"></path></svg>