<svg fill="none" viewBox="0 0 60 60" xmlns="http://www.w3.org/2000/svg"><g clip-rule="evenodd" fill="#000" fill-rule="evenodd"><path d="M2.499 4.999h32.5V7.5H5.002V47.5H36.25V50H2.499z"/><path d="M25 13.75H8.75V11.25H25zM25 20H8.75V17.5H25zM25 26.25H8.75v-2.5H25zM8.749 29.999H25V43.75H8.748zM11.25 32.5v8.748H22.5V32.5zM46.25 5a4.999 4.999 0 1 0 0 9.999 4.999 4.999 0 0 0 0-9.998zm-7.501 5a7.501 7.501 0 1 1 15.002 0 7.501 7.501 0 0 1-15.002 0zM38.75 22.485c-.489 0-.933.286-1.131.713l-.004.007-5.75 12.188-2.262-1.067L35.35 22.14a3.753 3.753 0 0 1 3.399-2.158h15a3.758 3.758 0 0 1 3.75 3.751v15H55v-15c0-.684-.565-1.249-1.25-1.249z"/><path d="M49.999 57.5V26.25H52.5V57.5zM39.999 57.5V26.25H42.5V57.5z"/><path d="M41.25 39.999h10V42.5h-10z"/></g></svg>