<svg width="32" height="32" viewBox="0 0 32 32" fill="none" xmlns="http://www.w3.org/2000/svg">
<path d="M16.0342 0C7.16497 0 0 7.32691 0 16.3966C0 23.6524 4.59114 29.8056 10.9561 31.9752C11.7561 32.1175 12.0691 31.6195 12.0691 31.1927C12.0691 30.8015 12.0344 29.521 12.0344 28.1339C7.99972 28.8808 6.95628 27.138 6.64325 26.2133C6.46934 25.7509 5.66937 24.2926 5.00852 23.9014C4.45202 23.5813 3.65205 22.8344 4.97374 22.7988C6.22587 22.7632 7.13019 23.9725 7.44322 24.4705C8.90404 26.9602 11.1996 26.2488 12.1039 25.822C12.243 24.755 12.6604 24.0436 13.1126 23.6168C9.5301 23.19 5.80849 21.8029 5.80849 15.5074C5.80849 13.7291 6.43456 12.2352 7.44322 11.0971C7.26931 10.6703 6.71281 8.99858 7.61712 6.75783C7.61712 6.75783 8.9736 6.33102 12.0344 8.4295C13.3213 8.07383 14.6777 7.86042 16.0342 7.86042C17.3907 7.86042 18.7472 8.03826 20.0341 8.4295C23.0948 6.29545 24.4513 6.75783 24.4513 6.75783C25.3209 8.99858 24.7644 10.7058 24.6252 11.0971C25.6339 12.2352 26.26 13.6935 26.26 15.5074C26.26 21.8029 22.5036 23.19 18.9211 23.6168C19.5124 24.1148 19.9993 25.1107 19.9993 26.6401C19.9993 28.8453 19.9645 30.5881 19.9645 31.1572C19.9645 31.584 20.2775 32.1175 21.0775 31.9396C27.4077 29.77 31.9989 23.6168 31.9989 16.3611C32.1032 7.32691 24.9035 0 16.0342 0Z" fill="white"/>
</svg>
