<svg width="24" height="24" viewBox="0 0 24 24" fill="none" xmlns="http://www.w3.org/2000/svg">
<path d="M14.9997 9.75H8.99994C8.60228 9.7505 8.22106 9.90869 7.93987 10.1899C7.65868 10.4711 7.5005 10.8523 7.5 11.25V21C7.5005 21.3977 7.65868 21.7789 7.93987 22.0601C8.22106 22.3413 8.60228 22.4995 8.99994 22.5H14.9997C15.3973 22.4995 15.7786 22.3413 16.0598 22.0601C16.3409 21.7789 16.4991 21.3977 16.4996 21V11.25C16.4991 10.8523 16.3409 10.4711 16.0598 10.1899C15.7786 9.90869 15.3973 9.7505 14.9997 9.75ZM14.9997 11.25V13.5H8.99994V11.25H14.9997ZM14.9997 15V17.25H8.99994V15H14.9997ZM8.99994 21V18.75H14.9997V21H8.99994Z" fill="white"/>
<path d="M19.4316 7.59751C19.4138 7.59422 19.3974 7.58566 19.3844 7.57293C19.3715 7.5602 19.3627 7.54389 19.3591 7.52611C19.0652 6.06533 18.3432 4.7251 17.2849 3.67617C16.2267 2.62724 14.8802 1.91709 13.4169 1.63621C11.4727 1.26061 9.45877 1.66901 7.81443 2.77235C6.17009 3.87569 5.02868 5.58447 4.63911 7.52603C4.6356 7.54385 4.62684 7.56021 4.61396 7.573C4.60107 7.58579 4.58465 7.59443 4.56681 7.59781C3.19249 7.86131 1.96569 8.62753 1.12588 9.7469C0.286061 10.8663 -0.10649 12.2584 0.0248477 13.6517C0.156186 15.0449 0.801987 16.3392 1.83619 17.2819C2.8704 18.2246 4.21877 18.748 5.61812 18.75H5.9997V17.25H5.62127C5.02947 17.2484 4.44493 17.1196 3.90718 16.8725C3.36943 16.6255 2.89102 16.2658 2.5043 15.8178C2.11758 15.3698 1.83157 14.844 1.66562 14.2759C1.49968 13.7078 1.45766 13.1107 1.54241 12.525C1.6936 11.6465 2.11568 10.8372 2.74957 10.2104C3.38347 9.58366 4.19745 9.17077 5.07761 9.02956L5.84003 8.89186C5.85938 8.88829 5.8772 8.87897 5.89118 8.86512C5.90516 8.85128 5.91465 8.83354 5.9184 8.81423L6.0534 8.11291C6.27701 6.84057 6.89184 5.66966 7.81224 4.76322C8.73264 3.85679 9.9128 3.25997 11.1884 3.05588C11.8999 2.95825 12.6233 2.98988 13.3236 3.14926C14.4853 3.4322 15.5397 4.04689 16.3583 4.91845C17.1769 5.79 17.7243 6.88081 17.934 8.05801L18.0796 8.81423C18.0833 8.83357 18.0928 8.85134 18.1067 8.86519C18.1207 8.87905 18.1386 8.88834 18.158 8.89186L18.9511 9.03541C19.8261 9.17357 20.6377 9.57639 21.2769 10.1897C21.857 10.7651 22.2534 11.4998 22.4157 12.3006C22.5781 13.1015 22.4992 13.9325 22.189 14.6885C21.8788 15.4445 21.3513 16.0915 20.6732 16.5474C19.9951 17.0034 19.197 17.2479 18.3799 17.25H17.9992V18.75H18.3799C19.7795 18.7485 21.1284 18.2253 22.163 17.2826C23.1976 16.3399 23.8437 15.0454 23.9751 13.6519C24.1066 12.2583 23.7139 10.8659 22.8737 9.74634C22.0336 8.62683 20.8063 7.86068 19.4316 7.59751Z" fill="white"/>
</svg>
