<svg width="32" height="32" viewBox="0 0 32 32" fill="none" xmlns="http://www.w3.org/2000/svg">
<g clip-path="url(#clip0_1868_5146)">
<path d="M32 19.5556V32H25.2632V20.4444C25.2632 17.6 24.0842 15.6444 21.7263 15.6444C19.7053 15.6444 18.6947 16.8889 18.1895 18.1333L17.8526 19.9111V32H11.1158V10.4889H17.8526V13.5111C18.4761 12.3661 19.3893 11.427 20.49 10.799C21.5906 10.171 22.8352 9.87895 24.0842 9.95556C28.6316 9.95556 32 12.9778 32 19.5556ZM3.87368 0C1.51579 0 0 1.77778 0 3.73333C0 5.86667 1.51579 7.46667 3.87368 7.46667C6.23158 7.46667 7.74737 5.68889 7.74737 3.73333C7.74737 1.6 6.23158 0 3.87368 0ZM0.505263 32H7.24211V10.4889H0.505263V32Z" fill="white"/>
</g>
<defs>
<clipPath id="clip0_1868_5146">
<rect width="32" height="32" fill="white"/>
</clipPath>
</defs>
</svg>
