<svg width="32" height="32" viewBox="0 0 32 32" fill="none" xmlns="http://www.w3.org/2000/svg">
<path d="M15.4915 1.47926V2.96456H12.8889V3.9306H15.4915V6.88912H16.5089V3.9306H19.1765V2.96456H16.5089V0H15.4915V1.47926Z" fill="white"/>
<path d="M6.98526 5.24534V7.40083H3.0459V8.75329H6.98526V13.1307H8.44626V8.75329H12.4448V7.40083H8.44626V3.08984H6.98526V5.24534Z" fill="white"/>
<path d="M23.4941 5.24534V7.40083H19.5547V8.81971H23.4941V13.1307H25.0142V8.81971H28.9536V7.40083H25.0142V3.08984H23.4941V5.24534Z" fill="white"/>
<path d="M15.1122 12.5889V15.0041H10.7292V16.8033H15.1122V21.6336H16.8867V16.8033H21.2697V15.0041H16.8867V10.1738H15.1122V12.5889Z" fill="white"/>
<path d="M28.0014 13.8063V15.3218H25.3337V16.5475H28.0014V19.5724H29.3323V16.5475H31.9999V15.3218H29.3323V12.2969H28.0014V13.8063Z" fill="white"/>
<path d="M2.60258 13.9393V15.3884H0V16.4148H2.60258V19.3129H3.61996V16.4148L6.2876 16.3182V15.3884H3.61996V12.4902H2.60258V13.9393Z" fill="white"/>
<path d="M6.98526 20.7629V22.9184H3.0459V24.3373H6.98526V28.6483H8.50541V24.3373H12.4448V22.9184H8.50541V18.6074H6.98526V20.7629Z" fill="white"/>
<path d="M23.4941 20.7629V22.9184H19.5547V24.2709H23.4941V28.6483H25.0142V24.2709H28.9536V22.9184H25.0142V18.6074H23.4941V20.7629Z" fill="white"/>
<path d="M15.3674 26.2401V27.7495H12.6997V28.9752H15.3674V32.0001H16.6982V28.9752H19.3659V27.7495H16.6982V24.7246H15.3674V26.2401Z" fill="white"/>
</svg>
