<svg width="234" height="53" viewBox="0 0 234 53" fill="none" xmlns="http://www.w3.org/2000/svg">
<path d="M0.390625 35.3492H6.98063V11.3992H7.23063L24.1906 35.3492H30.8306V0.13916H24.3406V24.3792H24.0906L7.08062 0.13916H0.390625V35.3492Z" fill="white"/>
<path d="M55.0542 0.13916H46.4542L33.8242 35.3492H41.1742L50.5242 7.42916H51.0342L61.0442 35.3492H68.8942L55.0542 0.13916Z" fill="white"/>
<path d="M71.8887 0.13916V6.72916H99.8587V0.13916H71.8887ZM82.5087 11.1992V35.3492H89.2987V11.1992H82.5087Z" fill="white"/>
<path d="M125.501 22.6192H132.391V0.13916H125.501V22.6192ZM117.651 35.8492C117.651 35.8492 117.701 30.2692 117.701 29.2092C112.871 29.2092 109.551 26.6492 109.551 21.6192V0.13916H102.861V22.6192C102.861 31.6292 109.501 35.8492 117.651 35.8492Z" fill="white"/>
<path d="M135.389 35.3492H142.179V22.9192H150.079L156.669 35.3492H164.319L156.119 21.7692C160.389 19.6492 162.299 15.0292 162.299 11.2492C162.299 4.15916 157.879 0.13916 149.929 0.13916H135.389V6.06916H149.169C153.699 6.06916 155.919 7.92916 155.919 11.3992C155.919 15.1292 153.299 17.2892 149.229 17.2892H135.389V35.3492Z" fill="white"/>
<path d="M193.376 6.72916V0.13916H167.316V6.72916H193.376ZM193.376 20.8592V14.6192H167.316V20.8592H193.376ZM167.316 35.3492H193.376V28.7092H167.316V35.3492Z" fill="white"/>
<path d="M193.376 6.72916V0.13916H167.316V6.72916H193.376Z" fill="#F58634"/>
<path d="M167.366 14.6691H193.326V20.8091H167.366V14.6691Z" fill="white" stroke="white" stroke-width="0.1"/>
<path d="M167.316 35.349H193.376V28.709H167.316V35.349Z" fill="#00A859"/>
<path d="M196.377 35.3492L206.137 17.5892L197.377 0.13916H214.987L222.027 14.1192L229.677 0.13916H233.607L223.847 17.8392L232.597 35.3492H214.987L207.997 21.3092L200.247 35.3492H196.377Z" fill="white"/>
<path d="M52.2741 45.354H5.39062V46.354H52.2741V45.354Z" fill="white"/>
<path d="M228.608 45.354H181.725V46.354H228.608V45.354Z" fill="white"/>
<path d="M55.2734 49.7211V41.8511H57.6834C58.1168 41.8511 58.5134 41.8911 58.8734 41.9711C59.2334 42.0511 59.5401 42.1811 59.7934 42.3611C60.0468 42.5411 60.2434 42.7777 60.3834 43.0711C60.5234 43.3711 60.5934 43.7344 60.5934 44.1611C60.5934 44.5811 60.5234 44.9411 60.3834 45.2411C60.2434 45.5477 60.0434 45.8011 59.7834 46.0011C59.5301 46.2011 59.2234 46.3511 58.8634 46.4511C58.5101 46.5511 58.1168 46.6011 57.6834 46.6011H56.2734V49.7211H55.2734ZM56.2734 45.7811H57.5634C58.2501 45.7811 58.7601 45.6511 59.0934 45.3911C59.4268 45.1311 59.5934 44.7211 59.5934 44.1611C59.5934 43.5944 59.4268 43.2011 59.0934 42.9811C58.7534 42.7611 58.2434 42.6511 57.5634 42.6511H56.2734V45.7811ZM65.1834 42.6511V45.5811H66.5034C67.1168 45.5811 67.5868 45.4544 67.9134 45.2011C68.2468 44.9477 68.4134 44.5677 68.4134 44.0611C68.4134 43.5411 68.2468 43.1744 67.9134 42.9611C67.5868 42.7544 67.1168 42.6511 66.5034 42.6511H65.1834ZM69.6334 49.7211H68.5034L66.6134 46.4011H65.1834V49.7211H64.1834V41.8511H66.6434C67.0434 41.8511 67.4134 41.8877 67.7534 41.9611C68.0934 42.0411 68.3868 42.1677 68.6334 42.3411C68.8734 42.5144 69.0634 42.7411 69.2034 43.0211C69.3368 43.3011 69.4034 43.6477 69.4034 44.0611C69.4034 44.6744 69.2434 45.1644 68.9234 45.5311C68.6034 45.8977 68.1768 46.1511 67.6434 46.2911L69.6334 49.7211ZM73.1534 49.7211V41.8511H77.6934V42.6911H74.1534V45.1611H77.1434V46.0111H74.1534V48.8711H77.8134V49.7211H73.1534ZM81.4834 49.7211V41.8511H82.6534L84.1834 46.0711L84.7534 47.6811H84.8034L85.3534 46.0711L86.8734 41.8511H88.0434V49.7211H87.0934V45.3911C87.0934 45.0377 87.1101 44.6477 87.1434 44.2211C87.1701 43.8011 87.2001 43.4144 87.2334 43.0611H87.1834L86.5434 44.8111L85.0334 48.9311H84.4734L82.9434 44.8111L82.3234 43.0611H82.2734C82.3001 43.4144 82.3268 43.8011 82.3534 44.2211C82.3868 44.6477 82.4034 45.0377 82.4034 45.3911V49.7211H81.4834ZM92.2034 49.7211V41.8511H93.2034V49.7211H92.2034ZM97.3234 46.4711V41.8511H98.3234V46.4911C98.3234 46.9644 98.3701 47.3611 98.4634 47.6811C98.5634 48.0011 98.6934 48.2577 98.8534 48.4511C99.0201 48.6444 99.2134 48.7811 99.4334 48.8611C99.6601 48.9477 99.9001 48.9911 100.153 48.9911C100.42 48.9911 100.667 48.9477 100.893 48.8611C101.113 48.7811 101.307 48.6444 101.473 48.4511C101.647 48.2577 101.78 48.0011 101.873 47.6811C101.967 47.3611 102.013 46.9644 102.013 46.4911V41.8511H102.973V46.4711C102.973 47.1044 102.903 47.6344 102.763 48.0611C102.617 48.4944 102.417 48.8444 102.163 49.1111C101.917 49.3844 101.62 49.5777 101.273 49.6911C100.927 49.8044 100.553 49.8611 100.153 49.8611C99.7534 49.8611 99.3801 49.8044 99.0334 49.6911C98.6868 49.5777 98.3868 49.3844 98.1334 49.1111C97.8801 48.8444 97.6834 48.4944 97.5434 48.0611C97.3968 47.6344 97.3234 47.1044 97.3234 46.4711ZM107.103 49.7211V41.8511H108.273L109.803 46.0711L110.373 47.6811H110.423L110.973 46.0711L112.493 41.8511H113.663V49.7211H112.713V45.3911C112.713 45.0377 112.73 44.6477 112.763 44.2211C112.79 43.8011 112.82 43.4144 112.853 43.0611H112.803L112.163 44.8111L110.653 48.9311H110.093L108.563 44.8111L107.943 43.0611H107.893C107.92 43.4144 107.947 43.8011 107.973 44.2211C108.007 44.6477 108.023 45.0377 108.023 45.3911V49.7211H107.103ZM123.883 49.7211V42.6911H121.503V41.8511H127.263V42.6911H124.893V49.7211H123.883ZM130.683 49.7211V41.8511H135.213V42.6911H131.673V45.1611H134.663V46.0111H131.673V48.8711H135.333V49.7211H130.683ZM138.103 49.7211L140.393 45.6511L138.263 41.8511H139.363L140.433 43.8611C140.54 44.0477 140.637 44.2277 140.723 44.4011C140.817 44.5744 140.923 44.7744 141.043 45.0011H141.093C141.207 44.7744 141.303 44.5744 141.383 44.4011C141.47 44.2277 141.56 44.0477 141.653 43.8611L142.703 41.8511H143.753L141.613 45.7011L143.903 49.7211H142.793L141.643 47.6011C141.543 47.4077 141.437 47.2077 141.323 47.0011C141.217 46.8011 141.1 46.5811 140.973 46.3411H140.923C140.81 46.5811 140.703 46.8011 140.603 47.0011C140.497 47.2077 140.397 47.4077 140.303 47.6011L139.163 49.7211H138.103ZM148.553 49.7211V42.6911H146.173V41.8511H151.933V42.6911H149.563V49.7211H148.553ZM155.313 46.4711V41.8511H156.313V46.4911C156.313 46.9644 156.36 47.3611 156.453 47.6811C156.553 48.0011 156.683 48.2577 156.843 48.4511C157.01 48.6444 157.207 48.7811 157.433 48.8611C157.653 48.9477 157.893 48.9911 158.153 48.9911C158.413 48.9911 158.657 48.9477 158.883 48.8611C159.103 48.7811 159.3 48.6444 159.473 48.4511C159.64 48.2577 159.77 48.0011 159.863 47.6811C159.963 47.3611 160.013 46.9644 160.013 46.4911V41.8511H160.973V46.4711C160.973 47.1044 160.9 47.6344 160.753 48.0611C160.607 48.4944 160.41 48.8444 160.163 49.1111C159.91 49.3844 159.61 49.5777 159.263 49.6911C158.923 49.8044 158.553 49.8611 158.153 49.8611C157.753 49.8611 157.377 49.8044 157.023 49.6911C156.677 49.5777 156.377 49.3844 156.123 49.1111C155.877 48.8444 155.68 48.4944 155.533 48.0611C155.387 47.6344 155.313 47.1044 155.313 46.4711ZM166.093 42.6511V45.5811H167.413C168.027 45.5811 168.497 45.4544 168.823 45.2011C169.15 44.9477 169.313 44.5677 169.313 44.0611C169.313 43.5411 169.15 43.1744 168.823 42.9611C168.497 42.7544 168.027 42.6511 167.413 42.6511H166.093ZM170.543 49.7211H169.413L167.513 46.4011H166.093V49.7211H165.093V41.8511H167.553C167.953 41.8511 168.323 41.8877 168.663 41.9611C169.003 42.0411 169.297 42.1677 169.543 42.3411C169.783 42.5144 169.973 42.7411 170.113 43.0211C170.247 43.3011 170.313 43.6477 170.313 44.0611C170.313 44.6744 170.153 45.1644 169.833 45.5311C169.513 45.8977 169.087 46.1511 168.553 46.2911L170.543 49.7211ZM174.063 49.7211V41.8511H178.603V42.6911H175.063V45.1611H178.053V46.0111H175.063V48.8711H178.723V49.7211H174.063Z" fill="white"/>
</svg>
