<?xml version="1.0" encoding="UTF-8"?>
<svg id="Layer_1" data-name="Layer 1" xmlns="http://www.w3.org/2000/svg" viewBox="0 0 217.01 89.43">
  <defs>
    <style>
      .cls-1 {
        fill: #00ab58;
      }

      .cls-1, .cls-2, .cls-3 {
        stroke: #000;
        stroke-miterlimit: 10;
        stroke-width: .3px;
      }

      .cls-2 {
        fill: #f6872c;
      }

      .cls-3 {
        fill: #feffff;
      }

      .cls-4 {
        letter-spacing: .62em;
      }

      .cls-5 {
        letter-spacing: .62em;
      }

      .cls-6 {
        letter-spacing: .6em;
      }

      .cls-7 {
        font-family: ArialMT, Arial;
        font-size: 12.13px;
      }
    </style>
  </defs>
  <path d="m39.04,60.09h-3.69v-25.97c0-8.73-7.1-15.83-15.83-15.83s-15.83,7.1-15.83,15.83v25.97H0v-25.97C0,23.36,8.76,14.6,19.52,14.6s19.52,8.76,19.52,19.52v25.97Z"/>
  <path d="m80.38,59.94h-3.69v-25.97c0-8.73-7.1-15.83-15.83-15.83s-15.83,7.1-15.83,15.83h-3.69c0-10.76,8.76-19.52,19.52-19.52s19.52,8.76,19.52,19.52v25.97Z"/>
  <path d="m144.63,60.25h-3.69v-25.97c0-10.76,8.76-19.52,19.52-19.52v3.69c-8.73,0-15.83,7.1-15.83,15.83v25.97Z"/>
  <path d="m119.73,60.86c-10,0-18.14-8.76-18.14-19.52V15.37h3.69v25.97c0,8.73,6.48,15.83,14.45,15.83s14.45-7.1,14.45-15.83V15.37h3.69v25.97c0,10.76-8.14,19.52-18.14,19.52Z"/>
  <path d="m100.67,60.86c-10,0-18.14-8.76-18.14-19.52V0h3.69v41.34c0,8.73,6.48,15.83,14.45,15.83v3.69Z"/>
  <path d="m60.11,60.59c-1.93,0-3.83-.3-5.63-.9-3.6-1.21-6.73-3.55-8.82-6.6-2.1-3.08-2.94-6.71-2.3-9.95.48-2.46,1.8-4.72,3.8-6.54,3.85-3.5,9.02-5.2,14.55-4.79,3.84.29,7.9,1.48,12.06,3.55,1.66.82,3.79,1.97,5.65,3.56l-2.4,2.8c-1.55-1.33-3.43-2.34-4.9-3.06-3.73-1.86-7.32-2.92-10.69-3.17-4.51-.34-8.7,1.03-11.8,3.85-1.41,1.28-2.33,2.84-2.66,4.52-.45,2.28.18,4.89,1.73,7.16,1.63,2.39,4.1,4.23,6.94,5.18,3.16,1.06,6.76.93,10.12-.36,1.95-.75,3.89-1.89,5.75-3.39,2.07-1.67,3.58-3.65,5.21-5.88l2.98,2.17c-1.71,2.36-3.45,4.63-5.88,6.58-2.16,1.74-4.43,3.07-6.74,3.96-2.28.87-4.65,1.31-6.99,1.31Z"/>
  <rect x="84.38" y="14.89" width="11.91" height="3.69"/>
  <g>
    <path class="cls-2" d="m1.23,68.39h68.23c.08,0,.15.07.15.15v1.84c0,.08-.07.15-.15.15H1.23c-.59,0-1.08-.48-1.08-1.08H.15c0-.59.48-1.08,1.08-1.08Z"/>
    <rect class="cls-3" x="69.61" y="68.39" width="69.46" height="2.15"/>
    <path class="cls-1" d="m139.22,68.39h68.57c.59,0,1.08.48,1.08,1.08h0c0,.59-.48,1.08-1.08,1.08h-68.57c-.08,0-.15-.07-.15-.15v-1.84c0-.08.07-.15.15-.15Z"/>
  </g>
  <text class="cls-7" transform="translate(0 85.49)"><tspan class="cls-4" x="0" y="0">COLOUR</tspan><tspan class="cls-6" x="97.05" y="0"> </tspan><tspan class="cls-5" x="107.72" y="0">TEXTURE</tspan></text>
  <g>
    <path d="m188.76,34.42c-1.63,1.14-3.62,1.81-5.76,1.81s-4.32-.73-5.99-1.97h0c-3.88-2.32-13.52-19.74-13.52-19.74h4.79c1.6,2.88,3.47,5.56,5.33,7.92,3.38,4.28,6.73,7.5,8.37,8.99,0,0,0,0,.01.01.31.31.64.61.99.88.02.02.03.02.03.02,1.61,1.24,3.6,2,5.76,2.08Z"/>
    <path d="m177.24,34.42c1.63,1.14,3.62,1.81,5.76,1.81s4.32-.73,5.99-1.97h0c3.88-2.32,13.52-19.74,13.52-19.74h-4.79c-1.6,2.88-3.47,5.56-5.33,7.92-3.38,4.28-6.73,7.5-8.37,8.99,0,0,0,0-.01.01-.31.31-.64.61-.99.88-.02.02-.03.02-.03.02-1.61,1.24-3.6,2-5.76,2.08Z"/>
    <path d="m188.76,34.42s0,0-.02,0c-.1.07-.2.13-.29.2-.1.07-.21.13-.32.2-.1.06-.2.11-.29.17-.02.01-.03.02-.05.03-.1.06-.21.11-.31.16-.1.05-.19.1-.29.14-.16.07-.32.14-.48.21-.07.03-.14.06-.21.08-.1.04-.2.08-.3.11-.09.03-.17.06-.26.08-.06.02-.13.04-.19.06-.03.01-.07.02-.11.03-.09.03-.17.05-.26.07-.16.04-.33.08-.5.11-.1.02-.2.03-.29.05-.26.04-.52.07-.78.09-.26.02-.52.03-.79.03h-.02c-.26,0-.53,0-.79-.03-.26-.02-.52-.05-.78-.09-.11-.02-.22-.03-.32-.06-.15-.03-.3-.06-.44-.1-.1-.02-.2-.05-.3-.08-.03,0-.06-.02-.09-.03-.07-.02-.15-.04-.22-.06-.07-.02-.14-.04-.21-.07-.1-.03-.21-.07-.3-.1-.1-.04-.2-.08-.3-.12-.01,0-.02,0-.03-.01-.11-.04-.22-.09-.33-.14-.12-.05-.23-.1-.34-.16-.11-.05-.22-.11-.33-.17-.11-.06-.22-.12-.33-.19-.11-.06-.22-.13-.32-.2-.1-.07-.21-.14-.31-.21,2.17-.08,4.15-.85,5.76-2.08h0c1.61,1.24,3.59,2,5.76,2.08Z"/>
  </g>
  <g>
    <path d="m188.76,40.34c-1.63-1.14-3.62-1.81-5.76-1.81s-4.32.73-5.99,1.97h0c-3.88,2.32-13.52,19.74-13.52,19.74h4.79c1.6-2.88,3.47-5.56,5.33-7.92,3.38-4.28,6.73-7.5,8.37-8.99,0,0,0,0,.01-.01.31-.31.64-.61.99-.88.02-.02.03-.02.03-.02,1.61-1.24,3.6-2,5.76-2.08Z"/>
    <path d="m177.24,40.34c1.63-1.14,3.62-1.81,5.76-1.81s4.32.73,5.99,1.97h0c3.88,2.32,13.52,19.74,13.52,19.74h-4.79c-1.6-2.88-3.47-5.56-5.33-7.92-3.38-4.28-6.73-7.5-8.37-8.99,0,0,0,0-.01-.01-.31-.31-.64-.61-.99-.88-.02-.02-.03-.02-.03-.02-1.61-1.24-3.6-2-5.76-2.08Z"/>
    <path d="m188.76,40.34s0,0-.02,0c-.1-.07-.2-.13-.29-.2-.1-.07-.21-.13-.32-.2-.1-.06-.2-.11-.29-.17-.02-.01-.03-.02-.05-.03-.1-.06-.21-.11-.31-.16-.1-.05-.19-.1-.29-.14-.16-.07-.32-.14-.48-.21-.07-.03-.14-.06-.21-.08-.1-.04-.2-.08-.3-.11-.09-.03-.17-.06-.26-.08-.06-.02-.13-.04-.19-.06-.03-.01-.07-.02-.11-.03-.09-.03-.17-.05-.26-.07-.16-.04-.33-.08-.5-.11-.1-.02-.2-.03-.29-.05-.26-.04-.52-.07-.78-.09-.26-.02-.52-.03-.79-.03h-.02c-.26,0-.53,0-.79.03-.26.02-.52.05-.78.09-.11.02-.22.03-.32.06-.15.03-.3.06-.44.1-.1.02-.2.05-.3.08-.03,0-.06.02-.09.03-.07.02-.15.04-.22.06-.07.02-.14.04-.21.07-.1.03-.21.07-.3.1-.1.04-.2.08-.3.12-.01,0-.02,0-.03.01-.11.04-.22.09-.33.14-.12.05-.23.1-.34.16-.11.05-.22.11-.33.17-.11.06-.22.12-.33.19-.11.06-.22.13-.32.2-.1.07-.21.14-.31.21,2.17.08,4.15.85,5.76,2.08h0c1.61-1.24,3.59-2,5.76-2.08Z"/>
  </g>
</svg>