<svg width="374" height="163" viewBox="0 0 374 163" fill="none" xmlns="http://www.w3.org/2000/svg">
<rect width="374" height="163" fill="black"/>
<path d="M67.2868 109.531H60.9279V62.1841C60.9279 46.2678 48.694 33.3301 33.6434 33.3301C18.5929 33.3301 6.3589 46.2678 6.3589 62.1841V109.531H0V62.1841C0 42.5765 15.0851 26.6055 33.6434 26.6055C52.2017 26.6055 67.2868 42.5583 67.2868 62.1841V109.531Z" fill="url(#paint0_linear_355_2)"/>
<path d="M138.53 109.24H132.172V61.893C132.172 45.9768 119.938 33.0391 104.887 33.0391C89.8365 33.0391 77.6026 45.9768 77.6026 61.893H71.2437C71.2437 42.2855 86.3288 26.3145 104.887 26.3145C123.445 26.3145 138.53 42.2673 138.53 61.893V109.24Z" fill="url(#paint1_linear_355_2)"/>
<path d="M249.241 109.806H242.882V62.4594C242.882 42.8519 257.967 26.8809 276.526 26.8809V33.6055C261.475 33.6055 249.241 46.5432 249.241 62.4594V109.806Z" fill="url(#paint2_linear_355_2)"/>
<path d="M206.336 110.921C189.108 110.921 175.077 94.9679 175.077 75.3421V28.0137H181.436V75.3604C181.436 91.2767 192.599 104.214 206.336 104.214C220.073 104.214 231.236 91.2767 231.236 75.3604V28.0137H237.595V75.3604C237.595 94.9679 223.581 110.939 206.336 110.939V110.921Z" fill="url(#paint3_linear_355_2)"/>
<path d="M173.487 110.92C156.26 110.92 142.229 94.9676 142.229 75.3418V0H148.587V75.3418C148.587 91.2581 159.75 104.196 173.487 104.196V110.92Z" fill="url(#paint4_linear_355_2)"/>
<path d="M103.591 110.428C100.273 110.428 96.9902 109.88 93.8972 108.783C87.6938 106.59 82.2853 102.314 78.7084 96.7592C75.0797 91.1493 73.6455 84.5342 74.7341 78.6319C75.5635 74.1549 77.8271 70.025 81.2831 66.7175C87.9184 60.3401 96.8347 57.2336 106.356 57.9828C112.974 58.4944 119.972 60.6873 127.126 64.4516C129.977 65.95 133.658 68.0515 136.872 70.9387L132.742 76.0553C130.063 73.6432 126.832 71.7976 124.292 70.4636C117.864 67.083 111.678 65.1277 105.872 64.6892C98.0961 64.0679 90.8733 66.5713 85.5339 71.7062C83.0974 74.0452 81.525 76.8959 80.9548 79.9476C80.1772 84.1139 81.2658 88.8651 83.9441 92.9949C86.7607 97.344 91.0115 100.706 95.9016 102.442C101.362 104.379 107.548 104.142 113.337 101.784C116.706 100.414 120.041 98.3308 123.255 95.608C126.832 92.5563 129.441 88.9564 132.223 84.8997L137.373 88.8468C134.418 93.1411 131.429 97.2892 127.247 100.853C123.514 104.032 119.609 106.462 115.618 108.071C111.695 109.66 107.6 110.464 103.574 110.464L103.591 110.428Z" fill="url(#paint5_linear_355_2)"/>
<path d="M165.936 27.1367H145.408V33.8614H165.936V27.1367Z" fill="url(#paint6_linear_355_2)"/>
<path d="M2.12548 124.645H119.713C119.851 124.645 119.972 124.772 119.972 124.919V128.281C119.972 128.427 119.851 128.555 119.713 128.555H2.12548C1.10598 128.555 0.276557 127.678 0.276557 126.6H0.259277C0.259277 125.522 1.0887 124.645 2.1082 124.645H2.12548Z" fill="#F6872C" stroke="black" stroke-width="0.3" stroke-miterlimit="10"/>
<path d="M239.669 124.645H119.973V128.573H239.669V124.645Z" fill="#FEFFFF" stroke="black" stroke-width="0.3" stroke-miterlimit="10"/>
<path d="M239.928 124.645H358.103C359.122 124.645 359.952 125.522 359.952 126.6C359.952 127.678 359.122 128.555 358.103 128.555H239.928C239.789 128.555 239.668 128.427 239.668 128.281V124.919C239.668 124.772 239.789 124.645 239.928 124.645Z" fill="#00AB58" stroke="black" stroke-width="0.3" stroke-miterlimit="10"/>
<path d="M325.306 62.7327C322.489 64.7976 319.068 66.0219 315.37 66.0219C311.672 66.0219 307.923 64.6879 305.037 62.422C298.35 58.2008 281.744 26.4414 281.744 26.4414H289.987C292.734 31.6859 295.965 36.5649 299.179 40.8592C305.002 48.6438 310.774 54.5278 313.59 57.2506C313.59 57.2506 313.59 57.2506 313.608 57.2689C314.143 57.8354 314.714 58.3836 315.318 58.8769C315.353 58.9135 315.37 58.9135 315.37 58.9135C318.135 61.1611 321.574 62.5682 325.306 62.7144V62.7327Z" fill="url(#paint7_linear_355_2)"/>
<path d="M305.452 62.7327C308.268 64.7976 311.69 66.0219 315.387 66.0219C319.085 66.0219 322.835 64.6879 325.721 62.422C332.408 58.2008 349.014 26.4414 349.014 26.4414H340.771C338.024 31.6859 334.792 36.5649 331.578 40.8592C325.755 48.6438 319.984 54.5278 317.167 57.2506C317.167 57.2506 317.167 57.2506 317.15 57.2689C316.614 57.8354 316.044 58.3836 315.439 58.8769C315.405 58.9135 315.387 58.9135 315.387 58.9135C312.623 61.1611 309.184 62.5682 305.452 62.7144V62.7327Z" fill="url(#paint8_linear_355_2)"/>
<path d="M325.306 62.7318C325.306 62.7318 325.306 62.7318 325.272 62.7318C325.099 62.8598 324.926 62.9694 324.77 63.0973C324.598 63.2252 324.408 63.3349 324.217 63.4628C324.062 63.5724 323.872 63.6638 323.716 63.7734C323.682 63.7917 323.664 63.81 323.63 63.8283C323.457 63.9379 323.267 64.0293 323.094 64.1206C322.939 64.212 322.766 64.2851 322.61 64.3765C322.351 64.5044 322.057 64.6323 321.781 64.7602C321.66 64.815 321.539 64.8699 321.418 64.9064C321.245 64.9795 321.073 65.0526 320.9 65.1074C320.744 65.1622 320.606 65.217 320.45 65.2536C320.347 65.2901 320.226 65.3267 320.122 65.3632C320.07 65.3815 320.001 65.3998 319.932 65.4181C319.777 65.4729 319.638 65.5094 319.483 65.546C319.206 65.6191 318.913 65.6922 318.619 65.747C318.446 65.7835 318.273 65.8018 318.118 65.8383C317.668 65.9114 317.236 65.9663 316.77 66.0028C316.321 66.0394 315.871 66.0576 315.422 66.0576H315.388C314.938 66.0576 314.489 66.0576 314.04 66.0028C313.59 65.9663 313.141 65.9114 312.692 65.8383C312.502 65.8018 312.329 65.7835 312.139 65.7287C311.88 65.6739 311.621 65.6191 311.379 65.5642C311.206 65.5277 311.033 65.4729 310.86 65.4181C310.808 65.4181 310.757 65.3815 310.705 65.3632C310.584 65.3267 310.446 65.2901 310.325 65.2536C310.204 65.217 310.083 65.1805 309.962 65.1257C309.789 65.0709 309.599 64.9978 309.443 64.9429C309.271 64.8699 309.098 64.7968 308.925 64.7237C308.908 64.7237 308.89 64.7237 308.873 64.7054C308.683 64.6323 308.493 64.5409 308.303 64.4496C308.096 64.3582 307.905 64.2668 307.715 64.1572C307.525 64.0658 307.335 63.9562 307.145 63.8465C306.955 63.7369 306.765 63.6272 306.575 63.4993C306.385 63.3897 306.212 63.2618 306.022 63.1339C305.849 63.0059 305.659 62.878 305.486 62.7501C309.219 62.6039 312.64 61.1969 315.405 58.9492C318.17 61.1969 321.591 62.6039 325.323 62.7501L325.306 62.7318Z" fill="url(#paint9_linear_355_2)"/>
<path d="M325.306 73.5158C322.489 71.4509 319.068 70.2266 315.37 70.2266C311.672 70.2266 307.923 71.5605 305.037 73.8265C298.35 78.0476 281.744 109.807 281.744 109.807H289.987C292.734 104.563 295.965 99.6835 299.179 95.3892C305.002 87.6047 310.774 81.7206 313.59 78.9979C313.59 78.9979 313.59 78.9979 313.608 78.9796C314.143 78.4131 314.714 77.8649 315.318 77.3715C315.353 77.335 315.37 77.335 315.37 77.335C318.135 75.0873 321.574 73.6803 325.306 73.5341V73.5158Z" fill="url(#paint10_linear_355_2)"/>
<path d="M305.452 73.5158C308.268 71.4509 311.69 70.2266 315.387 70.2266C319.085 70.2266 322.835 71.5605 325.721 73.8265C332.408 78.0476 349.014 109.807 349.014 109.807H340.771C338.024 104.563 334.792 99.6835 331.578 95.3892C325.755 87.6047 319.984 81.7206 317.167 78.9979C317.167 78.9979 317.167 78.9979 317.15 78.9796C316.614 78.4131 316.044 77.8649 315.439 77.3715C315.405 77.335 315.387 77.335 315.387 77.335C312.623 75.0873 309.184 73.6803 305.452 73.5341V73.5158Z" fill="url(#paint11_linear_355_2)"/>
<path d="M325.306 73.5152C325.306 73.5152 325.306 73.5152 325.272 73.5152C325.099 73.3873 324.926 73.2777 324.77 73.1498C324.598 73.0219 324.408 72.9122 324.217 72.7843C324.062 72.6747 323.872 72.5833 323.716 72.4736C323.682 72.4554 323.664 72.4371 323.63 72.4188C323.457 72.3092 323.267 72.2178 323.094 72.1265C322.939 72.0351 322.766 71.962 322.61 71.8706C322.351 71.7427 322.057 71.6148 321.781 71.4869C321.66 71.4321 321.539 71.3772 321.418 71.3407C321.245 71.2676 321.073 71.1945 320.9 71.1397C320.744 71.0849 320.606 71.03 320.45 70.9935C320.347 70.9569 320.226 70.9204 320.122 70.8838C320.07 70.8656 320.001 70.8473 319.932 70.829C319.777 70.7742 319.638 70.7377 319.483 70.7011C319.206 70.628 318.913 70.5549 318.619 70.5001C318.446 70.4636 318.273 70.4453 318.118 70.4087C317.668 70.3356 317.236 70.2808 316.77 70.2443C316.321 70.2077 315.871 70.1895 315.422 70.1895H315.388C314.938 70.1895 314.489 70.1895 314.04 70.2443C313.59 70.2808 313.141 70.3356 312.692 70.4087C312.502 70.4453 312.329 70.4636 312.139 70.5184C311.88 70.5732 311.621 70.628 311.379 70.6828C311.206 70.7194 311.033 70.7742 310.86 70.829C310.808 70.829 310.757 70.8656 310.705 70.8838C310.584 70.9204 310.446 70.9569 310.325 70.9935C310.204 71.03 310.083 71.0666 309.962 71.1214C309.789 71.1762 309.599 71.2493 309.443 71.3041C309.271 71.3772 309.098 71.4503 308.925 71.5234C308.908 71.5234 308.89 71.5234 308.873 71.5417C308.683 71.6148 308.493 71.7062 308.303 71.7975C308.096 71.8889 307.905 71.9803 307.715 72.0899C307.525 72.1813 307.335 72.2909 307.145 72.4006C306.955 72.5102 306.765 72.6198 306.575 72.7478C306.385 72.8574 306.212 72.9853 306.022 73.1132C305.849 73.2411 305.659 73.3691 305.486 73.497C309.219 73.6432 312.64 75.0502 315.405 77.2979C318.17 75.0502 321.591 73.6432 325.323 73.497L325.306 73.5152Z" fill="url(#paint12_linear_355_2)"/>
<path d="M67.2868 109.531H60.9279V62.1841C60.9279 46.2678 48.694 33.3301 33.6434 33.3301C18.5929 33.3301 6.3589 46.2678 6.3589 62.1841V109.531H0V62.1841C0 42.5765 15.0851 26.6055 33.6434 26.6055C52.2017 26.6055 67.2868 42.5583 67.2868 62.1841V109.531Z" fill="url(#paint13_linear_355_2)"/>
<path d="M138.53 109.24H132.172V61.893C132.172 45.9768 119.938 33.0391 104.887 33.0391C89.8365 33.0391 77.6026 45.9768 77.6026 61.893H71.2437C71.2437 42.2855 86.3288 26.3145 104.887 26.3145C123.445 26.3145 138.53 42.2673 138.53 61.893V109.24Z" fill="url(#paint14_linear_355_2)"/>
<path d="M249.426 110H243V62.0397C243 42.1781 258.245 26 277 26V32.8118C261.79 32.8118 249.426 45.9171 249.426 62.0397V110Z" fill="url(#paint15_linear_355_2)"/>
<path d="M206.336 110.921C189.108 110.921 175.077 94.9679 175.077 75.3421V28.0137H181.436V75.3604C181.436 91.2767 192.599 104.214 206.336 104.214C220.073 104.214 231.236 91.2767 231.236 75.3604V28.0137H237.595V75.3604C237.595 94.9679 223.581 110.939 206.336 110.939V110.921Z" fill="url(#paint16_linear_355_2)"/>
<path d="M173.487 110.92C156.26 110.92 142.229 94.9676 142.229 75.3418V0H148.587V75.3418C148.587 91.2581 159.75 104.196 173.487 104.196V110.92Z" fill="url(#paint17_linear_355_2)"/>
<path d="M103.591 110.428C100.273 110.428 96.9902 109.88 93.8972 108.783C87.6938 106.59 82.2853 102.314 78.7084 96.7592C75.0797 91.1493 73.6455 84.5342 74.7341 78.6319C75.5635 74.1549 77.8271 70.025 81.2831 66.7175C87.9184 60.3401 96.8347 57.2336 106.356 57.9828C112.974 58.4944 119.972 60.6873 127.126 64.4516C129.977 65.95 133.658 68.0515 136.872 70.9387L132.742 76.0553C130.063 73.6432 126.832 71.7976 124.292 70.4636C117.864 67.083 111.678 65.1277 105.872 64.6892C98.0961 64.0679 90.8733 66.5713 85.5339 71.7062C83.0974 74.0452 81.525 76.8959 80.9548 79.9476C80.1772 84.1139 81.2658 88.8651 83.9441 92.9949C86.7607 97.344 91.0115 100.706 95.9016 102.442C101.362 104.379 107.548 104.142 113.337 101.784C116.706 100.414 120.041 98.3308 123.255 95.608C126.832 92.5563 129.441 88.9564 132.223 84.8997L137.373 88.8468C134.418 93.1411 131.429 97.2892 127.247 100.853C123.514 104.032 119.609 106.462 115.618 108.071C111.695 109.66 107.6 110.464 103.574 110.464L103.591 110.428Z" fill="url(#paint18_linear_355_2)"/>
<path d="M165.936 27.1367H145.408V33.8614H165.936V27.1367Z" fill="url(#paint19_linear_355_2)"/>
<path d="M2.12548 124.645H119.713C119.851 124.645 119.972 124.772 119.972 124.919V128.281C119.972 128.427 119.851 128.555 119.713 128.555H2.12548C1.10598 128.555 0.276557 127.678 0.276557 126.6H0.259277C0.259277 125.522 1.0887 124.645 2.1082 124.645H2.12548Z" fill="#F6872C" stroke="black" stroke-width="0.3" stroke-miterlimit="10"/>
<path d="M239.669 124.645H119.973V128.573H239.669V124.645Z" fill="#FEFFFF" stroke="black" stroke-width="0.3" stroke-miterlimit="10"/>
<path d="M239.928 124.645H358.103C359.122 124.645 359.952 125.522 359.952 126.6C359.952 127.678 359.122 128.555 358.103 128.555H239.928C239.789 128.555 239.668 128.427 239.668 128.281V124.919C239.668 124.772 239.789 124.645 239.928 124.645Z" fill="#00AB58" stroke="black" stroke-width="0.3" stroke-miterlimit="10"/>
<path d="M325.306 62.7327C322.489 64.7976 319.068 66.0219 315.37 66.0219C311.672 66.0219 307.923 64.6879 305.037 62.422C298.35 58.2008 281.744 26.4414 281.744 26.4414H289.987C292.734 31.6859 295.965 36.5649 299.179 40.8592C305.002 48.6438 310.774 54.5278 313.59 57.2506C313.59 57.2506 313.59 57.2506 313.608 57.2689C314.143 57.8354 314.714 58.3836 315.318 58.8769C315.353 58.9135 315.37 58.9135 315.37 58.9135C318.135 61.1611 321.574 62.5682 325.306 62.7144V62.7327Z" fill="url(#paint20_linear_355_2)"/>
<path d="M305.452 62.7327C308.268 64.7976 311.69 66.0219 315.387 66.0219C319.085 66.0219 322.835 64.6879 325.721 62.422C332.408 58.2008 349.014 26.4414 349.014 26.4414H340.771C338.024 31.6859 334.792 36.5649 331.578 40.8592C325.755 48.6438 319.984 54.5278 317.167 57.2506C317.167 57.2506 317.167 57.2506 317.15 57.2689C316.614 57.8354 316.044 58.3836 315.439 58.8769C315.405 58.9135 315.387 58.9135 315.387 58.9135C312.623 61.1611 309.184 62.5682 305.452 62.7144V62.7327Z" fill="url(#paint21_linear_355_2)"/>
<path d="M325.306 62.7318C325.306 62.7318 325.306 62.7318 325.272 62.7318C325.099 62.8598 324.926 62.9694 324.77 63.0973C324.598 63.2252 324.408 63.3349 324.217 63.4628C324.062 63.5724 323.872 63.6638 323.716 63.7734C323.682 63.7917 323.664 63.81 323.63 63.8283C323.457 63.9379 323.267 64.0293 323.094 64.1206C322.939 64.212 322.766 64.2851 322.61 64.3765C322.351 64.5044 322.057 64.6323 321.781 64.7602C321.66 64.815 321.539 64.8699 321.418 64.9064C321.245 64.9795 321.073 65.0526 320.9 65.1074C320.744 65.1622 320.606 65.217 320.45 65.2536C320.347 65.2901 320.226 65.3267 320.122 65.3632C320.07 65.3815 320.001 65.3998 319.932 65.4181C319.777 65.4729 319.638 65.5094 319.483 65.546C319.206 65.6191 318.913 65.6922 318.619 65.747C318.446 65.7835 318.273 65.8018 318.118 65.8383C317.668 65.9114 317.236 65.9663 316.77 66.0028C316.321 66.0394 315.871 66.0576 315.422 66.0576H315.388C314.938 66.0576 314.489 66.0576 314.04 66.0028C313.59 65.9663 313.141 65.9114 312.692 65.8383C312.502 65.8018 312.329 65.7835 312.139 65.7287C311.88 65.6739 311.621 65.6191 311.379 65.5642C311.206 65.5277 311.033 65.4729 310.86 65.4181C310.808 65.4181 310.757 65.3815 310.705 65.3632C310.584 65.3267 310.446 65.2901 310.325 65.2536C310.204 65.217 310.083 65.1805 309.962 65.1257C309.789 65.0709 309.599 64.9978 309.443 64.9429C309.271 64.8699 309.098 64.7968 308.925 64.7237C308.908 64.7237 308.89 64.7237 308.873 64.7054C308.683 64.6323 308.493 64.5409 308.303 64.4496C308.096 64.3582 307.905 64.2668 307.715 64.1572C307.525 64.0658 307.335 63.9562 307.145 63.8465C306.955 63.7369 306.765 63.6272 306.575 63.4993C306.385 63.3897 306.212 63.2618 306.022 63.1339C305.849 63.0059 305.659 62.878 305.486 62.7501C309.219 62.6039 312.64 61.1969 315.405 58.9492C318.17 61.1969 321.591 62.6039 325.323 62.7501L325.306 62.7318Z" fill="url(#paint22_linear_355_2)"/>
<path d="M325.306 73.5158C322.489 71.4509 319.068 70.2266 315.37 70.2266C311.672 70.2266 307.923 71.5605 305.037 73.8265C298.35 78.0476 281.744 109.807 281.744 109.807H289.987C292.734 104.563 295.965 99.6835 299.179 95.3892C305.002 87.6047 310.774 81.7206 313.59 78.9979C313.59 78.9979 313.59 78.9979 313.608 78.9796C314.143 78.4131 314.714 77.8649 315.318 77.3715C315.353 77.335 315.37 77.335 315.37 77.335C318.135 75.0873 321.574 73.6803 325.306 73.5341V73.5158Z" fill="url(#paint23_linear_355_2)"/>
<path d="M305.452 73.5158C308.268 71.4509 311.69 70.2266 315.387 70.2266C319.085 70.2266 322.835 71.5605 325.721 73.8265C332.408 78.0476 349.014 109.807 349.014 109.807H340.771C338.024 104.563 334.792 99.6835 331.578 95.3892C325.755 87.6047 319.984 81.7206 317.167 78.9979C317.167 78.9979 317.167 78.9979 317.15 78.9796C316.614 78.4131 316.044 77.8649 315.439 77.3715C315.405 77.335 315.387 77.335 315.387 77.335C312.623 75.0873 309.184 73.6803 305.452 73.5341V73.5158Z" fill="url(#paint24_linear_355_2)"/>
<path d="M325.306 73.5152C325.306 73.5152 325.306 73.5152 325.272 73.5152C325.099 73.3873 324.926 73.2777 324.77 73.1498C324.598 73.0219 324.408 72.9122 324.217 72.7843C324.062 72.6747 323.872 72.5833 323.716 72.4736C323.682 72.4554 323.664 72.4371 323.63 72.4188C323.457 72.3092 323.267 72.2178 323.094 72.1265C322.939 72.0351 322.766 71.962 322.61 71.8706C322.351 71.7427 322.057 71.6148 321.781 71.4869C321.66 71.4321 321.539 71.3772 321.418 71.3407C321.245 71.2676 321.073 71.1945 320.9 71.1397C320.744 71.0849 320.606 71.03 320.45 70.9935C320.347 70.9569 320.226 70.9204 320.122 70.8838C320.07 70.8656 320.001 70.8473 319.932 70.829C319.777 70.7742 319.638 70.7377 319.483 70.7011C319.206 70.628 318.913 70.5549 318.619 70.5001C318.446 70.4636 318.273 70.4453 318.118 70.4087C317.668 70.3356 317.236 70.2808 316.77 70.2443C316.321 70.2077 315.871 70.1895 315.422 70.1895H315.388C314.938 70.1895 314.489 70.1895 314.04 70.2443C313.59 70.2808 313.141 70.3356 312.692 70.4087C312.502 70.4453 312.329 70.4636 312.139 70.5184C311.88 70.5732 311.621 70.628 311.379 70.6828C311.206 70.7194 311.033 70.7742 310.86 70.829C310.808 70.829 310.757 70.8656 310.705 70.8838C310.584 70.9204 310.446 70.9569 310.325 70.9935C310.204 71.03 310.083 71.0666 309.962 71.1214C309.789 71.1762 309.599 71.2493 309.443 71.3041C309.271 71.3772 309.098 71.4503 308.925 71.5234C308.908 71.5234 308.89 71.5234 308.873 71.5417C308.683 71.6148 308.493 71.7062 308.303 71.7975C308.096 71.8889 307.905 71.9803 307.715 72.0899C307.525 72.1813 307.335 72.2909 307.145 72.4006C306.955 72.5102 306.765 72.6198 306.575 72.7478C306.385 72.8574 306.212 72.9853 306.022 73.1132C305.849 73.2411 305.659 73.3691 305.486 73.497C309.219 73.6432 312.64 75.0502 315.405 77.2979C318.17 75.0502 321.591 73.6432 325.323 73.497L325.306 73.5152Z" fill="url(#paint25_linear_355_2)"/>
<path d="M14.5495 146.377L16.444 146.855C16.0469 148.411 15.3307 149.6 14.2956 150.42C13.2669 151.234 12.0072 151.641 10.5163 151.641C8.9733 151.641 7.71679 151.328 6.74673 150.703C5.78319 150.072 5.04752 149.16 4.5397 147.969C4.0384 146.777 3.78775 145.498 3.78775 144.131C3.78775 142.64 4.07095 141.341 4.63736 140.234C5.21028 139.121 6.02082 138.278 7.069 137.705C8.12369 137.126 9.28254 136.836 10.5456 136.836C11.9779 136.836 13.1823 137.201 14.1588 137.93C15.1354 138.659 15.8157 139.684 16.1999 141.006L14.3346 141.445C14.0026 140.404 13.5208 139.645 12.8893 139.17C12.2578 138.695 11.4635 138.457 10.5065 138.457C9.40624 138.457 8.48502 138.721 7.74283 139.248C7.00715 139.775 6.48957 140.485 6.19009 141.377C5.89061 142.262 5.74088 143.177 5.74088 144.121C5.74088 145.339 5.91666 146.403 6.26822 147.314C6.62629 148.219 7.17968 148.896 7.92838 149.346C8.67707 149.795 9.48762 150.02 10.36 150.02C11.4212 150.02 12.3197 149.714 13.0553 149.102C13.791 148.49 14.2891 147.581 14.5495 146.377ZM32.8116 144.424C32.8116 142.048 33.4496 140.189 34.7256 138.848C36.0017 137.5 37.6488 136.826 39.667 136.826C40.9887 136.826 42.1801 137.142 43.2413 137.773C44.3025 138.405 45.1098 139.287 45.6631 140.42C46.223 141.546 46.503 142.826 46.503 144.258C46.503 145.71 46.21 147.008 45.6241 148.154C45.0381 149.3 44.2081 150.169 43.1338 150.762C42.0596 151.348 40.9008 151.641 39.6573 151.641C38.3096 151.641 37.1052 151.315 36.044 150.664C34.9828 150.013 34.1788 149.124 33.6319 147.998C33.085 146.872 32.8116 145.68 32.8116 144.424ZM34.7647 144.453C34.7647 146.178 35.2269 147.539 36.1514 148.535C37.0824 149.525 38.2478 150.02 39.6475 150.02C41.0733 150.02 42.2452 149.518 43.1631 148.516C44.0876 147.513 44.5499 146.09 44.5499 144.248C44.5499 143.083 44.3513 142.067 43.9542 141.201C43.5635 140.329 42.9874 139.655 42.2256 139.18C41.4704 138.698 40.6208 138.457 39.6768 138.457C38.3357 138.457 37.1801 138.919 36.21 139.844C35.2465 140.762 34.7647 142.298 34.7647 144.453ZM63.476 151.396V137.08H65.3706V149.707H72.4213V151.396H63.476ZM88.7108 144.424C88.7108 142.048 89.3488 140.189 90.6249 138.848C91.9009 137.5 93.548 136.826 95.5663 136.826C96.8879 136.826 98.0793 137.142 99.1405 137.773C100.202 138.405 101.009 139.287 101.562 140.42C102.122 141.546 102.402 142.826 102.402 144.258C102.402 145.71 102.109 147.008 101.523 148.154C100.937 149.3 100.107 150.169 99.0331 150.762C97.9588 151.348 96.8 151.641 95.5565 151.641C94.2088 151.641 93.0044 151.315 91.9432 150.664C90.882 150.013 90.078 149.124 89.5311 147.998C88.9842 146.872 88.7108 145.68 88.7108 144.424ZM90.6639 144.453C90.6639 146.178 91.1262 147.539 92.0506 148.535C92.9816 149.525 94.147 150.02 95.5467 150.02C96.9725 150.02 98.1444 149.518 99.0624 148.516C99.9868 147.513 100.449 146.09 100.449 144.248C100.449 143.083 100.251 142.067 99.8534 141.201C99.4628 140.329 98.8866 139.655 98.1249 139.18C97.3697 138.698 96.52 138.457 95.576 138.457C94.2349 138.457 93.0793 138.919 92.1092 139.844C91.1457 140.762 90.6639 142.298 90.6639 144.453ZM128.848 137.08H130.742V145.352C130.742 146.79 130.58 147.933 130.254 148.779C129.929 149.626 129.339 150.316 128.487 150.85C127.64 151.377 126.527 151.641 125.147 151.641C123.806 151.641 122.709 151.41 121.856 150.947C121.003 150.485 120.394 149.818 120.03 148.945C119.665 148.066 119.483 146.868 119.483 145.352V137.08H121.377V145.342C121.377 146.585 121.491 147.503 121.719 148.096C121.953 148.682 122.351 149.134 122.91 149.453C123.477 149.772 124.167 149.932 124.981 149.932C126.374 149.932 127.367 149.616 127.959 148.984C128.552 148.353 128.848 147.139 128.848 145.342V137.08ZM148.536 151.396V137.08H154.883C156.159 137.08 157.13 137.21 157.794 137.471C158.458 137.725 158.988 138.177 159.385 138.828C159.783 139.479 159.981 140.199 159.981 140.986C159.981 142.002 159.652 142.858 158.995 143.555C158.337 144.251 157.322 144.694 155.948 144.883C156.449 145.124 156.83 145.361 157.09 145.596C157.644 146.104 158.168 146.738 158.663 147.5L161.153 151.396H158.77L156.876 148.418C156.322 147.559 155.867 146.901 155.508 146.445C155.15 145.99 154.828 145.671 154.542 145.488C154.262 145.306 153.975 145.179 153.682 145.107C153.467 145.062 153.116 145.039 152.628 145.039H150.43V151.396H148.536ZM150.43 143.398H154.503C155.368 143.398 156.046 143.311 156.534 143.135C157.022 142.952 157.393 142.666 157.647 142.275C157.901 141.878 158.028 141.449 158.028 140.986C158.028 140.309 157.781 139.753 157.286 139.316C156.798 138.88 156.023 138.662 154.962 138.662H150.43V143.398ZM180.831 151.396V138.77H176.114V137.08H187.462V138.77H182.726V151.396H180.831ZM204.054 151.396V137.08H214.406V138.77H205.949V143.154H213.869V144.834H205.949V149.707H214.738V151.396H204.054ZM230.5 151.396L236.037 143.936L231.154 137.08H233.41L236.008 140.752C236.548 141.514 236.932 142.1 237.16 142.51C237.479 141.989 237.857 141.445 238.293 140.879L241.174 137.08H243.234L238.205 143.828L243.625 151.396H241.281L237.678 146.289C237.476 145.996 237.267 145.677 237.053 145.332C236.734 145.853 236.506 146.211 236.369 146.406L232.775 151.396H230.5ZM263.537 151.396V138.77H258.821V137.08H270.168V138.77H265.432V151.396H263.537ZM296.116 137.08H298.01V145.352C298.01 146.79 297.848 147.933 297.522 148.779C297.197 149.626 296.607 150.316 295.755 150.85C294.908 151.377 293.795 151.641 292.415 151.641C291.074 151.641 289.977 151.41 289.124 150.947C288.271 150.485 287.662 149.818 287.298 148.945C286.933 148.066 286.751 146.868 286.751 145.352V137.08H288.645V145.342C288.645 146.585 288.759 147.503 288.987 148.096C289.221 148.682 289.618 149.134 290.178 149.453C290.745 149.772 291.435 149.932 292.249 149.932C293.642 149.932 294.635 149.616 295.227 148.984C295.82 148.353 296.116 147.139 296.116 145.342V137.08ZM315.804 151.396V137.08H322.151C323.427 137.08 324.398 137.21 325.062 137.471C325.726 137.725 326.256 138.177 326.653 138.828C327.051 139.479 327.249 140.199 327.249 140.986C327.249 142.002 326.92 142.858 326.263 143.555C325.605 144.251 324.59 144.694 323.216 144.883C323.717 145.124 324.098 145.361 324.358 145.596C324.912 146.104 325.436 146.738 325.931 147.5L328.421 151.396H326.038L324.144 148.418C323.59 147.559 323.135 146.901 322.776 146.445C322.418 145.99 322.096 145.671 321.81 145.488C321.53 145.306 321.243 145.179 320.95 145.107C320.735 145.062 320.384 145.039 319.896 145.039H317.698V151.396H315.804ZM317.698 143.398H321.771C322.636 143.398 323.314 143.311 323.802 143.135C324.29 142.952 324.661 142.666 324.915 142.275C325.169 141.878 325.296 141.449 325.296 140.986C325.296 140.309 325.049 139.753 324.554 139.316C324.065 138.88 323.291 138.662 322.23 138.662H317.698V143.398ZM344.867 151.396V137.08H355.218V138.77H346.761V143.154H354.681V144.834H346.761V149.707H355.55V151.396H344.867Z" fill="#8E724B"/>
<defs>
<linearGradient id="paint0_linear_355_2" x1="33.6434" y1="12.681" x2="33.6434" y2="105.675" gradientUnits="userSpaceOnUse">
<stop stop-color="#B59A53"/>
<stop offset="0.51" stop-color="#F7EFA6"/>
<stop offset="1" stop-color="#B59A53"/>
</linearGradient>
<linearGradient id="paint1_linear_355_2" x1="104.887" y1="12.6824" x2="104.887" y2="105.676" gradientUnits="userSpaceOnUse">
<stop stop-color="#B59A53"/>
<stop offset="0.51" stop-color="#F7EFA6"/>
<stop offset="1" stop-color="#B59A53"/>
</linearGradient>
<linearGradient id="paint2_linear_355_2" x1="259.713" y1="12.6823" x2="259.713" y2="105.676" gradientUnits="userSpaceOnUse">
<stop stop-color="#B59A53"/>
<stop offset="0.51" stop-color="#F7EFA6"/>
<stop offset="1" stop-color="#B59A53"/>
</linearGradient>
<linearGradient id="paint3_linear_355_2" x1="206.336" y1="12.6822" x2="206.336" y2="105.676" gradientUnits="userSpaceOnUse">
<stop stop-color="#B59A53"/>
<stop offset="0.51" stop-color="#F7EFA6"/>
<stop offset="1" stop-color="#B59A53"/>
</linearGradient>
<linearGradient id="paint4_linear_355_2" x1="157.867" y1="12.6818" x2="157.867" y2="105.676" gradientUnits="userSpaceOnUse">
<stop stop-color="#B59A53"/>
<stop offset="0.51" stop-color="#F7EFA6"/>
<stop offset="1" stop-color="#B59A53"/>
</linearGradient>
<linearGradient id="paint5_linear_355_2" x1="105.889" y1="12.6827" x2="105.889" y2="105.677" gradientUnits="userSpaceOnUse">
<stop stop-color="#B59A53"/>
<stop offset="0.51" stop-color="#F7EFA6"/>
<stop offset="1" stop-color="#B59A53"/>
</linearGradient>
<linearGradient id="paint6_linear_355_2" x1="155.672" y1="12.6823" x2="155.672" y2="105.676" gradientUnits="userSpaceOnUse">
<stop stop-color="#B59A53"/>
<stop offset="0.51" stop-color="#F7EFA6"/>
<stop offset="1" stop-color="#B59A53"/>
</linearGradient>
<linearGradient id="paint7_linear_355_2" x1="303.534" y1="12.6814" x2="303.534" y2="105.675" gradientUnits="userSpaceOnUse">
<stop stop-color="#B59A53"/>
<stop offset="0.51" stop-color="#F7EFA6"/>
<stop offset="1" stop-color="#B59A53"/>
</linearGradient>
<linearGradient id="paint8_linear_355_2" x1="327.224" y1="12.6814" x2="327.224" y2="105.675" gradientUnits="userSpaceOnUse">
<stop stop-color="#B59A53"/>
<stop offset="0.51" stop-color="#F7EFA6"/>
<stop offset="1" stop-color="#B59A53"/>
</linearGradient>
<linearGradient id="paint9_linear_355_2" x1="315.37" y1="12.6806" x2="315.37" y2="105.675" gradientUnits="userSpaceOnUse">
<stop stop-color="#B59A53"/>
<stop offset="0.51" stop-color="#F7EFA6"/>
<stop offset="1" stop-color="#B59A53"/>
</linearGradient>
<linearGradient id="paint10_linear_355_2" x1="303.534" y1="12.6832" x2="303.534" y2="105.677" gradientUnits="userSpaceOnUse">
<stop stop-color="#B59A53"/>
<stop offset="0.51" stop-color="#F7EFA6"/>
<stop offset="1" stop-color="#B59A53"/>
</linearGradient>
<linearGradient id="paint11_linear_355_2" x1="327.224" y1="12.6832" x2="327.224" y2="105.677" gradientUnits="userSpaceOnUse">
<stop stop-color="#B59A53"/>
<stop offset="0.51" stop-color="#F7EFA6"/>
<stop offset="1" stop-color="#B59A53"/>
</linearGradient>
<linearGradient id="paint12_linear_355_2" x1="315.37" y1="12.6826" x2="315.37" y2="105.677" gradientUnits="userSpaceOnUse">
<stop stop-color="#B59A53"/>
<stop offset="0.51" stop-color="#F7EFA6"/>
<stop offset="1" stop-color="#B59A53"/>
</linearGradient>
<linearGradient id="paint13_linear_355_2" x1="33.6434" y1="12.681" x2="33.6434" y2="105.675" gradientUnits="userSpaceOnUse">
<stop stop-color="#B59A53"/>
<stop offset="0.51" stop-color="#F7EFA6"/>
<stop offset="1" stop-color="#B59A53"/>
</linearGradient>
<linearGradient id="paint14_linear_355_2" x1="104.887" y1="12.6824" x2="104.887" y2="105.676" gradientUnits="userSpaceOnUse">
<stop stop-color="#B59A53"/>
<stop offset="0.51" stop-color="#F7EFA6"/>
<stop offset="1" stop-color="#B59A53"/>
</linearGradient>
<linearGradient id="paint15_linear_355_2" x1="260.009" y1="11.6175" x2="260.009" y2="105.817" gradientUnits="userSpaceOnUse">
<stop stop-color="#B59A53"/>
<stop offset="0.51" stop-color="#F7EFA6"/>
<stop offset="1" stop-color="#B59A53"/>
</linearGradient>
<linearGradient id="paint16_linear_355_2" x1="206.336" y1="12.6822" x2="206.336" y2="105.676" gradientUnits="userSpaceOnUse">
<stop stop-color="#B59A53"/>
<stop offset="0.51" stop-color="#F7EFA6"/>
<stop offset="1" stop-color="#B59A53"/>
</linearGradient>
<linearGradient id="paint17_linear_355_2" x1="157.867" y1="12.6818" x2="157.867" y2="105.676" gradientUnits="userSpaceOnUse">
<stop stop-color="#B59A53"/>
<stop offset="0.51" stop-color="#F7EFA6"/>
<stop offset="1" stop-color="#B59A53"/>
</linearGradient>
<linearGradient id="paint18_linear_355_2" x1="105.889" y1="12.6827" x2="105.889" y2="105.677" gradientUnits="userSpaceOnUse">
<stop stop-color="#B59A53"/>
<stop offset="0.51" stop-color="#F7EFA6"/>
<stop offset="1" stop-color="#B59A53"/>
</linearGradient>
<linearGradient id="paint19_linear_355_2" x1="155.672" y1="12.6823" x2="155.672" y2="105.676" gradientUnits="userSpaceOnUse">
<stop stop-color="#B59A53"/>
<stop offset="0.51" stop-color="#F7EFA6"/>
<stop offset="1" stop-color="#B59A53"/>
</linearGradient>
<linearGradient id="paint20_linear_355_2" x1="303.534" y1="12.6814" x2="303.534" y2="105.675" gradientUnits="userSpaceOnUse">
<stop stop-color="#B59A53"/>
<stop offset="0.51" stop-color="#F7EFA6"/>
<stop offset="1" stop-color="#B59A53"/>
</linearGradient>
<linearGradient id="paint21_linear_355_2" x1="327.224" y1="12.6814" x2="327.224" y2="105.675" gradientUnits="userSpaceOnUse">
<stop stop-color="#B59A53"/>
<stop offset="0.51" stop-color="#F7EFA6"/>
<stop offset="1" stop-color="#B59A53"/>
</linearGradient>
<linearGradient id="paint22_linear_355_2" x1="315.37" y1="12.6806" x2="315.37" y2="105.675" gradientUnits="userSpaceOnUse">
<stop stop-color="#B59A53"/>
<stop offset="0.51" stop-color="#F7EFA6"/>
<stop offset="1" stop-color="#B59A53"/>
</linearGradient>
<linearGradient id="paint23_linear_355_2" x1="303.534" y1="12.6832" x2="303.534" y2="105.677" gradientUnits="userSpaceOnUse">
<stop stop-color="#B59A53"/>
<stop offset="0.51" stop-color="#F7EFA6"/>
<stop offset="1" stop-color="#B59A53"/>
</linearGradient>
<linearGradient id="paint24_linear_355_2" x1="327.224" y1="12.6832" x2="327.224" y2="105.677" gradientUnits="userSpaceOnUse">
<stop stop-color="#B59A53"/>
<stop offset="0.51" stop-color="#F7EFA6"/>
<stop offset="1" stop-color="#B59A53"/>
</linearGradient>
<linearGradient id="paint25_linear_355_2" x1="315.37" y1="12.6826" x2="315.37" y2="105.677" gradientUnits="userSpaceOnUse">
<stop stop-color="#B59A53"/>
<stop offset="0.51" stop-color="#F7EFA6"/>
<stop offset="1" stop-color="#B59A53"/>
</linearGradient>
</defs>
</svg>
