<svg width="370" height="165" viewBox="0 0 370 165" fill="none" xmlns="http://www.w3.org/2000/svg">
<path d="M66.5628 110.867H60.2714V62.9523C60.2714 46.8452 48.166 33.7456 33.2814 33.7456C18.3969 33.7456 6.29142 46.8452 6.29142 62.9523V110.867H0V62.9523C0 43.0999 14.9357 26.9375 33.2814 26.9375C51.6271 26.9375 66.5628 43.0999 66.5628 62.9523V110.867Z" fill="black"/>
<path d="M137.047 110.59H130.756V62.6749C130.756 46.5679 118.65 33.4683 103.766 33.4683C88.8812 33.4683 76.7758 46.5679 76.7758 62.6749H70.4844C70.4844 42.8225 85.4201 26.6602 103.766 26.6602C122.111 26.6602 137.047 42.8225 137.047 62.6749V110.59Z" fill="black"/>
<path d="M246.593 111.162H240.302V63.2472C240.302 43.3948 255.237 27.2324 273.583 27.2324V34.0405C258.699 34.0405 246.593 47.1402 246.593 63.2472V111.162Z" fill="black"/>
<path d="M204.139 112.287C187.089 112.287 173.21 96.125 173.21 76.2726V28.3574H179.501V76.2726C179.501 92.3796 190.55 105.479 204.139 105.479C217.727 105.479 228.776 92.3796 228.776 76.2726V28.3574H235.067V76.2726C235.067 96.125 221.188 112.287 204.139 112.287Z" fill="black"/>
<path d="M171.641 112.288C154.592 112.288 140.713 96.1255 140.713 76.2731V0H147.004V76.2731C147.004 92.3801 158.053 105.48 171.641 105.48V112.288Z" fill="black"/>
<path d="M102.487 111.79C99.1965 111.79 95.9571 111.237 92.8881 110.13C86.7501 107.897 81.4135 103.58 77.8501 97.9528C74.2696 92.2702 72.8374 85.5728 73.9286 79.5949C74.747 75.0562 76.9976 70.8864 80.4076 67.5285C86.9718 61.0709 95.7866 57.9344 105.215 58.6909C111.762 59.2259 118.685 61.4215 125.777 65.2407C128.608 66.7536 132.239 68.8754 135.411 71.8089L131.319 76.975C128.676 74.5211 125.47 72.6576 122.964 71.3292C116.605 67.8975 110.484 65.9418 104.738 65.4805C97.0483 64.8532 89.9044 67.3809 84.6189 72.5838C82.2148 74.9455 80.6463 77.8237 80.0836 80.9233C79.3164 85.13 80.3905 89.9455 83.0332 94.1337C85.8124 98.5433 90.0237 101.938 94.8659 103.691C100.254 105.647 106.392 105.407 112.12 103.027C115.445 101.643 118.753 99.5396 121.924 96.772C125.453 93.6909 128.028 90.0377 130.807 85.9233L135.888 89.927C132.972 94.2813 130.006 98.4695 125.863 102.067C122.18 105.278 118.309 107.731 114.371 109.374C110.484 110.979 106.443 111.79 102.453 111.79H102.487Z" fill="black"/>
<path d="M164.174 27.4727H143.867V34.2808H164.174V27.4727Z" fill="black"/>
<path d="M2.09725 126.181H118.429C118.565 126.181 118.684 126.311 118.684 126.458V129.853C118.684 130.001 118.565 130.13 118.429 130.13H2.09725C1.0913 130.13 0.255859 129.244 0.255859 128.137C0.255859 127.049 1.07425 126.145 2.09725 126.145V126.181Z" fill="#F6872C" stroke="black" stroke-width="0.3" stroke-miterlimit="10"/>
<path d="M237.113 126.182H118.685V130.148H237.113V126.182Z" fill="#FEFFFF" stroke="black" stroke-width="0.3" stroke-miterlimit="10"/>
<path d="M237.369 126.182H354.28C355.286 126.182 356.122 127.067 356.122 128.174C356.122 129.263 355.303 130.167 354.28 130.167H237.369C237.233 130.167 237.113 130.038 237.113 129.89V126.495C237.113 126.348 237.233 126.219 237.369 126.219V126.182Z" fill="#00AB58" stroke="black" stroke-width="0.3" stroke-miterlimit="10"/>
<path d="M11.1699 148.456L12.9697 148.911C12.5924 150.389 11.9121 151.518 10.9287 152.297C9.9515 153.07 8.75472 153.457 7.33838 153.457C5.87256 153.457 4.67887 153.16 3.75732 152.566C2.84196 151.966 2.14307 151.1 1.66064 149.968C1.18441 148.836 0.946289 147.621 0.946289 146.322C0.946289 144.906 1.21533 143.672 1.75342 142.621C2.29769 141.563 3.06771 140.762 4.06348 140.218C5.06543 139.667 6.16634 139.392 7.36621 139.392C8.72689 139.392 9.87109 139.738 10.7988 140.431C11.7266 141.124 12.3729 142.098 12.7378 143.354L10.9658 143.771C10.6504 142.781 10.1927 142.061 9.59277 141.609C8.99284 141.158 8.23828 140.932 7.3291 140.932C6.28385 140.932 5.40869 141.183 4.70361 141.684C4.00472 142.185 3.51302 142.859 3.22852 143.706C2.94401 144.547 2.80176 145.416 2.80176 146.313C2.80176 147.47 2.96875 148.481 3.30273 149.347C3.6429 150.206 4.16862 150.85 4.87988 151.276C5.59115 151.703 6.36117 151.917 7.18994 151.917C8.19808 151.917 9.0516 151.626 9.75049 151.044C10.4494 150.463 10.9225 149.6 11.1699 148.456ZM28.5189 146.601C28.5189 144.343 29.125 142.577 30.3373 141.303C31.5495 140.023 33.1143 139.383 35.0316 139.383C36.2872 139.383 37.419 139.683 38.4271 140.283C39.4353 140.883 40.2022 141.721 40.7279 142.797C41.2598 143.867 41.5258 145.082 41.5258 146.443C41.5258 147.822 41.2474 149.056 40.6908 150.145C40.1342 151.233 39.3456 152.059 38.3251 152.622C37.3046 153.178 36.2037 153.457 35.0223 153.457C33.7421 153.457 32.5979 153.147 31.5897 152.529C30.5816 151.91 29.8178 151.066 29.2982 149.996C28.7787 148.926 28.5189 147.794 28.5189 146.601ZM30.3744 146.628C30.3744 148.267 30.8135 149.56 31.6918 150.506C32.5762 151.446 33.6833 151.917 35.0131 151.917C36.3676 151.917 37.4808 151.44 38.3529 150.488C39.2312 149.535 39.6703 148.184 39.6703 146.434C39.6703 145.326 39.4817 144.362 39.1044 143.539C38.7333 142.71 38.1859 142.07 37.4623 141.619C36.7448 141.161 35.9377 140.932 35.0409 140.932C33.7668 140.932 32.669 141.371 31.7474 142.25C30.8321 143.122 30.3744 144.581 30.3744 146.628ZM57.6502 153.225V139.624H59.45V151.62H66.1482V153.225H57.6502ZM81.6232 146.601C81.6232 144.343 82.2293 142.577 83.4415 141.303C84.6538 140.023 86.2186 139.383 88.1359 139.383C89.3914 139.383 90.5232 139.683 91.5314 140.283C92.5395 140.883 93.3065 141.721 93.8322 142.797C94.3641 143.867 94.63 145.082 94.63 146.443C94.63 147.822 94.3517 149.056 93.7951 150.145C93.2384 151.233 92.4498 152.059 91.4293 152.622C90.4088 153.178 89.3079 153.457 88.1266 153.457C86.8463 153.457 85.7021 153.147 84.694 152.529C83.6858 151.91 82.922 151.066 82.4025 149.996C81.8829 148.926 81.6232 147.794 81.6232 146.601ZM83.4787 146.628C83.4787 148.267 83.9178 149.56 84.796 150.506C85.6805 151.446 86.7876 151.917 88.1173 151.917C89.4718 151.917 90.5851 151.44 91.4572 150.488C92.3354 149.535 92.7746 148.184 92.7746 146.434C92.7746 145.326 92.5859 144.362 92.2086 143.539C91.8375 142.71 91.2902 142.07 90.5665 141.619C89.8491 141.161 89.042 140.932 88.1452 140.932C86.8711 140.932 85.7732 141.371 84.8517 142.25C83.9363 143.122 83.4787 144.581 83.4787 146.628ZM119.753 139.624H121.553V147.482C121.553 148.849 121.399 149.934 121.089 150.738C120.78 151.542 120.22 152.198 119.41 152.705C118.606 153.206 117.549 153.457 116.237 153.457C114.963 153.457 113.921 153.237 113.111 152.798C112.301 152.359 111.722 151.725 111.376 150.896C111.03 150.061 110.856 148.923 110.856 147.482V139.624H112.656V147.473C112.656 148.654 112.765 149.526 112.981 150.089C113.204 150.646 113.581 151.075 114.113 151.378C114.651 151.681 115.306 151.833 116.08 151.833C117.403 151.833 118.346 151.533 118.909 150.933C119.472 150.333 119.753 149.18 119.753 147.473V139.624ZM138.457 153.225V139.624H144.487C145.699 139.624 146.621 139.748 147.252 139.995C147.883 140.236 148.387 140.666 148.764 141.285C149.141 141.903 149.33 142.587 149.33 143.335C149.33 144.3 149.018 145.113 148.393 145.775C147.768 146.437 146.803 146.857 145.498 147.037C145.975 147.265 146.336 147.491 146.584 147.714C147.11 148.196 147.607 148.799 148.078 149.523L150.443 153.225H148.18L146.38 150.395C145.854 149.579 145.421 148.954 145.081 148.521C144.741 148.088 144.435 147.785 144.163 147.612C143.897 147.439 143.624 147.318 143.346 147.25C143.142 147.207 142.808 147.185 142.344 147.185H140.257V153.225H138.457ZM140.257 145.626H144.125C144.948 145.626 145.591 145.543 146.055 145.376C146.519 145.203 146.871 144.931 147.113 144.56C147.354 144.182 147.475 143.774 147.475 143.335C147.475 142.692 147.239 142.163 146.769 141.749C146.306 141.334 145.57 141.127 144.561 141.127H140.257V145.626ZM188.296 153.225V141.229H183.815V139.624H194.595V141.229H190.095V153.225H188.296ZM210.357 153.225V139.624H220.191V141.229H212.157V145.395H219.681V146.99H212.157V151.62H220.507V153.225H210.357ZM235.481 153.225L240.741 146.137L236.102 139.624H238.246L240.713 143.112C241.227 143.836 241.592 144.393 241.808 144.782C242.111 144.287 242.47 143.771 242.884 143.233L245.621 139.624H247.579L242.801 146.035L247.95 153.225H245.723L242.3 148.373C242.108 148.094 241.91 147.791 241.706 147.463C241.403 147.958 241.186 148.298 241.057 148.484L237.643 153.225H235.481ZM266.867 153.225V141.229H262.386V139.624H273.166V141.229H268.666V153.225H266.867ZM297.816 139.624H299.616V147.482C299.616 148.849 299.461 149.934 299.152 150.738C298.843 151.542 298.283 152.198 297.473 152.705C296.669 153.206 295.611 153.457 294.3 153.457C293.026 153.457 291.984 153.237 291.174 152.798C290.363 152.359 289.785 151.725 289.439 150.896C289.092 150.061 288.919 148.923 288.919 147.482V139.624H290.719V147.473C290.719 148.654 290.827 149.526 291.044 150.089C291.266 150.646 291.644 151.075 292.175 151.378C292.714 151.681 293.369 151.833 294.142 151.833C295.466 151.833 296.409 151.533 296.972 150.933C297.535 150.333 297.816 149.18 297.816 147.473V139.624ZM316.52 153.225V139.624H322.55C323.762 139.624 324.684 139.748 325.315 139.995C325.945 140.236 326.449 140.666 326.827 141.285C327.204 141.903 327.393 142.587 327.393 143.335C327.393 144.3 327.08 145.113 326.456 145.775C325.831 146.437 324.866 146.857 323.561 147.037C324.037 147.265 324.399 147.491 324.647 147.714C325.172 148.196 325.67 148.799 326.14 149.523L328.506 153.225H326.242L324.442 150.395C323.917 149.579 323.484 148.954 323.144 148.521C322.803 148.088 322.497 147.785 322.225 147.612C321.959 147.439 321.687 147.318 321.409 147.25C321.205 147.207 320.871 147.185 320.407 147.185H318.319V153.225H316.52ZM318.319 145.626H322.188C323.011 145.626 323.654 145.543 324.118 145.376C324.582 145.203 324.934 144.931 325.175 144.56C325.417 144.182 325.537 143.774 325.537 143.335C325.537 142.692 325.302 142.163 324.832 141.749C324.368 141.334 323.632 141.127 322.624 141.127H318.319V145.626ZM344.129 153.225V139.624H353.963V141.229H345.929V145.395H353.453V146.99H345.929V151.62H354.279V153.225H344.129Z" fill="black"/>
<path d="M321.834 63.5049C319.055 65.6082 315.662 66.8444 312.013 66.8444C308.365 66.8444 304.648 65.4975 301.8 63.2097C295.185 58.9293 278.749 26.7891 278.749 26.7891H286.916C289.644 32.1027 292.832 37.0474 296.004 41.4016C301.766 49.2983 307.478 55.2392 310.274 57.9883C310.274 57.9883 310.274 57.9883 310.291 58.0068C310.82 58.5787 311.383 59.1322 311.979 59.6304C312.013 59.6673 312.03 59.6673 312.03 59.6673C314.775 61.9551 318.168 63.3573 321.851 63.5049H321.834Z" fill="black"/>
<path d="M302.193 63.5049C304.972 65.6082 308.365 66.8444 312.014 66.8444C315.662 66.8444 319.379 65.4975 322.226 63.2097C328.842 58.9293 345.278 26.7891 345.278 26.7891H337.111C334.383 32.1027 331.195 37.0474 328.023 41.4016C322.261 49.2983 316.549 55.2392 313.753 57.9883C313.753 57.9883 313.753 57.9883 313.736 58.0068C313.207 58.5787 312.644 59.1322 312.048 59.6304C312.014 59.6673 311.997 59.6673 311.997 59.6673C309.252 61.9551 305.859 63.3573 302.176 63.5049H302.193Z" fill="black"/>
<path d="M321.834 63.5056C321.834 63.5056 321.834 63.5056 321.8 63.5056C321.629 63.6348 321.459 63.7455 321.305 63.8746C321.135 64.0038 320.947 64.1145 320.76 64.2436C320.589 64.3543 320.419 64.4466 320.265 64.5573C320.231 64.5757 320.214 64.5942 320.18 64.6126C320.01 64.7233 319.822 64.8156 319.652 64.9078C319.481 65.0001 319.328 65.0923 319.157 65.1661C318.884 65.2953 318.612 65.4244 318.339 65.5536C318.219 65.6089 318.1 65.6643 317.981 65.7012C317.81 65.775 317.64 65.8488 317.469 65.9041C317.316 65.9595 317.179 66.0148 317.026 66.0517C316.924 66.0886 316.804 66.1255 316.702 66.1624C316.651 66.1809 316.583 66.1993 316.514 66.2178C316.361 66.2731 316.225 66.31 316.071 66.3469C315.798 66.4207 315.508 66.4945 315.219 66.5499C315.048 66.5868 314.878 66.6052 314.724 66.6421C314.281 66.7159 313.838 66.7713 313.394 66.8082C312.951 66.8451 312.508 66.8635 312.047 66.8635H312.013C311.57 66.8635 311.11 66.8635 310.666 66.8082C310.223 66.7713 309.78 66.7159 309.336 66.6421C309.149 66.6052 308.961 66.5868 308.791 66.5314C308.535 66.4761 308.279 66.4207 308.041 66.3469C307.87 66.31 307.7 66.2547 307.529 66.1993C307.478 66.1993 307.427 66.1624 307.376 66.144C307.256 66.1071 307.12 66.0702 307.001 66.0333C306.881 65.9964 306.762 65.9595 306.643 65.9041C306.472 65.8488 306.284 65.775 306.131 65.7196C305.961 65.6458 305.79 65.572 305.62 65.4982C305.602 65.4982 305.585 65.4982 305.568 65.4798C305.381 65.406 305.193 65.3137 305.006 65.2215C304.801 65.1292 304.614 65.037 304.426 64.9263C304.238 64.834 304.051 64.7233 303.863 64.6126C303.676 64.5019 303.488 64.3912 303.301 64.2621C303.113 64.1514 302.926 64.0222 302.755 63.8931C302.585 63.7639 302.397 63.6348 302.227 63.5056C305.926 63.358 309.302 61.9373 312.047 59.668C314.792 61.9558 318.168 63.358 321.868 63.5056H321.834Z" fill="black"/>
<path d="M321.834 74.4293C319.055 72.326 315.662 71.0898 312.013 71.0898C308.365 71.0898 304.648 72.4367 301.8 74.7245C295.185 79.005 278.749 111.145 278.749 111.145H286.916C289.644 105.832 292.832 100.887 296.004 96.5326C301.766 88.636 307.478 82.695 310.274 79.9459C310.274 79.9459 310.274 79.9459 310.291 79.9275C310.82 79.3555 311.383 78.802 311.979 78.3039C312.013 78.267 312.03 78.267 312.03 78.267C314.775 75.9791 318.168 74.5769 321.851 74.4293H321.834Z" fill="black"/>
<path d="M302.193 74.4274C304.972 72.3241 308.365 71.0879 312.014 71.0879C315.662 71.0879 319.379 72.4348 322.226 74.7226C328.842 79.003 345.278 111.143 345.278 111.143H337.111C334.383 105.83 331.195 100.885 328.023 96.5307C322.261 88.634 316.549 82.6931 313.753 79.944C313.753 79.944 313.753 79.944 313.736 79.9255C313.207 79.3536 312.644 78.8001 312.048 78.3019C312.014 78.265 311.997 78.265 311.997 78.265C309.252 75.9772 305.859 74.575 302.176 74.4274H302.193Z" fill="black"/>
<path d="M321.834 74.4282C321.834 74.4282 321.834 74.4282 321.8 74.4282C321.629 74.2991 321.459 74.1884 321.305 74.0592C321.135 73.9301 320.947 73.8194 320.76 73.6902C320.589 73.5795 320.419 73.4873 320.265 73.3766C320.231 73.3581 320.214 73.3397 320.18 73.3212C320.01 73.2105 319.822 73.1183 319.652 73.026C319.481 72.9338 319.328 72.8415 319.157 72.7677C318.884 72.6386 318.612 72.5094 318.339 72.3803C318.219 72.3249 318.1 72.2696 317.981 72.2327C317.81 72.1589 317.64 72.0851 317.469 72.0297C317.316 71.9744 317.179 71.919 317.026 71.8821C316.924 71.8452 316.804 71.8083 316.702 71.7714C316.651 71.753 316.583 71.7345 316.514 71.7161C316.361 71.6607 316.225 71.6238 316.071 71.5869C315.798 71.5131 315.508 71.4393 315.219 71.384C315.048 71.3471 314.878 71.3286 314.724 71.2917C314.281 71.2179 313.838 71.1626 313.394 71.1257C312.951 71.0888 312.508 71.0703 312.047 71.0703H312.013C311.57 71.0703 311.11 71.0703 310.666 71.1257C310.223 71.1626 309.78 71.2179 309.336 71.2917C309.149 71.3286 308.961 71.3471 308.791 71.4024C308.535 71.4578 308.279 71.5131 308.041 71.5869C307.87 71.6238 307.7 71.6792 307.529 71.7345C307.478 71.7345 307.427 71.7714 307.376 71.7899C307.256 71.8268 307.12 71.8637 307.001 71.9006C306.881 71.9375 306.762 71.9744 306.643 72.0297C306.472 72.0851 306.284 72.1589 306.131 72.2142C305.961 72.288 305.79 72.3618 305.62 72.4356C305.602 72.4356 305.585 72.4356 305.568 72.4541C305.381 72.5279 305.193 72.6201 305.006 72.7124C304.801 72.8046 304.614 72.8969 304.426 73.0076C304.238 73.0998 304.051 73.2105 303.863 73.3212C303.676 73.4319 303.488 73.5426 303.301 73.6718C303.113 73.7825 302.926 73.9116 302.755 74.0408C302.585 74.1699 302.397 74.2991 302.227 74.4282C305.926 74.5758 309.302 75.9965 312.047 78.2659C314.792 75.9781 318.168 74.5758 321.868 74.4282H321.834Z" fill="black"/>
</svg>
