<svg width="434" height="158" viewBox="0 0 434 158" fill="none" xmlns="http://www.w3.org/2000/svg">
<path d="M6.02869 95.0801H143.087C143.248 95.0801 143.389 95.2409 143.389 95.4247V99.6515C143.389 99.8352 143.248 99.996 143.087 99.996H6.02869C4.83899 99.996 3.87109 98.8934 3.87109 97.5381C3.87109 96.1827 4.83899 95.0801 6.02869 95.0801Z" fill="#F6872C" stroke="black" stroke-width="0.3" stroke-miterlimit="10"/>
<path d="M282.907 95.0801H143.389V99.996H282.907V95.0801Z" fill="#FEFFFF" stroke="black" stroke-width="0.3" stroke-miterlimit="10"/>
<path d="M283.21 95.0801H420.953C422.143 95.0801 423.111 96.1827 423.111 97.5381C423.111 98.8934 422.143 99.996 420.953 99.996H283.21C283.048 99.996 282.907 99.8352 282.907 99.6515V95.4247C282.907 95.2409 283.048 95.0801 283.21 95.0801Z" fill="#00AB58" stroke="black" stroke-width="0.3" stroke-miterlimit="10"/>
<path d="M16.1591 126.984H14.0455C13.9205 126.376 13.7017 125.842 13.3892 125.382C13.0824 124.922 12.7074 124.536 12.2642 124.223C11.8267 123.905 11.3409 123.666 10.8068 123.507C10.2727 123.348 9.71591 123.268 9.13636 123.268C8.07955 123.268 7.12216 123.536 6.2642 124.07C5.41193 124.604 4.73295 125.391 4.22727 126.43C3.72727 127.47 3.47727 128.746 3.47727 130.257C3.47727 131.768 3.72727 133.044 4.22727 134.084C4.73295 135.124 5.41193 135.911 6.2642 136.445C7.12216 136.979 8.07955 137.246 9.13636 137.246C9.71591 137.246 10.2727 137.166 10.8068 137.007C11.3409 136.848 11.8267 136.612 12.2642 136.3C12.7074 135.982 13.0824 135.592 13.3892 135.132C13.7017 134.666 13.9205 134.132 14.0455 133.53H16.1591C16 134.422 15.7102 135.22 15.2898 135.925C14.8693 136.629 14.3466 137.229 13.7216 137.723C13.0966 138.212 12.3949 138.584 11.6165 138.839C10.8438 139.095 10.017 139.223 9.13636 139.223C7.64773 139.223 6.32386 138.859 5.16477 138.132C4.00568 137.405 3.09375 136.371 2.42898 135.03C1.7642 133.689 1.43182 132.098 1.43182 130.257C1.43182 128.416 1.7642 126.825 2.42898 125.484C3.09375 124.143 4.00568 123.109 5.16477 122.382C6.32386 121.655 7.64773 121.291 9.13636 121.291C10.017 121.291 10.8438 121.419 11.6165 121.675C12.3949 121.93 13.0966 122.305 13.7216 122.8C14.3466 123.288 14.8693 123.885 15.2898 124.589C15.7102 125.288 16 126.087 16.1591 126.984ZM52.0618 130.257C52.0618 132.098 51.7295 133.689 51.0647 135.03C50.3999 136.371 49.488 137.405 48.3289 138.132C47.1698 138.859 45.8459 139.223 44.3573 139.223C42.8687 139.223 41.5448 138.859 40.3857 138.132C39.2266 137.405 38.3147 136.371 37.6499 135.03C36.9851 133.689 36.6528 132.098 36.6528 130.257C36.6528 128.416 36.9851 126.825 37.6499 125.484C38.3147 124.143 39.2266 123.109 40.3857 122.382C41.5448 121.655 42.8687 121.291 44.3573 121.291C45.8459 121.291 47.1698 121.655 48.3289 122.382C49.488 123.109 50.3999 124.143 51.0647 125.484C51.7295 126.825 52.0618 128.416 52.0618 130.257ZM50.0164 130.257C50.0164 128.746 49.7636 127.47 49.2579 126.43C48.7579 125.391 48.0789 124.604 47.2209 124.07C46.3687 123.536 45.4141 123.268 44.3573 123.268C43.3005 123.268 42.3431 123.536 41.4851 124.07C40.6329 124.604 39.9539 125.391 39.4482 126.43C38.9482 127.47 38.6982 128.746 38.6982 130.257C38.6982 131.768 38.9482 133.044 39.4482 134.084C39.9539 135.124 40.6329 135.911 41.4851 136.445C42.3431 136.979 43.3005 137.246 44.3573 137.246C45.4141 137.246 46.3687 136.979 47.2209 136.445C48.0789 135.911 48.7579 135.124 49.2579 134.084C49.7636 133.044 50.0164 131.768 50.0164 130.257ZM73.3758 138.984V121.53H75.4895V137.109H83.6031V138.984H73.3758ZM118.683 130.257C118.683 132.098 118.351 133.689 117.686 135.03C117.021 136.371 116.11 137.405 114.95 138.132C113.791 138.859 112.467 139.223 110.979 139.223C109.49 139.223 108.166 138.859 107.007 138.132C105.848 137.405 104.936 136.371 104.271 135.03C103.607 133.689 103.274 132.098 103.274 130.257C103.274 128.416 103.607 126.825 104.271 125.484C104.936 124.143 105.848 123.109 107.007 122.382C108.166 121.655 109.49 121.291 110.979 121.291C112.467 121.291 113.791 121.655 114.95 122.382C116.11 123.109 117.021 124.143 117.686 125.484C118.351 126.825 118.683 128.416 118.683 130.257ZM116.638 130.257C116.638 128.746 116.385 127.47 115.879 126.43C115.379 125.391 114.7 124.604 113.842 124.07C112.99 123.536 112.036 123.268 110.979 123.268C109.922 123.268 108.965 123.536 108.107 124.07C107.254 124.604 106.575 125.391 106.07 126.43C105.57 127.47 105.32 128.746 105.32 130.257C105.32 131.768 105.57 133.044 106.07 134.084C106.575 135.124 107.254 135.911 108.107 136.445C108.965 136.979 109.922 137.246 110.979 137.246C112.036 137.246 112.99 136.979 113.842 136.445C114.7 135.911 115.379 135.124 115.879 134.084C116.385 133.044 116.638 131.768 116.638 130.257ZM151.452 121.53H153.566V133.087C153.566 134.28 153.284 135.345 152.722 136.283C152.165 137.214 151.378 137.95 150.361 138.49C149.344 139.024 148.151 139.291 146.781 139.291C145.412 139.291 144.219 139.024 143.202 138.49C142.185 137.95 141.395 137.214 140.833 136.283C140.276 135.345 139.997 134.28 139.997 133.087V121.53H142.111V132.916C142.111 133.768 142.299 134.527 142.674 135.192C143.049 135.851 143.583 136.371 144.276 136.751C144.975 137.126 145.81 137.314 146.781 137.314C147.753 137.314 148.588 137.126 149.287 136.751C149.986 136.371 150.52 135.851 150.889 135.192C151.264 134.527 151.452 133.768 151.452 132.916V121.53ZM175.546 138.984V121.53H181.444C182.808 121.53 183.927 121.763 184.802 122.229C185.677 122.689 186.325 123.322 186.745 124.129C187.166 124.936 187.376 125.854 187.376 126.882C187.376 127.911 187.166 128.822 186.745 129.618C186.325 130.413 185.68 131.038 184.811 131.493C183.941 131.942 182.831 132.166 181.478 132.166H176.706V130.257H181.41C182.342 130.257 183.092 130.121 183.66 129.848C184.234 129.575 184.649 129.189 184.904 128.689C185.166 128.183 185.296 127.581 185.296 126.882C185.296 126.183 185.166 125.572 184.904 125.05C184.643 124.527 184.225 124.124 183.652 123.839C183.078 123.55 182.319 123.405 181.376 123.405H177.66V138.984H175.546ZM183.762 131.143L188.058 138.984H185.603L181.376 131.143H183.762ZM207.703 123.405V121.53H220.794V123.405H215.306V138.984H213.192V123.405H207.703ZM241.816 138.984V121.53H252.351V123.405H243.93V129.303H251.805V131.178H243.93V137.109H252.487V138.984H241.816ZM274.943 121.53L279.443 128.791H279.579L284.079 121.53H286.568L281.079 130.257L286.568 138.984H284.079L279.579 131.859H279.443L274.943 138.984H272.454L278.079 130.257L272.454 121.53H274.943ZM306.124 123.405V121.53H319.215V123.405H313.726V138.984H311.613V123.405H306.124ZM351.692 121.53H353.805V133.087C353.805 134.28 353.524 135.345 352.962 136.283C352.405 137.214 351.618 137.95 350.601 138.49C349.584 139.024 348.39 139.291 347.021 139.291C345.652 139.291 344.459 139.024 343.442 138.49C342.425 137.95 341.635 137.214 341.072 136.283C340.515 135.345 340.237 134.28 340.237 133.087V121.53H342.351V132.916C342.351 133.768 342.538 134.527 342.913 135.192C343.288 135.851 343.822 136.371 344.515 136.751C345.214 137.126 346.05 137.314 347.021 137.314C347.993 137.314 348.828 137.126 349.527 136.751C350.226 136.371 350.76 135.851 351.129 135.192C351.504 134.527 351.692 133.768 351.692 132.916V121.53ZM375.786 138.984V121.53H381.684C383.048 121.53 384.167 121.763 385.042 122.229C385.917 122.689 386.565 123.322 386.985 124.129C387.405 124.936 387.616 125.854 387.616 126.882C387.616 127.911 387.405 128.822 386.985 129.618C386.565 130.413 385.92 131.038 385.05 131.493C384.181 131.942 383.07 132.166 381.718 132.166H376.945V130.257H381.65C382.582 130.257 383.332 130.121 383.9 129.848C384.474 129.575 384.888 129.189 385.144 128.689C385.405 128.183 385.536 127.581 385.536 126.882C385.536 126.183 385.405 125.572 385.144 125.05C384.883 124.527 384.465 124.124 383.891 123.839C383.317 123.55 382.559 123.405 381.616 123.405H377.9V138.984H375.786ZM384.002 131.143L388.298 138.984H385.843L381.616 131.143H384.002ZM408.898 138.984V121.53H419.432V123.405H411.011V129.303H418.886V131.178H411.011V137.109H419.568V138.984H408.898Z" fill="#CAA33C"/>
<path d="M55.3315 14.7476C55.3315 12.3126 55.271 9.9695 55.1298 7.69529C54.9887 5.42109 54.9282 3.62929 54.9282 2.29692C54.9282 1.51588 55.6541 1.12536 57.0858 1.12536C58.2553 1.12536 59.4652 1.42399 60.7356 1.99829C62.0059 2.59556 62.6512 3.39957 62.6512 4.41033C62.6512 5.35217 62.6109 6.82237 62.5504 8.82091C62.4899 10.8195 62.4495 12.841 62.4495 14.8625V73.6703C62.4495 74.3824 62.51 75.4621 62.6512 76.9093C62.7923 78.3565 62.8528 79.4362 62.8528 80.1483C62.8528 80.9294 62.5302 81.7334 61.8648 82.5604C61.2195 83.3874 60.4129 84.0765 59.445 84.6049C58.4771 85.1562 57.5899 85.4318 56.7632 85.4318C55.6541 85.4318 54.787 84.8805 54.1418 83.7779C53.4965 82.6752 52.8916 81.7104 52.3471 80.8375C49.383 76.0593 46.2575 70.9366 42.9707 65.4694C39.6637 60.0021 36.3769 54.397 33.0699 48.677C29.7629 42.957 26.5971 37.3289 23.5321 31.7697C20.4671 26.2106 17.6441 20.927 15.0227 15.9192V71.5569C15.0227 73.9919 15.0832 76.335 15.184 78.6092C15.2848 80.8834 15.3453 82.6752 15.3453 84.0076C15.3453 84.3981 15.1437 84.6967 14.7202 84.8805C14.3169 85.0643 13.833 85.1792 13.2684 85.1792C12.1593 85.1792 10.9696 84.8805 9.65894 84.3062C8.34825 83.709 7.70299 82.9279 7.70299 81.8942C7.70299 80.9523 7.74332 79.4821 7.80381 77.4836C7.8643 75.4851 7.90463 73.4635 7.90463 71.442V8.63714C7.90463 7.92501 7.78365 7.16694 7.54167 6.33996C7.2997 5.51297 7.17871 4.82382 7.17871 4.29547C7.17871 3.97386 7.21904 3.79009 7.27953 3.6982C7.62233 2.84825 8.46924 2.13612 9.80009 1.5848C11.1309 1.03347 12.3207 0.757812 13.349 0.757812C13.7523 0.757812 14.075 0.803756 14.2766 0.872671C14.9017 0.941587 15.3655 1.30914 15.668 1.92937C15.9704 2.54961 16.2931 3.19282 16.656 3.81306C20.9914 12.037 25.3671 20.169 29.8033 28.2321C34.2394 36.2952 38.6353 44.0137 42.9908 51.4106C47.3463 58.8075 51.4599 65.5612 55.3113 71.6717V14.7476H55.3315Z" fill="url(#paint0_linear_364_55)"/>
<path d="M92.0105 57.4755H91.6072C90.4982 60.1403 89.4093 62.7131 88.3002 65.217C87.1912 67.721 86.1628 70.0641 85.2151 72.2694C84.6706 73.5328 83.985 75.2557 83.1986 77.438C82.4122 79.6203 81.8073 81.3892 81.404 82.7215C81.2023 83.3418 80.6377 83.8472 79.7102 84.1917C78.7826 84.5363 77.7946 84.7201 76.7662 84.7201C75.7983 84.7201 74.9312 84.5363 74.1448 84.1917C73.3584 83.8472 72.9551 83.2729 72.9551 82.4918C72.9551 82.0324 73.0962 81.5959 73.3584 81.2054C73.6407 80.746 73.9028 80.2176 74.1851 79.6203C74.4674 79.0231 74.9312 78.0353 75.5765 76.634C76.2217 75.2327 77.2299 73.0964 78.5608 70.2249C79.8917 67.3764 81.7065 63.4023 83.9649 58.3025H83.239C82.4122 58.3025 81.6661 57.5904 80.9805 56.1202C80.2949 54.673 79.9522 53.3636 79.9522 52.192C79.9522 51.0205 80.3353 50.4232 81.0814 50.4232H81.283C81.9081 50.4232 82.513 50.4691 83.1381 50.5381C83.7632 50.607 84.469 50.6529 85.2957 50.6529H87.2517C89.5908 45.3235 91.9298 39.9481 94.2689 34.5037C96.608 29.0594 98.7253 23.9597 100.661 19.1816C102.577 14.4034 104.089 10.4063 105.198 7.21325C105.48 6.50112 105.682 5.44442 105.823 3.97423C105.964 2.527 106.206 1.56219 106.549 1.10275C106.892 0.643315 107.537 0.390625 108.505 0.390625C109.675 0.390625 110.884 0.735202 112.114 1.37841C113.345 2.04459 114.111 2.77969 114.373 3.56073C114.373 3.62965 114.373 3.72154 114.433 3.79045C114.474 3.85937 114.494 3.95125 114.494 4.02017C114.494 4.34177 114.433 4.70932 114.333 5.14579C114.232 5.58225 114.171 5.99574 114.171 6.38626C114.171 6.77678 114.212 7.05245 114.272 7.21325C116.268 13.2319 118.587 19.8248 121.229 26.992C123.87 34.1592 126.633 41.3723 129.516 48.6544C132.4 55.9364 135.183 62.782 137.865 69.1912C138.409 70.4546 139.276 72.2464 140.446 74.5895C141.615 76.9327 142.744 79.0231 143.853 80.8149C143.995 81.0446 144.095 81.2743 144.156 81.4581C144.216 81.6648 144.257 81.8256 144.257 81.9864C144.257 82.9283 143.632 83.6404 142.402 84.1688C141.172 84.6971 139.962 84.9268 138.792 84.9268C138.026 84.9268 137.34 84.812 136.735 84.5823C136.13 84.3525 135.747 83.985 135.606 83.5256C135.203 82.1243 134.618 80.2636 133.852 77.9434C133.086 75.6462 132.44 73.7855 131.896 72.3613C130.867 69.8573 129.799 67.2156 128.71 64.436C127.601 61.6564 126.472 58.7849 125.302 55.7986L92.0105 57.4526V57.4755ZM122.721 49.1368C120.18 42.406 117.74 35.8361 115.401 29.404C113.062 22.9949 111.167 17.6195 109.735 13.3237C108.566 16.3101 107.174 19.8248 105.561 23.8908C103.948 27.9568 102.214 32.2755 100.359 36.8009C98.5035 41.3493 96.608 45.8748 94.6924 50.4232L122.721 49.1368Z" fill="url(#paint1_linear_364_55)"/>
<path d="M168.071 9.69504L155.085 10.522C153.371 10.5909 151.697 10.7747 150.084 11.0504C148.471 11.326 147.281 11.5098 146.535 11.5787H146.434C145.547 11.5787 144.74 10.8666 144.055 9.46532C143.369 8.06404 143.026 6.75465 143.026 5.58309C143.026 4.18181 143.47 3.46969 144.357 3.46969C144.902 3.46969 145.87 3.51563 147.241 3.58455C148.612 3.65346 150.084 3.6994 151.677 3.6994C152.221 3.6994 152.786 3.6994 153.371 3.63049C153.956 3.58455 154.48 3.56157 154.964 3.56157L188.154 1.44817C189.727 1.28737 191.34 1.12656 192.994 0.988733C194.647 0.82793 195.877 0.667128 196.704 0.529297H197.007C197.833 0.529297 198.559 1.24142 199.164 2.6427C199.769 4.04398 200.092 5.35337 200.092 6.52494C200.092 7.92621 199.689 8.63834 198.862 8.63834C198.176 8.63834 197.047 8.56942 195.454 8.45457C193.881 8.33971 192.268 8.27079 190.615 8.27079C190.211 8.27079 189.788 8.27079 189.384 8.33971C188.981 8.38565 188.598 8.40862 188.255 8.40862L175.269 9.23561L175.37 71.4662C175.37 73.9012 175.431 76.2443 175.532 78.5185C175.632 80.7927 175.693 82.5845 175.693 83.9169C175.693 84.3763 175.471 84.7209 175.027 84.9047C174.584 85.0885 174.019 85.2033 173.334 85.2033C172.225 85.2033 171.035 84.8817 169.724 84.2615C168.413 83.6413 167.768 82.8143 167.768 81.8035C167.768 80.8617 167.809 79.3915 167.869 77.3929C167.929 75.3944 167.97 73.3729 167.97 71.3513L168.071 9.71801V9.69504Z" fill="url(#paint2_linear_364_55)"/>
<path d="M256.493 14.0356C256.493 12.933 256.452 11.5776 256.392 9.92365C256.331 8.26968 256.271 6.7076 256.231 5.2374C256.19 3.74424 256.17 2.68753 256.17 2.0673C256.17 1.60786 256.432 1.24031 256.936 1.01059C257.461 0.780875 258.045 0.666016 258.731 0.666016C259.901 0.666016 261.09 0.941677 262.28 1.493C263.49 2.04432 264.075 2.82536 264.075 3.83612C264.075 4.77797 264.034 6.22519 263.974 8.17779C263.913 10.1304 263.873 12.1289 263.873 14.1734V56.901C263.873 62.6899 262.744 67.7896 260.465 72.1542C258.207 76.5418 255.041 79.9417 250.988 82.3767C246.935 84.8117 242.196 86.0062 236.772 86.0062C228.464 86.0062 222.334 83.8239 218.382 79.4822C214.43 75.1406 212.453 68.8463 212.453 60.6454V15.0923C212.453 12.6573 212.393 10.2682 212.292 7.87916C212.191 5.49009 212.131 3.62938 212.131 2.29701C212.131 1.83758 212.393 1.47003 212.897 1.24031C213.421 1.01059 214.006 0.895734 214.692 0.895734C215.861 0.895734 217.051 1.1714 218.241 1.72272C219.451 2.27404 220.035 3.05508 220.035 4.06584C220.035 5.00768 219.995 6.61571 219.935 8.88992C219.874 11.1641 219.834 13.3235 219.834 15.345V59.2441C219.834 66.3653 221.286 71.3732 224.209 74.2676C227.133 77.1621 231.307 78.6093 236.732 78.6093C240.583 78.6093 243.971 77.6215 246.935 75.623C249.879 73.6244 252.198 70.8908 253.892 67.3991C255.565 63.9074 256.412 59.9332 256.412 55.4767V14.0356H256.493Z" fill="url(#paint3_linear_364_55)"/>
<path d="M285.65 11.5776H285.549C284.864 11.5776 284.158 11.2101 283.432 10.452C282.706 9.7169 282.101 8.84398 281.577 7.87916C281.053 6.89137 280.811 6.11033 280.811 5.46712C280.811 4.755 281.093 4.36448 281.637 4.29556C283.008 3.97395 284.581 3.69829 286.376 3.46858C288.171 3.23886 290.469 2.75645 293.272 2.0673C294.785 1.67677 296.861 1.35517 299.503 1.07951C302.145 0.803846 305.189 0.666016 308.617 0.666016C314.243 0.666016 318.76 1.6538 322.107 3.60641C325.475 5.55901 327.935 8.03996 329.467 11.0722C331.02 14.0815 331.786 17.2057 331.786 20.3988C331.786 24.6256 330.798 28.3011 328.842 31.4253C326.886 34.5494 324.366 37.0993 321.321 39.0519C318.256 41.0045 315.09 42.3369 311.783 43.049C310.896 43.2787 309.868 43.4625 308.698 43.5773C307.528 43.6922 306.319 43.83 305.089 43.9908C304.746 43.9908 304.363 43.9908 303.959 44.0597C303.556 44.1057 303.133 44.1287 302.729 44.1287C304.867 46.5637 307.387 49.6189 310.311 53.3403C313.235 57.0618 316.28 60.8291 319.426 64.6654C322.591 68.5017 325.616 71.8556 328.5 74.773C329.669 76.0365 331 77.277 332.512 78.5404C334.025 79.8038 335.255 80.6079 336.223 80.9984C337.392 81.5497 338.42 82.124 339.308 82.7672C340.195 83.3875 340.639 83.9388 340.639 84.4212C340.639 85.1333 339.65 85.4779 337.654 85.4779C335.658 85.4779 333.702 85.2022 331.565 84.6509C329.427 84.0996 327.31 82.8591 325.172 80.8835C322.833 78.7701 320.414 76.2432 317.913 73.3028C315.413 70.3624 312.912 67.3072 310.432 64.1371C307.952 60.967 305.613 57.9806 303.415 55.1551C301.217 52.3296 299.301 50.0324 297.648 48.2176C296.962 47.5055 296.115 46.8164 295.127 46.1042C294.139 45.3921 293.292 44.8867 292.607 44.5881V70.4084C292.607 73.0731 292.667 75.6689 292.768 78.2188C292.869 80.7687 292.929 82.6983 292.929 84.0307C292.929 84.4212 292.728 84.7198 292.304 84.9036C291.901 85.0874 291.417 85.2022 290.852 85.2022C289.743 85.2022 288.574 84.9036 287.304 84.3293C286.033 83.732 285.388 82.951 285.388 81.9173C285.388 80.9754 285.428 79.3674 285.489 77.0932C285.549 74.819 285.59 72.5448 285.59 70.2935V11.5776H285.65ZM297.507 38.3398C299.503 38.3398 301.439 38.2249 303.334 37.9952C305.23 37.7655 307.024 37.4898 308.738 37.1682C311.561 36.6169 314.163 35.5142 316.562 33.8143C318.962 32.1374 320.898 30.1388 322.39 27.8187C323.862 25.5215 324.608 23.1784 324.608 20.8353C324.608 16.93 323.156 13.7599 320.272 11.3249C317.389 8.88992 313.437 7.69539 308.416 7.69539C305.673 7.69539 302.911 7.85619 300.128 8.15482C297.345 8.47643 294.845 9.05072 292.647 9.92365V40.4532C293.05 39.8329 293.494 39.3275 293.938 38.937C294.381 38.5465 294.885 38.3398 295.43 38.3398H297.487H297.507Z" fill="url(#paint4_linear_364_55)"/>
<path d="M6.02869 95.0801H143.087C143.248 95.0801 143.389 95.2409 143.389 95.4247V99.6515C143.389 99.8352 143.248 99.996 143.087 99.996H6.02869C4.83899 99.996 3.87109 98.8934 3.87109 97.5381C3.87109 96.1827 4.83899 95.0801 6.02869 95.0801Z" fill="#F6872C" stroke="black" stroke-width="0.3" stroke-miterlimit="10"/>
<path d="M282.907 95.0801H143.389V99.996H282.907V95.0801Z" fill="#FEFFFF" stroke="black" stroke-width="0.3" stroke-miterlimit="10"/>
<path d="M283.21 95.0801H420.953C422.143 95.0801 423.111 96.1827 423.111 97.5381C423.111 98.8934 422.143 99.996 420.953 99.996H283.21C283.048 99.996 282.907 99.8352 282.907 99.6515V95.4247C282.907 95.2409 283.048 95.0801 283.21 95.0801Z" fill="#00AB58" stroke="black" stroke-width="0.3" stroke-miterlimit="10"/>
<path d="M392.32 36.5252C389.678 38.6156 386.492 39.8331 383.044 39.8331C379.596 39.8331 376.087 38.5007 373.385 36.2035C367.134 31.9538 351.628 0 351.628 0H359.331C361.892 5.28351 364.916 10.1995 367.921 14.5182C373.365 22.3516 378.769 28.2783 381.391 31.0119C381.391 31.0119 381.391 31.0119 381.411 31.0349C381.915 31.6092 382.439 32.1605 383.004 32.6429C383.024 32.6659 383.044 32.6889 383.044 32.6889C385.625 34.9631 388.831 36.3644 392.32 36.5022V36.5252Z" fill="url(#paint5_linear_364_55)"/>
<path d="M373.769 36.5252C376.41 38.6156 379.596 39.8331 383.044 39.8331C386.492 39.8331 390.001 38.5007 392.703 36.2035C398.954 31.9538 414.46 0 414.46 0H406.758C404.197 5.28351 401.172 10.1995 398.168 14.5182C392.723 22.3516 387.319 28.2783 384.698 31.0119C384.698 31.0119 384.698 31.0119 384.678 31.0349C384.173 31.6092 383.649 32.1605 383.085 32.6429C383.064 32.6659 383.044 32.6889 383.044 32.6889C380.463 34.9631 377.257 36.3644 373.769 36.5022V36.5252Z" fill="url(#paint6_linear_364_55)"/>
<path d="M392.32 36.5243C392.32 36.5243 392.32 36.5243 392.3 36.5243C392.138 36.6621 391.977 36.7769 391.816 36.8918C391.654 37.0296 391.473 37.1445 391.291 37.2594C391.13 37.3742 390.969 37.4661 390.808 37.558C390.787 37.581 390.747 37.6039 390.727 37.6039C390.566 37.7188 390.404 37.8107 390.223 37.9026C390.061 37.9945 389.92 38.0863 389.759 38.1553C389.517 38.2931 389.255 38.4079 388.993 38.5228C388.872 38.5687 388.771 38.6377 388.65 38.6606C388.489 38.7295 388.327 38.7985 388.166 38.8674C388.025 38.9133 387.884 38.9822 387.743 39.0282C387.642 39.0741 387.541 39.0971 387.44 39.143C387.38 39.166 387.319 39.189 387.259 39.189C387.117 39.2349 386.976 39.2809 386.835 39.3038C386.573 39.3728 386.291 39.4417 386.029 39.5106C385.867 39.5565 385.706 39.5795 385.545 39.6025C385.141 39.6714 384.718 39.7403 384.294 39.7633C383.871 39.8092 383.447 39.8322 383.024 39.8322H383.004C382.58 39.8322 382.157 39.8322 381.734 39.7633C381.31 39.7173 380.887 39.6714 380.483 39.6025C380.302 39.5795 380.141 39.5336 379.959 39.4876C379.717 39.4417 379.475 39.3728 379.253 39.3038C379.092 39.2579 378.931 39.212 378.769 39.166C378.709 39.166 378.669 39.143 378.628 39.1201C378.507 39.0741 378.386 39.0512 378.285 39.0052C378.164 38.9593 378.064 38.9133 377.963 38.8904C377.801 38.8214 377.64 38.7525 377.479 38.7066C377.317 38.6377 377.156 38.5687 376.995 38.4998C376.975 38.4998 376.955 38.4998 376.934 38.4769C376.753 38.385 376.571 38.3161 376.41 38.2242C376.229 38.1323 376.047 38.0404 375.866 37.9255C375.684 37.8336 375.503 37.7188 375.321 37.6039C375.14 37.4891 374.978 37.3742 374.797 37.2594C374.615 37.1445 374.454 37.0296 374.273 36.8918C374.111 36.7769 373.93 36.6391 373.769 36.5243C377.257 36.3635 380.463 34.9622 383.044 32.7109C385.625 34.9851 388.831 36.3864 392.32 36.5243Z" fill="url(#paint7_linear_364_55)"/>
<path d="M392.32 47.3685C389.678 45.2781 386.492 44.0605 383.044 44.0605C379.596 44.0605 376.087 45.3929 373.385 47.6901C367.134 51.9399 351.628 83.8936 351.628 83.8936H359.331C361.892 78.6101 364.916 73.6942 367.921 69.3755C373.365 61.5421 378.769 55.6154 381.391 52.8817C381.391 52.8817 381.391 52.8817 381.411 52.8587C381.915 52.2844 382.439 51.7331 383.004 51.2507C383.024 51.2277 383.044 51.2048 383.044 51.2048C385.625 48.9306 388.831 47.5293 392.32 47.3915V47.3685Z" fill="url(#paint8_linear_364_55)"/>
<path d="M373.769 47.3685C376.41 45.2781 379.596 44.0605 383.044 44.0605C386.492 44.0605 390.001 45.3929 392.703 47.6901C398.954 51.9399 414.46 83.8936 414.46 83.8936H406.758C404.197 78.6101 401.172 73.6942 398.168 69.3755C392.723 61.5421 387.319 55.6154 384.698 52.8817C384.698 52.8817 384.698 52.8817 384.678 52.8587C384.173 52.2844 383.649 51.7331 383.085 51.2507C383.064 51.2277 383.044 51.2048 383.044 51.2048C380.463 48.9306 377.257 47.5293 373.769 47.3915V47.3685Z" fill="url(#paint9_linear_364_55)"/>
<path d="M392.32 47.3685C392.32 47.3685 392.32 47.3685 392.3 47.3685C392.138 47.2307 391.977 47.1158 391.816 47.0009C391.654 46.8631 391.473 46.7482 391.291 46.6334C391.13 46.5185 390.969 46.4266 390.808 46.3348C390.787 46.3118 390.747 46.2888 390.727 46.2888C390.566 46.174 390.404 46.0821 390.223 45.9902C390.061 45.8983 389.92 45.8064 389.759 45.7375C389.517 45.5997 389.255 45.4848 388.993 45.3699C388.872 45.324 388.771 45.2551 388.65 45.2321C388.489 45.1632 388.327 45.0943 388.166 45.0254C388.025 44.9794 387.884 44.9105 387.743 44.8646C387.642 44.8186 387.541 44.7956 387.44 44.7497C387.38 44.7267 387.319 44.7038 387.259 44.7038C387.117 44.6578 386.976 44.6119 386.835 44.5889C386.573 44.52 386.291 44.4511 386.029 44.3822C385.867 44.3362 385.706 44.3132 385.545 44.2903C385.141 44.2214 384.718 44.1524 384.294 44.1295C383.871 44.0835 383.447 44.0605 383.024 44.0605H383.004C382.58 44.0605 382.157 44.0605 381.734 44.1295C381.31 44.1754 380.887 44.2214 380.483 44.2903C380.302 44.3132 380.141 44.3592 379.959 44.4051C379.717 44.4511 379.475 44.52 379.253 44.5889C379.092 44.6348 378.931 44.6808 378.769 44.7267C378.709 44.7267 378.669 44.7497 378.628 44.7727C378.507 44.8186 378.386 44.8416 378.285 44.8875C378.164 44.9335 378.064 44.9794 377.963 45.0024C377.801 45.0713 377.64 45.1402 377.479 45.1862C377.317 45.2551 377.156 45.324 376.995 45.3929C376.975 45.3929 376.955 45.3929 376.934 45.4159C376.753 45.5078 376.571 45.5767 376.41 45.6686C376.229 45.7605 376.047 45.8523 375.866 45.9672C375.684 46.0591 375.503 46.174 375.321 46.2888C375.14 46.4037 374.978 46.5185 374.797 46.6334C374.615 46.7482 374.454 46.8631 374.273 47.0009C374.111 47.1158 373.93 47.2536 373.769 47.3685C377.257 47.5293 380.463 48.9306 383.044 51.1818C385.625 48.9076 388.831 47.5063 392.32 47.3685Z" fill="url(#paint10_linear_364_55)"/>
<path d="M393.692 36.5252C391.05 38.6156 387.864 39.8331 384.416 39.8331C380.968 39.8331 377.459 38.5007 374.757 36.2035C368.506 31.9538 353 0 353 0H360.703C363.264 5.28351 366.288 10.1995 369.293 14.5182C374.737 22.3516 380.141 28.2783 382.763 31.0119C382.763 31.0119 382.763 31.0119 382.783 31.0349C383.287 31.6092 383.811 32.1605 384.376 32.6429C384.396 32.6659 384.416 32.6889 384.416 32.6889C386.997 34.9631 390.203 36.3644 393.692 36.5022V36.5252Z" fill="url(#paint11_linear_364_55)"/>
<path d="M375.141 36.5252C377.782 38.6156 380.968 39.8331 384.416 39.8331C387.864 39.8331 391.373 38.5007 394.075 36.2035C400.326 31.9538 415.833 0 415.833 0H408.13C405.569 5.28351 402.544 10.1995 399.54 14.5182C394.095 22.3516 388.691 28.2783 386.07 31.0119C386.07 31.0119 386.07 31.0119 386.05 31.0349C385.546 31.6092 385.021 32.1605 384.457 32.6429C384.436 32.6659 384.416 32.6889 384.416 32.6889C381.835 34.9631 378.629 36.3644 375.141 36.5022V36.5252Z" fill="url(#paint12_linear_364_55)"/>
<path d="M393.692 36.5243C393.692 36.5243 393.692 36.5243 393.672 36.5243C393.51 36.6621 393.349 36.7769 393.188 36.8918C393.027 37.0296 392.845 37.1445 392.664 37.2594C392.502 37.3742 392.341 37.4661 392.18 37.558C392.159 37.581 392.119 37.6039 392.099 37.6039C391.938 37.7188 391.776 37.8107 391.595 37.9026C391.434 37.9945 391.292 38.0863 391.131 38.1553C390.889 38.2931 390.627 38.4079 390.365 38.5228C390.244 38.5687 390.143 38.6377 390.022 38.6606C389.861 38.7295 389.699 38.7985 389.538 38.8674C389.397 38.9133 389.256 38.9822 389.115 39.0282C389.014 39.0741 388.913 39.0971 388.812 39.143C388.752 39.166 388.691 39.189 388.631 39.189C388.49 39.2349 388.348 39.2809 388.207 39.3038C387.945 39.3728 387.663 39.4417 387.401 39.5106C387.239 39.5565 387.078 39.5795 386.917 39.6025C386.513 39.6714 386.09 39.7403 385.666 39.7633C385.243 39.8092 384.82 39.8322 384.396 39.8322H384.376C383.953 39.8322 383.529 39.8322 383.106 39.7633C382.682 39.7173 382.259 39.6714 381.855 39.6025C381.674 39.5795 381.513 39.5336 381.331 39.4876C381.089 39.4417 380.847 39.3728 380.625 39.3038C380.464 39.2579 380.303 39.212 380.141 39.166C380.081 39.166 380.041 39.143 380 39.1201C379.879 39.0741 379.758 39.0512 379.657 39.0052C379.536 38.9593 379.436 38.9133 379.335 38.8904C379.174 38.8214 379.012 38.7525 378.851 38.7066C378.69 38.6377 378.528 38.5687 378.367 38.4998C378.347 38.4998 378.327 38.4998 378.306 38.4769C378.125 38.385 377.943 38.3161 377.782 38.2242C377.601 38.1323 377.419 38.0404 377.238 37.9255C377.056 37.8336 376.875 37.7188 376.693 37.6039C376.512 37.4891 376.35 37.3742 376.169 37.2594C375.988 37.1445 375.826 37.0296 375.645 36.8918C375.483 36.7769 375.302 36.6391 375.141 36.5243C378.629 36.3635 381.835 34.9622 384.416 32.7109C386.997 34.9851 390.203 36.3864 393.692 36.5243Z" fill="url(#paint13_linear_364_55)"/>
<path d="M393.692 47.3685C391.05 45.2781 387.864 44.0605 384.416 44.0605C380.968 44.0605 377.459 45.3929 374.757 47.6901C368.506 51.9399 353 83.8936 353 83.8936H360.703C363.264 78.6101 366.288 73.6942 369.293 69.3755C374.737 61.5421 380.141 55.6154 382.763 52.8817C382.763 52.8817 382.763 52.8817 382.783 52.8587C383.287 52.2844 383.811 51.7331 384.376 51.2507C384.396 51.2277 384.416 51.2048 384.416 51.2048C386.997 48.9306 390.203 47.5293 393.692 47.3915V47.3685Z" fill="url(#paint14_linear_364_55)"/>
<path d="M375.141 47.3685C377.782 45.2781 380.968 44.0605 384.416 44.0605C387.864 44.0605 391.373 45.3929 394.075 47.6901C400.326 51.9399 415.833 83.8936 415.833 83.8936H408.13C405.569 78.6101 402.544 73.6942 399.54 69.3755C394.095 61.5421 388.691 55.6154 386.07 52.8817C386.07 52.8817 386.07 52.8817 386.05 52.8587C385.546 52.2844 385.021 51.7331 384.457 51.2507C384.436 51.2277 384.416 51.2048 384.416 51.2048C381.835 48.9306 378.629 47.5293 375.141 47.3915V47.3685Z" fill="url(#paint15_linear_364_55)"/>
<path d="M393.692 47.3685C393.692 47.3685 393.692 47.3685 393.672 47.3685C393.51 47.2307 393.349 47.1158 393.188 47.0009C393.027 46.8631 392.845 46.7482 392.664 46.6334C392.502 46.5185 392.341 46.4266 392.18 46.3348C392.159 46.3118 392.119 46.2888 392.099 46.2888C391.938 46.174 391.776 46.0821 391.595 45.9902C391.434 45.8983 391.292 45.8064 391.131 45.7375C390.889 45.5997 390.627 45.4848 390.365 45.3699C390.244 45.324 390.143 45.2551 390.022 45.2321C389.861 45.1632 389.699 45.0943 389.538 45.0254C389.397 44.9794 389.256 44.9105 389.115 44.8646C389.014 44.8186 388.913 44.7956 388.812 44.7497C388.752 44.7267 388.691 44.7038 388.631 44.7038C388.49 44.6578 388.348 44.6119 388.207 44.5889C387.945 44.52 387.663 44.4511 387.401 44.3822C387.239 44.3362 387.078 44.3132 386.917 44.2903C386.513 44.2214 386.09 44.1524 385.666 44.1295C385.243 44.0835 384.82 44.0605 384.396 44.0605H384.376C383.953 44.0605 383.529 44.0605 383.106 44.1295C382.682 44.1754 382.259 44.2214 381.855 44.2903C381.674 44.3132 381.513 44.3592 381.331 44.4051C381.089 44.4511 380.847 44.52 380.625 44.5889C380.464 44.6348 380.303 44.6808 380.141 44.7267C380.081 44.7267 380.041 44.7497 380 44.7727C379.879 44.8186 379.758 44.8416 379.657 44.8875C379.536 44.9335 379.436 44.9794 379.335 45.0024C379.174 45.0713 379.012 45.1402 378.851 45.1862C378.69 45.2551 378.528 45.324 378.367 45.3929C378.347 45.3929 378.327 45.3929 378.306 45.4159C378.125 45.5078 377.943 45.5767 377.782 45.6686C377.601 45.7605 377.419 45.8523 377.238 45.9672C377.056 46.0591 376.875 46.174 376.693 46.2888C376.512 46.4037 376.35 46.5185 376.169 46.6334C375.988 46.7482 375.826 46.8631 375.645 47.0009C375.483 47.1158 375.302 47.2536 375.141 47.3685C378.629 47.5293 381.835 48.9306 384.416 51.1818C386.997 48.9076 390.203 47.5063 393.692 47.3685Z" fill="url(#paint16_linear_364_55)"/>
<defs>
<linearGradient id="paint0_linear_364_55" x1="35.0259" y1="0.780784" x2="35.0259" y2="85.4089" gradientUnits="userSpaceOnUse">
<stop stop-color="#C8B363"/>
<stop offset="0.51" stop-color="#F7F1AC"/>
<stop offset="1" stop-color="#9E7D2A"/>
</linearGradient>
<linearGradient id="paint1_linear_364_55" x1="108.606" y1="0.413597" x2="108.606" y2="84.9498" gradientUnits="userSpaceOnUse">
<stop stop-color="#C8B363"/>
<stop offset="0.51" stop-color="#F7F1AC"/>
<stop offset="1" stop-color="#9E7D2A"/>
</linearGradient>
<linearGradient id="paint2_linear_364_55" x1="171.579" y1="0.529297" x2="171.579" y2="85.1804" gradientUnits="userSpaceOnUse">
<stop stop-color="#C8B363"/>
<stop offset="0.51" stop-color="#F7F1AC"/>
<stop offset="1" stop-color="#9E7D2A"/>
</linearGradient>
<linearGradient id="paint3_linear_364_55" x1="238.143" y1="0.643044" x2="238.143" y2="86.0062" gradientUnits="userSpaceOnUse">
<stop stop-color="#C8B363"/>
<stop offset="0.51" stop-color="#F7F1AC"/>
<stop offset="1" stop-color="#9E7D2A"/>
</linearGradient>
<linearGradient id="paint4_linear_364_55" x1="310.735" y1="0.643044" x2="310.735" y2="85.409" gradientUnits="userSpaceOnUse">
<stop stop-color="#C8B363"/>
<stop offset="0.51" stop-color="#F7F1AC"/>
<stop offset="1" stop-color="#9E7D2A"/>
</linearGradient>
<linearGradient id="paint5_linear_364_55" x1="371.974" y1="-13.875" x2="371.974" y2="79.7351" gradientUnits="userSpaceOnUse">
<stop stop-color="#C8B363"/>
<stop offset="0.51" stop-color="#F7F1AC"/>
<stop offset="1" stop-color="#9E7D2A"/>
</linearGradient>
<linearGradient id="paint6_linear_364_55" x1="394.115" y1="-13.875" x2="394.115" y2="79.7351" gradientUnits="userSpaceOnUse">
<stop stop-color="#C8B363"/>
<stop offset="0.51" stop-color="#F7F1AC"/>
<stop offset="1" stop-color="#9E7D2A"/>
</linearGradient>
<linearGradient id="paint7_linear_364_55" x1="383.044" y1="-13.8759" x2="383.044" y2="79.7342" gradientUnits="userSpaceOnUse">
<stop stop-color="#C8B363"/>
<stop offset="0.51" stop-color="#F7F1AC"/>
<stop offset="1" stop-color="#9E7D2A"/>
</linearGradient>
<linearGradient id="paint8_linear_364_55" x1="371.974" y1="-13.8743" x2="371.974" y2="79.7357" gradientUnits="userSpaceOnUse">
<stop stop-color="#C8B363"/>
<stop offset="0.51" stop-color="#F7F1AC"/>
<stop offset="1" stop-color="#9E7D2A"/>
</linearGradient>
<linearGradient id="paint9_linear_364_55" x1="394.115" y1="-13.8743" x2="394.115" y2="79.7357" gradientUnits="userSpaceOnUse">
<stop stop-color="#C8B363"/>
<stop offset="0.51" stop-color="#F7F1AC"/>
<stop offset="1" stop-color="#9E7D2A"/>
</linearGradient>
<linearGradient id="paint10_linear_364_55" x1="383.044" y1="-13.8743" x2="383.044" y2="79.7357" gradientUnits="userSpaceOnUse">
<stop stop-color="#C8B363"/>
<stop offset="0.51" stop-color="#F7F1AC"/>
<stop offset="1" stop-color="#9E7D2A"/>
</linearGradient>
<linearGradient id="paint11_linear_364_55" x1="373.346" y1="-13.875" x2="373.346" y2="79.7351" gradientUnits="userSpaceOnUse">
<stop stop-color="#C8B363"/>
<stop offset="0.51" stop-color="#F7F1AC"/>
<stop offset="1" stop-color="#9E7D2A"/>
</linearGradient>
<linearGradient id="paint12_linear_364_55" x1="395.487" y1="-13.875" x2="395.487" y2="79.7351" gradientUnits="userSpaceOnUse">
<stop stop-color="#C8B363"/>
<stop offset="0.51" stop-color="#F7F1AC"/>
<stop offset="1" stop-color="#9E7D2A"/>
</linearGradient>
<linearGradient id="paint13_linear_364_55" x1="384.416" y1="-13.8759" x2="384.416" y2="79.7342" gradientUnits="userSpaceOnUse">
<stop stop-color="#C8B363"/>
<stop offset="0.51" stop-color="#F7F1AC"/>
<stop offset="1" stop-color="#9E7D2A"/>
</linearGradient>
<linearGradient id="paint14_linear_364_55" x1="373.346" y1="-13.8743" x2="373.346" y2="79.7357" gradientUnits="userSpaceOnUse">
<stop stop-color="#C8B363"/>
<stop offset="0.51" stop-color="#F7F1AC"/>
<stop offset="1" stop-color="#9E7D2A"/>
</linearGradient>
<linearGradient id="paint15_linear_364_55" x1="395.487" y1="-13.8743" x2="395.487" y2="79.7357" gradientUnits="userSpaceOnUse">
<stop stop-color="#C8B363"/>
<stop offset="0.51" stop-color="#F7F1AC"/>
<stop offset="1" stop-color="#9E7D2A"/>
</linearGradient>
<linearGradient id="paint16_linear_364_55" x1="384.416" y1="-13.8743" x2="384.416" y2="79.7357" gradientUnits="userSpaceOnUse">
<stop stop-color="#C8B363"/>
<stop offset="0.51" stop-color="#F7F1AC"/>
<stop offset="1" stop-color="#9E7D2A"/>
</linearGradient>
</defs>
</svg>
