<svg width="396" height="149" viewBox="0 0 396 149" fill="none" xmlns="http://www.w3.org/2000/svg">
<path d="M5.50091 89.6641H130.558C130.706 89.6641 130.834 89.8157 130.834 89.989V93.9751C130.834 94.1484 130.706 94.3 130.558 94.3H5.50091C4.41537 94.3 3.53223 93.2602 3.53223 91.982C3.53223 90.7039 4.41537 89.6641 5.50091 89.6641Z" fill="#F6872C" stroke="black" stroke-width="0.3" stroke-miterlimit="10"/>
<path d="M258.136 89.6641H130.834V94.3H258.136V89.6641Z" fill="#FEFFFF" stroke="black" stroke-width="0.3" stroke-miterlimit="10"/>
<path d="M258.413 89.6641H384.096C385.181 89.6641 386.064 90.7039 386.064 91.982C386.064 93.2602 385.181 94.3 384.096 94.3H258.413C258.265 94.3 258.137 94.1484 258.137 93.9751V89.989C258.137 89.8157 258.265 89.6641 258.413 89.6641Z" fill="#00AB58" stroke="black" stroke-width="0.3" stroke-miterlimit="10"/>
<path d="M14.8125 116.045H12.875C12.7604 115.488 12.5599 114.998 12.2734 114.576C11.9922 114.154 11.6484 113.8 11.2422 113.514C10.8411 113.222 10.3958 113.003 9.90625 112.857C9.41667 112.712 8.90625 112.639 8.375 112.639C7.40625 112.639 6.52865 112.883 5.74219 113.373C4.96094 113.863 4.33854 114.584 3.875 115.537C3.41667 116.49 3.1875 117.66 3.1875 119.045C3.1875 120.43 3.41667 121.6 3.875 122.553C4.33854 123.506 4.96094 124.227 5.74219 124.717C6.52865 125.206 7.40625 125.451 8.375 125.451C8.90625 125.451 9.41667 125.378 9.90625 125.232C10.3958 125.087 10.8411 124.87 11.2422 124.584C11.6484 124.292 11.9922 123.936 12.2734 123.514C12.5599 123.087 12.7604 122.597 12.875 122.045H14.8125C14.6667 122.863 14.401 123.594 14.0156 124.24C13.6302 124.886 13.151 125.436 12.5781 125.889C12.0052 126.337 11.362 126.678 10.6484 126.912C9.9401 127.146 9.18229 127.264 8.375 127.264C7.01042 127.264 5.79688 126.93 4.73438 126.264C3.67188 125.597 2.83594 124.649 2.22656 123.42C1.61719 122.191 1.3125 120.732 1.3125 119.045C1.3125 117.357 1.61719 115.899 2.22656 114.67C2.83594 113.441 3.67188 112.493 4.73438 111.826C5.79688 111.16 7.01042 110.826 8.375 110.826C9.18229 110.826 9.9401 110.943 10.6484 111.178C11.362 111.412 12.0052 111.756 12.5781 112.209C13.151 112.657 13.6302 113.204 14.0156 113.85C14.401 114.49 14.6667 115.222 14.8125 116.045ZM47.2834 119.045C47.2834 120.732 46.9787 122.191 46.3693 123.42C45.7599 124.649 44.924 125.597 43.8615 126.264C42.799 126.93 41.5854 127.264 40.2209 127.264C38.8563 127.264 37.6427 126.93 36.5802 126.264C35.5177 125.597 34.6818 124.649 34.0724 123.42C33.463 122.191 33.1584 120.732 33.1584 119.045C33.1584 117.357 33.463 115.899 34.0724 114.67C34.6818 113.441 35.5177 112.493 36.5802 111.826C37.6427 111.16 38.8563 110.826 40.2209 110.826C41.5854 110.826 42.799 111.16 43.8615 111.826C44.924 112.493 45.7599 113.441 46.3693 114.67C46.9787 115.899 47.2834 117.357 47.2834 119.045ZM45.4084 119.045C45.4084 117.66 45.1766 116.49 44.713 115.537C44.2547 114.584 43.6323 113.863 42.8459 113.373C42.0646 112.883 41.1896 112.639 40.2209 112.639C39.2521 112.639 38.3745 112.883 37.588 113.373C36.8068 113.863 36.1844 114.584 35.7209 115.537C35.2625 116.49 35.0334 117.66 35.0334 119.045C35.0334 120.43 35.2625 121.6 35.7209 122.553C36.1844 123.506 36.8068 124.227 37.588 124.717C38.3745 125.206 39.2521 125.451 40.2209 125.451C41.1896 125.451 42.0646 125.206 42.8459 124.717C43.6323 124.227 44.2547 123.506 44.713 122.553C45.1766 121.6 45.4084 120.43 45.4084 119.045ZM66.3812 127.045V111.045H68.3187V125.326H75.7562V127.045H66.3812ZM107.473 119.045C107.473 120.732 107.168 122.191 106.559 123.42C105.95 124.649 105.114 125.597 104.051 126.264C102.989 126.93 101.775 127.264 100.411 127.264C99.046 127.264 97.8325 126.93 96.77 126.264C95.7075 125.597 94.8716 124.649 94.2622 123.42C93.6528 122.191 93.3481 120.732 93.3481 119.045C93.3481 117.357 93.6528 115.899 94.2622 114.67C94.8716 113.441 95.7075 112.493 96.77 111.826C97.8325 111.16 99.046 110.826 100.411 110.826C101.775 110.826 102.989 111.16 104.051 111.826C105.114 112.493 105.95 113.441 106.559 114.67C107.168 115.899 107.473 117.357 107.473 119.045ZM105.598 119.045C105.598 117.66 105.366 116.49 104.903 115.537C104.444 114.584 103.822 113.863 103.036 113.373C102.254 112.883 101.379 112.639 100.411 112.639C99.4419 112.639 98.5643 112.883 97.7778 113.373C96.9966 113.863 96.3742 114.584 95.9106 115.537C95.4523 116.49 95.2231 117.66 95.2231 119.045C95.2231 120.43 95.4523 121.6 95.9106 122.553C96.3742 123.506 96.9966 124.227 97.7778 124.717C98.5643 125.206 99.4419 125.451 100.411 125.451C101.379 125.451 102.254 125.206 103.036 124.717C103.822 124.227 104.444 123.506 104.903 122.553C105.366 121.6 105.598 120.43 105.598 119.045ZM137.071 111.045H139.008V121.639C139.008 122.732 138.751 123.709 138.235 124.568C137.725 125.423 137.003 126.097 136.071 126.592C135.139 127.081 134.045 127.326 132.79 127.326C131.534 127.326 130.441 127.081 129.508 126.592C128.576 126.097 127.852 125.423 127.337 124.568C126.826 123.709 126.571 122.732 126.571 121.639V111.045H128.508V121.482C128.508 122.264 128.68 122.959 129.024 123.568C129.368 124.173 129.857 124.649 130.493 124.998C131.133 125.342 131.899 125.514 132.79 125.514C133.68 125.514 134.446 125.342 135.087 124.998C135.727 124.649 136.217 124.173 136.555 123.568C136.899 122.959 137.071 122.264 137.071 121.482V111.045ZM158.718 127.045V111.045H164.124C165.374 111.045 166.4 111.258 167.202 111.686C168.004 112.107 168.598 112.688 168.983 113.428C169.369 114.167 169.561 115.008 169.561 115.951C169.561 116.894 169.369 117.73 168.983 118.459C168.598 119.188 168.007 119.761 167.21 120.178C166.413 120.589 165.395 120.795 164.155 120.795H159.78V119.045H164.093C164.947 119.045 165.634 118.92 166.155 118.67C166.681 118.42 167.061 118.066 167.296 117.607C167.535 117.144 167.655 116.592 167.655 115.951C167.655 115.311 167.535 114.751 167.296 114.271C167.056 113.792 166.673 113.423 166.147 113.162C165.621 112.896 164.926 112.764 164.061 112.764H160.655V127.045H158.718ZM166.249 119.857L170.186 127.045H167.936L164.061 119.857H166.249ZM187.755 112.764V111.045H199.755V112.764H194.724V127.045H192.786V112.764H187.755ZM218.585 127.045V111.045H228.241V112.764H220.523V118.17H227.741V119.889H220.523V125.326H228.366V127.045H218.585ZM248.511 111.045L252.636 117.701H252.761L256.886 111.045H259.167L254.136 119.045L259.167 127.045H256.886L252.761 120.514H252.636L248.511 127.045H246.23L251.386 119.045L246.23 111.045H248.511ZM276.654 112.764V111.045H288.654V112.764H283.622V127.045H281.685V112.764H276.654ZM317.984 111.045H319.921V121.639C319.921 122.732 319.664 123.709 319.148 124.568C318.638 125.423 317.916 126.097 316.984 126.592C316.052 127.081 314.958 127.326 313.703 127.326C312.448 127.326 311.354 127.081 310.421 126.592C309.489 126.097 308.765 125.423 308.25 124.568C307.739 123.709 307.484 122.732 307.484 121.639V111.045H309.421V121.482C309.421 122.264 309.593 122.959 309.937 123.568C310.281 124.173 310.77 124.649 311.406 124.998C312.046 125.342 312.812 125.514 313.703 125.514C314.593 125.514 315.359 125.342 316 124.998C316.64 124.649 317.13 124.173 317.468 123.568C317.812 122.959 317.984 122.264 317.984 121.482V111.045ZM339.631 127.045V111.045H345.037C346.287 111.045 347.313 111.258 348.115 111.686C348.917 112.107 349.511 112.688 349.896 113.428C350.282 114.167 350.474 115.008 350.474 115.951C350.474 116.894 350.282 117.73 349.896 118.459C349.511 119.188 348.92 119.761 348.123 120.178C347.326 120.589 346.308 120.795 345.068 120.795H340.693V119.045H345.006C345.86 119.045 346.547 118.92 347.068 118.67C347.594 118.42 347.974 118.066 348.209 117.607C348.448 117.144 348.568 116.592 348.568 115.951C348.568 115.311 348.448 114.751 348.209 114.271C347.969 113.792 347.586 113.423 347.06 113.162C346.534 112.896 345.839 112.764 344.974 112.764H341.568V127.045H339.631ZM347.162 119.857L351.099 127.045H348.849L344.974 119.857H347.162ZM369.543 127.045V111.045H379.199V112.764H371.48V118.17H378.699V119.889H371.48V125.326H379.324V127.045H369.543Z" fill="white"/>
<path d="M50.4864 13.9078C50.4864 11.6115 50.4312 9.40182 50.3024 7.25715C50.1737 5.11249 50.1185 3.42275 50.1185 2.16628C50.1185 1.42973 50.7808 1.06146 52.0871 1.06146C53.1543 1.06146 54.2582 1.34308 55.4173 1.88466C56.5765 2.44791 57.1652 3.20612 57.1652 4.1593C57.1652 5.0475 57.1284 6.43395 57.0732 8.31865C57.0181 10.2034 56.9813 12.1097 56.9813 14.0161V69.4741C56.9813 70.1456 57.0364 71.1638 57.1652 72.5286C57.294 73.8934 57.3492 74.9116 57.3492 75.5831C57.3492 76.3197 57.0548 77.0779 56.4477 77.8578C55.8589 78.6376 55.123 79.2875 54.2398 79.7858C53.3567 80.3057 52.5471 80.5657 51.7928 80.5657C50.7808 80.5657 49.9897 80.0458 49.4009 79.0059C48.8121 77.9661 48.2602 77.0562 47.7634 76.233C45.0587 71.7271 42.2069 66.8961 39.2079 61.7403C36.1905 56.5844 33.1914 51.2986 30.174 45.9044C27.1566 40.5103 24.268 35.2028 21.4713 29.9603C18.6747 24.7178 16.0988 19.7352 13.707 15.0126V67.4811C13.707 69.7774 13.7622 71.987 13.8542 74.1317C13.9462 76.2763 14.0014 77.9661 14.0014 79.2225C14.0014 79.5908 13.8174 79.8724 13.431 80.0458C13.063 80.2191 12.6214 80.3274 12.1063 80.3274C11.0943 80.3274 10.0088 80.0458 8.81287 79.5042C7.61694 78.9409 7.02818 78.2044 7.02818 77.2295C7.02818 76.3413 7.06497 74.9549 7.12017 73.0702C7.17537 71.1855 7.21217 69.2791 7.21217 67.3727V8.14535C7.21217 7.47379 7.10177 6.7589 6.88099 5.97902C6.6602 5.19914 6.5498 4.54924 6.5498 4.05099C6.5498 3.7477 6.5866 3.5744 6.6418 3.48774C6.95458 2.6862 7.72734 2.01464 8.94166 1.49472C10.156 0.974803 11.2415 0.714844 12.1799 0.714844C12.5479 0.714844 12.8422 0.75817 13.0262 0.82316C13.5966 0.88815 14.0198 1.23476 14.2958 1.81967C14.5717 2.40458 14.8661 3.01115 15.1973 3.59606C19.1531 11.3515 23.1456 19.0203 27.1934 26.6241C31.2412 34.2279 35.2521 41.5068 39.2263 48.4824C43.2005 55.4579 46.9538 61.8269 50.468 67.5894V13.9078H50.4864Z" fill="white"/>
<path d="M83.9544 54.2024H83.5864C82.5744 56.7153 81.5809 59.1416 80.569 61.5029C79.557 63.8642 78.6187 66.0739 77.7539 68.1535C77.2572 69.345 76.6316 70.9698 75.914 73.0278C75.1965 75.0858 74.6445 76.7538 74.2765 78.0103C74.0925 78.5952 73.5774 79.0718 72.731 79.3968C71.8847 79.7217 70.9831 79.895 70.0448 79.895C69.1616 79.895 68.3705 79.7217 67.6529 79.3968C66.9354 79.0718 66.5674 78.5302 66.5674 77.7937C66.5674 77.3604 66.6962 76.9488 66.9354 76.5805C67.1929 76.1473 67.4321 75.649 67.6897 75.0858C67.9473 74.5225 68.3705 73.591 68.9592 72.2696C69.548 70.9481 70.468 68.9334 71.6823 66.2255C72.8966 63.5392 74.5525 59.7915 76.6132 54.9823H75.9508C75.1965 54.9823 74.5157 54.3107 73.8902 52.9242C73.2646 51.5595 72.9518 50.3247 72.9518 49.2198C72.9518 48.115 73.3014 47.5518 73.9821 47.5518H74.1661C74.7365 47.5518 75.2885 47.5951 75.8588 47.6601C76.4292 47.7251 77.0732 47.7684 77.8275 47.7684H79.6122C81.7465 42.7425 83.8808 37.6733 86.015 32.5391C88.1493 27.4049 90.0812 22.5957 91.8475 18.0897C93.5954 13.5837 94.9753 9.81433 95.9873 6.80313C96.2448 6.13157 96.4288 5.13506 96.5576 3.74861C96.6864 2.38383 96.9072 1.47397 97.22 1.0407C97.5328 0.607437 98.1215 0.369141 99.0047 0.369141C100.072 0.369141 101.176 0.69409 102.298 1.30066C103.42 1.9289 104.12 2.62212 104.359 3.35867C104.359 3.42366 104.359 3.51032 104.414 3.57531C104.451 3.6403 104.469 3.72695 104.469 3.79194C104.469 4.09522 104.414 4.44184 104.322 4.85344C104.23 5.26504 104.175 5.65498 104.175 6.02326C104.175 6.39153 104.212 6.65149 104.267 6.80313C106.088 12.4789 108.204 18.6963 110.614 25.4552C113.025 32.2142 115.545 39.0164 118.176 45.8837C120.807 52.7509 123.346 59.2066 125.794 65.2507C126.29 66.4421 127.081 68.1319 128.149 70.3415C129.216 72.5512 130.246 74.5225 131.258 76.2123C131.387 76.4289 131.479 76.6455 131.534 76.8188C131.589 77.0138 131.626 77.1655 131.626 77.3171C131.626 78.2053 131.056 78.8769 129.933 79.3751C128.811 79.8734 127.707 80.09 126.64 80.09C125.941 80.09 125.315 79.9817 124.763 79.765C124.211 79.5484 123.862 79.2018 123.733 78.7685C123.365 77.4471 122.831 75.6924 122.132 73.5044C121.433 71.338 120.844 69.5833 120.347 68.2402C119.409 65.8789 118.434 63.3876 117.44 60.7663C116.428 58.1451 115.398 55.4372 114.331 52.621L83.9544 54.1807V54.2024ZM111.976 46.3386C109.658 39.9913 107.431 33.7956 105.297 27.7299C103.163 21.6858 101.433 16.6166 100.127 12.5656C99.0599 15.3818 97.7904 18.6963 96.3184 22.5307C94.8465 26.3651 93.2642 30.4378 91.5715 34.7054C89.8788 38.9948 88.1493 43.2624 86.4014 47.5518L111.976 46.3386Z" fill="white"/>
<path d="M153.354 9.14365L141.505 9.92352C139.942 9.98851 138.414 10.1618 136.943 10.4218C135.471 10.6817 134.385 10.855 133.704 10.92H133.612C132.803 10.92 132.067 10.2485 131.441 8.92701C130.816 7.60555 130.503 6.37075 130.503 5.26592C130.503 3.94446 130.908 3.2729 131.717 3.2729C132.214 3.2729 133.097 3.31623 134.348 3.38122C135.599 3.44621 136.943 3.48953 138.396 3.48953C138.893 3.48953 139.408 3.48953 139.942 3.42454C140.475 3.38122 140.954 3.35955 141.395 3.35955L171.68 1.36653C173.115 1.21489 174.587 1.06325 176.095 0.933266C177.604 0.781623 178.727 0.62998 179.481 0.5H179.757C180.511 0.5 181.174 1.17156 181.726 2.49302C182.277 3.81448 182.572 5.04929 182.572 6.15411C182.572 7.47557 182.204 8.14714 181.45 8.14714C180.824 8.14714 179.794 8.08215 178.34 7.97383C176.905 7.86551 175.433 7.80052 173.924 7.80052C173.556 7.80052 173.17 7.80052 172.802 7.86551C172.434 7.90884 172.084 7.9305 171.772 7.9305L159.923 8.71038L160.015 67.3962C160.015 69.6925 160.07 71.9022 160.162 74.0468C160.254 76.1915 160.309 77.8812 160.309 79.1377C160.309 79.571 160.107 79.8959 159.702 80.0692C159.297 80.2425 158.782 80.3508 158.157 80.3508C157.145 80.3508 156.059 80.0475 154.863 79.4626C153.667 78.8777 153.078 78.0979 153.078 77.1447C153.078 76.2565 153.115 74.87 153.17 72.9853C153.226 71.1006 153.262 69.1942 153.262 67.2879L153.354 9.16531V9.14365Z" fill="white"/>
<path d="M234.034 13.2369C234.034 12.1971 233.997 10.919 233.942 9.35921C233.887 7.79945 233.832 6.32635 233.795 4.9399C233.758 3.53179 233.74 2.53527 233.74 1.95037C233.74 1.5171 233.979 1.17049 234.439 0.953855C234.917 0.737223 235.451 0.628906 236.077 0.628906C237.144 0.628906 238.229 0.888866 239.315 1.40878C240.419 1.9287 240.952 2.66525 240.952 3.61844C240.952 4.50663 240.915 5.87142 240.86 7.7128C240.805 9.55418 240.768 11.4389 240.768 13.3669V53.6606C240.768 59.1197 239.738 63.929 237.659 68.045C235.598 72.1827 232.71 75.3889 229.011 77.6852C225.313 79.9815 220.989 81.108 216.04 81.108C208.46 81.108 202.867 79.05 199.26 74.9556C195.654 70.8612 193.851 64.9255 193.851 57.1917V14.2334C193.851 11.9371 193.796 9.68416 193.704 7.43117C193.612 5.17819 193.557 3.42347 193.557 2.167C193.557 1.73373 193.796 1.38712 194.256 1.17049C194.734 0.953855 195.268 0.845539 195.893 0.845539C196.96 0.845539 198.046 1.1055 199.132 1.62542C200.235 2.14534 200.769 2.88189 200.769 3.83507C200.769 4.72327 200.732 6.23969 200.677 8.38436C200.622 10.529 200.585 12.5654 200.585 14.4717V55.8703C200.585 62.5859 201.91 67.3085 204.578 70.038C207.245 72.7676 211.054 74.1324 216.003 74.1324C219.518 74.1324 222.609 73.2009 225.313 71.3162C227.999 69.4315 230.115 66.8535 231.661 63.5607C233.188 60.2679 233.961 56.5202 233.961 52.3175V13.2369H234.034Z" fill="white"/>
<path d="M260.639 10.919H260.547C259.922 10.919 259.278 10.5723 258.615 9.85746C257.953 9.16424 257.401 8.34103 256.923 7.43117C256.444 6.49965 256.224 5.7631 256.224 5.15653C256.224 4.48497 256.481 4.11669 256.978 4.0517C258.229 3.74842 259.664 3.48846 261.302 3.27183C262.939 3.05519 265.037 2.60026 267.594 1.95037C268.974 1.58209 270.869 1.2788 273.279 1.01885C275.69 0.758886 278.468 0.628906 281.596 0.628906C286.729 0.628906 290.85 1.56043 293.905 3.40181C296.977 5.24318 299.222 7.58282 300.62 10.4424C302.037 13.2803 302.736 16.2265 302.736 19.2377C302.736 23.2237 301.835 26.6898 300.05 29.636C298.265 32.5822 295.965 34.9869 293.187 36.8282C290.39 38.6696 287.502 39.9261 284.484 40.5976C283.675 40.8143 282.736 40.9876 281.669 41.0959C280.602 41.2042 279.498 41.3342 278.376 41.4858C278.063 41.4858 277.714 41.4858 277.346 41.5508C276.978 41.5942 276.591 41.6158 276.223 41.6158C278.174 43.9121 280.473 46.7933 283.141 50.3028C285.809 53.8122 288.587 57.365 291.458 60.9828C294.346 64.6006 297.106 67.7634 299.737 70.5146C300.804 71.7061 302.019 72.8759 303.398 74.0674C304.778 75.2589 305.901 76.0171 306.784 76.3854C307.851 76.9053 308.789 77.4469 309.599 78.0534C310.408 78.6384 310.813 79.1583 310.813 79.6132C310.813 80.2848 309.912 80.6097 308.09 80.6097C306.269 80.6097 304.484 80.3498 302.534 79.8298C300.583 79.3099 298.652 78.1401 296.701 76.2771C294.567 74.284 292.359 71.9011 290.078 69.1282C287.796 66.3553 285.515 63.4741 283.252 60.4845C280.989 57.495 278.854 54.6788 276.849 52.0142C274.843 49.3496 273.095 47.1833 271.587 45.4719C270.961 44.8003 270.188 44.1504 269.287 43.4789C268.385 42.8073 267.613 42.3307 266.987 42.0491V66.3986C266.987 68.9115 267.042 71.3595 267.134 73.7641C267.226 76.1687 267.281 77.9885 267.281 79.2449C267.281 79.6132 267.097 79.8948 266.711 80.0681C266.343 80.2414 265.901 80.3498 265.386 80.3498C264.374 80.3498 263.307 80.0681 262.148 79.5265C260.989 78.9633 260.4 78.2268 260.4 77.2519C260.4 76.3637 260.437 74.8473 260.492 72.7026C260.547 70.558 260.584 68.4133 260.584 66.2903V10.919H260.639ZM271.458 36.1567C273.279 36.1567 275.046 36.0484 276.775 35.8317C278.505 35.6151 280.142 35.3551 281.706 35.0519C284.282 34.5319 286.655 33.4921 288.845 31.889C291.034 30.3076 292.801 28.4229 294.162 26.2349C295.505 24.0686 296.186 21.8589 296.186 19.6493C296.186 15.9665 294.861 12.977 292.23 10.6807C289.599 8.38436 285.993 7.25787 281.412 7.25787C278.91 7.25787 276.389 7.40951 273.85 7.69113C271.311 7.99442 269.029 8.536 267.024 9.35921V38.1497C267.392 37.5648 267.797 37.0882 268.201 36.7199C268.606 36.3516 269.066 36.1567 269.563 36.1567H271.44H271.458Z" fill="white"/>
<path d="M5.50091 89.6641H130.558C130.706 89.6641 130.834 89.8157 130.834 89.989V93.9751C130.834 94.1484 130.706 94.3 130.558 94.3H5.50091C4.41537 94.3 3.53223 93.2602 3.53223 91.982C3.53223 90.7039 4.41537 89.6641 5.50091 89.6641Z" fill="#F6872C" stroke="black" stroke-width="0.3" stroke-miterlimit="10"/>
<path d="M258.136 89.6641H130.834V94.3H258.136V89.6641Z" fill="#FEFFFF" stroke="black" stroke-width="0.3" stroke-miterlimit="10"/>
<path d="M258.413 89.6641H384.096C385.181 89.6641 386.064 90.7039 386.064 91.982C386.064 93.2602 385.181 94.3 384.096 94.3H258.413C258.265 94.3 258.137 94.1484 258.137 93.9751V89.989C258.137 89.8157 258.265 89.6641 258.413 89.6641Z" fill="#00AB58" stroke="black" stroke-width="0.3" stroke-miterlimit="10"/>
<path d="M357.97 34.4446C355.56 36.416 352.653 37.5641 349.506 37.5641C346.36 37.5641 343.159 36.3076 340.693 34.1413C334.99 30.1336 320.841 0 320.841 0H327.869C330.206 4.98255 332.966 9.61849 335.707 13.6912C340.675 21.0784 345.606 26.6675 347.998 29.2454C347.998 29.2454 347.998 29.2454 348.016 29.2671C348.476 29.8087 348.954 30.3286 349.47 30.7835C349.488 30.8052 349.506 30.8268 349.506 30.8268C351.861 32.9715 354.787 34.293 357.97 34.4229V34.4446Z" fill="white"/>
<path d="M341.043 34.4446C343.453 36.416 346.36 37.5641 349.506 37.5641C352.653 37.5641 355.854 36.3076 358.32 34.1413C364.023 30.1336 378.172 0 378.172 0H371.144C368.807 4.98255 366.047 9.61849 363.306 13.6912C358.338 21.0784 353.407 26.6675 351.015 29.2454C351.015 29.2454 351.015 29.2454 350.997 29.2671C350.537 29.8087 350.058 30.3286 349.543 30.7835C349.525 30.8052 349.506 30.8268 349.506 30.8268C347.151 32.9715 344.226 34.293 341.043 34.4229V34.4446Z" fill="white"/>
<path d="M357.97 34.4438C357.97 34.4438 357.97 34.4438 357.952 34.4438C357.804 34.5737 357.657 34.6821 357.51 34.7904C357.363 34.9204 357.197 35.0287 357.032 35.137C356.884 35.2453 356.737 35.332 356.59 35.4186C356.572 35.4403 356.535 35.4619 356.516 35.4619C356.369 35.5703 356.222 35.6569 356.056 35.7436C355.909 35.8302 355.78 35.9169 355.633 35.9819C355.413 36.1118 355.173 36.2201 354.934 36.3285C354.824 36.3718 354.732 36.4368 354.621 36.4584C354.474 36.5234 354.327 36.5884 354.18 36.6534C354.051 36.6967 353.922 36.7617 353.793 36.8051C353.701 36.8484 353.609 36.87 353.517 36.9134C353.462 36.935 353.407 36.9567 353.352 36.9567C353.223 37 353.094 37.0434 352.965 37.065C352.726 37.13 352.469 37.195 352.23 37.26C352.082 37.3033 351.935 37.325 351.788 37.3466C351.42 37.4116 351.034 37.4766 350.647 37.4983C350.261 37.5416 349.874 37.5633 349.488 37.5633H349.47C349.083 37.5633 348.697 37.5633 348.311 37.4983C347.924 37.455 347.538 37.4116 347.17 37.3466C347.004 37.325 346.857 37.2817 346.691 37.2383C346.471 37.195 346.25 37.13 346.047 37.065C345.9 37.0217 345.753 36.9784 345.606 36.935C345.551 36.935 345.514 36.9134 345.477 36.8917C345.367 36.8484 345.256 36.8267 345.164 36.7834C345.054 36.7401 344.962 36.6967 344.87 36.6751C344.723 36.6101 344.576 36.5451 344.428 36.5018C344.281 36.4368 344.134 36.3718 343.987 36.3068C343.968 36.3068 343.95 36.3068 343.932 36.2851C343.766 36.1985 343.6 36.1335 343.453 36.0468C343.288 35.9602 343.122 35.8735 342.956 35.7652C342.791 35.6786 342.625 35.5703 342.46 35.4619C342.294 35.3536 342.147 35.2453 341.981 35.137C341.816 35.0287 341.669 34.9204 341.503 34.7904C341.356 34.6821 341.19 34.5521 341.043 34.4438C344.226 34.2921 347.151 32.9707 349.506 30.8477C351.862 32.9923 354.787 34.3138 357.97 34.4438Z" fill="white"/>
<path d="M357.97 44.6703C355.56 42.6989 352.653 41.5508 349.506 41.5508C346.36 41.5508 343.159 42.8073 340.693 44.9736C334.99 48.9813 320.841 79.1149 320.841 79.1149H327.869C330.206 74.1323 332.966 69.4964 335.707 65.4237C340.675 58.0365 345.606 52.4474 347.998 49.8695C347.998 49.8695 347.998 49.8695 348.016 49.8478C348.476 49.3062 348.954 48.7863 349.47 48.3314C349.488 48.3097 349.506 48.2881 349.506 48.2881C351.861 46.1434 354.787 44.8219 357.97 44.692V44.6703Z" fill="white"/>
<path d="M341.043 44.6703C343.453 42.6989 346.36 41.5508 349.506 41.5508C352.653 41.5508 355.854 42.8073 358.32 44.9736C364.023 48.9813 378.172 79.1149 378.172 79.1149H371.144C368.807 74.1323 366.047 69.4964 363.306 65.4237C358.338 58.0365 353.407 52.4474 351.015 49.8695C351.015 49.8695 351.015 49.8695 350.997 49.8478C350.537 49.3062 350.058 48.7863 349.543 48.3314C349.525 48.3097 349.506 48.2881 349.506 48.2881C347.151 46.1434 344.226 44.8219 341.043 44.692V44.6703Z" fill="white"/>
<path d="M357.97 44.6703C357.97 44.6703 357.97 44.6703 357.952 44.6703C357.804 44.5403 357.657 44.432 357.51 44.3237C357.363 44.1937 357.197 44.0854 357.032 43.9771C356.884 43.8687 356.737 43.7821 356.59 43.6954C356.572 43.6738 356.535 43.6521 356.516 43.6521C356.369 43.5438 356.222 43.4571 356.056 43.3705C355.909 43.2838 355.78 43.1972 355.633 43.1322C355.413 43.0022 355.173 42.8939 354.934 42.7856C354.824 42.7423 354.732 42.6773 354.621 42.6556C354.474 42.5906 354.327 42.5256 354.18 42.4606C354.051 42.4173 353.922 42.3523 353.793 42.309C353.701 42.2657 353.609 42.244 353.517 42.2007C353.462 42.179 353.407 42.1574 353.352 42.1574C353.223 42.114 353.094 42.0707 352.965 42.049C352.726 41.984 352.469 41.9191 352.23 41.8541C352.082 41.8107 351.935 41.7891 351.788 41.7674C351.42 41.7024 351.034 41.6374 350.647 41.6158C350.261 41.5724 349.874 41.5508 349.488 41.5508H349.47C349.083 41.5508 348.697 41.5508 348.311 41.6158C347.924 41.6591 347.538 41.7024 347.17 41.7674C347.004 41.7891 346.857 41.8324 346.691 41.8757C346.471 41.9191 346.25 41.984 346.047 42.049C345.9 42.0924 345.753 42.1357 345.606 42.179C345.551 42.179 345.514 42.2007 345.477 42.2223C345.367 42.2657 345.256 42.2873 345.164 42.3307C345.054 42.374 344.962 42.4173 344.87 42.439C344.723 42.504 344.576 42.569 344.428 42.6123C344.281 42.6773 344.134 42.7423 343.987 42.8073C343.968 42.8073 343.95 42.8073 343.932 42.8289C343.766 42.9156 343.6 42.9806 343.453 43.0672C343.288 43.1539 343.122 43.2405 342.956 43.3488C342.791 43.4355 342.625 43.5438 342.46 43.6521C342.294 43.7604 342.147 43.8687 341.981 43.9771C341.816 44.0854 341.669 44.1937 341.503 44.3237C341.356 44.432 341.19 44.562 341.043 44.6703C344.226 44.8219 347.151 46.1434 349.506 48.2664C351.862 46.1217 354.787 44.8003 357.97 44.6703Z" fill="white"/>
</svg>
