<svg width="92" height="34" viewBox="0 0 92 34" fill="none" xmlns="http://www.w3.org/2000/svg">
<g filter="url(#filter0_d_1802_6218)">
<mask id="mask0_1802_6218" style="mask-type:luminance" maskUnits="userSpaceOnUse" x="4" y="0" width="85" height="26">
<path d="M4 0H89V26H4V0Z" fill="white"/>
</mask>
<g mask="url(#mask0_1802_6218)">
<path d="M4.61836 25.6199L16.7778 13.0996C16.8153 13.0624 16.8386 13.0131 16.8436 12.9603C16.8485 12.9075 16.8349 12.8547 16.805 12.811C16.0656 11.7741 14.7011 11.5942 14.1955 10.8974C12.6977 8.83347 12.3177 7.66518 11.6741 7.73755C11.6291 7.74404 11.5878 7.76594 11.5572 7.79952L7.1648 12.3227C4.63775 14.9227 4.27456 20.6535 4.20899 25.4527C4.20877 25.5004 4.22277 25.5471 4.24922 25.5868C4.27567 25.6265 4.31335 25.6573 4.35738 25.6753C4.40142 25.6933 4.44978 25.6976 4.4963 25.6878C4.54281 25.6779 4.58533 25.6543 4.61836 25.6199Z" fill="#017CEE"/>
<path d="M29.5028 25.3098L17.0388 13.0946C17.0017 13.0568 16.9525 13.0333 16.8999 13.0283C16.8473 13.0234 16.7946 13.0371 16.7511 13.0673C15.7188 13.8105 15.5397 15.1807 14.8461 15.6885C12.7914 17.1931 11.6284 17.5748 11.7004 18.2214C11.707 18.2663 11.7287 18.3077 11.7621 18.3384L16.2649 22.7506C18.8532 25.289 24.5583 25.6539 29.3358 25.7198C29.3831 25.7198 29.4294 25.7057 29.4686 25.6792C29.5079 25.6528 29.5385 25.6151 29.5564 25.5711C29.5743 25.5271 29.5788 25.4788 29.5692 25.4323C29.5597 25.3857 29.5365 25.3431 29.5028 25.3098Z" fill="#00AD46"/>
<path d="M16.2652 22.7547C14.8502 21.3681 14.1945 18.625 16.9062 12.9688C12.4979 14.9478 10.9531 17.5491 11.7127 18.294L16.2652 22.7547Z" fill="#04D659"/>
<path d="M29.1946 0.315008L17.0357 12.8353C16.9981 12.8725 16.9747 12.9219 16.9697 12.9746C16.9648 13.0274 16.9785 13.0803 17.0085 13.1239C17.7483 14.1609 19.1119 14.3407 19.6179 15.0375C21.1157 17.1015 21.4962 18.2697 22.1394 18.1974C22.1843 18.1909 22.2256 18.169 22.2563 18.1354L26.6486 13.6123C29.1757 11.0123 29.5389 5.28144 29.6045 0.482268C29.6046 0.434521 29.5904 0.387836 29.5639 0.348201C29.5374 0.308565 29.4998 0.277783 29.4557 0.25981C29.4117 0.241836 29.3633 0.237493 29.3168 0.247326C29.2703 0.257159 29.2277 0.28073 29.1946 0.315008Z" fill="#00C7D4"/>
<path d="M26.6525 13.6127C25.2721 15.034 22.5414 15.6927 16.9102 12.9688C18.8803 17.397 21.4699 18.9488 22.2114 18.1857L26.6525 13.6127Z" fill="#11E1EE"/>
<path d="M4.30947 0.622614L16.7734 12.8365C16.8105 12.8742 16.8597 12.8976 16.9122 12.9026C16.9647 12.9076 17.0173 12.8939 17.0607 12.8639C18.093 12.1207 18.2721 10.7505 18.9657 10.2426C21.0204 8.73809 22.1834 8.35631 22.1114 7.70977C22.1048 7.66469 22.0831 7.62323 22.0497 7.59234L17.5469 3.18014C14.9586 0.641671 9.25356 0.276809 4.47598 0.210942C4.42835 0.210637 4.38171 0.224688 4.34212 0.251276C4.30252 0.277865 4.27179 0.31576 4.25386 0.360086C4.23593 0.404411 4.23162 0.453123 4.24154 0.499919C4.25145 0.546716 4.27513 0.589463 4.30947 0.622614Z" fill="#E43921"/>
<path fill-rule="evenodd" clip-rule="evenodd" d="M17.5493 3.17969C18.9642 4.56635 19.6199 7.30935 16.9082 12.9661C21.3165 10.987 22.8613 8.38531 22.1017 7.64085L17.5493 3.17969Z" fill="#FF7557"/>
<path d="M7.16406 12.3217C8.54449 10.9003 11.2751 10.2417 16.9064 12.9656C14.9363 8.53739 12.3467 6.98563 11.6052 7.74873L7.16406 12.3217Z" fill="#0CB6FF"/>
<path d="M16.9088 13.51C17.209 13.51 17.4523 13.2655 17.4523 12.964C17.4523 12.6624 17.209 12.418 16.9088 12.418C16.6086 12.418 16.3652 12.6624 16.3652 12.964C16.3652 13.2655 16.6086 13.51 16.9088 13.51Z" fill="#4A4848"/>
<path d="M38.3137 18.833C38.2313 18.831 38.1528 18.7966 38.0945 18.737C38.0362 18.6774 38.0027 18.5972 38.0007 18.5129C37.998 18.4538 38.0032 18.3945 38.0161 18.3368L41.8944 7.99178C41.9264 7.88386 41.9933 7.79027 42.0842 7.72637C42.1751 7.66247 42.2845 7.63208 42.3945 7.64014H43.4576C43.5677 7.63205 43.6771 7.66244 43.7681 7.72634C43.8591 7.79023 43.9261 7.88382 43.9582 7.99178L47.8221 18.3368L47.8536 18.5129C47.8514 18.5971 47.8177 18.6772 47.7595 18.7367C47.7012 18.7962 47.6229 18.8307 47.5406 18.833H46.743C46.6479 18.839 46.5537 18.8107 46.4769 18.7528C46.4215 18.6995 46.3789 18.6338 46.3522 18.5609L45.4922 16.2902H40.3632L39.5032 18.5609C39.474 18.6367 39.4254 18.703 39.3624 18.7528C39.291 18.809 39.2024 18.8374 39.1124 18.833H38.3137ZM45.0373 14.9157L42.9266 9.23975L40.8163 14.9152L45.0373 14.9157ZM49.5548 8.9677C49.5063 8.97303 49.4573 8.96718 49.4113 8.95061C49.3653 8.93404 49.3235 8.90716 49.289 8.87192C49.2545 8.83669 49.2281 8.79398 49.2119 8.74697C49.1956 8.69996 49.1898 8.64984 49.1949 8.60025V7.73664C49.1923 7.63722 49.2257 7.54032 49.2887 7.46458C49.3232 7.42815 49.3646 7.39935 49.4104 7.37993C49.4561 7.36052 49.5053 7.35089 49.5548 7.35168H50.5401C50.5894 7.35146 50.6384 7.36124 50.684 7.38045C50.7296 7.39966 50.7711 7.42793 50.806 7.46361C50.8409 7.4993 50.8686 7.54169 50.8873 7.58836C50.9061 7.63503 50.9157 7.68503 50.9154 7.7355V8.59911C50.9162 8.64968 50.9067 8.69986 50.8878 8.74656C50.8688 8.79326 50.8407 8.83549 50.8051 8.87061C50.7312 8.93499 50.6366 8.96915 50.5395 8.96656L49.5548 8.9677ZM49.6801 18.8335C49.6316 18.8388 49.5826 18.8329 49.5366 18.8162C49.4906 18.7996 49.4488 18.7726 49.4143 18.7374C49.3798 18.7021 49.3535 18.6594 49.3372 18.6123C49.3209 18.5653 49.3151 18.5151 49.3202 18.4655V10.8862C49.318 10.8393 49.3252 10.7924 49.3413 10.7485C49.3574 10.7045 49.3822 10.6644 49.4141 10.6305C49.4485 10.5941 49.4899 10.5653 49.5356 10.5458C49.5814 10.5264 49.6305 10.5168 49.6801 10.5176H50.4302C50.5244 10.5214 50.6138 10.5613 50.6805 10.6294C50.7472 10.6975 50.7863 10.7888 50.7901 10.8851V18.4638C50.7909 18.5145 50.7815 18.5648 50.7626 18.6116C50.7436 18.6584 50.7154 18.7007 50.6797 18.7359C50.6466 18.7684 50.6074 18.7937 50.5644 18.8102C50.5214 18.8266 50.4756 18.834 50.4297 18.8318L49.6801 18.8335ZM53.4673 18.8335C53.4188 18.8388 53.3697 18.8329 53.3238 18.8162C53.2778 18.7996 53.2361 18.7726 53.2016 18.7373C53.1671 18.702 53.1408 18.6593 53.1246 18.6123C53.1084 18.5652 53.1027 18.5151 53.1079 18.4655V10.902C53.1055 10.8028 53.1389 10.7061 53.2017 10.6305C53.2362 10.5941 53.2776 10.5653 53.3234 10.5458C53.3691 10.5264 53.4183 10.5168 53.4678 10.5176H54.1854C54.2347 10.5174 54.2837 10.5272 54.3293 10.5464C54.3749 10.5656 54.4164 10.5939 54.4513 10.6296C54.4862 10.6652 54.5139 10.7076 54.5326 10.7543C54.5514 10.801 54.561 10.851 54.5607 10.9014V11.6048C54.7937 11.2364 55.121 10.9403 55.5069 10.7486C55.8928 10.557 56.3227 10.4771 56.7499 10.5176H57.3571C57.4512 10.5215 57.5404 10.5615 57.607 10.6296C57.6735 10.6976 57.7127 10.7889 57.7165 10.8851V11.5404C57.7182 11.5888 57.7092 11.6369 57.69 11.6812C57.6709 11.7255 57.6422 11.7648 57.606 11.7961C57.5729 11.8286 57.5337 11.8539 57.4907 11.8704C57.4477 11.8869 57.4018 11.8943 57.356 11.892H56.4176C56.1735 11.8787 55.9293 11.9173 55.7005 12.0054C55.4717 12.0935 55.2633 12.2292 55.0885 12.404C54.9218 12.5851 54.7928 12.799 54.7094 13.0326C54.626 13.2663 54.5899 13.5148 54.6033 13.7632V18.4638C54.604 18.5145 54.5946 18.5647 54.5756 18.6115C54.5566 18.6583 54.5284 18.7007 54.4928 18.7359C54.4187 18.8002 54.324 18.8344 54.2268 18.8318L53.4673 18.8335ZM60.2203 18.8335C60.1718 18.8387 60.1228 18.8327 60.0769 18.816C60.0309 18.7993 59.9892 18.7724 59.9548 18.7371C59.9203 18.7018 59.8941 18.6591 59.8778 18.6122C59.8616 18.5652 59.8558 18.5151 59.8609 18.4655V11.7972H58.5317C58.4833 11.8025 58.4343 11.7966 58.3884 11.7799C58.3424 11.7633 58.3007 11.7364 58.2663 11.7012C58.2318 11.666 58.2055 11.6233 58.1893 11.5764C58.173 11.5294 58.1672 11.4793 58.1724 11.4298V10.8862C58.1701 10.8393 58.1774 10.7924 58.1935 10.7485C58.2096 10.7045 58.2344 10.6644 58.2662 10.6305C58.3005 10.5941 58.3418 10.5653 58.3875 10.5459C58.4332 10.5265 58.4822 10.5168 58.5317 10.5176H59.8609V9.71783C59.8609 7.9056 60.7573 6.99967 62.5502 7.00005H63.4256C63.5198 7.0038 63.6091 7.04371 63.6758 7.1118C63.7425 7.1799 63.7817 7.2712 63.7855 7.3675V7.91106C63.7862 7.96162 63.7767 8.01178 63.7578 8.05847C63.7388 8.10517 63.7106 8.14742 63.6751 8.18257C63.6419 8.21507 63.6027 8.24031 63.5597 8.25681C63.5167 8.2733 63.4709 8.2807 63.425 8.27851H62.5811C62.3989 8.25828 62.2145 8.28252 62.0432 8.34924C61.872 8.41596 61.7186 8.52325 61.5958 8.66233C61.3831 8.99904 61.2842 9.39775 61.3143 9.79741V10.5171H64.6604V7.36863C64.6582 7.32173 64.6655 7.27486 64.6816 7.2309C64.6977 7.18694 64.7225 7.14682 64.7542 7.11294C64.7887 7.07651 64.83 7.04768 64.8758 7.02826C64.9216 7.00884 64.9707 6.99925 65.0203 7.00005H65.7379C65.8321 7.0038 65.9214 7.04371 65.9881 7.1118C66.0548 7.1799 66.0939 7.2712 66.0978 7.3675V18.4638C66.0986 18.5145 66.0892 18.5648 66.0702 18.6116C66.0512 18.6584 66.023 18.7007 65.9874 18.7359C65.9542 18.7685 65.9148 18.7938 65.8718 18.8103C65.8287 18.8268 65.7827 18.8341 65.7367 18.8318H65.0192C64.9706 18.8372 64.9215 18.8313 64.8755 18.8147C64.8294 18.7981 64.7876 18.7712 64.7531 18.7359C64.7186 18.7006 64.6923 18.6578 64.676 18.6108C64.6598 18.5637 64.6541 18.5135 64.6593 18.4638V11.7972H61.3132V18.465C61.3139 18.5156 61.3045 18.5659 61.2855 18.6127C61.2665 18.6595 61.2383 18.7018 61.2027 18.737C61.1695 18.7696 61.1302 18.7949 61.0871 18.8114C61.044 18.8279 60.9981 18.8352 60.9521 18.833L60.2203 18.8335ZM71.7567 18.9933C71.2684 19.0235 70.7792 18.9511 70.3194 18.7805C69.8595 18.61 69.4387 18.3449 69.0829 18.0016C68.4346 17.2835 68.077 16.3406 68.0821 15.3634L68.0661 14.6759L68.0821 13.9884C68.0793 13.0133 68.4431 12.0744 69.0984 11.366C69.8381 10.716 70.7811 10.3586 71.7564 10.3586C72.7317 10.3586 73.6748 10.716 74.4145 11.366C75.0695 12.0745 75.4333 13.0133 75.4307 13.9884C75.441 14.1054 75.4462 14.3346 75.4462 14.6759C75.4462 15.0172 75.441 15.2463 75.4307 15.3634C75.4352 16.3435 75.0715 17.2879 74.4145 18.0016C74.062 18.3457 73.6437 18.6115 73.1857 18.7821C72.7278 18.9527 72.2403 19.0244 71.7539 18.9927L71.7567 18.9933ZM71.7567 17.7622C72.0443 17.7772 72.3316 17.7277 72.5986 17.6172C72.8655 17.5067 73.1057 17.338 73.3022 17.1227C73.7204 16.6067 73.9425 15.9538 73.9277 15.2838C73.938 15.1773 73.9431 14.9748 73.9431 14.6764C73.9431 14.378 73.938 14.1756 73.9277 14.0691C73.9425 13.3991 73.7204 12.7461 73.3022 12.2301C73.1057 12.0149 72.8655 11.8461 72.5986 11.7357C72.3316 11.6252 72.0443 11.5757 71.7567 11.5906C71.4664 11.5763 71.1765 11.6261 70.9067 11.7364C70.6369 11.8467 70.3935 12.0151 70.1929 12.2301C69.7767 12.7462 69.5606 13.4007 69.5857 14.0691L69.5703 14.6764L69.5857 15.2838C69.5606 15.9522 69.7767 16.6067 70.1929 17.1227C70.3932 17.3373 70.6363 17.5053 70.9056 17.6156C71.1749 17.7258 71.4641 17.7756 71.7539 17.7616L71.7567 17.7622ZM79.3492 18.8346C79.2372 18.8421 79.1263 18.808 79.0368 18.7387C78.951 18.6546 78.8865 18.5504 78.8491 18.4351L76.6285 11.016L76.5976 10.8563C76.5963 10.8119 76.604 10.7677 76.6201 10.7264C76.6363 10.6851 76.6606 10.6477 76.6914 10.6164C76.7554 10.556 76.8389 10.5218 76.926 10.5205H77.6138C77.6597 10.5182 77.7055 10.5256 77.7485 10.5421C77.7915 10.5586 77.8307 10.5839 77.8639 10.6164C77.9279 10.6583 77.9773 10.72 78.0046 10.7925L79.7405 16.8202L81.6013 10.8563C81.6235 10.7676 81.6728 10.6885 81.7421 10.6305C81.7815 10.5921 81.8281 10.5622 81.8792 10.5428C81.9303 10.5234 81.9846 10.5148 82.039 10.5176H82.5706C82.6251 10.5148 82.6795 10.5234 82.7307 10.5428C82.7818 10.5622 82.8286 10.592 82.8681 10.6305C82.9374 10.6885 82.9867 10.7676 83.0088 10.8563L84.8696 16.8202L86.605 10.7925C86.6245 10.7242 86.6629 10.663 86.7155 10.6164C86.7895 10.5519 86.8843 10.5178 86.9815 10.5205H87.6853C87.7266 10.52 87.7675 10.5283 87.8055 10.5448C87.8435 10.5613 87.8777 10.5857 87.9061 10.6164C87.9369 10.6477 87.9612 10.6851 87.9773 10.7264C87.9934 10.7677 88.0011 10.8119 87.9999 10.8563L87.9684 11.016L85.7638 18.4351C85.7264 18.5504 85.6619 18.6546 85.5761 18.7387C85.4804 18.81 85.363 18.844 85.2449 18.8346H84.6378C84.5183 18.8472 84.3985 18.8129 84.3028 18.7388C84.207 18.6646 84.1422 18.5561 84.1216 18.4351L82.3078 12.711L80.4941 18.4351C80.4657 18.555 80.3968 18.6609 80.2995 18.734C80.2023 18.8071 80.0829 18.8428 79.9625 18.8346H79.3492Z" fill="white"/>
</g>
</g>
<defs>
<filter id="filter0_d_1802_6218" x="0.208984" y="0.210938" width="91.791" height="33.5098" filterUnits="userSpaceOnUse" color-interpolation-filters="sRGB">
<feFlood flood-opacity="0" result="BackgroundImageFix"/>
<feColorMatrix in="SourceAlpha" type="matrix" values="0 0 0 0 0 0 0 0 0 0 0 0 0 0 0 0 0 0 127 0" result="hardAlpha"/>
<feOffset dy="4"/>
<feGaussianBlur stdDeviation="2"/>
<feComposite in2="hardAlpha" operator="out"/>
<feColorMatrix type="matrix" values="0 0 0 0 0 0 0 0 0 0 0 0 0 0 0 0 0 0 0.05 0"/>
<feBlend mode="normal" in2="BackgroundImageFix" result="effect1_dropShadow_1802_6218"/>
<feBlend mode="normal" in="SourceGraphic" in2="effect1_dropShadow_1802_6218" result="shape"/>
</filter>
</defs>
</svg>
