<svg width="94" height="34" viewBox="0 0 94 34" fill="none" xmlns="http://www.w3.org/2000/svg">
<g filter="url(#filter0_d_1802_6356)">
<path fill-rule="evenodd" clip-rule="evenodd" d="M12.284 17.2809L12.2353 17.317L12.1837 17.3483C11.275 17.9736 9.91898 18.3915 8.80622 18.3915H8.80444C7.17357 18.3566 6.5795 17.7821 6.54686 16.2182C6.58188 14.4172 7.18722 13.8622 9.22402 13.734L12.0359 13.6027L12.1617 13.5974L12.284 13.5939V17.2809ZM17.4045 18.1681C17.3142 17.8643 17.0591 17.6787 16.7534 17.6787C16.6709 17.6828 16.595 17.6876 16.4964 17.7106C16.0602 17.8146 15.8181 17.8472 15.484 17.8696C14.8478 17.9009 14.735 17.6533 14.6935 16.9411V7.19388C14.6745 6.96869 14.5564 6.7435 14.3819 6.60755L14.3184 6.56677C14.2982 6.55081 14.2774 6.53012 14.2507 6.51653C13.7196 6.20563 12.8359 5.95502 12.0851 5.76588L12.0294 5.74993C11.1386 5.53536 10.1528 5.42188 9.17833 5.42188C8.60562 5.42188 8.08871 5.46561 7.88159 5.49103C7.45369 5.5324 6.2976 5.72451 5.90947 5.85632C5.79671 5.89296 5.43172 6.06555 5.41926 6.40778C5.42579 6.58568 5.62757 7.15606 5.62757 7.15606C5.75873 7.55502 5.89819 7.65196 6.15101 7.70338C6.35457 7.72643 6.79315 7.63482 7.08574 7.58458C7.83945 7.44568 8.33203 7.39307 8.68574 7.38893C9.14213 7.38243 9.71542 7.37593 10.3884 7.47287C11.6667 7.66851 12.1593 8.0592 12.1593 8.0592V11.8443L12.0466 11.8485L9.31661 11.9165C5.66555 12.0311 3.97593 13.4733 4.00026 16.3801C3.99492 17.7 4.41035 18.7586 5.20145 19.443C5.93618 20.0861 7.01393 20.4248 8.31067 20.4248H8.31601C9.80504 20.4248 11.0857 19.9679 12.3338 18.9838L12.4525 18.8927L12.5136 19.0293C12.8139 19.6883 13.3261 20.1145 14.0288 20.293C14.3439 20.3798 14.7041 20.4248 15.1641 20.4248C15.2822 20.4248 15.4009 20.4177 15.5071 20.4058C15.9237 20.3491 16.4774 20.2735 17.0947 19.9838C17.4329 19.8237 17.6727 19.6251 17.6549 19.2692C17.6413 18.9554 17.4045 18.1681 17.4045 18.1681Z" fill="#519DFF"/>
<path fill-rule="evenodd" clip-rule="evenodd" d="M57.7564 20.3611H56.4282C56.2241 20.3611 56.0531 20.2937 55.9475 20.1772C55.8407 20.0531 55.7932 19.8847 55.7932 19.6553V7.13078C55.7837 6.89554 55.8448 6.72413 55.9653 6.60946C56.0709 6.50307 56.2276 6.45697 56.4389 6.45697H57.6395C57.8632 6.45697 58.0146 6.50012 58.1321 6.59883C58.2526 6.6999 58.3166 6.86539 58.3125 7.06517L58.3261 7.39676L58.3386 7.67869L58.5261 7.47359C59.0894 6.86953 60.0549 6.14844 61.4449 6.14844C61.6413 6.14844 61.9825 6.17799 62.2817 6.23296C62.5309 6.27906 62.6253 6.53085 62.6075 6.66207C62.6075 6.72945 62.6051 6.78087 62.5968 6.82757L62.3992 8.09125C62.3855 8.31054 62.1831 8.47308 62.0134 8.47308C61.8591 8.46717 61.7725 8.45475 61.6751 8.43761C61.5303 8.41574 61.3677 8.38501 61.0811 8.38501C60.1535 8.38501 59.1167 8.99794 58.4247 9.94895L58.4015 9.97673V19.6553C58.4015 19.8717 58.3493 20.0413 58.2413 20.1637C58.135 20.2878 57.9618 20.3611 57.7564 20.3611Z" fill="#519DFF"/>
<path fill-rule="evenodd" clip-rule="evenodd" d="M49.5628 11.884H43.4649C43.5486 8.81937 44.7225 7.56691 46.6513 7.56691C48.529 7.56691 49.5913 8.59359 49.5913 10.9957C49.5913 11.1842 49.5913 11.6618 49.5628 11.884ZM46.7082 5.61523C43.2952 5.61523 40.7236 7.98066 40.7236 13.3605C40.7236 18.2923 43.0441 20.7145 47.4079 20.7145C48.0987 20.7145 48.9201 20.6341 49.7053 20.4745C49.8281 20.4514 49.9545 20.4177 50.0774 20.3911C50.5729 20.2546 51.0738 20.0495 51.2578 19.9638C51.5314 19.8598 51.7427 19.65 51.7587 19.3863C51.6845 18.9939 51.5842 18.5943 51.4691 18.2084C51.3646 17.9495 51.129 17.7863 50.8869 17.8011C50.8044 17.8011 49.6311 18.0547 49.5628 18.0754C48.8904 18.248 48.1522 18.3484 47.4637 18.3484C44.3593 18.3484 43.4352 16.8708 43.4352 13.8321V13.6087H51.5664C51.8074 13.5869 51.9943 13.4048 52.0281 13.1648C52.0281 13.1323 52.0311 13.0963 52.0364 13.0596C52.0632 12.5283 52.081 11.9703 52.081 11.5199C52.081 7.78679 50.2602 5.61523 46.7082 5.61523Z" fill="#519DFF"/>
<path fill-rule="evenodd" clip-rule="evenodd" d="M65.9554 26H65.8676C65.388 26 64.9904 25.9658 64.6034 25.8889C64.3649 25.8476 64.277 25.539 64.3239 25.117C64.3239 25.117 64.353 24.6666 64.4207 24.3486C64.4842 24.0247 64.6385 23.8775 64.81 23.8775H64.8586L64.9904 23.8835C65.0687 23.8888 65.1797 23.9036 65.283 23.9118C65.5198 23.9372 65.7607 23.9627 65.9489 23.9627C67.534 23.9449 68.3892 23.3681 68.9958 21.9052L69.7269 20.1273L69.7958 19.9387L69.8219 19.8601L69.7958 19.7756L64.9132 6.91649C64.8919 6.85975 64.8848 6.80182 64.8848 6.74922C64.8848 6.69957 64.8919 6.60796 64.9589 6.53053C65.0094 6.47674 65.096 6.43773 65.1904 6.43773H67.0414C67.3103 6.43773 67.5109 6.57899 67.5702 6.78587L70.7851 15.9975L70.9993 16.614L71.2201 15.9975L74.5436 6.85443C74.6136 6.5985 74.8219 6.43359 75.0646 6.43359H75.0783L75.1281 6.43773H76.6634C76.7875 6.43773 76.8795 6.46196 76.9436 6.51339C77.0071 6.56717 77.0326 6.64933 77.0284 6.71021C77.0284 6.79828 77.0071 6.87216 76.981 6.94368L71.5192 21.5399C70.3293 24.7919 68.8213 26 65.9554 26Z" fill="#519DFF"/>
<path fill-rule="evenodd" clip-rule="evenodd" d="M87.9689 20.3245C87.6508 20.3245 87.3879 20.1761 87.2389 19.9036L84.3208 15.4169L84.2175 15.2668L84.119 15.4169L81.2045 19.8995C81.0502 20.1761 80.7872 20.3245 80.4656 20.3245L80.4181 20.3185H78.8584C78.7309 20.3185 78.6395 20.2884 78.5617 20.2317C78.4852 20.1684 78.4311 20.0573 78.44 19.9521C78.44 19.8232 78.4852 19.6867 78.5617 19.575L82.7843 13.1939L82.8329 13.1289L82.7843 13.0633L78.8935 7.09121C78.8246 6.98009 78.7908 6.88611 78.7932 6.79745C78.7932 6.54625 79.0246 6.39494 79.246 6.39258H80.7101C81.0258 6.39258 81.2733 6.52852 81.3819 6.74308L84.1214 10.8823L84.2175 11.0247L84.3113 10.8823L87.0359 6.76849C87.1576 6.5297 87.408 6.39258 87.6935 6.39258H89.1938C89.4104 6.39258 89.6472 6.54625 89.6472 6.79568C89.6472 6.88611 89.6134 6.98009 89.5446 7.08057L85.6537 13.0633L85.608 13.1289L85.6537 13.1939L89.8638 19.5614C89.9546 19.6867 89.9992 19.8179 89.9992 19.9462C90.0075 20.0573 89.9558 20.1684 89.8811 20.2317C89.8015 20.2884 89.7084 20.3185 89.5766 20.3185H88.027L87.9689 20.3245Z" fill="#519DFF"/>
<path fill-rule="evenodd" clip-rule="evenodd" d="M24.7494 20.3614C24.0603 20.3614 23.3962 20.2509 22.8194 20.0417C22.2912 19.8584 21.8728 19.5954 21.5755 19.2691C20.7458 18.3607 20.6728 17.2294 20.6615 15.7352V1.46287C20.6615 1.37894 20.6983 1.29383 20.7523 1.23059C21.2437 0.683264 21.8787 0.274843 22.6407 0.0171407C22.6882 8.80748e-09 22.7203 0 22.7582 0C22.8194 0 22.9802 0.0106391 23.112 0.138308C23.2295 0.260066 23.2853 0.425562 23.2835 0.643072V15.8262C23.2888 16.6165 23.4787 17.2442 23.8277 17.636C24.1256 17.9629 24.6075 18.1284 25.2206 18.1284C25.3695 18.1284 25.5375 18.1166 25.7381 18.0923C26.1844 18.0285 26.6141 17.9038 26.8965 17.8145C26.9737 17.782 27.0431 17.7673 27.125 17.7673C27.3678 17.7673 27.5784 17.9387 27.6603 18.1922C27.6603 18.1922 27.8764 18.921 27.9037 19.265C27.9215 19.5617 27.6544 19.7615 27.4081 19.8478C27.0948 19.9731 25.9867 20.3614 24.7494 20.3614Z" fill="#519DFF"/>
<path fill-rule="evenodd" clip-rule="evenodd" d="M38.1387 18.1851C38.058 17.9304 37.8467 17.7601 37.5975 17.7601C37.5203 17.7601 37.4473 17.7755 37.3714 17.805C36.9601 17.9369 36.3399 18.1065 35.7565 18.1177L35.6942 18.1272C35.0651 18.1272 34.5921 17.9558 34.2906 17.6254C34.0064 17.3145 33.8022 16.8085 33.7856 15.8611C33.7856 15.8404 33.7856 15.8256 33.7856 15.8084L33.8645 8.29253H36.9518C37.1168 8.29253 37.2539 8.27361 37.3815 8.17668C37.5352 8.0561 37.5595 7.8581 37.5559 7.74875V6.80247C37.5595 6.59914 37.499 6.45197 37.3838 6.35858C37.2467 6.26046 37.0954 6.25219 36.9791 6.25219H33.8645V1.57276C33.8645 1.3517 33.8099 1.18975 33.6948 1.06977C33.5666 0.944464 33.3998 0.929688 33.3417 0.929688C33.3025 0.929688 33.2687 0.929688 33.2105 0.947419C33.0301 1.01303 32.5446 1.18207 32.0135 1.55385C31.8295 1.68743 31.6426 1.85351 31.455 2.04206C31.4028 2.10708 31.3731 2.18746 31.3731 2.26726L31.2989 6.20372H29.7043C29.5488 6.20372 29.3796 6.24332 29.2586 6.36981C29.1387 6.50043 29.109 6.66238 29.109 6.82788V7.69201C29.1114 7.87819 29.1031 8.04014 29.2479 8.19796C29.4117 8.34809 29.5719 8.33508 29.7571 8.34218H31.2556L31.1132 15.4118L31.1161 15.7151C31.1215 17.2134 31.1945 18.3494 32.0271 19.2673C32.6675 19.9595 33.8319 20.3572 35.2165 20.3626C36.4687 20.3626 37.442 20.0316 37.8871 19.8489C38.1251 19.749 38.3939 19.5569 38.3826 19.2608C38.3826 18.9789 38.1387 18.1851 38.1387 18.1851Z" fill="#519DFF"/>
</g>
<defs>
<filter id="filter0_d_1802_6356" x="0" y="0" width="94" height="34" filterUnits="userSpaceOnUse" color-interpolation-filters="sRGB">
<feFlood flood-opacity="0" result="BackgroundImageFix"/>
<feColorMatrix in="SourceAlpha" type="matrix" values="0 0 0 0 0 0 0 0 0 0 0 0 0 0 0 0 0 0 127 0" result="hardAlpha"/>
<feOffset dy="4"/>
<feGaussianBlur stdDeviation="2"/>
<feComposite in2="hardAlpha" operator="out"/>
<feColorMatrix type="matrix" values="0 0 0 0 0 0 0 0 0 0 0 0 0 0 0 0 0 0 0.05 0"/>
<feBlend mode="normal" in2="BackgroundImageFix" result="effect1_dropShadow_1802_6356"/>
<feBlend mode="normal" in="SourceGraphic" in2="effect1_dropShadow_1802_6356" result="shape"/>
</filter>
</defs>
</svg>
