<svg width="52" height="36" viewBox="0 0 52 36" fill="none" xmlns="http://www.w3.org/2000/svg">
<g filter="url(#filter0_d_1802_6373)">
<path d="M16.3997 10.1682C16.3997 10.7444 16.4582 11.2115 16.5606 11.5541C16.6777 11.8967 16.824 12.2704 17.0289 12.6753C17.1021 12.7998 17.1314 12.9244 17.1314 13.0334C17.1314 13.1891 17.0435 13.3449 16.8533 13.5006L15.9314 14.1546C15.7997 14.248 15.668 14.2947 15.5509 14.2947C15.4045 14.2947 15.2582 14.2169 15.1119 14.0767C14.907 13.8431 14.7314 13.594 14.5851 13.3449C14.4387 13.0801 14.2924 12.7843 14.1314 12.4261C12.99 13.8587 11.5558 14.575 9.82903 14.575C8.59978 14.575 7.61931 14.2013 6.90225 13.4539C6.18518 12.7064 5.81934 11.7098 5.81934 10.4641C5.81934 9.14052 6.25835 8.06608 7.15102 7.25636C8.04369 6.44664 9.22904 6.04178 10.7363 6.04178C11.2339 6.04178 11.7461 6.08849 12.2875 6.16635C12.829 6.24421 13.3851 6.36878 13.9704 6.50893V5.3722C13.9704 4.18876 13.7363 3.36346 13.2826 2.88074C12.8143 2.39803 12.0241 2.16445 10.8973 2.16445C10.3851 2.16445 9.8583 2.22674 9.31684 2.36688C8.77539 2.50703 8.24857 2.67831 7.73638 2.89632C7.50224 3.00532 7.32663 3.0676 7.22419 3.09875C7.12175 3.12989 7.04858 3.14546 6.99005 3.14546C6.78517 3.14546 6.68274 2.98975 6.68274 2.66274V1.89973C6.68274 1.65059 6.712 1.46373 6.78517 1.35473C6.85834 1.24573 6.99005 1.13673 7.19492 1.02773C7.70711 0.747436 8.32173 0.513863 9.0388 0.327003C9.75586 0.124573 10.5168 0.0311432 11.3217 0.0311432C13.0631 0.0311432 14.3363 0.451576 15.1558 1.29244C15.9606 2.13331 16.3704 3.41018 16.3704 5.12305V10.1682H16.3997ZM10.4583 12.5351C10.9412 12.5351 11.4388 12.4417 11.9656 12.2548C12.4924 12.068 12.9607 11.7254 13.3558 11.2583C13.5899 10.9624 13.7656 10.6354 13.8534 10.2617C13.9412 9.88796 13.9997 9.43638 13.9997 8.90695V8.25294C13.5753 8.14394 13.1217 8.05051 12.6534 7.98823C12.1851 7.92594 11.7314 7.8948 11.2778 7.8948C10.2973 7.8948 9.58025 8.09723 9.09733 8.51766C8.61441 8.93809 8.38027 9.52981 8.38027 10.3084C8.38027 11.0403 8.55588 11.5853 8.92173 11.959C9.27294 12.3483 9.78513 12.5351 10.4583 12.5351ZM22.2093 14.2169C21.9459 14.2169 21.7703 14.1701 21.6532 14.0611C21.5362 13.9677 21.4337 13.7497 21.3459 13.4539L17.9069 1.41701C17.8191 1.10558 17.7752 0.903152 17.7752 0.794151C17.7752 0.545006 17.8923 0.404861 18.1265 0.404861H19.5606C19.8386 0.404861 20.0289 0.451576 20.1313 0.560577C20.2484 0.654007 20.3362 0.872009 20.424 1.16787L22.8825 11.4763L25.1654 1.16787C25.2385 0.856438 25.3263 0.654007 25.4434 0.560577C25.5605 0.467148 25.7654 0.404861 26.0288 0.404861H27.1995C27.4775 0.404861 27.6678 0.451576 27.7848 0.560577C27.9019 0.654007 28.0043 0.872009 28.0629 1.16787L30.375 11.6008L32.9067 1.16787C32.9945 0.856438 33.0969 0.654007 33.1994 0.560577C33.3165 0.467148 33.5067 0.404861 33.7701 0.404861H35.1311C35.3652 0.404861 35.4969 0.529434 35.4969 0.794151C35.4969 0.872009 35.4823 0.949867 35.4676 1.0433C35.453 1.13673 35.4237 1.2613 35.3652 1.43259L31.8384 13.4694C31.7506 13.7809 31.6482 13.9833 31.5311 14.0767C31.414 14.1701 31.2238 14.2324 30.975 14.2324H29.7165C29.4385 14.2324 29.2482 14.1857 29.1312 14.0767C29.0141 13.9677 28.9117 13.7653 28.8531 13.4539L26.5849 3.41018L24.3312 13.4383C24.2581 13.7497 24.1703 13.9521 24.0532 14.0611C23.9361 14.1701 23.7312 14.2169 23.4678 14.2169H22.2093ZM41.0139 14.6373C40.2529 14.6373 39.492 14.5439 38.7603 14.357C38.0286 14.1701 37.4579 13.9677 37.0774 13.7341C36.8432 13.594 36.6823 13.4383 36.6237 13.2981C36.5652 13.158 36.5359 13.0023 36.5359 12.8621V12.068C36.5359 11.741 36.653 11.5853 36.8725 11.5853C36.9603 11.5853 37.0481 11.6008 37.1359 11.632C37.2237 11.6631 37.3554 11.7254 37.5018 11.7877C37.9993 12.0213 38.5408 12.2081 39.1115 12.3327C39.6968 12.4573 40.2676 12.5196 40.8529 12.5196C41.7749 12.5196 42.4919 12.3483 42.9895 12.0057C43.487 11.6631 43.7504 11.1648 43.7504 10.5264C43.7504 10.0904 43.6187 9.73224 43.3553 9.43638C43.0919 9.14052 42.5944 8.87581 41.8773 8.62666L39.7554 7.92594C38.6871 7.56779 37.8969 7.03836 37.414 6.33764C36.931 5.65249 36.6823 4.88948 36.6823 4.07976C36.6823 3.42575 36.814 2.8496 37.0774 2.35131C37.3408 1.85302 37.692 1.41701 38.131 1.07444C38.57 0.716293 39.0676 0.451576 39.6529 0.264717C40.2383 0.0778579 40.8529 0 41.4968 0C41.8188 0 42.1553 0.0155716 42.4773 0.0622864C42.8139 0.109001 43.1212 0.171287 43.4285 0.233574C43.7212 0.311432 43.9992 0.38929 44.2626 0.482719C44.526 0.576149 44.7309 0.669578 44.8772 0.763008C45.0821 0.887581 45.2285 1.01215 45.3163 1.1523C45.4041 1.27687 45.448 1.44816 45.448 1.66616V2.39802C45.448 2.72503 45.3309 2.89632 45.1114 2.89632C44.9943 2.89632 44.8041 2.83403 44.5553 2.70946C43.7212 2.3046 42.7846 2.10216 41.7456 2.10216C40.9115 2.10216 40.2529 2.24231 39.7993 2.53817C39.3456 2.83403 39.1115 3.28561 39.1115 3.92404C39.1115 4.36005 39.2578 4.73376 39.5505 5.02962C39.8432 5.32548 40.3846 5.62134 41.1602 5.88606L43.2382 6.58678C44.2919 6.94493 45.0529 7.44322 45.5065 8.08166C45.9602 8.72009 46.1797 9.45196 46.1797 10.2617C46.1797 10.9313 46.048 11.5385 45.7992 12.068C45.5358 12.5974 45.1846 13.0646 44.7309 13.4383C44.2773 13.8276 43.7358 14.1079 43.1065 14.3103C42.448 14.5283 41.7602 14.6373 41.0139 14.6373Z" fill="white"/>
<path fill-rule="evenodd" clip-rule="evenodd" d="M43.7797 22.2067C38.9651 25.9906 31.9701 27.9994 25.9556 27.9994C17.5264 27.9994 9.93142 24.6826 4.19493 19.1703C3.74127 18.7343 4.15102 18.1426 4.69248 18.4851C10.8973 22.3157 18.5508 24.6359 26.4677 24.6359C31.8091 24.6359 37.6773 23.4525 43.0772 21.0233C43.8821 20.634 44.5699 21.5839 43.7797 22.2067Z" fill="#FF9900"/>
<path fill-rule="evenodd" clip-rule="evenodd" d="M45.7845 19.7765C45.1699 18.9356 41.7163 19.3716 40.1505 19.574C39.6822 19.6363 39.609 19.2003 40.0334 18.8733C42.7846 16.8179 47.3065 17.4096 47.8333 18.0947C48.3601 18.7954 47.687 23.6071 45.1114 25.9117C44.7163 26.2698 44.3358 26.0829 44.5114 25.6158C45.0968 24.0742 46.3992 20.6017 45.7845 19.7765Z" fill="#FF9900"/>
</g>
<defs>
<filter id="filter0_d_1802_6373" x="0" y="0" width="52" height="36" filterUnits="userSpaceOnUse" color-interpolation-filters="sRGB">
<feFlood flood-opacity="0" result="BackgroundImageFix"/>
<feColorMatrix in="SourceAlpha" type="matrix" values="0 0 0 0 0 0 0 0 0 0 0 0 0 0 0 0 0 0 127 0" result="hardAlpha"/>
<feOffset dy="4"/>
<feGaussianBlur stdDeviation="2"/>
<feComposite in2="hardAlpha" operator="out"/>
<feColorMatrix type="matrix" values="0 0 0 0 0 0 0 0 0 0 0 0 0 0 0 0 0 0 0.05 0"/>
<feBlend mode="normal" in2="BackgroundImageFix" result="effect1_dropShadow_1802_6373"/>
<feBlend mode="normal" in="SourceGraphic" in2="effect1_dropShadow_1802_6373" result="shape"/>
</filter>
</defs>
</svg>
