<svg width="91" height="32" viewBox="0 0 91 32" fill="none" xmlns="http://www.w3.org/2000/svg">
<g filter="url(#filter0_d_1802_6388)">
<path d="M17.8619 22.7183C21.7115 22.0151 24.891 21.4331 24.9275 21.4251L24.9939 21.4106L21.3595 16.9401C19.3606 14.4814 17.7251 12.4601 17.7251 12.4485C17.7251 12.4264 21.478 1.73942 21.499 1.7014C21.5061 1.68869 24.06 6.24835 27.6899 12.7543C31.0883 18.8453 33.8901 23.8674 33.9161 23.9144L33.9635 24L22.413 23.9985L10.8626 23.9969L17.8619 22.7183ZM64.5977 19.9229C62.8395 19.8063 61.8169 18.771 61.5459 16.8331C61.4739 16.3176 61.4736 16.3042 61.4662 12.9576L61.4591 9.71861H62.2372H63.0153L63.0215 12.8515C63.027 15.6752 63.0305 16.0062 63.0566 16.2049C63.1625 17.011 63.3734 17.5531 63.7325 17.9422C64.0199 18.2537 64.3563 18.436 64.8221 18.5328C65.0418 18.5784 65.6668 18.5785 65.8671 18.5329C66.3393 18.4255 66.7177 18.213 67.0515 17.868C67.432 17.4746 67.7135 16.9166 67.8497 16.2856L67.8956 16.0729L67.9007 12.9134L67.9058 9.75399H68.7002H69.4946V14.7207V19.6875H68.7084H67.9222V18.8995C67.9222 18.364 67.9165 18.1134 67.9045 18.1175C67.8947 18.1209 67.8544 18.1848 67.8147 18.2595C67.5438 18.7705 67.0924 19.2378 66.5977 19.5193C66.0048 19.8568 65.4101 19.9767 64.5977 19.9229ZM82.4437 19.9148C81.823 19.8666 81.1695 19.6459 80.6354 19.3043C79.5096 18.5841 78.8434 17.3971 78.6484 15.7635C78.5809 15.1983 78.5728 14.439 78.6291 13.9586C78.755 12.8854 79.1628 11.8318 79.7435 11.0796C79.8924 10.8868 80.2302 10.5375 80.4166 10.3836C80.9201 9.96785 81.5091 9.67714 82.1344 9.53568C82.4987 9.45326 83.1403 9.41456 83.5274 9.45166C84.4998 9.54485 85.391 10.0183 85.9968 10.7635C86.6122 11.5206 86.9504 12.5785 86.9936 13.8811C87.0004 14.0853 87.002 14.4432 86.9973 14.6765L86.9886 15.1007L83.583 15.1052L80.1773 15.1096V15.2668C80.1773 15.7452 80.2898 16.2902 80.4843 16.7538C80.652 17.1536 80.9406 17.5902 81.1769 17.8014C81.6615 18.2346 82.2546 18.4939 82.9036 18.5563C83.1442 18.5795 83.7574 18.5551 84.0316 18.5115C84.814 18.3872 85.5578 18.0699 86.1585 17.6042C86.2291 17.5494 86.2968 17.4982 86.3088 17.4904C86.3263 17.479 86.3305 17.6222 86.33 18.2239L86.3295 18.9716L86.1685 19.0745C85.489 19.5091 84.7106 19.7882 83.8864 19.8926C83.6404 19.9238 82.7378 19.9377 82.4437 19.9148ZM85.4076 13.609C85.4076 12.8076 85.081 11.9174 84.6188 11.459C84.289 11.1318 83.8903 10.9319 83.4163 10.856C83.1921 10.82 82.7195 10.8339 82.483 10.8833C81.9832 10.9877 81.5699 11.2149 81.2093 11.5833C80.8298 11.9711 80.5453 12.4421 80.3664 12.9787C80.3021 13.1716 80.2268 13.4884 80.2035 13.6646L80.1923 13.7486H82.8H85.4076V13.609ZM39.2107 19.6654C39.2147 19.6532 40.3712 16.5115 41.7806 12.6837L44.3433 5.72412L45.1667 5.72407L45.9902 5.72401L46.0585 5.90518C46.2672 6.45883 51.1888 19.6724 51.1888 19.6792C51.1888 19.6837 50.7946 19.6874 50.3128 19.6873L49.4368 19.6871L48.7275 17.7342L48.0182 15.7812L45.1621 15.7812L42.306 15.7812L42.2812 15.8475C42.2675 15.8839 41.9645 16.7627 41.6077 17.8003L40.9591 19.6868L40.0813 19.6871C39.3864 19.6873 39.205 19.6828 39.2107 19.6654ZM47.4969 14.2909C47.4969 14.2878 47.0195 12.9495 46.4361 11.317C45.3446 8.26283 45.2835 8.07907 45.1973 7.58874C45.1569 7.35881 45.1364 7.35242 45.1124 7.56222C45.0952 7.71219 45.0208 8.04775 44.9635 8.23389C44.935 8.32624 44.4435 9.7213 43.8712 11.334C43.2989 12.9468 42.8307 14.2731 42.8307 14.2814C42.8307 14.2897 43.8806 14.2965 45.1638 14.2965C46.447 14.2965 47.4969 14.294 47.4969 14.2909ZM51.7187 19.4331V19.1787L54.5642 15.1336L57.4097 11.0884L54.8334 11.0796L52.2571 11.0708L52.2526 10.3947L52.2481 9.71861H55.9744H59.7008V9.94695V10.1753L56.8549 14.2425C55.2897 16.4795 54.009 18.3135 54.009 18.3181C54.009 18.3227 55.2743 18.3265 56.8207 18.3265H59.6324V19.007V19.6875H55.6755H51.7187V19.4331ZM72.5997 19.6757C72.5935 19.6692 72.5884 17.4262 72.5884 14.6912V9.71861H73.3661H74.1437V10.7438C74.1437 11.3076 74.1504 11.7689 74.1585 11.7689C74.1666 11.7689 74.2044 11.6766 74.2426 11.5638C74.4175 11.0469 74.7207 10.5639 75.1113 10.18C75.4633 9.83423 75.8655 9.62743 76.3401 9.54829C76.4734 9.52606 76.5862 9.52181 76.8529 9.529C77.1878 9.53802 77.3628 9.56333 77.5665 9.63217L77.6306 9.65384V10.4886V11.3234L77.4468 11.2283C77.1223 11.0603 76.802 10.9938 76.417 11.0145C76.1665 11.0279 76.002 11.0612 75.8017 11.139C75.3896 11.2989 75.0553 11.5812 74.8217 11.9666C74.4835 12.5245 74.2423 13.2417 74.1712 13.9008C74.1584 14.0191 74.1509 14.9824 74.1479 16.8815L74.1434 19.6875H73.3773C72.9559 19.6875 72.606 19.6821 72.5997 19.6757ZM4 21.355C4 21.3487 5.71252 18.2745 7.8056 14.5235L11.6112 7.70341L16.0462 3.85462C18.4854 1.73779 20.4877 0.00325034 20.4957 8.69521e-05C20.5038 -0.00307581 20.4717 0.0804393 20.4244 0.185677C20.3772 0.290915 18.2101 5.09764 15.6087 10.8673L10.8788 21.3575L7.43941 21.362C5.54773 21.3645 4 21.3613 4 21.355Z" fill="#348CFF"/>
</g>
<defs>
<filter id="filter0_d_1802_6388" x="0" y="0" width="91" height="32" filterUnits="userSpaceOnUse" color-interpolation-filters="sRGB">
<feFlood flood-opacity="0" result="BackgroundImageFix"/>
<feColorMatrix in="SourceAlpha" type="matrix" values="0 0 0 0 0 0 0 0 0 0 0 0 0 0 0 0 0 0 127 0" result="hardAlpha"/>
<feOffset dy="4"/>
<feGaussianBlur stdDeviation="2"/>
<feComposite in2="hardAlpha" operator="out"/>
<feColorMatrix type="matrix" values="0 0 0 0 0 0 0 0 0 0 0 0 0 0 0 0 0 0 0.05 0"/>
<feBlend mode="normal" in2="BackgroundImageFix" result="effect1_dropShadow_1802_6388"/>
<feBlend mode="normal" in="SourceGraphic" in2="effect1_dropShadow_1802_6388" result="shape"/>
</filter>
</defs>
</svg>
