<svg width="145" height="34" viewBox="0 0 145 34" fill="none" xmlns="http://www.w3.org/2000/svg">
<g filter="url(#filter0_d_1802_6205)">
<path d="M28.8086 19.2524V14.6714L28.3137 14.3619L16.4352 20.8619L5.17547 14.6714V12.0095L16.4352 18.1381L28.8705 11.3905V6.87143L28.3755 6.56191L16.4352 13.1238L5.60854 7.18095L16.4352 1.2381L25.1585 6.00476L25.839 5.63333V5.1381L16.4352 0L4 6.74762V7.42857L16.4352 14.2381L27.695 8.04762V10.7714L16.4352 16.9619L4.49493 10.4L4 10.7095V15.2905L16.4352 22.0381L27.695 15.9095V18.5714L16.4352 24.7619L4.49493 18.2619L4 18.5714V19.2524L16.4352 26L28.8086 19.2524Z" fill="#FF3621"/>
<path fill-rule="evenodd" clip-rule="evenodd" d="M50 5V20.7201H47.4884V19.5539C47.4884 19.4606 47.4419 19.3673 47.3488 19.3673C47.2558 19.3207 47.1628 19.3673 47.1163 19.414C46.2326 20.3936 44.9302 21 43.4884 21C42 21 40.6047 20.3936 39.5814 19.3673C38.5581 18.2945 38 16.8484 38 15.2624C38 12.0437 40.4186 9.52478 43.4884 9.52478C44.9302 9.52478 46.2791 10.0845 47.1163 11.0175C47.1628 11.0641 47.2558 11.1108 47.3488 11.0641C47.4419 11.0175 47.4884 10.9708 47.4884 10.8776V5H50ZM40.5116 15.2624C40.5116 17.2682 42.0465 18.8076 44.0465 18.8076C46.0465 18.8076 47.5814 17.2682 47.5814 15.2624C47.5814 13.2566 46.0465 11.7172 44.0465 11.7172C42.093 11.7172 40.5116 13.2566 40.5116 15.2624Z" fill="white"/>
<path fill-rule="evenodd" clip-rule="evenodd" d="M63 10.2236V20.7317H60.7315V19.6138C60.7315 19.5244 60.6887 19.435 60.6031 19.435C60.5175 19.3902 60.4319 19.435 60.3891 19.4797C59.5759 20.4634 58.3774 21 57.0506 21C54.2257 21 52 18.5854 52 15.5C52 12.4146 54.2257 10 57.0506 10C58.4202 10 59.6187 10.4919 60.3891 11.4309C60.4319 11.4756 60.5175 11.5203 60.6031 11.4756C60.6887 11.4309 60.7315 11.3862 60.7315 11.2967V10.2236H63ZM54.3113 15.5C54.3113 17.4228 55.7237 18.8984 57.5642 18.8984C59.4047 18.8984 60.8171 17.4228 60.8171 15.5C60.8171 13.5772 59.4047 12.1016 57.5642 12.1016C55.7665 12.1016 54.3113 13.5772 54.3113 15.5Z" fill="white"/>
<path fill-rule="evenodd" clip-rule="evenodd" d="M84 10.2236V20.7317H81.5253V19.6138C81.5253 19.5244 81.4786 19.435 81.3852 19.435C81.2918 19.3902 81.1984 19.435 81.1518 19.4797C80.2646 20.4634 78.9572 21 77.5097 21C74.428 21 72 18.5854 72 15.5C72 12.4146 74.428 10 77.5097 10C79.0039 10 80.3113 10.4919 81.1518 11.4309C81.1984 11.4756 81.2918 11.5203 81.3852 11.4756C81.4786 11.4309 81.5253 11.3862 81.5253 11.2967V10.2236H84ZM74.5214 15.5C74.5214 17.4228 76.0623 18.8984 78.07 18.8984C80.0778 18.8984 81.6187 17.4228 81.6187 15.5C81.6187 13.5772 80.0778 12.1016 78.07 12.1016C76.0623 12.1016 74.5214 13.5772 74.5214 15.5Z" fill="white"/>
<path fill-rule="evenodd" clip-rule="evenodd" d="M88.7442 19.4561C88.6977 19.4561 88.6977 19.4561 88.6512 19.4561C88.5581 19.5029 88.5116 19.5497 88.5116 19.6433V20.7661H86V5H88.5116V10.9415C88.5116 11.0351 88.5581 11.1287 88.6512 11.1287C88.7442 11.1754 88.8372 11.1287 88.8837 11.0819C89.7674 10.0994 91.0698 9.49123 92.5116 9.49123C94 9.49123 95.3953 10.0994 96.4186 11.1287C97.4419 12.2047 98 13.655 98 15.2456C98 18.4737 95.5814 21 92.5116 21C91.0698 21 89.7209 20.4386 88.8837 19.5029C88.8372 19.5029 88.7907 19.4561 88.7442 19.4561ZM91.9535 11.7368C89.9535 11.7368 88.4186 13.2807 88.4186 15.2924C88.4186 17.3041 89.9535 18.848 91.9535 18.848C93.9535 18.848 95.4884 17.3041 95.4884 15.2924C95.4884 13.2807 93.907 11.7368 91.9535 11.7368Z" fill="white"/>
<path d="M104.431 12.4292C104.65 12.4292 104.869 12.4292 105 12.475V10.0458C104.912 10.0458 104.781 10 104.606 10C103.38 10 102.241 10.6417 101.672 11.65C101.628 11.7417 101.54 11.7875 101.453 11.7417C101.365 11.6958 101.321 11.65 101.321 11.5583V10.2292H99V21H101.365V16.2792C101.277 13.8958 102.504 12.4292 104.431 12.4292Z" fill="white"/>
<path d="M109 10H107V21H109V10Z" fill="white"/>
<path d="M108.5 5C107.682 5 107 5.65625 107 6.5C107 7.34375 107.682 8 108.5 8C109.318 8 110 7.34375 110 6.5C110 5.70312 109.318 5 108.5 5Z" fill="white"/>
<path d="M116.59 10C113.358 10 111 12.3252 111 15.5C111 17.065 111.568 18.4512 112.572 19.435C113.576 20.4187 115.017 21 116.59 21C117.9 21 118.948 20.7317 120.869 19.3455L119.559 17.9593C118.598 18.5854 117.725 18.8984 116.852 18.8984C114.886 18.8984 113.402 17.4228 113.402 15.5C113.402 13.5772 114.886 12.1016 116.852 12.1016C117.769 12.1016 118.642 12.4146 119.515 13.0407L121 11.6545C119.21 10.1341 117.638 10 116.59 10Z" fill="white"/>
<path d="M124.946 16.0769C124.991 16.0296 125.036 16.0296 125.08 16.0296C125.125 16.0296 125.17 16.0769 125.214 16.1243L129.054 21H132L127.045 14.8462C126.955 14.7515 127 14.6568 127.045 14.5621L131.598 9.87574H128.696L124.768 13.8994C124.723 13.9467 124.634 13.9941 124.545 13.9467C124.455 13.8994 124.411 13.8521 124.411 13.7574V5H122V20.9527H124.411V16.645C124.411 16.5976 124.455 16.5503 124.455 16.503L124.946 16.0769Z" fill="white"/>
<path d="M136.599 21C138.775 21 141 19.8374 141 17.6463C141 16.2154 139.962 15.2317 137.835 14.6057L136.401 14.2033C135.412 13.935 134.967 13.5325 134.967 12.9512C134.967 12.3252 135.61 11.878 136.549 11.878C137.44 11.878 138.231 12.3699 138.725 13.2642L140.852 12.2805C140.06 10.8496 138.429 10 136.549 10C134.176 10 132.445 11.3415 132.445 13.1748C132.445 14.6504 133.434 15.6341 135.462 16.1707L136.945 16.5732C137.984 16.8415 138.429 17.1992 138.429 17.8252C138.429 18.7195 137.489 19.0325 136.698 19.0325C135.61 19.0325 134.67 18.4065 134.176 17.4228L132 18.4065C132.692 20.0163 134.473 21 136.599 21Z" fill="white"/>
<path d="M70.2063 21C70.95 21 71.6063 20.955 72 20.865V18.8392C71.6938 18.8842 71.1687 18.9293 70.8187 18.9293C69.8562 18.9293 69.1562 18.7492 69.1562 16.7235V12.4019C69.1562 12.3119 69.2437 12.2219 69.375 12.2219H71.65V10.3312H69.375C69.2437 10.3312 69.1562 10.2412 69.1562 10.1511V7H66.8375V10.0611C66.8375 10.1511 66.75 10.2412 66.6187 10.2412H65V12.1318H66.6187C66.75 12.1318 66.8375 12.2219 66.8375 12.3119V17.2187C66.7937 21 69.2875 21 70.2063 21Z" fill="white"/>
</g>
<defs>
<filter id="filter0_d_1802_6205" x="0" y="0" width="145" height="34" filterUnits="userSpaceOnUse" color-interpolation-filters="sRGB">
<feFlood flood-opacity="0" result="BackgroundImageFix"/>
<feColorMatrix in="SourceAlpha" type="matrix" values="0 0 0 0 0 0 0 0 0 0 0 0 0 0 0 0 0 0 127 0" result="hardAlpha"/>
<feOffset dy="4"/>
<feGaussianBlur stdDeviation="2"/>
<feComposite in2="hardAlpha" operator="out"/>
<feColorMatrix type="matrix" values="0 0 0 0 0 0 0 0 0 0 0 0 0 0 0 0 0 0 0.05 0"/>
<feBlend mode="normal" in2="BackgroundImageFix" result="effect1_dropShadow_1802_6205"/>
<feBlend mode="normal" in="SourceGraphic" in2="effect1_dropShadow_1802_6205" result="shape"/>
</filter>
</defs>
</svg>
