<svg width="76" height="34" viewBox="0 0 76 34" fill="none" xmlns="http://www.w3.org/2000/svg">
<g filter="url(#filter0_d_1802_6197)">
<mask id="mask0_1802_6197" style="mask-type:luminance" maskUnits="userSpaceOnUse" x="4" y="0" width="68" height="26">
<path d="M72 0H4V26H72V0Z" fill="white"/>
</mask>
<g mask="url(#mask0_1802_6197)">
<path d="M28.8909 1.08077C29.5008 1.66883 29.902 2.44563 29.9954 3.28998C29.9954 3.64361 29.902 3.87805 29.6915 4.32307C29.4789 4.77008 26.8706 9.28188 26.0939 10.5275C25.6469 11.2567 25.4125 12.1268 25.4125 12.9732C25.4125 13.8195 25.6469 14.6897 26.0939 15.4188C26.8706 16.6645 29.4809 21.2022 29.6915 21.6492C29.904 22.0962 29.9954 22.3068 29.9954 22.6604C29.902 23.5087 29.5266 24.2816 28.9147 24.8458C28.3267 25.4557 27.55 25.857 26.7296 25.9266C26.376 25.9266 26.1416 25.8332 25.7184 25.6226C25.2953 25.41 20.6886 22.871 19.4431 22.0942C19.3497 22.0465 19.2544 21.975 19.1392 21.9313L12.981 18.2876C13.122 19.4618 13.6385 20.5922 14.4868 21.4147C14.6497 21.5777 14.8165 21.7187 15.0033 21.8618C14.8622 21.9333 14.6993 22.0028 14.5563 22.0962C13.3108 22.873 8.77358 25.4835 8.32661 25.6941C7.87965 25.9067 7.66908 25.9981 7.29363 25.9981C6.44539 25.9047 5.67264 25.5292 5.10847 24.9173C4.49861 24.3292 4.09734 23.5524 4.00397 22.7081C4.02582 22.3545 4.12316 22.0028 4.30791 21.6969C4.52046 21.2498 7.12875 16.7122 7.90548 15.4665C8.35244 14.7374 8.58685 13.891 8.58685 13.0209C8.58685 12.1507 8.35244 11.3043 7.90548 10.5752C7.12677 9.28387 4.49464 4.74822 4.30394 4.30121C4.11522 3.99725 4.02185 3.64361 4 3.28998C4.09337 2.44166 4.46882 1.66883 5.08066 1.08077C5.66866 0.472836 6.44539 0.0933751 7.28966 0C7.64326 0.0218537 7.99487 0.119202 8.32264 0.303966C8.69809 0.466876 12.0136 2.39596 13.7756 3.43104L14.1769 3.66547C14.3179 3.75884 14.4371 3.82838 14.5305 3.87805L14.7192 3.99725L20.9946 7.7104C20.8535 6.30183 20.1245 5.00848 18.9941 4.1383C19.1352 4.06678 19.2981 3.99725 19.4411 3.90387C20.6867 3.12707 25.2238 0.49469 25.6708 0.305953C25.9767 0.115229 26.3283 0.0218537 26.7038 0C27.5262 0.0933751 28.3029 0.468863 28.8889 1.08077H28.8909ZM17.3255 14.6698L18.6644 13.3308C18.8531 13.142 18.8531 12.8619 18.6644 12.6732L17.3255 11.3341C17.1368 11.1454 16.8567 11.1454 16.668 11.3341L15.329 12.6732C15.1403 12.8619 15.1403 13.142 15.329 13.3308L16.668 14.6698C16.8308 14.8327 17.1368 14.8327 17.3255 14.6698Z" fill="#FF694A"/>
<path d="M44.8482 4.43044V10.4223C44.4727 9.80845 43.9304 9.31773 43.2729 8.98794C42.5895 8.6343 41.8148 8.47139 41.038 8.47139C40.0488 8.44954 39.0635 8.7098 38.2172 9.2482C37.3948 9.78659 36.7373 10.5634 36.3141 11.4574C35.8453 12.4945 35.6109 13.6209 35.6328 14.7732C35.6069 15.9255 35.8453 17.052 36.3141 18.1109C36.7373 19.0287 37.3948 19.8016 38.243 20.3678C39.0674 20.9301 40.0527 21.2122 41.042 21.1903C41.8406 21.1903 42.6411 21.0036 43.3464 20.6519C44.0039 20.3241 44.5462 19.8076 44.9217 19.1718V20.9817H48.5192V3.23444L48.5152 3.23047L44.8462 4.43044H44.8482ZM44.1926 17.4791C43.7238 18.089 43.0186 18.4188 42.1266 18.4188C41.3281 18.4446 40.5275 18.091 40.0349 17.4553C39.5442 16.8195 39.284 15.9056 39.284 14.7752C39.284 13.6448 39.5402 12.7746 40.0349 12.1647C40.5513 11.5508 41.3281 11.1991 42.1266 11.2468C42.9232 11.225 43.7 11.5766 44.1926 12.1865C44.6872 12.7965 44.9217 13.6666 44.9217 14.8189C44.9217 15.9712 44.6614 16.8672 44.1926 17.4771V17.4791Z" fill="white"/>
<path d="M61.3781 9.22634L61.3741 9.23032C60.5259 8.71377 59.5406 8.43166 58.5533 8.45351C57.7547 8.42769 56.98 8.61642 56.2748 8.99191C55.6172 9.31972 55.0769 9.83626 54.7253 10.472V3.23047L51.082 4.43044V20.9579H54.7014V19.1241C55.0511 19.7559 55.5934 20.2725 56.2509 20.6043C56.9561 20.9797 57.7567 21.1665 58.5553 21.1427C59.5406 21.1645 60.5298 20.8824 61.3503 20.344C62.1985 19.7797 62.856 19.0049 63.2792 18.087C63.748 17.054 63.9824 15.9017 63.9605 14.7494C63.9864 13.5971 63.748 12.4667 63.2792 11.4336C62.8819 10.5415 62.2224 9.76474 61.3761 9.22436L61.3781 9.22634ZM59.5902 17.4533C59.0996 18.089 58.3228 18.4427 57.5243 18.393C56.6999 18.4407 55.9251 18.089 55.4325 17.4533C54.9378 16.8394 54.7034 15.9215 54.7034 14.7951C54.7034 13.6686 54.9378 12.7984 55.4325 12.1627C55.949 11.5269 56.7257 11.1733 57.5243 11.223C58.4162 11.223 59.0976 11.5309 59.5902 12.1408C60.0849 12.7508 60.3193 13.5752 60.3193 14.7514C60.3193 15.9275 60.0849 16.8175 59.5902 17.4533Z" fill="white"/>
<path d="M69.5133 17.7159C69.1836 17.4119 68.9968 16.9173 68.9968 16.2358V11.4876L68.9929 11.4836H72.0958V8.75587H68.9929V4.71094L65.3496 5.88508V16.3053C65.3496 17.855 65.7509 19.0569 66.5495 19.9033C67.348 20.7517 68.5002 21.1708 70.006 21.1708C70.7112 21.1927 71.4144 21.0775 72.0978 20.8411V18.0199C71.7223 18.1132 71.2992 18.1828 70.8979 18.1828C70.3814 18.2046 69.8868 18.0417 69.5113 17.7139L69.5133 17.7159Z" fill="white"/>
</g>
</g>
<defs>
<filter id="filter0_d_1802_6197" x="0" y="0" width="76" height="33.998" filterUnits="userSpaceOnUse" color-interpolation-filters="sRGB">
<feFlood flood-opacity="0" result="BackgroundImageFix"/>
<feColorMatrix in="SourceAlpha" type="matrix" values="0 0 0 0 0 0 0 0 0 0 0 0 0 0 0 0 0 0 127 0" result="hardAlpha"/>
<feOffset dy="4"/>
<feGaussianBlur stdDeviation="2"/>
<feComposite in2="hardAlpha" operator="out"/>
<feColorMatrix type="matrix" values="0 0 0 0 0 0 0 0 0 0 0 0 0 0 0 0 0 0 0.05 0"/>
<feBlend mode="normal" in2="BackgroundImageFix" result="effect1_dropShadow_1802_6197"/>
<feBlend mode="normal" in="SourceGraphic" in2="effect1_dropShadow_1802_6197" result="shape"/>
</filter>
</defs>
</svg>
