<svg width="121" height="34" viewBox="0 0 121 34" fill="none" xmlns="http://www.w3.org/2000/svg">
<g filter="url(#filter0_d_1802_6148)">
<path d="M36.1417 10.8093C35.3406 10.2702 33.2359 10.0403 31.7058 10.4522C31.6235 8.92817 30.8374 7.64373 29.3993 6.52383L28.8673 6.16667L28.5125 6.70242C27.8155 7.76036 27.5216 9.17063 27.6252 10.4527C27.7075 11.2425 27.982 12.1301 28.5125 12.7742C26.5206 13.9294 24.6851 13.6671 16.5549 13.6671H4.00283C3.96604 15.5028 4.26131 19.0333 6.50685 21.9076C6.75468 22.2251 7.02672 22.5324 7.32199 22.8281C9.14785 24.656 11.9065 25.9966 16.0316 26C22.3243 26.0058 27.7162 22.6045 30.9962 14.3815C32.0756 14.3994 34.9243 14.5746 36.3184 11.8813C36.3523 11.8358 36.6732 11.167 36.6732 11.167L36.1417 10.8098V10.8093ZM12.1945 8.9151H8.66476V12.4442H12.1945V8.9151ZM16.7548 8.9151H13.2251V12.4442H16.7548V8.9151ZM21.3151 8.9151H17.7853V12.4442H21.3151V8.9151ZM25.8754 8.9151H22.3456V12.4442H25.8754V8.9151ZM7.63518 8.9151H4.10448V12.4442H7.63421V8.9151H7.63518ZM12.1955 4.45731H8.66573V7.98637H12.1955V4.45731ZM16.7558 4.45731H13.226V7.98637H16.7558V4.45731ZM21.316 4.45731H17.7863V7.98637H21.316V4.45731ZM21.3146 0H17.7849V3.52906H21.3146V0Z" fill="#006EFF"/>
<path d="M53.2596 4.19519C53.0277 3.9687 52.7494 3.85352 52.4159 3.85352C52.0824 3.85352 51.7958 3.9687 51.5726 4.19519C51.349 4.42169 51.2396 4.71207 51.2396 5.0581V10.8366C50.0924 9.88855 48.7685 9.41039 47.2626 9.41039C45.5123 9.41039 44.0156 10.0424 42.7754 11.3109C41.5353 12.575 40.9196 14.1044 40.9196 15.8979C40.9196 17.6915 41.5396 19.2165 42.7754 20.4849C44.0156 21.749 45.5084 22.3855 47.2626 22.3855C49.0168 22.3855 50.4932 21.7534 51.7498 20.4849C52.99 19.2334 53.6057 17.7046 53.6057 15.8979V5.05762C53.6057 4.71158 53.4919 4.42121 53.2596 4.19471V4.19519ZM50.9274 17.4611V17.4698C50.7207 17.9611 50.438 18.3923 50.0798 18.7596C49.7216 19.1313 49.2995 19.4217 48.8189 19.6394C48.3338 19.8572 47.8193 19.9642 47.267 19.9642C46.7147 19.9642 46.1875 19.8572 45.7025 19.6394C45.2175 19.4217 44.7997 19.1313 44.4459 18.764C44.0916 18.3966 43.8094 17.9654 43.6027 17.4742C43.396 16.9786 43.2905 16.4535 43.2905 15.8979C43.2905 15.3423 43.396 14.8172 43.6027 14.3217C43.8094 13.8261 44.0921 13.3992 44.4459 13.0319C44.8002 12.6646 45.2218 12.3742 45.7025 12.1564C46.1875 11.9386 46.7064 11.8317 47.267 11.8317C47.8275 11.8317 48.3338 11.9386 48.8189 12.1564C49.3039 12.3742 49.7216 12.6646 50.0798 13.0362C50.438 13.4079 50.7207 13.8391 50.9274 14.326C51.1341 14.8172 51.2396 15.3385 51.2396 15.8936C51.2396 16.4487 51.1341 16.9743 50.9274 17.4611Z" fill="#006EFF"/>
<path d="M105.664 13.4077C105.356 12.6387 104.887 11.9428 104.272 11.3189L104.264 11.3146C103.011 10.0505 101.513 9.41406 99.7767 9.41406C98.0399 9.41406 96.5291 10.0461 95.289 11.3146C94.0488 12.5787 93.4336 14.108 93.4336 15.9016C93.4336 17.6952 94.0537 19.2201 95.289 20.4886C96.5291 21.7527 98.0224 22.3891 99.7767 22.3891C101.37 22.3891 102.749 21.864 103.922 20.8133C104.149 20.5743 104.264 20.2839 104.264 19.9461C104.264 19.6083 104.154 19.3097 103.93 19.0832C103.707 18.8567 103.425 18.7415 103.087 18.7415C102.792 18.7502 102.53 18.8485 102.307 19.0449C101.953 19.3523 101.569 19.5875 101.152 19.7414C100.734 19.8953 100.279 19.9722 99.7815 19.9722C99.3425 19.9722 98.9209 19.904 98.5205 19.7631C98.1193 19.6223 97.7446 19.4297 97.4111 19.178C97.0732 18.9259 96.7828 18.6273 96.534 18.2725C96.2852 17.9221 96.0954 17.5335 95.9691 17.1067H104.94C105.272 17.1067 105.55 16.9915 105.783 16.765C106.015 16.5385 106.129 16.2481 106.129 15.9021C106.129 15.0053 105.972 14.1724 105.665 13.4077H105.664ZM95.9599 14.6975C96.0823 14.2745 96.2677 13.8859 96.5165 13.5316C96.7658 13.1812 97.0606 12.8783 97.398 12.6261C97.7398 12.374 98.1105 12.1819 98.5196 12.041C98.9281 11.9002 99.3454 11.8319 99.7767 11.8319C100.208 11.8319 100.624 11.9002 101.028 12.041C101.434 12.1819 101.805 12.374 102.138 12.6261C102.476 12.8783 102.771 13.1769 103.019 13.5316C103.272 13.882 103.463 14.2706 103.593 14.6975H95.9594H95.9599Z" fill="#006EFF"/>
<path d="M116.687 10.2252C116.476 10.0161 116.21 9.85354 115.89 9.734C115.569 9.61446 115.22 9.53315 114.836 9.48621C114.456 9.43926 114.097 9.41797 113.765 9.41797C113.009 9.41797 112.301 9.54186 111.635 9.78965C110.969 10.0374 110.353 10.3917 109.787 10.8529V10.6226C109.787 10.2896 109.674 10.0074 109.441 9.77271C109.21 9.53799 108.936 9.41845 108.611 9.41845C108.287 9.41845 107.999 9.53799 107.768 9.77271C107.536 10.0074 107.422 10.2939 107.422 10.6226V21.1851C107.422 21.518 107.536 21.8002 107.768 22.0349C107.999 22.2696 108.278 22.3892 108.611 22.3892C108.945 22.3892 109.214 22.2696 109.441 22.0349C109.674 21.8002 109.787 21.5137 109.787 21.1851V15.9016C109.787 15.3378 109.893 14.8084 110.1 14.3128C110.306 13.8172 110.589 13.3903 110.947 13.023C111.306 12.6557 111.728 12.3653 112.208 12.1558C112.693 11.9423 113.208 11.8354 113.761 11.8354C114.314 11.8354 114.836 11.9336 115.313 12.1257C115.502 12.2114 115.667 12.254 115.811 12.254C115.975 12.254 116.131 12.224 116.274 12.1601C116.418 12.0962 116.544 12.0106 116.65 11.8997C116.755 11.7889 116.839 11.6607 116.903 11.5111C116.966 11.3659 117 11.2077 117 11.0368C117 10.7039 116.894 10.4348 116.684 10.2252H116.688H116.687Z" fill="#006EFF"/>
<path d="M67.1678 13.4116C66.8599 12.6469 66.4 11.9466 65.7805 11.3146C64.5282 10.0505 63.031 9.41406 61.2933 9.41406C59.5555 9.41406 58.0462 10.0461 56.8061 11.3146C55.5659 12.5787 54.9507 14.108 54.9507 15.9016C54.9507 17.6952 55.5708 19.2201 56.8061 20.4886C58.0462 21.7527 59.539 22.3891 61.2933 22.3891C63.0475 22.3891 64.5238 21.7571 65.7805 20.4886C67.0206 19.2371 67.6363 17.7082 67.6363 15.9016C67.6276 15.0048 67.4717 14.1763 67.1682 13.4116H67.1678ZM64.958 17.4604V17.4692C64.7514 17.9604 64.4687 18.3916 64.1105 18.7589C63.7523 19.1306 63.3302 19.421 62.8495 19.6388C62.3688 19.8566 61.8499 19.9635 61.2976 19.9635C60.7453 19.9635 60.2182 19.8566 59.7332 19.6388C59.2481 19.421 58.8304 19.1306 58.4765 18.7633C58.1222 18.396 57.84 17.9647 57.6333 17.4735C57.4266 16.9779 57.3211 16.4528 57.3211 15.8972C57.3211 15.3417 57.4266 14.8166 57.6333 14.321C57.84 13.8254 58.1227 13.3985 58.4765 13.0312C58.8309 12.6639 59.2525 12.3735 59.7332 12.1557C60.2182 11.9379 60.7371 11.831 61.2976 11.831C61.8582 11.831 62.3645 11.9379 62.8495 12.1557C63.3345 12.3735 63.7523 12.6639 64.1105 13.0356C64.4687 13.4072 64.7514 13.8385 64.958 14.3253C65.1647 14.8166 65.2703 15.3378 65.2703 15.8929C65.2703 16.448 65.1647 16.9736 64.958 17.4604Z" fill="#006EFF"/>
<path d="M92.5386 10.6193C92.5386 10.4572 92.5047 10.3033 92.4418 10.1581C92.3784 10.0129 92.2942 9.88077 92.1886 9.76946C92.0831 9.65863 91.9568 9.56861 91.8135 9.50908C91.6702 9.44956 91.5143 9.41519 91.3498 9.41519C91.1135 9.41519 90.9025 9.47521 90.7171 9.5991L83.9442 14.1053V5.06678C83.9442 4.7251 83.8304 4.43908 83.5986 4.20387C83.3667 3.96915 83.0927 3.84961 82.7679 3.84961C82.4431 3.84961 82.1566 3.96915 81.9242 4.20387C81.6924 4.43859 81.5786 4.7251 81.5786 5.06678V21.1687C81.5786 21.5017 81.6924 21.7882 81.9242 22.0273C82.1561 22.2664 82.4344 22.3859 82.7679 22.3859C83.1015 22.3859 83.3711 22.2664 83.5986 22.0273C83.8304 21.7882 83.9442 21.5017 83.9442 21.1687V16.9873L85.3276 16.0605L90.5612 22.0699C90.7723 22.279 91.038 22.3816 91.3541 22.3816C91.5187 22.3816 91.6746 22.3516 91.8178 22.2877C91.9611 22.2277 92.0879 22.1381 92.193 22.0273C92.2985 21.9165 92.3827 21.7882 92.4461 21.6387C92.5096 21.4935 92.543 21.3352 92.543 21.1775C92.543 20.8614 92.4336 20.5793 92.2138 20.332L87.3428 14.7243L92.087 11.5722C92.3905 11.3631 92.5381 11.0428 92.5381 10.6111V10.6198L92.5386 10.6193Z" fill="#006EFF"/>
<path d="M72.4862 13.022C72.8488 12.6547 73.2709 12.3643 73.7559 12.1548C74.2409 11.9413 74.7555 11.8344 75.3078 11.8344C75.8054 11.8344 76.2653 11.92 76.6912 12.0904C77.1128 12.2612 77.518 12.5134 77.9014 12.842C78.1289 13.0254 78.3864 13.1193 78.6729 13.1193C79.0147 13.1193 79.293 13.0041 79.5167 12.7733C79.7403 12.5424 79.8497 12.252 79.8497 11.906C79.8497 11.56 79.7146 11.2396 79.4407 10.9923C78.2765 9.9416 76.8979 9.41602 75.3078 9.41602C73.5574 9.41602 72.0607 10.0481 70.8206 11.3165C69.5804 12.5807 68.9652 14.11 68.9652 15.9036C68.9652 17.6971 69.5853 19.2221 70.8206 20.4906C72.0607 21.7547 73.5536 22.3911 75.3078 22.3911C76.8936 22.3911 78.2726 21.866 79.4407 20.8148C79.6895 20.5588 79.8163 20.2641 79.8163 19.9224C79.8163 19.5807 79.7064 19.286 79.4833 19.0595C79.2596 18.833 78.9774 18.7178 78.64 18.7178C78.3535 18.7265 78.1042 18.8117 77.8936 18.9738C77.5141 19.3068 77.1177 19.5546 76.6917 19.7211C76.2701 19.8875 75.8102 19.9689 75.3083 19.9689C74.756 19.9689 74.2414 19.8619 73.7564 19.6485C73.2714 19.435 72.8498 19.1447 72.4867 18.7817C72.1242 18.4187 71.8371 17.9831 71.6304 17.4919C71.4237 16.9963 71.3182 16.4669 71.3182 15.9031C71.3182 15.3393 71.4237 14.8098 71.6304 14.3142C71.8371 13.8186 72.1237 13.3918 72.4867 13.0245V13.0201L72.4862 13.022Z" fill="#006EFF"/>
</g>
<defs>
<filter id="filter0_d_1802_6148" x="0" y="0" width="121" height="34" filterUnits="userSpaceOnUse" color-interpolation-filters="sRGB">
<feFlood flood-opacity="0" result="BackgroundImageFix"/>
<feColorMatrix in="SourceAlpha" type="matrix" values="0 0 0 0 0 0 0 0 0 0 0 0 0 0 0 0 0 0 127 0" result="hardAlpha"/>
<feOffset dy="4"/>
<feGaussianBlur stdDeviation="2"/>
<feComposite in2="hardAlpha" operator="out"/>
<feColorMatrix type="matrix" values="0 0 0 0 0 0 0 0 0 0 0 0 0 0 0 0 0 0 0.05 0"/>
<feBlend mode="normal" in2="BackgroundImageFix" result="effect1_dropShadow_1802_6148"/>
<feBlend mode="normal" in="SourceGraphic" in2="effect1_dropShadow_1802_6148" result="shape"/>
</filter>
</defs>
</svg>
