<svg width="86" height="30" viewBox="0 0 86 30" fill="none" xmlns="http://www.w3.org/2000/svg">
<path d="M42.9962 20V9.08691H50.3351V10.5151H44.6222V13.7305H49.9103V15.144H44.6222V18.5718H50.3351V20H42.9962ZM51.1589 20L54.008 16.0596L51.3347 12.2656H53.0998L54.0227 13.6426C54.1692 13.8721 54.3132 14.0967 54.4548 14.3164C54.6013 14.5361 54.7429 14.7583 54.8796 14.9829C55.0261 14.7583 55.1701 14.5361 55.3117 14.3164C55.4533 14.0967 55.6023 13.8721 55.7585 13.6426L56.696 12.2656H58.4319L55.7512 16.0376L58.5637 20H56.7986L55.7219 18.4326C55.5754 18.208 55.4314 17.9883 55.2898 17.7734C55.1482 17.5586 55.009 17.3438 54.8723 17.1289C54.7307 17.3438 54.5866 17.5586 54.4402 17.7734C54.2986 17.9883 54.1545 18.208 54.008 18.4326L52.9094 20H51.1589ZM62.7567 20.1758C62.0194 20.1758 61.3724 20.0049 60.8157 19.6631C60.264 19.3213 59.8343 18.8477 59.5267 18.2422C59.2191 17.6318 59.0653 16.9336 59.0653 16.1475C59.0653 15.3516 59.2191 14.6484 59.5267 14.0381C59.8392 13.4277 60.2713 12.9517 60.8231 12.6099C61.3748 12.2632 62.0194 12.0898 62.7567 12.0898C63.3719 12.0898 63.9212 12.2119 64.4046 12.4561C64.8929 12.6953 65.2884 13.0273 65.5911 13.4521C65.8939 13.877 66.077 14.3628 66.1405 14.9097H64.6024C64.5242 14.4751 64.3289 14.1187 64.0164 13.8403C63.7039 13.562 63.2864 13.4229 62.764 13.4229C62.095 13.4229 61.5726 13.6694 61.1966 14.1626C60.8206 14.6558 60.6326 15.3174 60.6326 16.1475C60.6326 16.9678 60.8206 17.6221 61.1966 18.1104C61.5726 18.5986 62.095 18.8428 62.764 18.8428C63.2962 18.8428 63.7064 18.7085 63.9945 18.4399C64.2825 18.1665 64.4779 17.8027 64.5804 17.3486H66.1405C66.0819 17.8857 65.9012 18.3691 65.5985 18.7988C65.2957 19.2236 64.9002 19.5605 64.4119 19.8096C63.9237 20.0537 63.3719 20.1758 62.7567 20.1758ZM70.912 20.1758C70.1454 20.1758 69.4863 20.0024 68.9345 19.6558C68.3876 19.3091 67.9653 18.833 67.6674 18.2275C67.3744 17.6172 67.228 16.9238 67.228 16.1475C67.228 15.3613 67.3818 14.6631 67.6894 14.0527C67.997 13.4424 68.4218 12.9639 68.9638 12.6172C69.5058 12.2656 70.1283 12.0898 70.8315 12.0898C71.5639 12.0898 72.1987 12.2607 72.7358 12.6025C73.2778 12.9443 73.6977 13.4204 73.9955 14.0308C74.2934 14.6362 74.4423 15.3369 74.4423 16.1328V16.5503H68.7514C68.7807 17.2485 68.9809 17.8125 69.352 18.2422C69.728 18.6719 70.2553 18.8867 70.934 18.8867C71.4418 18.8867 71.8593 18.772 72.1865 18.5425C72.5136 18.313 72.7309 18.0151 72.8383 17.6489H74.3251C74.2323 18.147 74.0248 18.5864 73.7026 18.9673C73.3852 19.3481 72.9848 19.646 72.5014 19.8608C72.0229 20.0708 71.4931 20.1758 70.912 20.1758ZM68.766 15.3784H72.9335C72.87 14.7632 72.6528 14.2773 72.2817 13.9209C71.9106 13.5596 71.4321 13.3789 70.8461 13.3789C70.2602 13.3789 69.7817 13.5596 69.4106 13.9209C69.0444 14.2773 68.8295 14.7632 68.766 15.3784ZM77.4781 9.08691V20H75.9326V9.08691H77.4781Z" fill="white"/>
<path d="M20.0929 14.25L7.44165 12V28.625C7.44165 29.3842 8.05237 29.9997 8.80575 29.9997H30.6358C31.3892 29.9997 31.9999 29.3842 31.9999 28.625V22.4998L20.0929 14.25Z" fill="#185C37"/>
<path d="M20.0929 0H8.80575C8.05237 0 7.44165 0.615484 7.44165 1.37473V7.49988L20.0929 14.9998L26.7906 17.2497L31.9999 14.9998V7.49988L20.0929 0Z" fill="#21A366"/>
<path d="M7.44165 7.5H20.0929V14.9999H7.44165V7.5Z" fill="#107C41"/>
<path opacity="0.1" d="M16.4962 6H7.44165V24.7497H16.4962C17.2486 24.7472 17.8579 24.1332 17.8603 23.375V7.37473C17.8579 6.61651 17.2486 6.00246 16.4962 6Z" fill="black"/>
<path opacity="0.2" d="M15.752 6.75H7.44165V25.4997H15.752C16.5044 25.4972 17.1137 24.8832 17.1161 24.125V8.12473C17.1137 7.36651 16.5044 6.75246 15.752 6.75Z" fill="black"/>
<path opacity="0.2" d="M15.752 6.75H7.44165V23.9997H15.752C16.5044 23.9973 17.1137 23.3832 17.1161 22.625V8.12473C17.1137 7.36651 16.5044 6.75246 15.752 6.75Z" fill="black"/>
<path opacity="0.2" d="M15.0078 6.75H7.44165V23.9997H15.0078C15.7602 23.9973 16.3695 23.3832 16.3719 22.625V8.12473C16.3695 7.36651 15.7602 6.75246 15.0078 6.75Z" fill="black"/>
<path d="M1.36422 6.75H15.0082C15.7615 6.75 16.3723 7.36548 16.3723 8.12473V21.875C16.3723 22.6343 15.7615 23.2497 15.0082 23.2497H1.36422C0.610846 23.2497 0.00012207 22.6343 0.00012207 21.875V8.12473C0.00012207 7.36548 0.610846 6.75 1.36422 6.75Z" fill="url(#paint0_linear_1802_6284)"/>
<path d="M4.2251 19.4669L7.09469 14.9857L4.46547 10.5293H6.58045L8.01525 13.3793C8.14772 13.65 8.23851 13.851 8.28763 13.9837H8.30623C8.40049 13.7677 8.49972 13.558 8.60391 13.3545L10.1377 10.5308H12.0793L9.38306 14.961L12.1477 19.4669H10.0819L8.42456 16.3387C8.34649 16.2056 8.28025 16.0658 8.22661 15.921H8.20206C8.15351 16.0629 8.0891 16.1987 8.01005 16.326L6.30363 19.4669H4.2251Z" fill="white"/>
<path d="M30.6361 0H20.0931V7.49989H32.0002V1.37473C32.0002 0.615484 31.3894 0 30.6361 0Z" fill="#33C481"/>
<path d="M20.0931 15H32.0002V22.4999H20.0931V15Z" fill="#107C41"/>
<defs>
<linearGradient id="paint0_linear_1802_6284" x1="2.8443" y1="5.67581" x2="13.653" y2="24.2513" gradientUnits="userSpaceOnUse">
<stop stop-color="#18884F"/>
<stop offset="0.5" stop-color="#117E43"/>
<stop offset="1" stop-color="#0B6631"/>
</linearGradient>
</defs>
</svg>
