<svg width="93" height="26" viewBox="0 0 93 26" fill="none" xmlns="http://www.w3.org/2000/svg">
<path d="M13.3005 0C5.94339 0 0 5.95311 0 13.3223C0 19.2176 3.80839 24.217 9.08819 25.9799C9.75177 26.0955 10.0114 25.6909 10.0114 25.3441C10.0114 25.0262 9.98259 23.9859 9.98259 22.8588C6.63582 23.4657 5.77028 22.0496 5.51062 21.2983C5.36636 20.9226 4.70278 19.7378 4.1546 19.4199C3.69298 19.1598 3.0294 18.5529 4.12575 18.524C5.1644 18.4951 5.91454 19.4777 6.1742 19.8822C7.38596 21.9052 9.29015 21.3272 10.0403 20.9804C10.1557 20.1134 10.5019 19.5355 10.877 19.1887C7.90529 18.8419 4.81818 17.7149 4.81818 12.5998C4.81818 11.1549 5.33751 9.94112 6.1742 9.01637C6.02994 8.66959 5.56832 7.31135 6.31846 5.49074C6.31846 5.49074 7.44366 5.14395 9.98259 6.84897C11.0501 6.55999 12.1753 6.38659 13.3005 6.38659C14.4257 6.38659 15.5509 6.53109 16.6184 6.84897C19.1573 5.11506 20.2825 5.49074 20.2825 5.49074C21.0038 7.31135 20.5422 8.69848 20.4268 9.01637C21.2635 9.94112 21.7828 11.126 21.7828 12.5998C21.7828 17.7149 18.6669 18.8419 15.6952 19.1887C16.1856 19.5933 16.5896 20.4024 16.5896 21.6451C16.5896 23.4368 16.5607 24.8528 16.5607 25.3152C16.5607 25.662 16.8204 26.0955 17.484 25.951C22.7349 24.1881 26.5433 19.1887 26.5433 13.2934C26.6298 5.95312 20.6576 0 13.3005 0Z" fill="white"/>
<path d="M59.6375 18.4223H59.6146C59.6375 18.4223 59.6375 18.4223 59.6375 18.4223ZM59.6375 18.4223C59.5231 18.4223 59.2256 18.4889 58.9053 18.4889C57.8984 18.4889 57.5552 18.0445 57.5552 17.4667V13.5779H59.5917C59.7061 13.5779 59.7977 13.489 59.7977 13.3335V11.2224C59.7977 11.1113 59.7061 11.0224 59.5917 11.0224H57.5552V8.42245C57.5552 8.33357 57.4866 8.2669 57.3721 8.2669H54.6263C54.5118 8.2669 54.4432 8.33357 54.4432 8.42245V11.1113C54.4432 11.1113 53.0474 11.4446 52.9558 11.4668C52.8643 11.4891 52.7957 11.578 52.7957 11.6668V13.3557C52.7957 13.489 52.8872 13.6001 53.0016 13.6001H54.4203V17.6667C54.4203 20.6889 56.5941 21 58.0815 21C58.768 21 59.5688 20.8 59.7061 20.7333C59.7748 20.7111 59.8206 20.6222 59.8206 20.5333V18.6667C59.8434 18.5334 59.7519 18.4445 59.6375 18.4223ZM89.888 15.7112C89.888 13.4668 88.9498 13.1779 87.9659 13.2668C87.2108 13.3113 86.5929 13.689 86.5929 13.689V18.0445C86.5929 18.0445 87.2108 18.4667 88.1489 18.4889C89.4761 18.5334 89.888 18.0667 89.888 15.7112ZM93 15.5112C93 19.7556 91.5813 20.9778 89.11 20.9778C87.0277 20.9778 85.8836 19.9556 85.8836 19.9556C85.8836 19.9556 85.8378 20.5333 85.7692 20.6C85.7234 20.6667 85.6776 20.6889 85.5861 20.6889H83.6869C83.5496 20.6889 83.4352 20.6 83.4352 20.4889L83.4581 6.71137C83.4581 6.60026 83.5496 6.51138 83.664 6.51138H86.387C86.5014 6.51138 86.5929 6.60026 86.5929 6.71137L86.5701 11.3557C86.5701 11.3557 87.6226 10.6891 89.1558 10.6891H89.1786C90.7347 10.6891 93 11.2446 93 15.5112ZM81.8563 11.0224H79.179C79.0418 11.0224 78.9731 11.1113 78.9731 11.2668V18.0001C78.9731 18.0001 78.2637 18.4889 77.3027 18.4889C76.3416 18.4889 76.067 18.0667 76.067 17.1334V11.2446C76.067 11.1335 75.9755 11.0446 75.8611 11.0446H73.1381C73.0237 11.0446 72.9322 11.1335 72.9322 11.2446V17.5778C72.9322 20.3111 74.511 20.9778 76.662 20.9778C78.4468 20.9778 79.8884 20.0222 79.8884 20.0222C79.8884 20.0222 79.957 20.5111 79.9799 20.5778C80.0028 20.6445 80.0943 20.6889 80.1859 20.6889H81.902C82.0393 20.6889 82.108 20.6 82.108 20.4889L82.1309 11.2224C82.108 11.1335 81.9936 11.0224 81.8563 11.0224ZM51.6058 11.0224H48.8828C48.7684 11.0224 48.6768 11.1335 48.6768 11.2668V20.3556C48.6768 20.6 48.837 20.6889 49.0658 20.6889H51.5143C51.766 20.6889 51.8346 20.5778 51.8346 20.3556V11.2224C51.8346 11.1113 51.7202 11.0224 51.6058 11.0224ZM50.2786 6.82248C49.2947 6.82248 48.5167 7.57802 48.5167 8.53356C48.5167 9.4891 49.2947 10.2446 50.2786 10.2446C51.2397 10.2446 52.0177 9.4891 52.0177 8.53356C52.0177 7.57802 51.2397 6.82248 50.2786 6.82248ZM71.3304 6.51138H68.6303C68.5159 6.51138 68.4243 6.60026 68.4243 6.71137V11.7779H64.1911V6.7336C64.1911 6.62249 64.0996 6.5336 63.9851 6.5336H61.2621C61.1477 6.5336 61.0562 6.62249 61.0562 6.7336V20.5111C61.0562 20.6222 61.1706 20.7111 61.2621 20.7111H63.9851C64.0996 20.7111 64.1911 20.6222 64.1911 20.5111V14.6001H68.4243L68.4014 20.4889C68.4014 20.6 68.493 20.6889 68.6074 20.6889H71.3304C71.4448 20.6889 71.5363 20.6 71.5363 20.4889V6.71137C71.5363 6.62249 71.4448 6.51138 71.3304 6.51138ZM47.2352 12.6224V19.7334C47.2352 19.7778 47.2124 19.8667 47.1666 19.8889C47.1666 19.8889 45.5648 21 42.9334 21C39.7527 21 36 20.0222 36 13.6668C36 7.28914 39.2951 5.97805 42.4986 6.00028C45.2902 6.00028 46.4115 6.60026 46.5717 6.71137C46.6174 6.77804 46.6403 6.82248 46.6403 6.88915L46.114 9.08911C46.114 9.20022 45.9996 9.33355 45.8623 9.2891C45.4047 9.15577 44.7182 8.88911 43.0935 8.88911C41.2172 8.88911 39.2035 9.40021 39.2035 13.5112C39.2035 17.6223 41.1257 18.0889 42.4986 18.0889C43.6656 18.0889 44.1004 17.9556 44.1004 17.9556V15.1112H42.224C42.0867 15.1112 41.9723 15.0223 41.9723 14.9112V12.6224C41.9723 12.5113 42.0638 12.4224 42.224 12.4224H47.0064C47.1437 12.4002 47.2352 12.5113 47.2352 12.6224Z" fill="white"/>
</svg>
