<svg width="158" height="34" viewBox="0 0 158 34" fill="none" xmlns="http://www.w3.org/2000/svg">
<g filter="url(#filter0_d_1802_6379)">
<path d="M101.307 20.1741C100.076 20.2027 98.8513 19.9801 97.7086 19.52C96.566 19.0599 95.5292 18.3719 94.6617 17.498C93.7941 16.6241 93.1139 15.5827 92.6627 14.4373C92.2115 13.292 91.9988 12.0668 92.0374 10.8365C92.0056 9.61422 92.2227 8.39821 92.6756 7.26231C93.1285 6.12641 93.8077 5.09432 94.672 4.22871C95.5333 3.34851 96.5672 2.65555 97.709 2.19327C98.8508 1.73099 100.076 1.50935 101.307 1.54226C102.541 1.51189 103.765 1.75785 104.891 2.26209C106.017 2.76633 107.015 3.51604 107.813 4.45619L106.219 6.04857C105.634 5.31022 104.887 4.71683 104.035 4.31471C103.183 3.91259 102.249 3.71263 101.307 3.73042C100.389 3.70802 99.4761 3.87325 98.6241 4.21599C97.772 4.55874 96.9991 5.07176 96.3526 5.72359C95.6921 6.3964 95.1764 7.19704 94.8371 8.07631C94.4977 8.95557 94.342 9.89489 94.3793 10.8365C94.339 11.7817 94.4933 12.7252 94.8327 13.6084C95.1721 14.4916 95.6894 15.2958 96.3526 15.9711C96.9975 16.625 97.7702 17.1394 98.6226 17.4823C99.475 17.8252 100.389 17.9893 101.307 17.9643C102.35 17.9592 103.377 17.7212 104.315 17.2676C105.253 16.8139 106.078 16.1563 106.728 15.3428L108.398 16.9677C107.553 17.9772 106.489 18.781 105.286 19.3184C104.039 19.8905 102.68 20.1826 101.307 20.1741ZM112.551 1.94306V19.7841H110.252V1.94306H112.551ZM114.524 13.6746C114.499 12.8195 114.643 11.9679 114.948 11.1685C115.253 10.3692 115.713 9.63795 116.302 9.01667C116.885 8.41356 117.586 7.93833 118.363 7.62127C119.14 7.30421 119.974 7.15227 120.812 7.17514C121.648 7.15129 122.479 7.30287 123.252 7.62008C124.025 7.93728 124.723 8.41307 125.301 9.01667C125.896 9.63427 126.36 10.3647 126.667 11.1647C126.975 11.9647 127.118 12.8182 127.09 13.6746C127.121 14.5314 126.979 15.3858 126.672 16.1862C126.364 16.9867 125.898 17.7168 125.301 18.3326C124.725 18.9384 124.027 19.4156 123.254 19.733C122.48 20.0504 121.648 20.2007 120.812 20.1741C119.973 20.1997 119.138 20.049 118.362 19.7317C117.585 19.4145 116.883 18.9379 116.302 18.3326C115.713 17.7113 115.253 16.98 114.948 16.1807C114.643 15.3814 114.499 14.5297 114.524 13.6746ZM116.822 13.6746C116.77 14.8462 117.183 15.991 117.972 16.8594C118.337 17.2463 118.777 17.5545 119.265 17.7652C119.754 17.9759 120.28 18.0846 120.812 18.0846C121.344 18.0846 121.871 17.9759 122.359 17.7652C122.848 17.5545 123.288 17.2463 123.653 16.8594C124.442 15.991 124.855 14.8462 124.802 13.6746C124.853 12.5099 124.44 11.3726 123.653 10.5115C123.291 10.1189 122.852 9.80551 122.363 9.59113C121.874 9.37675 121.346 9.26606 120.812 9.26606C120.278 9.26606 119.75 9.37675 119.261 9.59113C118.772 9.80551 118.333 10.1189 117.972 10.5115C117.185 11.3726 116.772 12.5099 116.822 13.6746ZM139.775 19.7841H137.607V18.0834H137.498C137.111 18.7192 136.556 19.2364 135.894 19.5783C135.206 19.9678 134.429 20.173 133.639 20.1741C133.005 20.2152 132.369 20.1226 131.773 19.9024C131.177 19.6822 130.635 19.3392 130.18 18.8959C129.321 17.8806 128.889 16.572 128.976 15.2453V7.58678H131.264V15.1045C131.216 15.5115 131.262 15.924 131.398 16.3108C131.533 16.6975 131.755 17.0483 132.047 17.3365C132.338 17.6247 132.692 17.8427 133.08 17.974C133.469 18.1053 133.882 18.1464 134.289 18.0943C134.728 18.1019 135.163 18.0081 135.56 17.8202C135.957 17.6323 136.305 17.3554 136.577 17.011C137.195 16.2669 137.523 15.324 137.498 14.3571V7.58678H139.797L139.775 19.7841ZM147.538 20.1741C146.758 20.1739 145.987 20.0055 145.277 19.6802C144.568 19.3549 143.938 18.8804 143.429 18.2893C142.29 17.0241 141.67 15.3762 141.694 13.6746C141.657 11.9819 142.261 10.3376 143.386 9.07083C143.89 8.47433 144.52 7.99551 145.23 7.66802C145.94 7.34052 146.713 7.17229 147.495 7.17514C148.35 7.16066 149.195 7.3579 149.956 7.74927C150.652 8.0924 151.244 8.61616 151.669 9.26581H151.766L151.712 7.58678V1.94306H154V19.7841H151.832V18.0834H151.734C151.309 18.7331 150.718 19.2569 150.021 19.6C149.254 19.9949 148.401 20.1922 147.538 20.1741ZM147.918 18.0834C148.441 18.1003 148.961 17.999 149.44 17.7871C149.919 17.5752 150.343 17.2581 150.682 16.8594C151.441 15.9769 151.829 14.8361 151.766 13.6746C151.819 12.5212 151.431 11.3908 150.682 10.5115C150.344 10.1101 149.92 9.78977 149.442 9.57414C148.963 9.35851 148.442 9.25313 147.918 9.26581C147.393 9.25773 146.874 9.36517 146.396 9.58048C145.918 9.7958 145.494 10.1137 145.153 10.5115C144.404 11.3908 144.016 12.5212 144.069 13.6746C144.008 14.8292 144.397 15.9624 145.153 16.8377C145.494 17.2356 145.918 17.5535 146.396 17.7688C146.874 17.9841 147.393 18.0915 147.918 18.0834Z" fill="#CFCFCF"/>
<path d="M14.2891 20.1714C11.5912 20.1803 8.99847 19.1268 7.07257 17.2391C5.14668 15.3514 4.04276 12.7816 4 10.0864C4.04276 7.39118 5.14668 4.82136 7.07257 2.93367C8.99847 1.04598 11.5912 -0.00754868 14.2891 0.00133815C15.5747 -0.0200512 16.8516 0.215172 18.045 0.693219C19.2384 1.17127 20.3242 1.88252 21.2389 2.78528L19.2765 4.7243C17.9385 3.43705 16.1465 2.72868 14.2891 2.75279C13.3275 2.74985 12.3748 2.93801 11.4865 3.30632C10.5983 3.67464 9.79225 4.21575 9.11526 4.89819C8.43828 5.58062 7.90388 6.39075 7.54316 7.28144C7.18244 8.17213 7.0026 9.1256 7.0141 10.0864C7.0026 11.0471 7.18244 12.0006 7.54316 12.8913C7.90388 13.782 8.43828 14.5921 9.11526 15.2746C9.79225 15.957 10.5983 16.4981 11.4865 16.8664C12.3748 17.2347 13.3275 17.4229 14.2891 17.42C15.2365 17.4588 16.1815 17.2986 17.063 16.9497C17.9445 16.6007 18.7429 16.0709 19.4066 15.3943C20.2913 14.4409 20.8231 13.214 20.9137 11.9171H14.2891V9.17644H23.6133C23.715 9.74478 23.7622 10.3215 23.7543 10.8988C23.8277 13.276 22.9633 15.5869 21.3473 17.3333C20.4379 18.2772 19.3388 19.0181 18.1223 19.5072C16.9058 19.9964 15.5995 20.2227 14.2891 20.1714Z" fill="#549EFF"/>
<path d="M38.1742 13.6711C38.2098 14.5376 38.0697 15.4023 37.7624 16.2133C37.4551 17.0244 36.9868 17.765 36.3858 18.3906C35.7847 19.0163 35.0633 19.5141 34.2649 19.8542C33.4664 20.1942 32.6074 20.3695 31.7394 20.3695C30.8714 20.3695 30.0124 20.1942 29.2139 19.8542C28.4155 19.5141 27.6941 19.0163 27.093 18.3906C26.492 17.765 26.0237 17.0244 25.7164 16.2133C25.4091 15.4023 25.269 14.5376 25.3046 13.6711C25.269 12.8046 25.4091 11.9399 25.7164 11.1289C26.0237 10.3178 26.492 9.57724 27.093 8.95157C27.6941 8.32591 28.4155 7.82809 29.2139 7.48802C30.0124 7.14796 30.8714 6.97266 31.7394 6.97266C32.6074 6.97266 33.4664 7.14796 34.2649 7.48802C35.0633 7.82809 35.7847 8.32591 36.3858 8.95157C36.9868 9.57724 37.4551 10.3178 37.7624 11.1289C38.0697 11.9399 38.2098 12.8046 38.1742 13.6711ZM35.3552 13.6711C35.4031 13.1679 35.3451 12.6602 35.1852 12.1807C35.0252 11.7012 34.7667 11.2603 34.4263 10.8864C34.0859 10.5124 33.6711 10.2137 33.2084 10.0092C32.7457 9.8048 32.2453 9.6992 31.7394 9.6992C31.2335 9.6992 30.7331 9.8048 30.2704 10.0092C29.8077 10.2137 29.3929 10.5124 29.0525 10.8864C28.7121 11.2603 28.4536 11.7012 28.2936 12.1807C28.1337 12.6602 28.0757 13.1679 28.1236 13.6711C28.0757 14.1743 28.1337 14.682 28.2936 15.1615C28.4536 15.641 28.7121 16.0819 29.0525 16.4558C29.3929 16.8298 29.8077 17.1285 30.2704 17.333C30.7331 17.5374 31.2335 17.643 31.7394 17.643C32.2453 17.643 32.7457 17.5374 33.2084 17.333C33.6711 17.1285 34.0859 16.8298 34.4263 16.4558C34.7667 16.0819 35.0252 15.641 35.1852 15.1615C35.3451 14.682 35.4031 14.1743 35.3552 13.6711Z" fill="#FF7468"/>
<path d="M52.6051 13.6711C52.6407 14.5376 52.5006 15.4023 52.1933 16.2133C51.886 17.0244 51.4177 17.765 50.8167 18.3906C50.2156 19.0163 49.4942 19.5141 48.6958 19.8542C47.8973 20.1942 47.0383 20.3695 46.1703 20.3695C45.3023 20.3695 44.4433 20.1942 43.6448 19.8542C42.8464 19.5141 42.125 19.0163 41.5239 18.3906C40.9229 17.765 40.4546 17.0244 40.1473 16.2133C39.84 15.4023 39.6999 14.5376 39.7355 13.6711C39.6999 12.8046 39.84 11.9399 40.1473 11.1289C40.4546 10.3178 40.9229 9.57724 41.5239 8.95157C42.125 8.32591 42.8464 7.82809 43.6448 7.48802C44.4433 7.14796 45.3023 6.97266 46.1703 6.97266C47.0383 6.97266 47.8973 7.14796 48.6958 7.48802C49.4942 7.82809 50.2156 8.32591 50.8167 8.95157C51.4177 9.57724 51.886 10.3178 52.1933 11.1289C52.5006 11.9399 52.6407 12.8046 52.6051 13.6711ZM49.7861 13.6711C49.8248 13.1724 49.7599 12.6712 49.5954 12.1988C49.4309 11.7264 49.1705 11.293 48.8305 10.926C48.4904 10.5589 48.0781 10.266 47.6194 10.0657C47.1607 9.86543 46.6655 9.76204 46.1649 9.76204C45.6643 9.76204 45.1691 9.86543 44.7104 10.0657C44.2517 10.266 43.8393 10.5589 43.4993 10.926C43.1593 11.293 42.8988 11.7264 42.7344 12.1988C42.5699 12.6712 42.505 13.1724 42.5436 13.6711C42.505 14.1698 42.5699 14.671 42.7344 15.1434C42.8988 15.6158 43.1593 16.0492 43.4993 16.4162C43.8393 16.7833 44.2517 17.0762 44.7104 17.2765C45.1691 17.4768 45.6643 17.5802 46.1649 17.5802C46.6655 17.5802 47.1607 17.4768 47.6194 17.2765C48.0781 17.0762 48.4904 16.7833 48.8305 16.4162C49.1705 16.0492 49.4309 15.6158 49.5954 15.1434C49.7599 14.671 49.8248 14.1698 49.7861 13.6711Z" fill="#FBBC04"/>
<path d="M66.6672 7.58429V19.24C66.6672 24.028 63.8157 25.9995 60.4547 25.9995C59.2177 26.0063 58.0068 25.6453 56.9758 24.9624C55.9448 24.2796 55.1404 23.3057 54.665 22.1648L57.1695 21.0816C57.4219 21.7457 57.8655 22.3203 58.4444 22.7329C59.0233 23.1455 59.7115 23.3775 60.4222 23.3997C62.5906 23.3997 63.9133 22.0673 63.9133 19.5867V18.6551H63.8483C63.4146 19.144 62.8796 19.5329 62.2805 19.7948C61.6815 20.0567 61.0326 20.1852 60.3788 20.1716C58.6535 20.1716 56.9989 19.4869 55.7789 18.268C54.5589 17.0491 53.8735 15.3959 53.8735 13.6721C53.8735 11.9484 54.5589 10.2952 55.7789 9.07631C56.9989 7.85742 58.6535 7.17266 60.3788 7.17266C61.0303 7.16062 61.6768 7.28776 62.2752 7.54557C62.8735 7.80338 63.4098 8.1859 63.8483 8.66754H63.9458V7.58429H66.6672ZM64.141 13.7155C64.1808 13.2244 64.1213 12.7302 63.966 12.2626C63.8107 11.7949 63.5628 11.3633 63.2371 10.9933C62.9113 10.6234 62.5144 10.3227 62.0699 10.1093C61.6254 9.8958 61.1425 9.77389 60.6498 9.75079C60.1495 9.76879 59.6577 9.88611 59.2032 10.0959C58.7486 10.3057 58.3405 10.6038 58.0024 10.9728C57.6643 11.3418 57.4032 11.7744 57.2341 12.2453C57.0651 12.7161 56.9915 13.2159 57.0177 13.7155C56.9945 14.2116 57.0705 14.7075 57.2412 15.174C57.412 15.6405 57.6742 16.0683 58.0123 16.4324C58.3505 16.7965 58.7579 17.0895 59.2108 17.2945C59.6637 17.4994 60.1529 17.6121 60.6498 17.626C61.1405 17.6086 61.6226 17.492 62.0668 17.2832C62.5111 17.0744 62.9084 16.7778 63.2347 16.4112C63.561 16.0447 63.8096 15.6159 63.9654 15.1507C64.1211 14.6855 64.1809 14.1936 64.141 13.7046V13.7155Z" fill="#549EFF"/>
<path d="M71.6873 0.693359V19.7802H68.825V0.693359H71.6873Z" fill="#51EF7B"/>
<path d="M82.9629 15.8161L85.1963 17.3327C84.6 18.2218 83.7932 18.95 82.8475 19.4527C81.9018 19.9553 80.8465 20.2169 79.7753 20.2141C78.9232 20.2263 78.0774 20.0656 77.2893 19.7417C76.5011 19.4179 75.7869 18.9376 75.1899 18.33C74.5929 17.7224 74.1255 17.0001 73.816 16.2068C73.5065 15.4134 73.3614 14.5656 73.3893 13.7146C73.2624 12.2516 73.6787 10.7931 74.559 9.61713C75.4393 8.44114 76.7219 7.6299 78.1623 7.33805C79.6028 7.0462 81.1004 7.29414 82.3696 8.03462C83.6389 8.77509 84.591 9.95632 85.0446 11.3531L85.3373 12.1006L76.6636 15.6861C76.9339 16.2931 77.3799 16.8053 77.9441 17.1566C78.5084 17.508 79.1651 17.6825 79.8295 17.6576C80.4656 17.6432 81.0875 17.4664 81.636 17.1441C82.1844 16.8218 82.6412 16.3646 82.9629 15.8161ZM76.1215 13.4763L81.9546 11.0715C81.7211 10.6401 81.3674 10.2856 80.9363 10.051C80.5052 9.81646 80.0153 9.71187 79.5259 9.74993C79.0573 9.77079 78.5975 9.88378 78.1726 10.0824C77.7478 10.2811 77.3664 10.5615 77.0501 10.9076C76.7339 11.2538 76.4891 11.6588 76.3298 12.0996C76.1704 12.5403 76.0997 13.0082 76.1215 13.4763Z" fill="#FF7468"/>
</g>
<defs>
<filter id="filter0_d_1802_6379" x="0" y="0" width="158" height="34" filterUnits="userSpaceOnUse" color-interpolation-filters="sRGB">
<feFlood flood-opacity="0" result="BackgroundImageFix"/>
<feColorMatrix in="SourceAlpha" type="matrix" values="0 0 0 0 0 0 0 0 0 0 0 0 0 0 0 0 0 0 127 0" result="hardAlpha"/>
<feOffset dy="4"/>
<feGaussianBlur stdDeviation="2"/>
<feComposite in2="hardAlpha" operator="out"/>
<feColorMatrix type="matrix" values="0 0 0 0 0 0 0 0 0 0 0 0 0 0 0 0 0 0 0.05 0"/>
<feBlend mode="normal" in2="BackgroundImageFix" result="effect1_dropShadow_1802_6379"/>
<feBlend mode="normal" in="SourceGraphic" in2="effect1_dropShadow_1802_6379" result="shape"/>
</filter>
</defs>
</svg>
