<svg width="119" height="34" viewBox="0 0 119 34" fill="none" xmlns="http://www.w3.org/2000/svg">
<g filter="url(#filter0_d_1802_6156)">
<path fill-rule="evenodd" clip-rule="evenodd" d="M96.4071 26C98.5747 26 100.742 26 102.91 26C103.178 24.7918 103.447 23.5838 103.715 22.3757C105.571 22.3757 107.487 22.3875 109.343 22.3875C110.249 22.3875 111.052 22.1091 111.765 21.6327C112.625 21.0577 113.267 20.1767 113.508 19.0897C113.916 17.2509 114.327 15.4125 114.737 13.5743C114.971 12.5248 115.276 11.3397 114.515 10.3918C113.815 9.51962 112.887 9.45182 111.867 9.45182C104.525 9.45979 97.1825 9.45165 89.8403 9.45165C89.0991 9.45165 88.4783 9.68872 87.8304 10.0191C87.2227 9.59411 86.6743 9.45165 85.9291 9.45165C82.5699 9.45165 79.2105 9.45165 75.8513 9.45165C76.1265 8.22691 76.4016 7.00219 76.6767 5.77754C74.5058 5.77754 72.3347 5.77754 70.1637 5.77754C69.8953 6.97235 69.6268 8.16716 69.3584 9.36198C67.4491 9.36198 65.5398 9.36198 63.6304 9.36198C62.8392 9.36198 62.0793 9.60751 61.4159 10.0291C60.7727 9.63337 60.2767 9.46154 59.5148 9.46154C53.2126 9.46154 46.9106 9.46154 40.6084 9.46154C40.897 8.22034 41.1857 6.979 41.4741 5.73766C39.3065 5.7344 37.1389 5.73107 34.9712 5.72775C33.7215 11.2564 32.4718 16.785 31.2222 22.3135C33.3878 22.3141 35.5534 22.3147 37.7189 22.3153C38.3704 19.4859 39.0218 16.6565 39.6732 13.827C40.4059 13.827 41.1386 13.827 41.8715 13.827C42.1332 13.827 42.0817 13.9744 42.0378 14.1692C41.4217 16.8845 40.8055 19.6 40.1894 22.3153C54.5462 22.3153 68.9031 22.3154 83.2603 22.3154C83.9911 22.3154 84.563 22.1659 85.2208 21.8341C85.8691 22.2625 86.442 22.4049 87.234 22.3981L97.2098 22.3153C96.9422 23.5436 96.6747 24.7718 96.4071 26ZM68.2765 13.8388C67.6375 13.8388 66.9985 13.8388 66.3593 13.8388C66.023 13.8388 65.9323 13.9905 65.8655 14.2888C65.6254 15.3536 65.3855 16.4187 65.1454 17.4834C65.077 17.7895 65.2336 17.8395 65.5043 17.8395C66.1263 17.8395 66.7483 17.8395 67.3703 17.8395C67.6724 16.506 67.9744 15.1724 68.2765 13.8388ZM79.2742 13.9161C79.9568 13.9161 80.6394 13.9161 81.3221 13.9161C81.7162 13.9161 81.6946 14.1205 81.6237 14.4362C81.3891 15.4792 81.1546 16.5225 80.9201 17.5656C80.8383 17.9298 80.6089 17.9236 80.2925 17.9236C79.5978 17.9236 78.9032 17.9236 78.2085 17.9236C77.9024 17.9236 77.8997 17.7446 77.9541 17.4998C78.1878 16.4569 78.4216 15.4139 78.6548 14.3711C78.7412 13.9846 78.895 13.9161 79.2742 13.9161ZM92.7547 13.9161C93.4373 13.9161 94.1199 13.9161 94.8026 13.9161C95.1967 13.9161 95.1751 14.1205 95.1041 14.4362C94.8696 15.4792 94.635 16.5225 94.4006 17.5656C94.3188 17.9298 94.0894 17.9236 93.7729 17.9236C93.0783 17.9236 92.3837 17.9236 91.689 17.9236C91.3829 17.9236 91.3802 17.7446 91.4346 17.4998C91.6682 16.4569 91.9021 15.4139 92.1353 14.3711C92.2217 13.9846 92.3755 13.9161 92.7547 13.9161ZM104.776 17.9536C105.415 17.9536 106.054 17.9536 106.694 17.9536C107.03 17.9536 107.121 17.8019 107.187 17.5037C107.427 16.4388 107.667 15.3738 107.907 14.3091C107.976 14.003 107.819 13.953 107.549 13.953C106.927 13.953 106.305 13.953 105.683 13.953C105.38 15.2865 105.078 16.62 104.776 17.9536Z" fill="black"/>
<path fill-rule="evenodd" clip-rule="evenodd" d="M77.7748 10.3847H85.9428C87.2175 10.3847 88.0293 11.4164 87.7469 12.6769L86.2917 19.1746C86.0093 20.4352 84.7354 21.4668 83.4608 21.4668H75.2928C74.0183 21.4668 73.2063 20.4354 73.4887 19.1746L74.9439 12.6769C75.2264 11.4161 76.5001 10.3847 77.7748 10.3847ZM79.2553 12.9933H83.2938C83.9686 12.9933 84.3981 13.5393 84.2487 14.2062L83.4785 17.6454C83.3291 18.3123 82.6548 18.8582 81.9803 18.8582H77.9418C77.2672 18.8582 76.8375 18.3124 76.9869 17.6454L77.7572 14.2062C77.9066 13.539 78.5806 12.9933 79.2553 12.9933Z" fill="#1F1917"/>
<path fill-rule="evenodd" clip-rule="evenodd" d="M91.239 10.3847H99.4071C100.682 10.3847 101.494 11.4164 101.211 12.6769L99.7561 19.1746C99.4737 20.4352 98.1997 21.4668 96.9251 21.4668H88.7571C87.4825 21.4668 86.6705 20.4354 86.9529 19.1746L88.4082 12.6769C88.6906 11.4161 89.9644 10.3847 91.239 10.3847ZM92.7196 12.9933H96.7582C97.433 12.9933 97.8624 13.5393 97.713 14.2062L96.9428 17.6454C96.7933 18.3123 96.1192 18.8582 95.4447 18.8582H91.406C90.7315 18.8582 90.3018 18.3124 90.4512 17.6454L91.2214 14.2062C91.3708 13.539 92.0448 12.9933 92.7196 12.9933Z" fill="#1F1917"/>
<path fill-rule="evenodd" clip-rule="evenodd" d="M102.393 10.3847H112.197C113.471 10.3847 114.283 11.4166 114.001 12.6769L112.546 19.1746C112.263 20.4348 110.989 21.4675 109.715 21.4668L99.9115 21.4622L102.393 10.3847ZM104.956 12.9933H109.548C110.222 12.9933 110.652 13.5394 110.503 14.2062L109.732 17.6454C109.583 18.312 108.909 18.8582 108.234 18.8582H103.638" fill="#1F1917"/>
<path fill-rule="evenodd" clip-rule="evenodd" d="M72.3033 21.3789H62.5001C61.2254 21.3789 60.4136 20.3469 60.696 19.0866L62.1512 12.589C62.4334 11.3286 63.708 10.2961 64.9821 10.2968L74.7854 10.3013L72.3033 21.3789ZM69.7406 18.7702H65.149C64.4743 18.7702 64.0449 18.224 64.1942 17.5574L64.9645 14.1181C65.1138 13.4515 65.7882 12.9053 66.4626 12.9053H71.0583" fill="#1F1917"/>
<path fill-rule="evenodd" clip-rule="evenodd" d="M38.7315 10.3834H46.2245C47.4992 10.3834 48.311 11.4149 48.0287 12.6757L46.9648 17.4258H43.8091L44.5305 14.2049C44.6798 13.5377 44.2499 12.9921 43.5756 12.9921H38.9331C38.2588 12.9921 38.8633 13.5381 38.714 14.2049L38.0022 17.3828H34.8464L35.9008 12.6757C36.1831 11.4148 37.4568 10.3834 38.7315 10.3834Z" fill="#1F1917"/>
<path fill-rule="evenodd" clip-rule="evenodd" d="M33.9562 21.3789L36.1102 11.7892H39.2573L37.0999 21.3789" fill="#1F1917"/>
<path fill-rule="evenodd" clip-rule="evenodd" d="M59.5144 21.3789H49.0362C47.7616 21.3789 46.9496 20.3471 47.232 19.0866L47.6542 17.2012H47.6561L47.7373 16.8387C48.0194 15.5782 49.2939 14.5459 50.5681 14.5464L57.8998 14.5497L58.0079 14.0683C58.123 13.44 57.7226 12.9307 57.0929 12.9053H48.6057L49.19 10.2978L59.7225 10.3008C60.9709 10.3251 61.7602 11.3466 61.4813 12.5923L61.2831 13.4772H61.2848L61.0442 14.551H61.0466L59.8106 20.0671H59.8083L59.5144 21.3789ZM51.3696 18.7702H56.9516L57.3146 17.1549H51.828C51.8017 17.1523 51.7745 17.1508 51.7467 17.1508C51.2973 17.1508 50.8486 17.5144 50.7495 17.9589C50.6515 18.3982 50.9301 18.7584 51.3704 18.7669C51.3701 18.768 51.37 18.7692 51.3696 18.7702Z" fill="#1F1917"/>
<path fill-rule="evenodd" clip-rule="evenodd" d="M77.7748 10.3847H85.9428C87.2175 10.3847 88.0293 11.4164 87.7469 12.6769L86.2917 19.1746C86.0093 20.4352 84.7354 21.4668 83.4608 21.4668H75.2928C74.0183 21.4668 73.2063 20.4354 73.4887 19.1746L74.9439 12.6769C75.2264 11.4161 76.5001 10.3847 77.7748 10.3847ZM79.2553 12.9933H83.2938C83.9686 12.9933 84.3981 13.5393 84.2487 14.2062L83.4785 17.6454C83.3291 18.3123 82.6548 18.8582 81.9803 18.8582H77.9418C77.2672 18.8582 76.8375 18.3124 76.9869 17.6454L77.7572 14.2062C77.9066 13.539 78.5806 12.9933 79.2553 12.9933Z" fill="#66CCFF"/>
<path fill-rule="evenodd" clip-rule="evenodd" d="M91.239 10.3847H99.4071C100.682 10.3847 101.494 11.4164 101.211 12.6769L99.7561 19.1746C99.4737 20.4352 98.1997 21.4668 96.9251 21.4668H88.7571C87.4825 21.4668 86.6705 20.4354 86.9529 19.1746L88.4082 12.6769C88.6906 11.4161 89.9644 10.3847 91.239 10.3847ZM92.7196 12.9933H96.7582C97.433 12.9933 97.8624 13.5393 97.713 14.2062L96.9428 17.6454C96.7933 18.3123 96.1192 18.8582 95.4447 18.8582H91.406C90.7315 18.8582 90.3018 18.3124 90.4512 17.6454L91.2214 14.2062C91.3708 13.539 92.0448 12.9933 92.7196 12.9933Z" fill="#66CCFF"/>
<path fill-rule="evenodd" clip-rule="evenodd" d="M102.395 10.3809L100.348 19.5032L99.9116 21.4588L99.082 25.1727H102.223L103.058 21.4588L109.716 21.4641C110.99 21.4648 112.262 20.4331 112.544 19.1728L113.999 12.6774C114.281 11.4171 113.469 10.3809 112.194 10.3809L102.395 10.3809ZM104.954 12.9918H109.549C110.224 12.9918 110.652 13.5399 110.503 14.2067L109.732 17.6436C109.583 18.3101 108.909 18.8585 108.235 18.8585H103.64L104.954 12.9918Z" fill="#66CCFF"/>
<path fill-rule="evenodd" clip-rule="evenodd" d="M72.4756 6.58789L71.6406 10.3018L64.9821 10.2965C63.708 10.2958 62.4362 11.3273 62.1539 12.5878L60.694 19.0885C60.4117 20.3488 61.224 21.3797 62.4987 21.3797H72.3032L74.7867 10.3018L75.6163 6.5879L72.4756 6.58789ZM66.4636 12.9075H71.0588L69.739 18.7688H65.1491C64.4745 18.7688 64.0463 18.2258 64.1956 17.5592L64.966 14.117C65.1153 13.4504 65.7893 12.9075 66.4636 12.9075Z" fill="#66CCFF"/>
<path fill-rule="evenodd" clip-rule="evenodd" d="M37.2649 6.58789L35.9935 12.2574H36.0096L35.9558 12.4812C35.9356 12.546 35.9167 12.6121 35.9019 12.6783L34.846 17.3834H34.8568L33.9572 21.3797H37.0978L37.9975 17.3834H38.0029L38.714 14.2076C38.7152 14.2025 38.7129 14.1967 38.714 14.1916L38.9887 12.9927H43.5731C44.2475 12.9927 44.6813 13.5404 44.5321 14.2076L43.8102 17.426L42.9267 21.3797H46.0728L46.9616 17.426H46.967L48.0283 12.6783C48.3105 11.4176 47.4983 10.3818 46.2236 10.3818H39.5597L40.4109 6.5879L37.2649 6.58789Z" fill="#66CCFF"/>
<path fill-rule="evenodd" clip-rule="evenodd" d="M59.5144 21.3789H49.0362C47.7616 21.3789 46.9496 20.3471 47.232 19.0866L47.6542 17.2012H47.6561L47.7373 16.8387C48.0194 15.5782 49.2939 14.5459 50.5681 14.5464L57.8998 14.5497L58.0079 14.0683C58.123 13.44 57.7226 12.9307 57.0929 12.9053H48.6057L49.19 10.2978L59.7225 10.3008C60.9709 10.3251 61.7602 11.3466 61.4813 12.5923L61.2831 13.4772H61.2848L61.0442 14.551H61.0466L59.8106 20.0671H59.8083L59.5144 21.3789ZM51.3696 18.7702H56.9516L57.3146 17.1549H51.828C51.8017 17.1523 51.7745 17.1508 51.7467 17.1508C51.2973 17.1508 50.8486 17.5144 50.7495 17.9589C50.6515 18.3982 50.9301 18.7584 51.3704 18.7669C51.3701 18.768 51.37 18.7692 51.3696 18.7702Z" fill="#66CCFF"/>
<path fill-rule="evenodd" clip-rule="evenodd" d="M7.48871 14.576C7.35983 14.923 7.23077 15.2701 7.10189 15.6173C6.78272 15.9297 6.46356 16.2427 6.1443 16.5553C5.79532 16.8972 5.72027 16.8949 5.80224 17.3786C5.8985 17.9469 6.17477 18.5326 6.68336 19.037C7.21806 19.5671 8.34076 20.3174 9.14863 19.9637C9.07356 20.2323 8.97387 20.5138 8.847 20.7891C8.30527 21.9639 9.6255 22.1941 10.5494 22.4412C11.3173 22.6466 13.2017 23.1938 13.4737 22.1956C13.596 21.7465 13.615 21.5051 13.5714 21.0763C13.8104 20.5488 13.8867 20.4647 14.0844 20.1744C14.3558 19.7762 14.3363 19.6247 14.277 19.1306C14.2655 19.0354 14.2515 18.9315 14.2353 18.8224C15.1497 18.9585 16.0289 18.9568 16.925 18.8469C16.6529 19.0037 16.38 19.141 16.0202 19.324C15.1661 19.7582 15.971 21.0393 16.3391 21.6003C17.1116 22.7778 17.8042 23.5879 19.1092 22.8895C19.5476 22.6548 19.5814 22.4047 19.855 22.0007C20.0061 21.9187 20.785 21.2635 21.2482 20.8934C21.4237 21.1017 21.7597 21.1401 22.2693 21.1765C22.5258 21.1949 23.5314 21.1887 23.7979 21.1903C24.5976 21.1953 25.0775 21.1132 25.1401 20.2512C25.1697 19.8424 25.152 19.7554 24.9487 19.3981C24.9364 18.9472 24.9242 18.4962 24.9121 18.0453C24.8981 17.5374 24.8001 17.2258 24.5986 16.7513C24.4153 16.3204 24.3127 15.9525 24.0988 15.5346C24.1281 15.3708 24.1514 15.2017 24.1672 15.0251C24.4391 15.2841 24.7109 15.5433 24.9828 15.8023C25.5011 16.2961 25.9293 16.6994 26.7195 16.6625C27.5425 16.6241 28.4846 15.9829 28.7259 15.1985C28.8064 14.9366 28.8866 14.6748 28.967 14.4131C30.2081 14.6451 31.6585 14.592 32.7391 14.0217C34.3284 13.1828 35.072 11.496 35.2548 9.71179C35.4026 8.26842 35.118 5.84121 34.4223 4.52423C34.2177 4.13695 33.2939 3.64693 32.8889 4.05285C32.5838 4.35875 32.3742 4.82475 32.0448 5.10315C31.7897 5.31879 31.4736 5.42555 31.1967 5.53841C30.9823 4.96589 30.6741 4.5209 30.2968 4.07625C29.9968 3.72287 29.7141 3.54675 29.3184 3.30169C28.5366 2.81739 27.9298 2.20602 27.2184 1.6259C25.0656 -0.129829 23.2169 -0.0759899 20.5346 1.04069C19.2549 1.57351 18.6377 2.29659 17.8528 3.33511C17.3785 3.35958 17.0526 3.45044 16.5512 3.88809C16.1811 4.21115 15.8366 4.54352 15.5031 4.88789C12.9958 5.28313 11.4386 5.75572 9.79121 7.20029C9.12083 7.78815 8.63352 8.43959 8.2534 9.17189C7.90052 9.55761 7.54967 9.95298 7.08375 10.1304C6.75574 10.2552 6.76184 10.2549 6.64627 9.94972C7.03628 9.65983 7.03012 9.11413 7.06621 8.62022C7.31225 8.63182 7.40448 8.90479 7.57178 9.11366C7.67049 8.6769 7.72773 7.99861 7.26301 7.76055C7.33858 7.56075 7.42409 7.35938 7.50239 7.13904C6.81694 7.25673 4.46693 8.82347 5.72081 10.0184C5.80334 10.3502 5.86833 10.5788 5.97737 10.8031C6.26426 11.3933 6.90936 11.4944 7.47149 11.2776C7.31744 11.9762 7.28622 12.7363 7.37894 13.8033C7.40118 14.0591 7.4385 14.3172 7.48871 14.576Z" fill="black"/>
<path d="M7.63743 14.6293C7.58569 14.7688 7.53372 14.9085 7.48192 15.048L7.18407 14.9399C7.23587 14.8004 7.28787 14.6608 7.33959 14.5213L7.63743 14.6293ZM7.48192 15.048C7.40484 15.2554 7.32763 15.4631 7.25059 15.6706L6.95277 15.5625C7.02979 15.3551 7.10699 15.1474 7.18407 14.9399L7.48192 15.048ZM7.25059 15.6706L7.21333 15.7276L7.10169 15.6166L7.25059 15.6706ZM7.21333 15.7276C7.04427 15.8931 6.875 16.059 6.70587 16.2247L6.48256 16.0026C6.6517 15.8369 6.82094 15.6711 6.99003 15.5055L7.21333 15.7276ZM6.70587 16.2247C6.55591 16.3716 6.40576 16.5187 6.25574 16.6656L6.03244 16.4435C6.18246 16.2966 6.33258 16.1495 6.48256 16.0026L6.70587 16.2247ZM6.25574 16.6656C6.18715 16.7327 6.16388 16.7549 6.14324 16.7746L5.9236 16.5475C5.96941 16.5039 6.01998 16.4557 6.03244 16.4435L6.25574 16.6656ZM6.14324 16.7746C5.94008 16.968 5.89989 17.0064 5.9584 17.352L5.64566 17.4036C5.55943 16.8944 5.61959 16.837 5.9236 16.5475L6.14324 16.7746ZM5.9584 17.352C6.00557 17.6303 6.09913 17.9143 6.24598 18.1907L5.96428 18.3368C5.80221 18.0318 5.6985 17.7157 5.64566 17.4036L5.9584 17.352ZM6.24598 18.1907C6.38232 18.4474 6.5638 18.696 6.79542 18.9258L6.57087 19.1467C6.31384 18.8917 6.11361 18.6179 5.96428 18.3368L6.24598 18.1907ZM6.79542 18.9258C7.09178 19.2197 7.57556 19.5838 8.07907 19.773L7.9674 20.0664C7.41716 19.8596 6.89168 19.4647 6.57087 19.1467L6.79542 18.9258ZM8.07907 19.773C8.42931 19.9047 8.78626 19.95 9.08454 19.8194L9.21232 20.1066C8.82755 20.2751 8.38874 20.2248 7.9674 20.0664L8.07907 19.773ZM9.08454 19.8194L9.39098 19.6852L9.30168 20.0048L9.14843 19.963L9.08454 19.8194ZM9.30168 20.0048C9.26186 20.1473 9.21525 20.2935 9.16168 20.44L8.86263 20.3332C8.91344 20.1941 8.9576 20.0558 8.99518 19.9213L9.30168 20.0048ZM9.16168 20.44C9.11165 20.5768 9.05504 20.7153 8.99138 20.8534L8.70223 20.7233C8.76129 20.5951 8.81473 20.4641 8.86263 20.3332L9.16168 20.44ZM8.99138 20.8534C8.72304 21.4354 9.00427 21.7418 9.44015 21.9384L9.30858 22.2245C8.71218 21.9554 8.32901 21.5328 8.70223 20.7233L8.99138 20.8534ZM9.44015 21.9384C9.71869 22.064 10.0557 22.1509 10.369 22.2316L10.2896 22.5348C9.96046 22.45 9.60636 22.3587 9.30858 22.2245L9.44015 21.9384ZM10.369 22.2316C10.4517 22.2528 10.5319 22.2735 10.5895 22.2889L10.5089 22.5921C10.4241 22.5694 10.3568 22.552 10.2896 22.5348L10.369 22.2316ZM10.5895 22.2889C10.9673 22.3899 11.6203 22.5752 12.2073 22.612L12.1874 22.9262C11.5723 22.8876 10.8989 22.6964 10.5089 22.5921L10.5895 22.2889ZM12.2073 22.612C12.7378 22.6452 13.2108 22.5568 13.3202 22.155L13.6267 22.2348C13.4643 22.831 12.8588 22.9683 12.1874 22.9262L12.2073 22.612ZM13.3202 22.155C13.3781 21.9422 13.4117 21.7778 13.4257 21.6148L13.7433 21.6405C13.7282 21.8176 13.691 21.9986 13.6267 22.2348L13.3202 22.155ZM13.4257 21.6148C13.4398 21.451 13.434 21.292 13.4136 21.0903L13.7288 21.0608C13.7518 21.2879 13.7584 21.4642 13.7433 21.6405L13.4257 21.6148ZM13.4136 21.0903L13.426 21.0118L13.5712 21.0756L13.4136 21.0903ZM13.426 21.0118C13.6397 20.54 13.7278 20.4125 13.8833 20.1873L14.1451 20.364C14.0013 20.5723 13.9199 20.6902 13.7164 21.1394L13.426 21.0118ZM13.8833 20.1873C13.8992 20.1642 13.9127 20.1446 13.9527 20.0859L14.2157 20.2614C14.2057 20.2762 14.1726 20.3242 14.1451 20.364L13.8833 20.1873ZM13.9527 20.0859C14.074 19.908 14.1297 19.7892 14.1476 19.6663L14.4615 19.7093C14.436 19.8852 14.3657 20.0413 14.2157 20.2614L13.9527 20.0859ZM14.1476 19.6663C14.1662 19.5372 14.1475 19.3832 14.1192 19.1477L14.4344 19.1121C14.4654 19.3706 14.4861 19.5396 14.4615 19.7093L14.1476 19.6663ZM14.1192 19.1477C14.1114 19.0834 14.105 19.0325 14.1005 18.9993L14.4145 18.96C14.424 19.0306 14.4306 19.0805 14.4344 19.1121L14.1192 19.1477ZM14.1005 18.9993C14.097 18.9726 14.0891 18.919 14.0781 18.8444L14.3921 18.799C14.397 18.8324 14.4044 18.8845 14.4145 18.96L14.1005 18.9993ZM14.0781 18.8444L14.0472 18.6349L14.2587 18.6664L14.2351 18.8217L14.0781 18.8444ZM14.2587 18.6664C14.708 18.7332 15.1488 18.7663 15.5874 18.7691L15.5862 19.0833C15.1328 19.0804 14.6766 19.0462 14.2115 18.977L14.2587 18.6664ZM15.5874 18.7691C16.0273 18.7719 16.4649 18.7444 16.9061 18.6903L16.9434 19.0021C16.4887 19.0578 16.0383 19.0861 15.5862 19.0833L15.5874 18.7691ZM16.9061 18.6903L17.0042 18.9824L16.9248 18.8462L16.9061 18.6903ZM17.0042 18.9824C16.7478 19.1301 16.4919 19.2603 16.1654 19.4262L16.0203 19.1463C16.3425 18.9826 16.595 18.8541 16.8453 18.7099L17.0042 18.9824ZM16.1654 19.4262C16.1416 19.4383 16.1172 19.4507 16.0926 19.4632L15.9474 19.1833C15.9721 19.1709 15.9965 19.1584 16.0203 19.1463L16.1654 19.4262ZM16.0926 19.4632C15.757 19.6338 15.754 19.992 15.8725 20.3672L15.5698 20.4605C15.4074 19.9465 15.429 19.447 15.9474 19.1833L16.0926 19.4632ZM15.8725 20.3672C16.0069 20.7931 16.2924 21.2412 16.4716 21.5143L16.206 21.6849C16.0172 21.3972 15.7161 20.924 15.5698 20.4605L15.8725 20.3672ZM16.4716 21.5143C16.8467 22.0862 17.2005 22.5676 17.6068 22.8139L17.4417 23.0814C16.9824 22.803 16.6033 22.2905 16.206 21.6849L16.4716 21.5143ZM17.6068 22.8139C17.9906 23.0466 18.4395 23.0682 19.0339 22.75L19.1841 23.0275C18.4737 23.4077 17.9235 23.3735 17.4417 23.0814L17.6068 22.8139ZM19.0339 22.75C19.3148 22.5996 19.4091 22.4363 19.5361 22.2163L19.8128 22.3709C19.6594 22.6368 19.5455 22.8339 19.1841 23.0275L19.0339 22.75ZM19.5361 22.2163C19.5867 22.1287 19.6421 22.0328 19.7233 21.9128L19.9863 22.0871C19.9213 22.1831 19.8646 22.2813 19.8128 22.3709L19.5361 22.2163ZM19.7233 21.9128L19.7785 21.8619L19.8548 22L19.7233 21.9128ZM19.7785 21.8619C19.8712 21.8116 20.2673 21.4879 20.6526 21.173L20.8549 21.4148C20.4565 21.7405 20.0467 22.0753 19.9311 22.138L19.7785 21.8619ZM20.6526 21.173C20.8509 21.011 21.0466 20.8511 21.1481 20.77L21.3478 21.0154C21.162 21.1639 21.0091 21.2888 20.8549 21.4148L20.6526 21.173ZM21.1481 20.77L21.2698 20.6728L21.3702 20.792L21.248 20.8927L21.1481 20.77ZM21.3702 20.792C21.4335 20.8672 21.5337 20.9137 21.6699 20.9459L21.5967 21.2515C21.3936 21.2035 21.2378 21.1263 21.1257 20.9933L21.3702 20.792ZM21.6699 20.9459C21.8262 20.9829 22.0315 21.001 22.2803 21.0187L22.258 21.3329C21.9972 21.3143 21.7795 21.2948 21.5967 21.2515L21.6699 20.9459ZM22.2803 21.0187C22.4754 21.0327 23.0987 21.0324 23.5012 21.0322V21.3464C23.09 21.3466 22.4532 21.3469 22.258 21.3329L22.2803 21.0187ZM23.5012 21.0322C23.6288 21.0322 23.7349 21.0322 23.7983 21.0325L23.797 21.3467C23.7337 21.3463 23.6282 21.3464 23.5012 21.3464V21.0322ZM23.7983 21.0325C24.1734 21.0348 24.4707 21.0183 24.667 20.9083L24.8234 21.182C24.5643 21.3272 24.2215 21.3493 23.797 21.3467L23.7983 21.0325ZM24.667 20.9083C24.8464 20.8078 24.9542 20.6097 24.9811 20.2394L25.2987 20.2615C25.2631 20.7531 25.0995 21.0273 24.8234 21.182L24.667 20.9083ZM24.9811 20.2394C24.9948 20.0491 24.9981 19.9357 24.9764 19.8384L25.2866 19.7708C25.3172 19.9085 25.3144 20.0431 25.2987 20.2615L24.9811 20.2394ZM24.9764 19.8384C24.9548 19.741 24.9039 19.64 24.8095 19.4741L25.0874 19.3207C25.1963 19.512 25.2561 19.6333 25.2866 19.7708L24.9764 19.8384ZM24.8095 19.4741L24.7896 19.4011L24.9484 19.3974L24.8095 19.4741ZM24.7896 19.4011C24.7835 19.1757 24.7773 18.9501 24.7713 18.7247L25.0889 18.7173C25.0949 18.9427 25.1012 19.1683 25.1073 19.3937L24.7896 19.4011ZM24.7713 18.7247C24.7653 18.4993 24.759 18.2737 24.753 18.0483L25.0707 18.0409C25.0767 18.2663 25.0829 18.4919 25.0889 18.7173L24.7713 18.7247ZM24.753 18.0483C24.7465 17.8063 24.72 17.612 24.6716 17.4232L24.9794 17.347C25.0338 17.5594 25.0634 17.7751 25.0707 18.0409L24.753 18.0483ZM24.6716 17.4232C24.6228 17.2329 24.5501 17.0426 24.452 16.8114L24.7448 16.6898C24.848 16.933 24.9252 17.1359 24.9794 17.347L24.6716 17.4232ZM24.452 16.8114C24.3825 16.6479 24.3229 16.489 24.2646 16.3333L24.5624 16.2253C24.618 16.3737 24.6747 16.5251 24.7448 16.6898L24.452 16.8114ZM24.5624 16.2247V16.2253L24.4135 16.2793L24.5624 16.2247ZM24.2646 16.334C24.1738 16.0918 24.0857 15.8569 23.9565 15.6045L24.2406 15.4634C24.3763 15.7283 24.468 15.9727 24.5624 16.2247L24.2646 16.334ZM23.9565 15.6045L23.9422 15.5069L24.0986 15.5339L23.9565 15.6045ZM23.9422 15.5069C23.9578 15.4193 23.9709 15.338 23.9809 15.2643L24.2949 15.3036C24.2819 15.3995 24.2685 15.4848 24.2549 15.5609L23.9422 15.5069ZM23.9809 15.2643C23.9899 15.1974 23.999 15.1137 24.0082 15.0115L24.3258 15.0372C24.3192 15.1115 24.3087 15.201 24.2949 15.3036L23.9809 15.2643ZM24.0082 15.0115L24.0378 14.683L24.2768 14.9108L24.167 15.0243L24.0082 15.0115ZM24.2768 14.9108C24.4324 15.059 24.588 15.2074 24.7435 15.3556L24.5239 15.5826C24.3683 15.4344 24.2127 15.286 24.0572 15.1379L24.2768 14.9108ZM24.7435 15.3556L25.0924 15.6881L24.8728 15.9151L24.5239 15.5826L24.7435 15.3556ZM25.0924 15.6881C25.3443 15.9281 25.5743 16.1461 25.8296 16.2951L25.6684 16.5664C25.3825 16.3996 25.1391 16.1689 24.8728 15.9151L25.0924 15.6881ZM25.8296 16.2951C26.0752 16.4384 26.3521 16.5215 26.7119 16.5047L26.7268 16.8189C26.2964 16.839 25.9639 16.7389 25.6684 16.5664L25.8296 16.2951ZM26.7119 16.5047C27.1001 16.4866 27.5195 16.3218 27.868 16.0675L28.0567 16.3202C27.6597 16.6099 27.1775 16.7978 26.7268 16.8189L26.7119 16.5047ZM27.868 16.0675C28.2007 15.8247 28.4659 15.5027 28.5737 15.1523L28.8777 15.2432C28.749 15.6616 28.4408 16.04 28.0567 16.3202L27.868 16.0675ZM28.5737 15.1523C28.6108 15.0314 28.648 14.9103 28.6851 14.7894L28.9892 14.8802C28.9521 15.0011 28.9149 15.1222 28.8777 15.2432L28.5737 15.1523ZM28.6851 14.7894C28.7282 14.6486 28.7716 14.5077 28.8148 14.3669L29.1188 14.4578C29.0756 14.5985 29.0323 14.7395 28.9892 14.8802L28.6851 14.7894ZM28.8148 14.3669L28.8562 14.2322L28.9959 14.2584L28.9668 14.4124L28.8148 14.3669ZM28.9959 14.2584C29.6391 14.3786 30.3394 14.4206 31.0125 14.3508L31.0435 14.6626C30.3398 14.7355 29.6085 14.6917 28.9377 14.5664L28.9959 14.2584ZM31.0125 14.3508C31.6038 14.2895 32.1742 14.141 32.6644 13.8823L32.8133 14.1597C32.2866 14.4377 31.6759 14.597 31.0435 14.6626L31.0125 14.3508ZM32.6644 13.8823C33.3825 13.5032 33.9218 12.9433 34.3101 12.278L34.5856 12.4339C34.1683 13.1487 33.5877 13.7509 32.8133 14.1597L32.6644 13.8823ZM34.3101 12.278V12.2774L34.4478 12.3559L34.3101 12.278ZM34.3101 12.2774C34.7538 11.5172 35.0023 10.6202 35.097 9.69628L35.4121 9.72576C35.3129 10.6944 35.0519 11.6356 34.5856 12.4345L34.3101 12.2774ZM35.097 9.69628C35.174 8.94331 35.1313 7.91638 34.972 6.9232L35.2847 6.87413C35.4482 7.8927 35.4917 8.94887 35.4121 9.72576L35.097 9.69628ZM34.972 6.9232C34.8314 6.04713 34.6002 5.19991 34.2812 4.59591L34.5629 4.45104C34.8977 5.08488 35.1391 5.96625 35.2847 6.87413L34.972 6.9232ZM34.2812 4.59591C34.2562 4.54855 34.2147 4.49689 34.1614 4.44482L34.3835 4.22017C34.46 4.29505 34.5221 4.37363 34.5629 4.45104L34.2812 4.59591ZM34.1614 4.44482C34.0252 4.31195 33.8229 4.18611 33.6134 4.11482L33.7164 3.81781C33.9709 3.90439 34.2171 4.05785 34.3835 4.22017L34.1614 4.44482ZM33.6134 4.11482C33.419 4.04866 33.2231 4.03041 33.0833 4.10273L32.9368 3.8241C33.1625 3.70742 33.4468 3.7261 33.7164 3.81781L33.6134 4.11482ZM33.0833 4.10273C33.0539 4.11784 33.0266 4.13754 33.0023 4.16194L32.7752 3.94226C32.8238 3.89351 32.8782 3.8543 32.9368 3.8241L33.0833 4.10273ZM33.0023 4.16194C32.8724 4.29215 32.7584 4.45678 32.6442 4.62183L32.3824 4.44506C32.5058 4.2667 32.629 4.08883 32.7752 3.94226L33.0023 4.16194ZM32.6442 4.62183C32.4939 4.83891 32.343 5.05696 32.1476 5.22207L31.9416 4.98272C32.1069 4.84309 32.245 4.64359 32.3824 4.44506L32.6442 4.62183ZM32.1476 5.22207C31.9084 5.42424 31.6311 5.53426 31.3736 5.63642L31.2557 5.34437C31.4899 5.25151 31.742 5.1514 31.9416 4.98272L32.1476 5.22207ZM31.3736 5.63642C31.3287 5.65419 31.2846 5.67171 31.2567 5.68307L31.1363 5.39222C31.1857 5.37217 31.2208 5.3582 31.2557 5.34437L31.3736 5.63642ZM31.2567 5.68307L31.105 5.74488L31.0476 5.59166L31.1965 5.53765L31.2567 5.68307ZM31.0476 5.59166C30.9449 5.31737 30.8189 5.07236 30.673 4.84205L30.9423 4.67518C31.0983 4.92157 31.2338 5.18552 31.3454 5.48364L31.0476 5.59166ZM30.673 4.84205C30.5256 4.60928 30.3585 4.39243 30.175 4.17614L30.4182 3.97483C30.6119 4.20308 30.7878 4.43129 30.9423 4.67518L30.673 4.84205ZM30.175 4.17614C30.0332 4.00914 29.8957 3.88407 29.7471 3.7722L29.9394 3.52304C30.1061 3.64857 30.26 3.7885 30.4182 3.97483L30.175 4.17614ZM29.7471 3.7722C29.5989 3.66047 29.4304 3.55577 29.2339 3.43409L29.4026 3.16778C29.6016 3.29101 29.7724 3.39718 29.9394 3.52304L29.7471 3.7722ZM29.2339 3.43409C28.6801 3.09111 28.2159 2.68836 27.7424 2.27745L27.9508 2.04064C28.4144 2.44289 28.8688 2.83711 29.4026 3.16778L29.2339 3.43409ZM27.7424 2.27745C27.543 2.10456 27.3419 1.93 27.117 1.74663L27.3194 1.50363C27.5275 1.67335 27.7402 1.85787 27.9508 2.04064L27.7424 2.27745ZM27.117 1.74663C26.0681 0.8912 25.0967 0.476729 24.0649 0.412446L24.0848 0.09828C25.186 0.166847 26.2156 0.603482 27.3194 1.50363L27.117 1.74663ZM24.0649 0.412446C23.0254 0.347737 21.9146 0.635689 20.5959 1.18476L20.4729 0.895121C21.8363 0.32749 22.9912 0.0302461 24.0848 0.09828L24.0649 0.412446ZM20.5959 1.18476C19.9743 1.44346 19.5144 1.74785 19.1153 2.11289L18.9006 1.8821C19.3262 1.49282 19.8149 1.16905 20.4729 0.895121L20.5959 1.18476ZM19.1153 2.11289C18.7132 2.4807 18.3674 2.91523 17.9798 3.42823L17.7254 3.24046C18.1225 2.71501 18.4781 2.26859 18.9006 1.8821L19.1153 2.11289ZM17.9798 3.42823L17.9349 3.48761L17.8606 3.49143L17.8526 3.33434L17.9798 3.42823ZM17.8606 3.49143C17.6398 3.50279 17.4548 3.5292 17.2709 3.60194L17.153 3.30988C17.3757 3.22179 17.591 3.19024 17.8445 3.17726L17.8606 3.49143ZM17.2709 3.60194C17.0842 3.67575 16.8917 3.79931 16.6559 4.00516L16.4462 3.76953C16.7116 3.53783 16.933 3.39688 17.153 3.30988L17.2709 3.60194ZM16.6559 4.00516C16.4743 4.16363 16.2974 4.32597 16.1236 4.49218L15.9028 4.26634C16.0771 4.09954 16.2577 3.93399 16.4462 3.76953L16.6559 4.00516ZM16.1236 4.49218L16.123 4.49282L16.0132 4.3793L16.1236 4.49218ZM16.123 4.49282C15.951 4.6574 15.7829 4.82512 15.6176 4.99581L15.3881 4.77853C15.5561 4.60501 15.7274 4.4341 15.9034 4.26578L16.123 4.49282ZM15.6176 4.99581L15.5277 5.04184L15.5029 4.88717L15.6176 4.99581ZM15.5277 5.04184C14.2862 5.23752 13.2801 5.4523 12.3815 5.79657L12.2674 5.50318C13.1861 5.15125 14.2124 4.93199 15.4781 4.7325L15.5277 5.04184ZM12.3815 5.79657C11.4907 6.13787 10.7045 6.60835 9.89588 7.3174L9.68613 7.08177C10.5248 6.34632 11.3412 5.85802 12.2674 5.50318L12.3815 5.79657ZM9.89588 7.3174C9.56824 7.60469 9.28567 7.90707 9.0392 8.22631L8.7873 8.03612C9.04696 7.69973 9.34347 7.38221 9.68613 7.08177L9.89588 7.3174ZM9.0392 8.22631C8.79262 8.54568 8.58074 8.88384 8.39466 9.24236L8.11173 9.10001C8.30567 8.72633 8.52771 8.37241 8.7873 8.03612L9.0392 8.22631ZM8.39466 9.24236L8.37109 9.27612L8.2532 9.17117L8.39466 9.24236ZM8.37109 9.27612C8.19047 9.47351 8.01022 9.67361 7.81689 9.84574L7.6047 9.61133C7.79135 9.44506 7.96314 9.25443 8.13531 9.06625L8.37109 9.27612ZM7.81689 9.84574C7.61422 10.0262 7.39451 10.1797 7.14059 10.2764L7.02649 9.983C7.23837 9.90228 7.42731 9.76926 7.6047 9.61133L7.81689 9.84574ZM7.14059 10.2764H7.13998L7.08355 10.1297L7.14059 10.2764ZM7.13998 10.2764C6.9362 10.3539 6.83658 10.3927 6.72371 10.3454L6.8466 10.0557C6.85173 10.0579 6.90293 10.0302 7.02709 9.983L7.13998 10.2764ZM6.72371 10.3454L6.72309 10.3448L6.78515 10.2005L6.72371 10.3454ZM6.72309 10.3448C6.60405 10.2948 6.57082 10.1981 6.49715 10.0036L6.79499 9.89435C6.83682 10.0049 6.83598 10.0516 6.8472 10.0563L6.72309 10.3448ZM6.49715 10.0036L6.45573 9.89418L6.55115 9.82319L6.64607 9.94898L6.49715 10.0036ZM6.55115 9.82319C6.843 9.60628 6.87067 9.17431 6.89724 8.75826L7.21486 8.77795C7.18383 9.26444 7.15141 9.76971 6.74099 10.0748L6.55115 9.82319ZM6.89724 8.75826C6.90067 8.70382 6.9042 8.64971 6.9072 8.60842L7.22482 8.63055C7.22066 8.68739 7.21773 8.73283 7.21486 8.77795L6.89724 8.75826ZM6.9072 8.60842L6.91849 8.45516L7.07346 8.4624L7.06601 8.61949L6.9072 8.60842ZM7.07346 8.4624C7.33545 8.47472 7.45481 8.65755 7.58356 8.85475L7.31675 9.02417C7.23447 8.89814 7.15813 8.78124 7.05855 8.77657L7.07346 8.4624ZM7.58356 8.85475C7.61948 8.9098 7.6565 8.96648 7.69565 9.01535L7.44752 9.2105C7.39818 9.14886 7.35689 9.08566 7.31675 9.02417L7.58356 8.85475ZM7.72668 9.14668L7.65404 9.46816L7.44752 9.2105L7.57158 9.11292L7.72668 9.14668ZM7.41649 9.07914C7.47013 8.8419 7.51124 8.5308 7.45315 8.27614L7.76211 8.20738C7.83309 8.51841 7.78758 8.87723 7.72668 9.14668L7.41649 9.07914ZM7.45315 8.27614C7.41626 8.11422 7.33722 7.97502 7.19026 7.89974L7.33539 7.61989C7.57837 7.7444 7.70578 7.96022 7.76211 8.20738L7.45315 8.27614ZM7.19026 7.89974L7.06467 7.83539L7.11389 7.70521L7.26281 7.75981L7.19026 7.89974ZM7.11389 7.70521C7.13736 7.64314 7.17151 7.55699 7.20661 7.46847L7.50189 7.58267C7.47442 7.65196 7.44686 7.72164 7.41173 7.81444L7.11389 7.70521ZM7.20661 7.46847C7.25341 7.35031 7.30149 7.22912 7.35206 7.08676L7.65234 7.18984C7.60713 7.31702 7.55376 7.45163 7.50189 7.58267L7.20661 7.46847ZM7.47552 6.98362L7.74194 6.9379L7.65234 7.18984L7.50219 7.1383L7.47552 6.98362ZM7.52889 7.29297C7.22135 7.34577 6.54406 7.72168 6.05241 8.22641L5.82286 8.00916C6.35922 7.45852 7.12104 7.04448 7.47552 6.98362L7.52889 7.29297ZM6.05241 8.22641C5.87423 8.40935 5.72317 8.60693 5.62778 8.80828L5.33996 8.67695C5.4524 8.43962 5.62368 8.21367 5.82286 8.00916L6.05241 8.22641ZM5.62778 8.80828C5.53676 9.0003 5.49521 9.19683 5.5287 9.38764L5.21594 9.44043C5.17056 9.18185 5.22297 8.92374 5.33996 8.67695L5.62778 8.80828ZM5.5287 9.38764C5.55906 9.56096 5.65318 9.73522 5.83044 9.90414L5.61078 10.1312C5.381 9.91217 5.25766 9.67855 5.21594 9.44043L5.5287 9.38764ZM5.83044 9.90414L5.87449 9.98021L5.72061 10.0177L5.83044 9.90414ZM5.87449 9.98021C5.9148 10.1425 5.95096 10.2797 5.99029 10.4037L5.68757 10.497C5.64659 10.3678 5.60884 10.2245 5.56675 10.0551L5.87449 9.98021ZM5.99029 10.4037C6.02791 10.5223 6.06896 10.6289 6.12046 10.7349L5.83387 10.8698C5.77638 10.7516 5.73026 10.6315 5.68757 10.497L5.99029 10.4037ZM6.12046 10.7349C6.23469 10.9699 6.41542 11.113 6.6237 11.1791L6.52695 11.4786C6.23902 11.3871 5.98999 11.191 5.83387 10.8698L6.12046 10.7349ZM6.6237 11.1791C6.86671 11.2563 7.14944 11.2327 7.41356 11.1308L7.52902 11.4229C7.19881 11.5502 6.84055 11.5781 6.52695 11.4786L6.6237 11.1791ZM7.41356 11.1308L7.68936 11.0244L7.62638 11.3099L7.47129 11.2768L7.41356 11.1308ZM7.62638 11.3099C7.55156 11.6494 7.50642 12.0052 7.49127 12.407L7.17364 12.3961C7.18946 11.9765 7.2371 11.6027 7.31621 11.2437L7.62638 11.3099ZM7.49127 12.407C7.47618 12.809 7.49157 13.26 7.53757 13.7897L7.21993 13.8154C7.17328 13.2782 7.15787 12.8154 7.17364 12.3961L7.49127 12.407ZM7.53757 13.7897C7.5493 13.9246 7.56335 14.0488 7.57946 14.1624L7.2655 14.204C7.24553 14.0631 7.23014 13.9332 7.21993 13.8154L7.53757 13.7897ZM7.57946 14.1624C7.59724 14.2875 7.61898 14.4156 7.64422 14.5458L7.33282 14.6048C7.30729 14.4732 7.28468 14.3395 7.2655 14.204L7.57946 14.1624ZM7.64422 14.5458L7.63743 14.6293L7.48851 14.5753" fill="black"/>
<path fill-rule="evenodd" clip-rule="evenodd" d="M15.5901 5.13908L13.4991 5.4752L11.591 6.30248L9.97045 7.3108L8.42831 9.17225L7.55708 10.0849L6.71469 10.392L6.49188 9.8534L6.88145 9.29719L6.96898 8.5128L7.22993 8.5232L7.51506 8.78043L7.43816 7.98142L7.12211 7.77171L7.13169 7.46722L6.38302 7.88614L5.70506 8.67732L5.56372 9.38443L5.85361 9.95067L6.12402 10.9126L6.67396 11.1702L7.25247 11.1421L7.80099 10.8268L7.4351 12.6624L7.80099 14.7048L7.39821 15.6479L6.07894 17.0539L6.3135 17.8938L6.93845 18.8672L8.11689 19.6875L8.74195 19.7721L9.43688 19.7954L9.00333 21.556L10.5978 22.2023L12.5843 22.4609L13.2638 22.0214L13.3161 20.8321L14.0741 19.5912L14.1264 18.6087L15.9561 18.738L17.655 18.5829L15.9561 19.5912L16.2436 20.8063L17.3152 22.4609L18.3608 22.9004L19.1972 22.5643L19.537 21.8921L21.2882 20.5736L21.628 20.858L24.3725 20.9614L24.9214 20.5219L24.9736 19.7463L24.7907 19.4102L24.66 17.3161L23.7452 15.5063L23.902 14.7048L24.4509 14.9892L25.993 16.4112L26.751 16.4629L27.5874 16.1268L28.4239 15.5063L28.8421 14.1619L31.299 14.317L32.7889 13.7483L33.9912 12.6366L34.8538 11.0337L35.0629 9.14639L34.8799 6.94883L34.4095 4.984L33.9389 4.36352L33.2855 4.15664L32.1354 5.39762L31.0899 5.75958L30.1751 4.26008L29.2603 3.43278L28.7636 3.12254L26.7772 1.49375L25.1827 0.640598L23.5883 0.511308L21.7326 0.821553L20.112 1.41619L18.9881 2.32105L18.0994 3.38107L17.1846 3.63959L15.5901 5.13908Z" fill="#FFFF00"/>
<path fill-rule="evenodd" clip-rule="evenodd" d="M9.5254 9.80423C7.73423 11.8706 8.13212 14.3767 8.62853 16.832C8.36361 16.17 8.09863 15.508 7.83374 14.8459C7.73612 14.239 7.63851 13.6322 7.54089 13.0253C7.56876 12.4046 7.59666 11.7839 7.62459 11.1633C7.87556 10.5702 8.12656 9.97715 8.37753 9.38402C8.75405 8.83236 9.13057 8.28063 9.50708 7.72889C10.0927 7.24616 10.6784 6.76342 11.264 6.2807C11.9055 6.01867 12.5469 5.75657 13.1884 5.49454C13.9413 5.39799 14.6944 5.30146 15.4474 5.20491C14.7501 5.99105 14.0529 6.77727 13.3557 7.56341C11.6762 8.10221 10.6858 8.46508 9.5254 9.80423Z" fill="#FFFFCC"/>
<path fill-rule="evenodd" clip-rule="evenodd" d="M17.9569 3.50823C16.7117 4.70987 16.0316 5.61614 15.2391 7.02313C14.6723 8.02963 14.0365 8.99897 13.4406 9.99136C13.1391 10.4937 13.1107 10.9149 13.0206 11.4941C12.7278 11.1493 12.4349 10.8045 12.1421 10.4597C12.2816 10.0459 12.421 9.63214 12.5605 9.21839C13.0346 8.37703 13.5087 7.53564 13.9828 6.69434C14.9868 5.71503 15.9908 4.73578 16.9948 3.7565C17.3155 3.67371 17.6362 3.591 17.9569 3.50823Z" fill="#FFFFCC"/>
<path fill-rule="evenodd" clip-rule="evenodd" d="M24.1066 0.530278C23.1093 0.900138 21.4531 1.02195 21.3382 2.15416C21.2563 2.95821 21.3994 3.36221 21.8894 4.21289C20.6792 2.97421 20.3799 3.16591 18.0408 3.55084C18.3754 3.08187 18.7101 2.61292 19.0448 2.14395C19.6304 1.78539 20.2162 1.42674 20.8018 1.06816C21.5548 0.902633 22.3078 0.737128 23.0608 0.571605C23.4094 0.557815 23.758 0.544047 24.1066 0.530278Z" fill="#FFFFCC"/>
<path fill-rule="evenodd" clip-rule="evenodd" d="M26.8587 15.8435C27.1908 16.0462 27.1836 16.1931 27.1281 16.332C27.39 16.2283 27.6519 16.1247 27.9138 16.0212C28.0835 15.7958 28.2531 15.5705 28.4228 15.3451C28.5487 15.024 28.6747 14.703 28.8006 14.3819C28.6397 14.2622 28.4788 14.1425 28.3178 14.0228C27.6145 14.1116 26.9111 14.2004 26.2077 14.2892C26.1553 14.4299 26.1029 14.5705 26.0505 14.7111C26.0656 14.9109 26.0805 15.1107 26.0955 15.3106C26.1628 15.429 26.2302 15.5475 26.2975 15.6659C26.4023 15.7177 26.5071 15.7695 26.6118 15.8213C26.6942 15.8287 26.7764 15.8362 26.8587 15.8435Z" fill="#CCCC00"/>
<path fill-rule="evenodd" clip-rule="evenodd" d="M26.6619 12.2741C25.6042 12.5762 25.6124 12.6593 25.3 13.6973C25.7124 13.0429 26.0177 12.7126 26.6619 12.2741Z" fill="#CCCC00"/>
<path fill-rule="evenodd" clip-rule="evenodd" d="M33.6951 4.50764C33.5071 4.59355 33.3241 4.63492 33.2066 4.80507C32.9535 5.17126 32.7366 5.47931 32.3182 5.7364C32.1074 5.86592 31.8894 5.9498 31.6659 6.01866C31.4805 6.0757 31.3692 6.02478 31.2114 6.13691C31.3051 6.15309 31.3986 6.16928 31.4923 6.18555C31.6987 6.18555 31.9051 6.18555 32.1115 6.18555C32.3659 6.03008 32.6203 5.87464 32.8748 5.71924C33.0245 5.56378 33.1741 5.4084 33.3237 5.25294C33.4475 5.0045 33.5713 4.75601 33.6951 4.50764Z" fill="#CCCC00"/>
<path fill-rule="evenodd" clip-rule="evenodd" d="M16.8464 6.82801C16.4303 7.95426 16.0667 8.91973 15.4363 9.93945C16.2441 9.07863 16.7337 8.34696 17.1964 7.37371C17.3761 6.99569 17.41 6.55204 17.9106 6.71703C17.9331 7.09452 18.0138 7.47195 18.0363 7.84944C18.3067 5.93172 19.0694 5.12981 20.8423 4.38559C20.3409 4.44486 19.8396 4.50401 19.3383 4.56322C18.8668 4.66689 18.3954 4.77045 17.924 4.87406C17.692 5.20715 17.46 5.54023 17.2281 5.87326C17.1008 6.19151 16.9737 6.5098 16.8464 6.82801Z" fill="#CCCC00"/>
<path fill-rule="evenodd" clip-rule="evenodd" d="M20.2814 6.78569C20.6638 8.56563 21.2142 10.2738 21.4534 12.082C21.6087 13.2569 21.6257 13.8214 21.028 14.835C20.3748 14.7933 19.9693 14.8661 19.3375 15.0709C16.8224 15.8864 15.3799 17.0855 13.6852 14.6695C14.2262 14.9216 14.7672 15.1738 15.3082 15.426C15.6939 15.3511 16.0795 15.2761 16.4652 15.2011C17.1461 14.8088 17.8271 14.4166 18.508 14.0243C19.0393 13.9206 19.5706 13.8171 20.1019 13.7134C20.274 13.0029 20.4461 12.2924 20.6182 11.5819C20.491 10.6418 20.3637 9.70185 20.2366 8.76187C20.2216 8.31782 20.2067 7.87374 20.1917 7.42963C20.2216 7.21495 20.2516 7.00034 20.2814 6.78569Z" fill="#CCCC00"/>
<path fill-rule="evenodd" clip-rule="evenodd" d="M24.6141 17.7973C24.4028 19.2434 25.1005 20.0208 24.8117 20.4201C24.7298 20.5332 24.619 20.7304 24.4952 20.7845C24.0531 20.9777 23.4453 20.7484 23.4018 20.8615C22.9155 20.8615 22.4291 20.8615 21.9426 20.8615C21.7482 20.78 21.5536 20.6986 21.359 20.6172C21.6583 20.2693 21.9577 19.9214 22.257 19.5736C22.5488 18.9445 22.8406 18.3153 23.1325 17.6863C23.3196 17.0498 23.5067 16.4133 23.6936 15.7767C23.7909 15.7767 23.8882 15.7767 23.9855 15.7767C24.1951 16.4502 24.4046 17.1238 24.6141 17.7973Z" fill="#CCCC00"/>
<path fill-rule="evenodd" clip-rule="evenodd" d="M22.1616 13.5937C22.2801 14.2503 22.4859 14.4063 22.7982 15.0419C22.5903 16.0787 22.2564 17.3119 21.8546 18.2267C21.6852 18.6125 21.5484 18.8253 21.2497 19.1234C20.7453 19.6272 20.2354 20.066 19.6634 20.5027C19.2517 20.8166 18.9643 20.6592 18.4563 20.588C18.2402 20.9754 18.1805 21.1906 17.7829 21.3873C17.1713 21.6897 16.624 21.0379 16.144 20.6546C16.4906 21.1899 16.8371 21.7253 17.1835 22.2606C17.4231 22.4827 17.6625 22.7047 17.9019 22.9268C18.1039 22.9564 18.306 22.986 18.5081 23.0156C18.7774 22.8527 19.0468 22.6899 19.3162 22.5271C19.4584 22.2606 19.6006 21.9942 19.7427 21.7278C20.042 21.5057 20.3414 21.2837 20.6406 21.0616C21.0074 20.7508 21.374 20.4399 21.7407 20.1291C21.9726 19.8033 22.2046 19.4777 22.4366 19.1521C22.646 18.7672 22.8556 18.3823 23.0651 17.9974C23.3345 17.1981 23.6038 16.3987 23.8733 15.5994C23.8957 15.2959 23.9182 14.9924 23.9406 14.689C23.6038 14.5409 23.2671 14.3929 22.9304 14.2449C22.6835 14.0154 22.4085 13.8231 22.1616 13.5937Z" fill="#CCCC00"/>
<path fill-rule="evenodd" clip-rule="evenodd" d="M14.1079 18.2204C15.2409 18.2204 16.4375 18.1583 17.4752 17.6876C17.7689 17.2518 18.0587 16.8959 18.4181 16.5108C18.091 17.1217 17.9885 17.467 17.9017 18.1539C17.7895 18.3166 17.6773 18.4795 17.565 18.6424C16.7119 18.6646 15.8589 18.6868 15.0058 18.709C14.729 18.6793 14.4521 18.6497 14.1752 18.6202C14.1453 18.5905 14.1154 18.5609 14.0854 18.5314C14.0929 18.4277 14.1005 18.3241 14.1079 18.2204Z" fill="#CCCC00"/>
<path fill-rule="evenodd" clip-rule="evenodd" d="M13.9507 17.4445C13.9214 17.1818 13.892 16.919 13.8627 16.6562C13.6691 17.8087 13.7157 18.581 13.1795 19.6133C12.7789 20.0724 12.2857 20.4902 11.7208 20.7137C11.7685 20.9967 11.7828 21.1736 11.7551 21.3811C11.6556 22.1276 10.1459 21.7978 9.5249 21.7681C10.5213 22.0219 11.5177 22.2755 12.514 22.5293C12.7384 22.4405 12.9629 22.3517 13.1875 22.2629C13.2623 21.8336 13.3371 21.4043 13.4119 20.975C13.6214 20.5901 13.831 20.2052 14.0405 19.8204C14.0779 19.5835 14.1153 19.3467 14.1527 19.1099C14.0854 18.5547 14.0181 17.9996 13.9507 17.4445Z" fill="#CCCC00"/>
<path fill-rule="evenodd" clip-rule="evenodd" d="M12.267 10.9376C12.2356 11.498 12.199 11.7316 12.4489 12.2265C12.7665 12.8556 13.1566 13.4466 13.5017 14.0684C13.5391 13.6538 13.5764 13.2394 13.6139 12.8249C13.1649 12.1958 12.716 11.5667 12.267 10.9376Z" fill="#CCCC00"/>
<path fill-rule="evenodd" clip-rule="evenodd" d="M7.65875 15.1685C7.56157 15.3731 7.46438 15.5777 7.3672 15.7823C7.63468 16.6734 7.8724 17.2379 8.38172 18.0163C8.29303 18.3318 8.22664 18.4698 8.02255 18.7269C7.57432 18.6586 7.17632 18.6389 6.72217 18.6403C7.2236 19.0251 7.72497 19.41 8.22627 19.7949C8.47315 19.7505 8.72012 19.7061 8.96707 19.6617C9.21397 19.4174 9.46091 19.1732 9.70788 18.929C9.3561 18.3886 9.00445 17.8483 8.6528 17.308C8.32143 16.5949 7.99006 15.8816 7.65875 15.1685Z" fill="#CCCC00"/>
<path fill-rule="evenodd" clip-rule="evenodd" d="M33.6985 4.21302C34.0038 5.57187 34.3976 6.82564 34.3611 8.21731C34.3163 9.92463 33.9798 12.0813 32.3805 13.1109C30.5894 14.2639 28.487 13.7185 26.5219 13.2245C27.3226 13.5501 28.1232 13.8757 28.9239 14.2015C29.6722 14.2385 30.4205 14.2755 31.1687 14.3125C31.6776 14.1644 32.1864 14.0164 32.6952 13.8684C33.0918 13.5427 33.4885 13.2171 33.885 12.8914C34.1843 12.2697 34.4836 11.648 34.783 11.0263C34.8952 10.3083 35.0075 9.59035 35.1197 8.87247C35.0299 8.16926 34.9401 7.46618 34.8503 6.76306C34.6857 6.06729 34.521 5.37152 34.3564 4.67588C34.1372 4.52156 33.9179 4.36732 33.6985 4.21302Z" fill="#CCCC00"/>
<path fill-rule="evenodd" clip-rule="evenodd" d="M6.96982 8.26269C6.15669 8.78614 5.83734 9.01596 5.92646 9.98609C6.00746 10.2766 6.08851 10.5673 6.16957 10.8578C6.28434 10.9346 6.39917 11.0114 6.51396 11.0883C6.65579 11.135 6.79762 11.1818 6.93946 11.2285C7.19606 11.1684 7.45268 11.1083 7.70934 11.0482C7.84102 10.644 7.97273 10.2399 8.10441 9.83578C7.7397 10.0128 7.37504 10.1898 7.01037 10.3668C6.92595 10.3668 6.84154 10.3668 6.75711 10.3668C6.66256 10.2232 6.568 10.0796 6.47345 9.936C6.58828 9.769 6.70307 9.60201 6.8179 9.43502C6.87867 9.11772 6.93946 8.80039 7.00022 8.48316C7.07786 8.50654 7.15557 8.52986 7.2332 8.55324C7.32776 8.62677 7.42231 8.70022 7.51687 8.77369C7.50336 8.60669 7.48987 8.4397 7.47631 8.27271C7.41217 8.16584 7.34804 8.05897 7.28384 7.95208C7.21969 7.8986 7.15557 7.84521 7.09137 7.79173C7.05086 7.94875 7.01037 8.10573 6.96982 8.26269Z" fill="#CCCC00"/>
<path fill-rule="evenodd" clip-rule="evenodd" d="M25.2128 0.61724C25.9343 1.28002 26.8201 1.85615 27.3973 2.66619C27.6206 2.9798 27.8689 3.14014 27.3935 3.583C27.8957 3.4411 28.0824 3.45651 28.4844 3.50472C29.2158 3.59226 29.9013 4.62063 29.9451 5.3576C29.9365 5.42653 29.7419 5.58295 29.1764 5.73737C29.1652 5.75887 28.8572 5.69568 28.8649 5.71629C28.9237 5.87535 29.0022 5.89972 29.1221 5.97414C29.1481 6.15105 29.1649 6.42382 29.2867 6.61723C29.6425 6.61107 29.9903 6.64937 30.3387 6.71764C30.456 6.91002 30.4383 7.10237 30.4285 7.29492C30.5632 7.27276 30.6979 7.25053 30.8326 7.22834C30.7951 6.92481 30.7578 6.6214 30.7204 6.31798C30.84 6.11812 30.9598 5.91826 31.0795 5.71846C30.9074 5.3336 30.7353 4.94873 30.5632 4.56383C30.2339 4.25299 29.9047 3.94212 29.5755 3.63121C29.5438 3.62972 29.512 3.62808 29.4804 3.62657C29.1101 3.40175 28.7398 3.17706 28.3696 2.9523C27.7657 2.4636 27.1618 1.97483 26.5579 1.4861C26.1095 1.19647 25.6611 0.906832 25.2128 0.61724Z" fill="#CCCC00"/>
<path fill-rule="evenodd" clip-rule="evenodd" d="M26.4276 6.08784C26.3896 6.1537 26.3321 6.25894 26.2584 6.33182C26.559 6.61305 26.7073 6.80136 26.8144 7.1991C26.4746 7.36597 26.1349 7.53283 25.7951 7.69972C25.5076 7.97233 25.22 8.24497 24.9325 8.51758C24.5541 8.3161 24.4598 8.16136 24.2767 7.77724C24.0635 7.83306 23.8614 7.88684 23.6853 7.82292C23.797 7.82377 23.8657 7.79614 23.9773 7.72788C24.1603 7.53984 24.3432 7.35183 24.5262 7.1638C24.8494 6.92172 25.1725 6.67964 25.4957 6.4376C25.7071 6.36939 25.9187 6.30123 26.1301 6.23309C26.2109 6.20022 26.3468 6.12077 26.4276 6.08784Z" fill="#CCCC00"/>
<path fill-rule="evenodd" clip-rule="evenodd" d="M27.366 7.09166C26.2849 7.66739 25.2495 8.24642 24.6968 9.33984C24.6968 7.95195 26.1056 7.34101 27.366 7.09166Z" fill="#CCCC00"/>
<path fill-rule="evenodd" clip-rule="evenodd" d="M24.4821 4.362C23.6795 4.90335 23.1118 5.99581 23.1832 7.06055C22.9217 6.13864 23.0144 5.26748 23.8172 4.63068C23.9527 4.56555 24.0881 4.50041 24.2235 4.4353C24.3098 4.41087 24.396 4.38647 24.4821 4.362Z" fill="#CCCC00"/>
<path fill-rule="evenodd" clip-rule="evenodd" d="M26.0163 12.5803C26.1822 12.491 26.4834 12.3682 26.6493 12.2788C26.4787 12.3074 26.1727 12.3694 26.002 12.3979C25.5462 12.474 25.4926 12.5824 25.4218 13.0263C25.3885 13.2354 25.3425 13.4947 25.3092 13.7039C25.3985 13.4674 25.506 13.1927 25.6102 12.9672C25.7204 12.7287 25.7825 12.7062 26.0163 12.5803ZM17.5582 1.14684C17.9164 0.615339 18.1227 0.44244 18.6739 0.105723C17.9254 0.284078 17.7827 0.42117 17.5582 1.14684ZM17.4403 2.31778C18.0672 1.07126 18.5418 0.612268 19.8543 4.81921e-05C18.3698 0.359954 17.9334 0.615891 17.4403 2.31778ZM4.01566 8.80601C4.15322 8.18183 4.28144 7.94638 4.67052 7.43399C4.03936 7.87014 3.95709 8.04928 4.01566 8.80601ZM18.0673 19.2528C18.0483 19.1014 18.0292 18.9498 18.0101 18.7983C17.9757 18.5239 17.9771 18.3009 17.9992 18.0246C18.0205 17.7573 18.0417 17.49 18.0629 17.2226C17.9842 17.4943 17.8268 17.7661 17.7482 18.0378C17.7167 18.1466 17.6906 18.2345 17.6757 18.3159C16.5011 18.5532 15.3349 18.5681 14.16 18.3608C14.085 17.9305 13.9938 17.4822 13.9172 17.1608C13.894 17.5208 13.909 18.5159 13.9071 19.0731C13.9056 19.5048 13.8872 19.6526 13.6622 20.0198C13.4515 20.3637 13.3622 20.4416 13.0673 21.0225C13.0918 21.389 13.0922 21.6314 12.9938 21.9793C12.83 22.5575 11.1784 22.1095 10.7427 21.9915C10.2061 21.8462 9.09679 21.6303 9.37575 20.9228C9.6213 20.3001 9.77688 19.6436 9.89684 18.7723C8.9138 17.3715 7.99952 15.4519 7.82413 13.7511C7.68793 12.4305 7.76966 11.6176 8.05858 10.8099C8.51638 9.52998 9.15678 8.42206 10.1845 7.52992C11.5707 6.32684 12.8665 5.84357 14.8955 5.53814C14.4076 6.07834 13.9248 6.64964 13.3987 7.26216C12.8661 7.88235 12.5495 8.50868 12.2114 9.18693C11.7442 10.1238 11.7542 10.4802 12.3736 11.3026C12.9073 12.0114 13.1954 12.3305 13.4284 13.0239C13.236 13.4163 13.166 13.7479 13.1013 14.2837C13.7548 14.9903 14.2404 15.4744 14.8749 15.6236C15.4973 15.7699 16.0171 15.7415 16.5739 15.4601C17.8106 14.8346 18.9549 14.0271 20.3499 13.9937C20.9953 12.4243 20.9301 11.113 20.6202 9.59451C20.4086 8.55751 20.3238 7.5756 20.2579 6.51837C19.9963 7.60714 19.9472 8.56463 20.1413 9.64912C20.3753 10.9561 20.5572 12.4001 19.9062 13.5488C18.6448 13.6443 17.5637 14.4034 16.4267 14.9858C15.9698 15.22 15.494 15.2427 14.9881 15.1054C14.5186 14.9779 14.2017 14.6706 13.6959 14.0936C13.688 13.5143 13.8202 13.2469 14.0891 12.7222C14.5213 11.8797 14.9983 11.0954 15.5217 10.2663C14.8807 11.0316 14.2735 11.6709 13.769 12.4402C13.5762 11.8968 13.3005 11.6209 12.8438 11.0091C12.3976 10.4115 12.3509 10.1497 12.6845 9.45821C13.0199 8.76323 13.3043 8.15235 13.8752 7.54267C14.8616 6.48906 15.7652 5.31641 16.8439 4.27881C17.4296 3.71542 17.6674 3.73488 18.4443 3.6184C19.1464 3.51315 19.8321 3.38022 20.5482 3.21565C19.8556 3.27951 19.1861 3.30302 18.5119 3.31956C18.5049 3.31975 18.498 3.31998 18.491 3.31998C19.1544 2.48201 19.5393 2.01509 20.6167 1.55206C23.2693 0.412516 24.9548 0.289277 27.0385 2.0218C27.5785 2.47082 28.0502 2.90673 28.5978 3.29413C28.3993 3.31093 28.2282 3.34614 28.0019 3.43406C28.2773 3.38216 28.5953 3.43363 28.8811 3.4853C28.9614 3.53677 29.0438 3.58696 29.1283 3.63626C29.5148 3.86151 29.7342 3.98591 29.9956 4.34623C30.272 4.72698 30.5023 5.10743 30.7053 5.52678C30.5723 5.47978 30.4607 5.44003 30.3613 5.41079C30.2881 5.37763 30.2085 5.35569 30.1241 5.34766C29.9569 5.33176 29.7969 5.37243 29.6637 5.45357C29.6583 5.45604 29.653 5.45845 29.6476 5.46105C29.4338 5.56399 29.1025 5.68139 28.8808 5.71699C28.9938 5.75559 29.2439 5.77004 29.3619 5.72387C29.3777 5.71765 29.3938 5.71294 29.4102 5.70901C29.357 5.79855 29.3223 5.90028 29.3116 6.01014C29.2974 6.1558 29.3274 6.29559 29.3907 6.41698C29.3909 6.4174 29.3911 6.41783 29.3913 6.41826C29.4114 6.46483 29.4392 6.50784 29.4698 6.53878C29.3684 6.57564 29.265 6.61786 29.1584 6.66366C29.6527 6.58917 30.0984 6.57636 30.5809 6.63926C30.6128 6.78969 30.6448 6.94908 30.6745 7.11123C30.6147 7.11594 30.5551 7.12042 30.4954 7.12507C30.4905 7.12549 30.4856 7.12592 30.4808 7.12634C30.2525 6.94588 29.9982 6.97621 29.6508 7.05465C28.5942 7.29298 28.8425 7.87945 28.3563 8.76306C28.861 8.15278 28.8237 7.5143 29.6461 7.32162C29.8378 7.27673 29.9683 7.22059 30.098 7.23988C29.8645 7.35607 29.6625 7.54862 29.5824 7.77222C29.3567 8.40279 29.4968 8.9341 29.2488 9.52305C29.5561 8.99657 29.5746 8.48272 29.8493 7.92881C29.9479 7.7298 30.3141 7.41129 30.5389 7.40639C30.6006 7.40511 30.6622 7.40379 30.7239 7.40247C30.7781 7.75299 30.811 8.10094 30.79 8.38962C30.7517 8.91633 30.6134 9.69814 30.5305 9.99726C30.8088 9.64345 30.9356 8.89403 31.0578 8.36654C31.1851 7.81717 31.153 7.15802 31.0415 6.56792C30.8887 5.75821 31.7317 5.8899 32.2212 5.50832C32.5809 5.22775 32.8286 4.77981 33.1585 4.46249C33.4857 4.14784 34.0007 4.61022 34.1294 4.91786C34.6875 6.2532 34.9417 8.35409 34.7943 9.70019C34.6289 11.2107 33.8912 12.8597 32.5443 13.6033C30.8273 14.5512 28.8027 13.9721 27.0968 13.4036C26.7327 13.2823 26.4795 13.1055 26.1594 12.9061C26.2466 13.2942 26.2862 13.705 26.1702 14.0926C25.9862 14.7076 25.689 15.7138 26.5332 15.8994C26.8545 15.9701 27.0002 15.9598 27.4538 15.7283C27.0866 15.8104 26.9016 15.7903 26.6492 15.7442C26.4206 15.7025 26.2993 15.5588 26.2354 15.3894C26.3153 15.4465 26.4456 15.4775 26.6682 15.5306C27.2941 15.6798 27.8905 15.3818 28.0071 14.9525C28.0751 14.7017 28.0636 14.57 28.2076 14.2283C28.3371 14.2677 28.471 14.3039 28.6083 14.3367C28.5309 14.5866 28.4533 14.8369 28.3758 15.0868C28.1747 15.7358 27.391 16.2592 26.699 16.2471C26.0594 16.2359 25.6538 15.8396 25.2123 15.451C24.908 15.1832 24.6153 14.9271 24.3251 14.6734C23.529 14.4249 22.8909 14.1346 22.152 13.5936C22.6778 14.2048 23.0345 14.5431 23.7678 14.8473C23.6611 15.9232 23.2831 16.7077 22.9607 17.7375C22.8149 18.2032 21.6632 20.0689 21.3441 20.2508C21.1165 20.3805 19.6911 21.5681 19.4229 21.7247C19.2232 21.9871 19.0479 22.3495 18.7477 22.5065C17.8327 22.985 17.2448 22.0688 16.7525 21.2949C16.5282 20.9423 15.9058 19.927 16.4485 19.6425C16.9615 19.3737 17.2489 19.1817 17.7723 18.8418C17.8493 18.9804 17.9813 19.1143 18.0673 19.2528ZM21.2479 20.8934C20.7847 21.2635 20.0058 21.9187 19.8547 22.0007C19.581 22.4047 19.5472 22.6547 19.1088 22.8895C17.8038 23.5879 17.1112 22.7779 16.3387 21.6003C15.9706 21.0392 15.1658 19.7582 16.0199 19.3239C16.3797 19.141 16.6524 19.0038 16.9245 18.8471C16.0285 18.9571 15.1492 18.9584 14.2348 18.8223C14.251 18.9315 14.2651 19.0353 14.2766 19.1305C14.336 19.6247 14.3555 19.7762 14.0841 20.1744C13.8863 20.4647 13.81 20.5488 13.5711 21.0763C13.6145 21.5051 13.5957 21.7465 13.4733 22.1956C13.2014 23.1938 11.3169 22.6466 10.5491 22.4412C9.62515 22.1941 8.30492 21.964 8.84665 20.7891C8.97359 20.5138 9.07328 20.2323 9.14829 19.9637C8.34041 20.3174 7.21772 19.5672 6.68301 19.0369C6.17443 18.5326 5.89815 17.9469 5.8019 17.3786C5.71993 16.8949 5.79498 16.8972 6.14396 16.5552C6.46322 16.2427 6.78237 15.9297 7.10155 15.6173C7.23043 15.2702 7.35955 14.9235 7.48837 14.5767C7.43816 14.3176 7.40084 14.0592 7.3786 13.8033C7.28587 12.7363 7.31703 11.9764 7.47115 11.2779C6.90901 11.4948 6.26398 11.3932 5.97709 10.8031C5.86799 10.5788 5.803 10.3503 5.72059 10.0185C4.46662 8.82346 6.81653 7.25679 7.50205 7.13896C7.42368 7.35924 7.33781 7.56074 7.26224 7.76054C7.72714 7.9986 7.67015 8.67689 7.57144 9.11359C7.4042 8.90484 7.31178 8.63187 7.0658 8.62015C7.02977 9.11401 7.036 9.65976 6.64606 9.94971C6.76149 10.2549 6.75544 10.2552 7.08351 10.1304C7.54946 9.95297 7.90031 9.5577 8.25325 9.17194C8.63337 8.43958 9.12062 7.7881 9.79093 7.20028C11.4381 5.75578 12.9951 5.28318 15.5022 4.888C15.8359 4.54355 16.1807 4.2112 16.5509 3.88804C17.0524 3.45032 17.378 3.35944 17.8523 3.33497C18.6372 2.29658 19.2547 1.57344 20.5343 1.04068C23.2165 -0.0759997 25.0653 -0.129839 27.2181 1.62589C27.9295 2.20601 28.5362 2.81738 29.3181 3.30168C29.7138 3.54674 29.9965 3.7229 30.2965 4.07624C30.6737 4.52089 30.9818 4.96557 31.1963 5.53791C31.4734 5.42511 31.7893 5.31884 32.0445 5.10314C32.3739 4.82474 32.5835 4.35874 32.8886 4.05284C33.2936 3.64692 34.2174 4.13694 34.4219 4.52422C35.1177 5.8412 35.4023 8.26841 35.2544 9.71178C35.0716 11.496 34.328 13.1827 32.7387 14.0217C31.6581 14.592 30.2078 14.6451 28.9666 14.413C28.8862 14.6748 28.806 14.9366 28.7256 15.1984C28.4842 15.9829 27.5422 16.6241 26.7192 16.6625C25.929 16.6994 25.5007 16.296 24.9825 15.8023C24.7106 15.5433 24.4386 15.2844 24.1667 15.0253C24.1509 15.2018 24.1275 15.371 24.0982 15.5348C24.3122 15.9528 24.415 16.3203 24.5982 16.7513C24.7998 17.2259 24.8979 17.5374 24.9117 18.0453C24.9239 18.4962 24.9361 18.9472 24.9483 19.3981C25.1516 19.7554 25.1694 19.8424 25.1398 20.2513C25.0772 21.1131 24.5973 21.1953 23.7976 21.1903C23.5311 21.1886 22.5254 21.1948 22.2691 21.1765C21.7594 21.1401 21.4235 21.1016 21.2479 20.8934ZM23.9445 16.1922C23.7837 16.7605 23.5674 17.2969 23.37 17.9118C23.1832 18.4938 22.2251 20.184 21.6611 20.5936C21.7709 20.6745 21.9724 20.7062 22.3313 20.7368C22.5852 20.7585 23.5863 20.7631 23.8377 20.7674C24.391 20.7769 24.6011 20.7358 24.657 20.1125C24.6844 19.8074 24.6602 19.7503 24.5059 19.4829C24.4923 19.0058 24.4786 18.5287 24.465 18.0516C24.4521 17.5993 24.3644 17.3388 24.1846 16.9173C24.077 16.6651 24.0186 16.4296 23.9445 16.1922ZM7.08853 8.38531C7.21276 8.37135 7.2896 8.43583 7.38569 8.5308C7.36791 8.30387 7.32552 8.13562 7.16445 8.04286C7.15316 8.07978 7.14253 8.11663 7.13251 8.1541C7.11301 8.22714 7.09909 8.30472 7.08853 8.38531ZM7.86911 10.0249C7.77968 10.2538 7.69672 10.4897 7.6186 10.7334C7.60565 10.7737 7.59324 10.8142 7.58115 10.8546C7.10862 11.0528 6.48729 11.1788 6.24944 10.6876C6.13394 10.4492 6.06875 10.2152 5.98452 9.91388C5.20634 9.11649 6.36959 8.06377 7.0032 7.68617C6.91151 7.88113 6.84639 8.02873 6.80194 8.18068C6.60927 8.83923 6.88915 9.42697 6.28486 9.9044C6.56885 10.4712 6.55577 10.6973 7.21649 10.4353C7.47139 10.3343 7.68157 10.1925 7.86911 10.0249ZM7.68702 15.3911C8.0452 16.6164 8.65517 17.8203 9.33141 18.8324C9.33134 18.8383 9.33128 18.8441 9.33123 18.8501C9.28889 19.0241 9.23985 19.1937 9.1371 19.3298C8.65377 19.9694 7.42424 19.0305 7.06836 18.6711C6.67933 18.2782 6.41894 17.8129 6.35694 17.3766C6.31186 17.0582 6.35561 17.0505 6.58014 16.8253C6.88275 16.5223 7.18565 16.2191 7.48813 15.9161C7.55435 15.7411 7.6208 15.5662 7.68702 15.3911ZM30.5747 5.55671C30.6437 5.62412 30.6993 5.70441 30.7377 5.79322C30.7586 5.77426 30.7809 5.75631 30.8043 5.73928C30.776 5.67615 30.7472 5.61391 30.7177 5.55259C30.6687 5.55366 30.6211 5.555 30.5747 5.55671ZM24.6541 7.76067C24.5911 7.62993 24.5609 7.49199 24.5598 7.35575C24.3278 7.53905 24.0756 7.71282 23.8139 7.81323C24.1753 7.49403 24.6661 6.74125 25.0218 6.50362C25.4254 6.23385 25.9732 6.28637 26.4438 6.07103C26.2831 6.21543 26.0772 6.33178 25.8676 6.44253C26.0985 6.52615 26.2981 6.69532 26.412 6.93143C26.46 7.03101 26.4887 7.13498 26.5003 7.23901C26.8165 7.1363 27.1269 7.08768 27.3891 7.09141C26.4511 7.35187 25.4533 7.961 24.7654 8.76764C24.8426 8.55727 24.9506 8.36743 25.0807 8.1979C24.9004 8.10468 24.7482 7.95563 24.6541 7.76067ZM20.3042 4.40418C19.7862 4.6041 19.3138 4.75411 18.8088 4.87961C18.3481 5.47857 18.0674 5.78888 17.9613 6.59171C17.8366 5.80192 17.8107 5.6553 18.166 5.0658C18.0631 5.11757 17.9673 5.18877 17.83 5.30482C17.3336 5.72472 16.6864 7.37484 16.4276 7.96481C16.5919 7.25472 17.1057 5.47978 17.6348 4.96243C17.9828 4.62215 18.0617 4.62996 18.5524 4.58405C19.1368 4.52925 19.7201 4.46949 20.3042 4.40418ZM31.116 6.12595C31.5362 6.16528 31.7765 6.22944 32.1527 6.04535C32.8541 5.70207 33.3701 5.14164 33.7047 4.47136C33.5 5.27104 33.0881 5.95056 32.2336 6.25199C31.814 6.39988 31.5434 6.24715 31.116 6.12595ZM23.0515 6.20407C23.2098 5.5106 23.4909 4.84243 24.5798 4.32551C23.1366 4.68294 22.866 5.28246 23.0515 6.20407ZM4.33787 9.93878C4.46169 8.55195 4.73436 7.95328 5.73055 6.90962C4.48104 7.78047 4.16923 8.1762 4.33787 9.93878Z" fill="black"/>
<path fill-rule="evenodd" clip-rule="evenodd" d="M24.8423 7.98474C24.7458 7.78524 24.8321 7.54484 25.0344 7.44967C25.2367 7.3544 25.4804 7.43953 25.5769 7.63915C25.5861 7.65806 25.5934 7.67752 25.5993 7.69702C25.4061 7.83869 25.2289 8.00575 25.0804 8.19922C24.9803 8.15947 24.8918 8.08719 24.8423 7.98474Z" fill="#FFFFCC"/>
<path fill-rule="evenodd" clip-rule="evenodd" d="M29.3604 6.25527C29.3766 6.08998 29.5192 5.96811 29.6863 5.98407C29.8535 6.00008 29.9769 6.14778 29.9608 6.31309C29.9574 6.34826 29.9477 6.38125 29.9333 6.41163C29.7803 6.43737 29.6273 6.48177 29.4696 6.53906C29.4036 6.47235 29.3512 6.35056 29.3604 6.25527Z" fill="#FFFFCC"/>
</g>
<defs>
<filter id="filter0_d_1802_6156" x="0" y="0" width="119" height="34" filterUnits="userSpaceOnUse" color-interpolation-filters="sRGB">
<feFlood flood-opacity="0" result="BackgroundImageFix"/>
<feColorMatrix in="SourceAlpha" type="matrix" values="0 0 0 0 0 0 0 0 0 0 0 0 0 0 0 0 0 0 127 0" result="hardAlpha"/>
<feOffset dy="4"/>
<feGaussianBlur stdDeviation="2"/>
<feComposite in2="hardAlpha" operator="out"/>
<feColorMatrix type="matrix" values="0 0 0 0 0 0 0 0 0 0 0 0 0 0 0 0 0 0 0.05 0"/>
<feBlend mode="normal" in2="BackgroundImageFix" result="effect1_dropShadow_1802_6156"/>
<feBlend mode="normal" in="SourceGraphic" in2="effect1_dropShadow_1802_6156" result="shape"/>
</filter>
</defs>
</svg>
