<svg width="71" height="34" viewBox="0 0 71 34" fill="none" xmlns="http://www.w3.org/2000/svg">
<g filter="url(#filter0_d_1802_6233)">
<path d="M9.49665 2.31351C9.21136 2.02481 8.81556 1.84695 8.37433 1.84695C7.93421 1.84695 7.54145 2.02481 7.25977 2.31351H7.25257C6.96811 2.60025 6.79167 3.00035 6.79167 3.44234C6.79167 3.88684 6.96811 4.28443 7.25257 4.56838L7.25977 4.5762C7.54145 4.86238 7.93421 5.03772 8.37433 5.03772C8.81556 5.03772 9.21136 4.86238 9.49665 4.5762L9.49997 4.56838C9.78554 4.28443 9.95976 3.88684 9.95976 3.44234C9.95976 3.00035 9.78554 2.60025 9.49997 2.31351H9.49665ZM8.37433 24.153C8.81556 24.153 9.21136 23.9718 9.49665 23.6884L9.49997 23.6801C9.78554 23.3972 9.95976 22.9971 9.95976 22.5574C9.95976 22.1129 9.78554 21.7147 9.49997 21.4266H9.49665C9.21136 21.1351 8.81556 20.9589 8.37433 20.9589C7.93421 20.9589 7.54145 21.1351 7.25977 21.4266H7.25257C6.96811 21.7147 6.79167 22.1129 6.79167 22.5574C6.79167 22.9971 6.96811 23.3972 7.25257 23.6801L7.25977 23.6884C7.54145 23.9718 7.93421 24.153 8.37433 24.153ZM16.9975 19.3191C17.3894 19.2153 17.7443 18.9618 17.9611 18.5781L17.9902 18.522C18.183 18.1588 18.2182 17.7388 18.1151 17.3661C18.0113 16.9682 17.757 16.6153 17.3773 16.3956L17.3548 16.3805C16.9848 16.1756 16.5638 16.1309 16.1766 16.2373C15.783 16.3364 15.4293 16.6005 15.2138 16.9808C14.9955 17.3588 14.9501 17.7933 15.0545 18.1931C15.1623 18.5865 15.4146 18.9419 15.7921 19.1642H15.7943C16.1727 19.3834 16.6003 19.4227 16.9975 19.3191ZM9.9977 11.3651C9.58224 10.9474 9.00889 10.6855 8.37433 10.6855C7.7406 10.6855 7.16892 10.9474 6.75428 11.3651C6.34103 11.7822 6.08621 12.3577 6.08621 12.9973C6.08621 13.637 6.34103 14.215 6.75428 14.6368C7.16892 15.052 7.7406 15.3114 8.37433 15.3114C9.00889 15.3114 9.58224 15.052 9.9977 14.6368C10.4121 14.215 10.6669 13.637 10.6669 12.9973C10.6669 12.3577 10.4121 11.7822 9.9977 11.3651ZM9.08478 8.64591C10.006 8.79892 10.8331 9.24369 11.4654 9.88559H11.4701C11.5707 9.98666 11.6684 10.0981 11.7596 10.2092L13.3397 9.28781C13.1273 8.64061 13.1173 7.96409 13.2882 7.32945C13.5134 6.47983 14.0599 5.71927 14.8792 5.24266L14.9058 5.22563C15.7162 4.76354 16.6372 4.66722 17.4684 4.89421C18.3104 5.12177 19.0699 5.67515 19.5427 6.49965V6.50216C20.0133 7.32219 20.1085 8.26312 19.8842 9.11023C19.6601 9.95958 19.1117 10.7254 18.2932 11.1993L18.0775 11.3277H18.0556C17.2986 11.6909 16.4663 11.7479 15.7018 11.5449C15.0742 11.3774 14.4986 11.0239 14.0477 10.5227L12.4697 11.4416C12.6512 11.9252 12.7514 12.4465 12.7514 12.9973C12.7514 13.5454 12.6512 14.0742 12.4697 14.5603L14.0477 15.4767C14.4986 14.9677 15.0742 14.6223 15.7018 14.4542C16.5441 14.2222 17.4775 14.3208 18.2932 14.8002L18.3456 14.8248V14.8273C19.1336 15.3089 19.6626 16.0521 19.8842 16.8917C20.1085 17.7338 20.0133 18.6753 19.5427 19.497L19.5142 19.5542L19.5108 19.5495C19.0383 20.3416 18.2932 20.8782 17.4709 21.1052C16.6275 21.3294 15.6938 21.2337 14.8792 20.7612V20.7548C14.0599 20.2774 13.5134 19.5151 13.2882 18.6672C13.1173 18.0354 13.1273 17.3588 13.3397 16.7119L11.7596 15.7928C11.6684 15.9039 11.5707 16.0103 11.4701 16.1113L11.4654 16.1164C10.8331 16.756 10.006 17.2005 9.08478 17.3485V19.189C9.74122 19.3272 10.329 19.6581 10.7893 20.1224L10.7918 20.1272C11.4089 20.7464 11.7911 21.6092 11.7911 22.5574C11.7911 23.5028 11.4089 24.3605 10.7918 24.9828L10.7893 24.9926C10.1678 25.6147 9.31523 26 8.37433 26C7.43842 26 6.58366 25.6147 5.9635 24.9926H5.96101V24.9828C5.34335 24.3605 4.96029 23.5028 4.96029 22.5574C4.96029 21.6092 5.34335 20.7464 5.96101 20.1272V20.1224H5.9635C6.42357 19.6581 7.01242 19.3272 7.66637 19.189V17.3485C6.74542 17.2005 5.91974 16.756 5.28851 16.1164L5.28186 16.1113C4.49358 15.3139 4 14.215 4 12.9973C4 11.7822 4.49358 10.6833 5.28186 9.88559H5.28851C5.91974 9.24369 6.74542 8.79892 7.66637 8.64591V6.8132C7.01242 6.67025 6.42357 6.33939 5.9635 5.87758H5.96101V5.87255C5.34335 5.24769 4.96029 4.3908 4.96029 3.44234C4.96029 2.4989 5.34335 1.63448 5.96101 1.01212L5.9635 1.00961C6.58366 0.385026 7.43842 0 8.37433 0C9.31523 0 10.1678 0.385026 10.7893 1.00961V1.01212H10.7918C11.4089 1.63448 11.7911 2.4989 11.7911 3.44234C11.7911 4.3908 11.4089 5.24769 10.7918 5.87255L10.7893 5.87758C10.329 6.33939 9.74122 6.67025 9.08478 6.8132V8.64591ZM17.9611 7.42355L17.9476 7.40344C17.7299 7.03321 17.382 6.7864 16.9975 6.68002C16.6003 6.57364 16.1727 6.61831 15.7921 6.83833H15.7943C15.4146 7.05555 15.1606 7.4107 15.0545 7.80885C14.9501 8.20393 14.9955 8.64061 15.2138 9.02117L15.2213 9.03094C15.4398 9.40647 15.788 9.65832 16.1766 9.75967C16.5671 9.87107 17.0022 9.82388 17.3773 9.60387L17.3975 9.5941C17.7667 9.37185 18.0126 9.02117 18.1151 8.63586C18.2198 8.23827 18.178 7.80382 17.9611 7.42355Z" fill="white"/>
<path d="M25 7.21847H27.0828V13.4434L30.0862 10.1906H32.5835L28.9574 13.9591L32.5985 18.736H30.2138L27.0828 14.4691V18.736H25V7.21847ZM35.0029 14.5002C35.0029 15.5602 35.7815 17.1013 37.6575 17.1013C38.8183 17.1013 39.5823 16.509 39.9785 15.7328C40.1859 15.3561 40.2814 14.9534 40.3135 14.5344C40.3279 14.1289 40.2497 13.7073 40.0737 13.3328C39.7085 12.5256 38.8981 11.8256 37.6421 11.8256C35.9579 11.8256 35.0029 13.1627 35.0029 14.4861V14.5002ZM42.3795 18.736H40.2958V17.5066C39.7413 18.5009 38.5801 19 37.3555 19C34.5573 19 32.9204 16.8662 32.9204 14.455C32.9204 11.7632 34.9073 9.92696 37.3555 9.92696C38.9453 9.92696 39.9147 10.7518 40.2958 11.4374V10.1906H42.3795V18.736ZM44.7378 11.7632H43.6585V10.1906H44.7378V9.70913C44.7378 7.1701 46.7096 7.01698 48.2048 7V8.56967C47.679 8.56967 46.8215 8.56968 46.8215 9.77096V10.1906H48.2048V11.7632H46.8215V18.736H44.7378V11.7632ZM49.6211 7.21847H51.7032V13.4434L54.7073 10.1906H57.2046L53.5785 13.9591L57.219 18.736H54.8342L51.7032 14.4691V18.736H49.6211V7.21847ZM59.624 14.5002C59.624 15.5602 60.4023 17.1013 62.2786 17.1013C63.4378 17.1013 64.2017 16.509 64.5986 15.7328C64.8067 15.3561 64.9025 14.9534 64.9339 14.5344C64.9483 14.1289 64.8701 13.7073 64.6938 13.3328C64.3293 12.5256 63.5189 11.8256 62.2633 11.8256C60.5787 11.8256 59.624 13.1627 59.624 14.4861V14.5002ZM67 18.736H64.9169V17.5066C64.3607 18.5009 63.2006 19 61.9766 19C59.1784 19 57.5429 16.8662 57.5429 14.455C57.5429 11.7632 59.5291 9.92696 61.9766 9.92696C63.5654 9.92696 64.5358 10.7518 64.9169 11.4374V10.1906H67V18.736Z" fill="white"/>
</g>
<defs>
<filter id="filter0_d_1802_6233" x="0" y="0" width="71" height="34" filterUnits="userSpaceOnUse" color-interpolation-filters="sRGB">
<feFlood flood-opacity="0" result="BackgroundImageFix"/>
<feColorMatrix in="SourceAlpha" type="matrix" values="0 0 0 0 0 0 0 0 0 0 0 0 0 0 0 0 0 0 127 0" result="hardAlpha"/>
<feOffset dy="4"/>
<feGaussianBlur stdDeviation="2"/>
<feComposite in2="hardAlpha" operator="out"/>
<feColorMatrix type="matrix" values="0 0 0 0 0 0 0 0 0 0 0 0 0 0 0 0 0 0 0.05 0"/>
<feBlend mode="normal" in2="BackgroundImageFix" result="effect1_dropShadow_1802_6233"/>
<feBlend mode="normal" in="SourceGraphic" in2="effect1_dropShadow_1802_6233" result="shape"/>
</filter>
</defs>
</svg>
