<svg width="108" height="34" viewBox="0 0 108 34" fill="none" xmlns="http://www.w3.org/2000/svg">
<g filter="url(#filter0_d_1802_6364)">
<path d="M11.7517 2.67897C10.736 1.48208 9.86143 0.266495 9.68276 0.0140261C9.66395 -0.00467535 9.63573 -0.00467535 9.61692 0.0140261C9.43824 0.266495 8.56366 1.48208 7.548 2.67897C-1.16966 13.7221 8.92102 21.1746 8.92102 21.1746L9.00565 21.2308C9.08088 22.3808 9.26897 24.036 9.26897 24.036H9.64513H10.0213C10.0213 24.036 10.2094 22.3902 10.2846 21.2308L10.3693 21.1653C10.3787 21.1746 20.4694 13.7221 11.7517 2.67897ZM9.64513 21.0063C9.64513 21.0063 9.19374 20.6229 9.07148 20.4266V20.4078L9.61692 8.3829C9.61692 8.34549 9.67335 8.34549 9.67335 8.3829L10.2188 20.4078V20.4266C10.0965 20.6229 9.64513 21.0063 9.64513 21.0063Z" fill="#47FFAA"/>
<path d="M28.5295 18.551L24.3246 8.35044L24.3152 8.32227H21.0436V9.00794H21.5716C21.7318 9.00794 21.8827 9.07368 21.9959 9.1864C22.1089 9.29911 22.1655 9.44943 22.1655 9.60908L22.0713 19.8754C22.0713 20.1947 21.8073 20.4577 21.4867 20.4672L20.9493 20.4765V21.1528H24.1361V20.4765L23.806 20.4672C23.4855 20.4577 23.2215 20.1947 23.2215 19.8754V10.2008L27.8036 21.1528C27.8695 21.3124 28.0203 21.4158 28.1901 21.4158C28.3598 21.4158 28.5106 21.3124 28.5766 21.1528L33.055 10.445L33.121 19.8754C33.121 20.2042 32.8569 20.4672 32.527 20.4765H32.1876V21.1528H35.9211V20.4765H35.4119C35.0914 20.4765 34.8274 20.2042 34.818 19.8848L34.7897 9.61843C34.7897 9.28972 35.0537 9.02672 35.3743 9.01733L35.9211 9.00794V8.32227H32.7344L28.5295 18.551Z" fill="#47FFAA"/>
<path d="M57.8485 20.2983C57.7444 20.1949 57.6878 20.0537 57.6878 19.8843V14.8411C57.6878 13.8814 57.4042 13.1287 56.837 12.5924C56.2794 12.056 55.5042 11.7832 54.5401 11.7832C53.1883 11.7832 52.1202 12.3289 51.3735 13.4016C51.364 13.4204 51.3357 13.4298 51.3074 13.4298C51.2789 13.4298 51.2601 13.4109 51.2601 13.3828L50.9103 12.0372H50.3242L48.8213 12.8934V13.3639H49.2089C49.3884 13.3639 49.5397 13.4109 49.6437 13.5051C49.7477 13.5992 49.8043 13.7403 49.8043 13.9378V19.8749C49.8043 20.0443 49.7477 20.1854 49.6437 20.2889C49.5397 20.3924 49.3979 20.4489 49.2278 20.4489H48.8496V21.1357H52.3092V20.4489H51.9312C51.761 20.4489 51.6192 20.3924 51.5153 20.2889C51.4113 20.1854 51.3545 20.0443 51.3545 19.8749V15.942C51.3545 15.4433 51.468 14.9446 51.676 14.4553C51.8933 13.9755 52.2147 13.5709 52.6401 13.2604C53.0654 12.9499 53.5759 12.7994 54.162 12.7994C54.8236 12.7994 55.3247 13.0063 55.6365 13.4204C55.9485 13.8344 56.1092 14.3707 56.1092 15.0105V19.8656C56.1092 20.0348 56.0524 20.176 55.9485 20.2795C55.8445 20.383 55.7027 20.4394 55.5326 20.4394H55.1545V21.1263H58.6141V20.4394H58.2361C58.0942 20.4583 57.9619 20.4018 57.8485 20.2983Z" fill="#47FFAA"/>
<path d="M89.4562 9.09028C88.4999 8.58451 87.4311 8.32227 86.2779 8.32227H81.7777V9.00599H82.2184C82.3871 9.00599 82.5371 9.07156 82.6871 9.22142C82.8278 9.36189 82.9028 9.52116 82.9028 9.6897V19.7678C82.9028 19.9363 82.8278 20.0956 82.6871 20.2361C82.5465 20.3765 82.3871 20.4514 82.2184 20.4514H81.7777V21.1352H86.2779C87.4311 21.1352 88.4999 20.873 89.4562 20.3672C90.4124 19.8614 91.1907 19.1121 91.7532 18.1568C92.3157 17.2014 92.6063 16.0494 92.6063 14.7381C92.6063 13.4269 92.3157 12.2842 91.7532 11.3195C91.1813 10.3454 90.4124 9.60543 89.4562 9.09028ZM90.7969 14.7194C90.7969 15.9183 90.5813 16.9298 90.1593 17.7446C89.7375 18.5595 89.1749 19.1683 88.4811 19.5617C87.7874 19.9551 87.0186 20.1518 86.1935 20.1518H85.2841C85.1154 20.1518 84.9654 20.0862 84.8154 19.9363C84.6747 19.7958 84.5997 19.6367 84.5997 19.468V9.96139C84.5997 9.79276 84.6654 9.64293 84.8154 9.49301C84.956 9.35254 85.1154 9.27762 85.2841 9.27762H86.1935C87.0186 9.27762 87.7874 9.47431 88.4811 9.86767C89.1749 10.261 89.7375 10.8699 90.1593 11.6847C90.5813 12.5089 90.7969 13.5298 90.7969 14.7194Z" fill="#47FFAA"/>
<path d="M103.244 15.4031C102.828 14.9254 102.025 14.5227 101.08 14.3072C102.384 13.661 103.055 12.7525 103.055 11.5817C103.055 10.9448 102.885 10.3735 102.544 9.88638C102.204 9.39939 101.722 9.00599 101.108 8.73437C100.493 8.46275 99.775 8.32227 98.9624 8.32227H93.8684V9.00599H94.2748C94.4449 9.00599 94.5961 9.07156 94.7473 9.22142C94.8891 9.36189 94.9647 9.52116 94.9647 9.6897V19.7678C94.9647 19.9363 94.8891 20.0956 94.7473 20.2361C94.6056 20.3765 94.4449 20.4514 94.2748 20.4514H93.8306V21.1352H99.3597C100.201 21.1352 100.985 20.9947 101.694 20.7137C102.403 20.4327 102.97 20.0207 103.377 19.4774C103.792 18.9342 104 18.2691 104 17.5011C103.991 16.6769 103.745 15.9744 103.244 15.4031ZM96.9022 19.9457C96.7604 19.8052 96.6848 19.646 96.6848 19.4774V14.9535H99.3127C100.238 14.9535 100.947 15.1877 101.439 15.6559C101.93 16.1243 102.176 16.7331 102.176 17.4824C102.176 17.932 102.062 18.3722 101.855 18.7749C101.638 19.1871 101.315 19.5149 100.881 19.7678C100.456 20.0207 99.9266 20.1518 99.3127 20.1518H97.3747C97.2047 20.1518 97.0534 20.0862 96.9022 19.9457ZM96.6943 13.9888V9.97074C96.6943 9.80211 96.7604 9.65229 96.9116 9.50237C97.0534 9.36189 97.2141 9.28698 97.3842 9.28698H98.6319C99.5292 9.28698 100.191 9.51181 100.607 9.94259C101.023 10.3828 101.231 10.9448 101.231 11.6379C101.231 12.3497 101.032 12.9211 100.645 13.3519C100.257 13.7734 99.6714 13.9888 98.8965 13.9888H96.6943Z" fill="#47FFAA"/>
<path d="M44.6777 12.3806C43.9555 11.9886 43.1489 11.7832 42.2767 11.7832C41.4044 11.7832 40.5884 11.9792 39.8756 12.3806C39.1534 12.7726 38.5813 13.342 38.1592 14.0607C37.7372 14.7795 37.5215 15.6196 37.5215 16.553C37.5215 17.4864 37.7372 18.3265 38.1592 19.0452C38.5813 19.764 39.1534 20.3334 39.8756 20.7254C40.5978 21.1174 41.4044 21.3228 42.2767 21.3228C43.1489 21.3228 43.9649 21.1267 44.6777 20.7254C45.3999 20.3334 45.972 19.764 46.3941 19.0452C46.8161 18.3265 47.0318 17.4864 47.0318 16.553C47.0318 15.6196 46.8161 14.7795 46.3941 14.0607C45.972 13.342 45.3999 12.7726 44.6777 12.3806ZM45.3718 16.553C45.3718 17.7011 45.0904 18.6345 44.5276 19.3066C43.9743 19.9786 43.2146 20.324 42.2767 20.324C41.3388 20.324 40.579 19.9786 40.0257 19.3066C39.4629 18.6345 39.1816 17.7011 39.1816 16.553C39.1816 15.4049 39.4629 14.4715 40.0257 13.7994C40.579 13.1273 41.3388 12.782 42.2767 12.782C43.2146 12.782 43.9743 13.1273 44.5276 13.7994C45.0904 14.4715 45.3718 15.4049 45.3718 16.553Z" fill="#47FFAA"/>
<path d="M77.9171 12.3806C77.1948 11.9886 76.3883 11.7832 75.516 11.7832C74.6438 11.7832 73.8278 11.9792 73.115 12.3806C72.3928 12.7726 71.8207 13.342 71.3986 14.0607C70.9766 14.7795 70.7609 15.6196 70.7609 16.553C70.7609 17.4864 70.9766 18.3265 71.3986 19.0452C71.8207 19.764 72.3928 20.3334 73.115 20.7254C73.8372 21.1174 74.6438 21.3228 75.516 21.3228C76.3883 21.3228 77.2043 21.1267 77.9171 20.7254C78.6393 20.3334 79.2114 19.764 79.6334 19.0452C80.0555 18.3265 80.2712 17.4864 80.2712 16.553C80.2712 15.6196 80.0555 14.7795 79.6334 14.0607C79.2114 13.342 78.6299 12.7726 77.9171 12.3806ZM78.6111 16.553C78.6111 17.7011 78.3297 18.6345 77.767 19.3066C77.2136 19.9786 76.4539 20.324 75.516 20.324C74.5781 20.324 73.8184 19.9786 73.2651 19.3066C72.7023 18.6345 72.4209 17.7011 72.4209 16.553C72.4209 15.3955 72.7023 14.4715 73.2651 13.7994C73.8184 13.1273 74.5781 12.782 75.516 12.782C76.4539 12.782 77.2136 13.1273 77.767 13.7994C78.3204 14.4715 78.6111 15.4049 78.6111 16.553Z" fill="#47FFAA"/>
<path d="M64.512 11.7832C63.7562 11.7832 63.0668 11.9426 62.4433 12.2614C61.8199 12.5802 61.3287 13.0117 60.9792 13.5649C60.6298 14.1087 60.4503 14.7183 60.4503 15.3653C60.4503 15.9467 60.5825 16.4812 60.8564 16.9594C61.1209 17.4189 61.4799 17.8033 61.9333 18.1221L60.5825 19.9414C60.4125 20.1664 60.3936 20.4664 60.5164 20.7103C60.6486 20.9634 60.8942 21.1135 61.1776 21.1135H61.5649C61.187 21.3667 60.8848 21.6668 60.677 22.0231C60.4314 22.4263 60.3086 22.8483 60.3086 23.2796C60.3086 24.0861 60.6675 24.7519 61.3759 25.2489C62.075 25.7458 63.0573 25.999 64.2946 25.999C65.1543 25.999 65.976 25.8584 66.7222 25.5864C67.4779 25.3145 68.0918 24.9112 68.5452 24.3862C69.0081 23.861 69.2443 23.2234 69.2443 22.4919C69.2443 21.7231 68.9608 21.1791 68.2996 20.6541C67.733 20.2133 66.845 19.9789 65.7398 19.9789H61.9616C61.9522 19.9789 61.9427 19.9695 61.9427 19.9695C61.9427 19.9695 61.9333 19.9508 61.9427 19.9414L62.9251 18.6286C63.1896 18.7504 63.4351 18.8255 63.6524 18.8723C63.879 18.9193 64.1341 18.938 64.4174 18.938C65.2109 18.938 65.9288 18.7786 66.5522 18.4598C67.1756 18.1409 67.6763 17.7096 68.0352 17.1563C68.3941 16.6125 68.5736 16.003 68.5736 15.356C68.5736 14.662 68.2335 13.396 67.3078 12.749C67.3078 12.7397 67.3173 12.7397 67.3173 12.7397L69.3481 12.9647V12.0364H66.0988C65.5887 11.877 65.0598 11.7832 64.512 11.7832ZM65.6454 17.6533C65.2865 17.8408 64.8992 17.944 64.512 17.944C63.8791 17.944 63.3218 17.719 62.8495 17.2783C62.3772 16.8375 62.1411 16.1905 62.1411 15.3653C62.1411 14.5401 62.3772 13.893 62.8495 13.4523C63.3218 13.0117 63.8791 12.7865 64.512 12.7865C64.9087 12.7865 65.2865 12.8803 65.6454 13.0772C66.0043 13.2648 66.2972 13.5555 66.5333 13.94C66.76 14.3245 66.8828 14.8027 66.8828 15.3653C66.8828 15.9373 66.7694 16.4155 66.5333 16.7906C66.3066 17.1751 66.0043 17.4658 65.6454 17.6533ZM63.0856 21.1041H65.6454C66.3539 21.1041 66.8073 21.2448 67.1095 21.5449C67.4118 21.8449 67.5629 22.2481 67.5629 22.717C67.5629 23.4015 67.289 23.9642 66.7412 24.3862C66.1932 24.8082 65.4565 25.0238 64.5497 25.0238C63.7562 25.0238 63.095 24.8457 62.6133 24.508C62.1316 24.1705 61.886 23.6547 61.886 22.9984C61.886 22.5857 61.9994 22.2012 62.2261 21.8637C62.4528 21.5261 62.7267 21.2823 63.0856 21.1041Z" fill="#47FFAA"/>
</g>
<defs>
<filter id="filter0_d_1802_6364" x="0" y="0" width="108" height="33.998" filterUnits="userSpaceOnUse" color-interpolation-filters="sRGB">
<feFlood flood-opacity="0" result="BackgroundImageFix"/>
<feColorMatrix in="SourceAlpha" type="matrix" values="0 0 0 0 0 0 0 0 0 0 0 0 0 0 0 0 0 0 127 0" result="hardAlpha"/>
<feOffset dy="4"/>
<feGaussianBlur stdDeviation="2"/>
<feComposite in2="hardAlpha" operator="out"/>
<feColorMatrix type="matrix" values="0 0 0 0 0 0 0 0 0 0 0 0 0 0 0 0 0 0 0.05 0"/>
<feBlend mode="normal" in2="BackgroundImageFix" result="effect1_dropShadow_1802_6364"/>
<feBlend mode="normal" in="SourceGraphic" in2="effect1_dropShadow_1802_6364" result="shape"/>
</filter>
</defs>
</svg>
