<svg width="85" height="28" viewBox="0 0 85 28" fill="none" xmlns="http://www.w3.org/2000/svg">
<path d="M20.4491 27.9974H12.2437V1.35156C12.2437 0.993101 12.3917 0.649327 12.6552 0.395862C12.9187 0.142396 13.276 0 13.6487 0H20.4491C20.8217 0 21.1791 0.142396 21.4426 0.395862C21.7061 0.649327 21.8541 0.993101 21.8541 1.35156V26.6458C21.8541 26.8233 21.8178 26.9991 21.7471 27.1631C21.6765 27.327 21.573 27.476 21.4426 27.6015C21.3121 27.727 21.1572 27.8266 20.9867 27.8945C20.8163 27.9624 20.6336 27.9974 20.4491 27.9974Z" fill="url(#paint0_linear_1802_6310)"/>
<path style="mix-blend-mode:multiply" opacity="0.15" d="M15.4971 6.96875H13.3401V27.9976H16.9021V8.31894C16.902 8.14154 16.8656 7.96589 16.7949 7.80203C16.7243 7.63817 16.6208 7.4893 16.4903 7.36393C16.3598 7.23855 16.205 7.13912 16.0346 7.07132C15.8641 7.00351 15.6815 6.96866 15.4971 6.96875Z" fill="url(#paint1_linear_1802_6310)"/>
<path d="M15.806 27.9983H6.04834V8.31962C6.04834 8.14217 6.08468 7.96645 6.1553 7.80251C6.22592 7.63857 6.32943 7.48962 6.45991 7.36417C6.59039 7.23872 6.74528 7.13923 6.91574 7.07138C7.08621 7.00354 7.2689 6.96866 7.45338 6.96875H14.4017C14.7742 6.96875 15.1314 7.11107 15.3947 7.36441C15.6581 7.61775 15.806 7.96135 15.806 8.31962V27.9983Z" fill="url(#paint2_linear_1802_6310)"/>
<path style="mix-blend-mode:multiply" opacity="0.15" d="M8.69975 13.9297H6.39478V27.9996H10.1041V15.2785C10.1035 14.9206 9.9553 14.5775 9.692 14.3246C9.4287 14.0717 9.07183 13.9297 8.69975 13.9297Z" fill="url(#paint3_linear_1802_6310)"/>
<path d="M9.75795 27.9968H1.40457C1.22009 27.9968 1.03742 27.9619 0.866994 27.8939C0.696567 27.826 0.541724 27.7264 0.411311 27.6009C0.280898 27.4754 0.177471 27.3264 0.106939 27.1624C0.0364065 26.9985 0.000150867 26.8227 0.000244321 26.6453V15.2785C0.000809793 14.9206 0.149014 14.5775 0.412314 14.3246C0.675615 14.0717 1.03249 13.9297 1.40457 13.9297H8.35078C8.72342 13.9297 9.08079 14.0721 9.34429 14.3255C9.60778 14.579 9.75582 14.9228 9.75582 15.2812L9.75795 27.9968Z" fill="url(#paint4_linear_1802_6310)"/>
<path d="M33.0529 9.72461C34.354 9.72476 35.535 10.4392 36.0636 11.5342L36.1603 11.7578L36.1613 11.7598L36.2238 11.9502C36.3564 12.398 36.391 12.8689 36.3243 13.332C36.2482 13.8608 36.0415 14.3628 35.7238 14.7969L35.7247 14.7979C35.1115 15.6607 34.1615 16.1794 33.1788 16.1797L33.1798 16.1807L30.9659 16.209V20.1572C30.9618 20.2715 30.9116 20.3793 30.8273 20.457C30.7629 20.5162 30.6823 20.5538 30.5968 20.5674L30.5939 20.582L30.5118 20.5771C30.3962 20.5707 30.2872 20.5206 30.2081 20.4365C30.1291 20.3523 30.0865 20.2411 30.09 20.126V10.3691C30.09 10.1866 30.1213 10.0297 30.1906 9.91504C30.263 9.79515 30.3761 9.72461 30.5177 9.72461H33.0529ZM30.9659 15.3467H33.1769C33.7777 15.3396 34.3576 15.0417 34.7892 14.5781C35.2205 14.1148 35.4972 13.4927 35.4972 12.8486L35.4855 12.626C35.4325 12.109 35.1988 11.6222 34.8185 11.251C34.4382 10.8798 33.9387 10.6505 33.4073 10.5986L33.1779 10.5879H30.9659V15.3467Z" fill="#FF9A00" stroke="#FFC266" stroke-width="0.2"/>
<path d="M41.0212 12.5703C43.223 12.5703 45.0154 14.4191 45.0154 16.6846C45.0153 18.9498 43.2252 20.7998 41.0212 20.7998C38.8174 20.7996 37.0302 18.9507 37.03 16.6846C37.03 14.4183 38.8196 12.5705 41.0212 12.5703ZM41.0212 13.46C39.3329 13.4602 37.9529 14.9041 37.9529 16.6846C37.953 18.4642 39.3323 19.8904 41.0212 19.8906C42.7102 19.8906 44.0904 18.456 44.0906 16.6846C44.0906 14.9123 42.7085 13.46 41.0212 13.46Z" fill="#FF9A00" stroke="#FFC266" stroke-width="0.2"/>
<path d="M55.6949 12.6484C55.7208 12.6539 55.7458 12.6632 55.7701 12.6738L55.7711 12.6729C55.8825 12.7182 55.9716 12.8052 56.0192 12.915C56.0659 13.0228 56.0672 13.1435 56.025 13.2529L56.026 13.2539L53.6071 20.4766L53.6051 20.4824L53.5123 20.4453L53.6041 20.4824C53.5687 20.5699 53.5102 20.6463 53.4342 20.7031L53.4332 20.7021C53.369 20.7551 53.2908 20.7882 53.2076 20.7959L53.2028 20.7969L53.1158 20.8008H53.1071L53.0983 20.7998C53.0192 20.7897 52.9436 20.7593 52.8805 20.7109C52.8176 20.6627 52.7682 20.5987 52.7389 20.5254L52.7379 20.5244L52.7184 20.5059L52.7106 20.4814L50.8395 14.5176L48.9733 20.4746L48.9664 20.4961L48.9596 20.5029V20.5146L48.9498 20.5352C48.9143 20.6108 48.8578 20.6756 48.7877 20.7217C48.7177 20.7676 48.6363 20.7941 48.5524 20.7979H48.5406C48.4888 20.794 48.4382 20.7818 48.3893 20.7646C48.3725 20.7628 48.3559 20.759 48.3405 20.752C48.3264 20.7456 48.314 20.7367 48.3024 20.7266C48.2603 20.7065 48.2214 20.6802 48.1891 20.6465C48.1517 20.6074 48.123 20.5607 48.1051 20.5098L48.1031 20.5049L45.9518 13.2529L45.9528 13.252C45.9121 13.1465 45.9107 13.0303 45.9518 12.9248C45.9944 12.8157 46.0781 12.7268 46.1842 12.6758L46.1901 12.6729L46.274 12.6484C46.3023 12.643 46.3311 12.6407 46.36 12.6406V12.6416C46.4497 12.6402 46.5378 12.6641 46.6129 12.7129C46.6696 12.7498 46.7173 12.799 46.7516 12.8564L46.7809 12.916L46.7848 12.9268L48.5299 19.1416L50.3961 13.2031L50.402 13.1895C50.4424 13.1065 50.5056 13.036 50.5846 12.9873C50.6635 12.9386 50.7553 12.9131 50.8483 12.9131L50.9176 12.918C50.9859 12.9275 51.0519 12.951 51.111 12.9873C51.1702 13.0238 51.2208 13.0729 51.2594 13.1299L51.2946 13.1895L51.2975 13.1963L51.2994 13.2031L53.1637 19.1553L55.1774 12.9229L55.1813 12.9111L55.2145 12.8525C55.2512 12.7969 55.2999 12.7497 55.3571 12.7139C55.4333 12.666 55.5217 12.6407 55.6119 12.6406L55.6949 12.6484Z" fill="#FF9A00" stroke="#FFC266" stroke-width="0.2"/>
<path d="M60.5999 12.5732C61.8591 12.6198 62.6068 13.0893 63.0364 13.7852C63.488 14.5168 63.5754 15.4813 63.5754 16.4033V16.4688C63.5737 16.5269 63.5593 16.584 63.5344 16.6367C63.5096 16.6893 63.4745 16.7367 63.4309 16.7754C63.3871 16.8142 63.3351 16.8445 63.2795 16.8633C63.2262 16.8813 63.1698 16.8877 63.1135 16.8848V16.8857H57.679C57.7328 17.8139 57.9995 18.5359 58.4514 19.0381C58.9116 19.5495 59.5718 19.8439 60.4202 19.8887H60.4192C60.4512 19.8888 60.4823 19.8903 60.511 19.8916C60.5418 19.893 60.5708 19.8936 60.5989 19.8936H60.5999L60.842 19.8877C61.405 19.85 61.9459 19.6511 62.3958 19.3135C62.5185 19.1896 62.6359 19.1105 62.7756 19.1104H62.7844L62.842 19.1191C62.8976 19.1312 62.9502 19.1542 62.9973 19.1865H62.9983C63.1017 19.2534 63.1761 19.3574 63.2043 19.4766C63.2325 19.5957 63.212 19.7211 63.1487 19.8262L63.1428 19.8359C62.7723 20.312 61.8586 20.7998 60.4182 20.7998C59.3406 20.7998 58.4213 20.3776 57.7727 19.6504C57.1248 18.924 56.7522 17.8987 56.7522 16.7012C56.7523 15.4776 57.0963 14.4491 57.7209 13.7227C58.347 12.9947 59.248 12.5785 60.3411 12.5703L60.5999 12.5732ZM60.3674 13.4766C59.6617 13.4766 59.0478 13.6643 58.5891 14.0732C58.1402 14.4735 57.8298 15.096 57.7346 15.9951H62.6887C62.6841 15.4325 62.6364 14.8235 62.3489 14.3457C62.051 13.8508 61.4823 13.4766 60.3674 13.4766Z" fill="#FF9A00" stroke="#FFC266" stroke-width="0.2"/>
<path d="M65.8795 12.5859C65.999 12.5891 66.1128 12.6384 66.1959 12.7236C66.2786 12.8084 66.324 12.922 66.3219 13.04V13.7793C66.5877 13.4465 66.924 13.1727 67.3082 12.9775C67.7396 12.7585 68.2187 12.6446 68.7047 12.6455L68.7936 12.6504C68.8862 12.6599 68.9855 12.6843 69.0709 12.7256C69.182 12.7793 69.2973 12.8771 69.2975 13.0332C69.2975 13.1414 69.2783 13.2619 69.1852 13.3516C69.0938 13.4394 68.9521 13.477 68.7604 13.4775L68.7614 13.4785C68.2387 13.4817 67.8772 13.5544 67.6119 13.6621C67.414 13.7425 67.2665 13.8439 67.1422 13.9531L67.024 14.0645C66.6839 14.4118 66.5059 14.866 66.4137 15.2402C66.3218 15.6135 66.318 15.8984 66.318 15.8984V20.3447L66.3112 20.4316C66.2958 20.5173 66.2546 20.5974 66.193 20.6611C66.1314 20.7248 66.0528 20.7684 65.9674 20.7881L65.8805 20.7998C65.8187 20.8023 65.7569 20.7928 65.6989 20.7715C65.6407 20.7501 65.5878 20.7169 65.5426 20.6748C65.4975 20.6328 65.461 20.5825 65.4362 20.5264C65.4237 20.4982 65.4142 20.4684 65.4078 20.4385L65.3981 20.3477V13.04L65.4069 12.9482C65.4132 12.9182 65.4228 12.8886 65.4352 12.8604C65.46 12.8039 65.4964 12.7532 65.5416 12.7109C65.5869 12.6687 65.6406 12.6357 65.6989 12.6143C65.7563 12.5932 65.8174 12.5847 65.8785 12.5869L65.8795 12.5859Z" fill="#FF9A00" stroke="#FFC266" stroke-width="0.2"/>
<path d="M77.6837 9.59961L77.963 9.61328C78.6098 9.67825 79.2178 9.95948 79.6808 10.4141C80.21 10.9338 80.5068 11.6382 80.505 12.3721L80.4972 12.5352C80.4602 12.9192 80.2973 13.3272 80.0558 13.6973C79.8004 14.0887 79.4509 14.4434 79.0558 14.6924C79.6483 14.9092 80.1114 15.2414 80.4298 15.6836C80.7672 16.1522 80.9376 16.7354 80.9376 17.4141V17.415C80.9366 18.2536 80.595 19.0572 79.9884 19.6494C79.4196 20.2046 78.6611 20.5318 77.8624 20.5713L77.7023 20.5752L74.9747 20.5801V20.5791C74.9178 20.5803 74.8608 20.5704 74.8077 20.5498C74.7542 20.5289 74.7052 20.498 74.6642 20.458C74.623 20.4179 74.5902 20.3695 74.5685 20.3164C74.5468 20.2632 74.5366 20.2058 74.5382 20.1484V10.0264L74.547 9.94238C74.5647 9.86036 74.6069 9.78429 74.6681 9.72461C74.7494 9.64538 74.8589 9.60114 74.9728 9.59961H77.6837ZM75.4259 19.708H77.7023L77.9327 19.6973C78.1623 19.6756 78.3878 19.6213 78.6017 19.5352C78.8869 19.4202 79.1454 19.2508 79.3634 19.0381C79.5813 18.8255 79.7546 18.5735 79.8722 18.2959C79.9897 18.0185 80.0494 17.7209 80.049 17.4209L80.0353 17.2012C79.9113 16.1221 78.975 15.3516 77.7013 15.3516H75.4259V19.708ZM75.4259 14.4639H77.4562C77.9842 14.4638 78.5255 14.2013 78.9366 13.8027C79.3479 13.4039 79.6163 12.8807 79.6163 12.3721L79.6075 12.1846C79.5648 11.7523 79.3705 11.3448 79.0538 11.0332C78.7369 10.7215 78.3195 10.5277 77.8751 10.4824L77.6827 10.4727H75.4259V14.4639Z" fill="#FF9A00" stroke="#FFC266" stroke-width="0.2"/>
<path d="M83.743 9.59766C83.8279 9.61427 83.9071 9.65574 83.9696 9.7168C84.0528 9.79832 84.1005 9.90921 84.1005 10.0254V20.1514C84.0991 20.2089 84.086 20.2659 84.0624 20.3184C84.0387 20.3708 84.004 20.4176 83.9618 20.457C83.9196 20.4964 83.8704 20.5273 83.8163 20.5479C83.7624 20.5683 83.705 20.5773 83.6473 20.5762V20.5771C83.5332 20.5757 83.4241 20.5307 83.3427 20.4512C83.2612 20.3716 83.2143 20.2639 83.2128 20.1504V10.0254C83.2128 9.90902 83.2602 9.79836 83.3436 9.7168C83.427 9.63533 83.5392 9.58987 83.6561 9.58984L83.743 9.59766Z" fill="#FF9A00" stroke="#FFC266" stroke-width="0.2"/>
<defs>
<linearGradient id="paint0_linear_1802_6310" x1="12.5688" y1="2.71338" x2="20.6274" y2="25.7308" gradientUnits="userSpaceOnUse">
<stop offset="0.01" stop-color="#E4A910"/>
<stop offset="0.32" stop-color="#DFA311"/>
<stop offset="0.63" stop-color="#D08C0C"/>
<stop offset="1" stop-color="#C17F06"/>
</linearGradient>
<linearGradient id="paint1_linear_1802_6310" x1="15.1215" y1="27.9976" x2="15.1215" y2="6.96875" gradientUnits="userSpaceOnUse">
<stop stop-color="#C17F06"/>
<stop offset="0.22" stop-color="#C17F06" stop-opacity="0.99"/>
<stop offset="0.37" stop-color="#C28006" stop-opacity="0.94"/>
<stop offset="0.5" stop-color="#C38107" stop-opacity="0.86"/>
<stop offset="0.61" stop-color="#C58207" stop-opacity="0.75"/>
<stop offset="0.72" stop-color="#C78408" stop-opacity="0.61"/>
<stop offset="0.82" stop-color="#CA8609" stop-opacity="0.43"/>
<stop offset="0.91" stop-color="#CD890B" stop-opacity="0.22"/>
<stop offset="1" stop-color="#D08C0C" stop-opacity="0"/>
</linearGradient>
<linearGradient id="paint2_linear_1802_6310" x1="7.5921" y1="6.87568" x2="13.5875" y2="28.6102" gradientUnits="userSpaceOnUse">
<stop stop-color="#F6D54E"/>
<stop offset="0.31" stop-color="#EEC634"/>
<stop offset="0.57" stop-color="#E9B822"/>
<stop offset="1" stop-color="#E9B21C"/>
</linearGradient>
<linearGradient id="paint3_linear_1802_6310" x1="8.24942" y1="27.9968" x2="8.24942" y2="13.927" gradientUnits="userSpaceOnUse">
<stop stop-color="#F7DB5E"/>
<stop offset="0.2" stop-color="#F7DA5D" stop-opacity="0.99"/>
<stop offset="0.34" stop-color="#F5D75A" stop-opacity="0.95"/>
<stop offset="0.45" stop-color="#F3D255" stop-opacity="0.89"/>
<stop offset="0.56" stop-color="#EFCC4E" stop-opacity="0.8"/>
<stop offset="0.66" stop-color="#EBC345" stop-opacity="0.69"/>
<stop offset="0.75" stop-color="#E6B839" stop-opacity="0.55"/>
<stop offset="0.84" stop-color="#DFAB2C" stop-opacity="0.39"/>
<stop offset="0.92" stop-color="#D89C1D" stop-opacity="0.21"/>
<stop offset="1" stop-color="#D08C0C" stop-opacity="0"/>
</linearGradient>
<linearGradient id="paint4_linear_1802_6310" x1="2.66234" y1="13.5252" x2="6.87291" y2="28.7924" gradientUnits="userSpaceOnUse">
<stop stop-color="#F8E386"/>
<stop offset="0.31" stop-color="#F6DC65"/>
<stop offset="0.57" stop-color="#F7DB5E"/>
<stop offset="1" stop-color="#FAD859"/>
</linearGradient>
</defs>
</svg>
