<svg width="120" height="34" viewBox="0 0 120 34" fill="none" xmlns="http://www.w3.org/2000/svg">
<g filter="url(#filter0_d_1802_6378)">
<path fill-rule="evenodd" clip-rule="evenodd" d="M29.3906 11.2292L26.2867 13.0012L29.3906 14.7684C29.5761 14.8727 29.739 15.0129 29.8698 15.1809C30.0006 15.3488 30.0966 15.5412 30.1522 15.7467C30.2078 15.9522 30.222 16.1667 30.1939 16.3778C30.1657 16.5888 30.0959 16.7921 29.9883 16.9758C29.7674 17.3467 29.41 17.6161 28.9927 17.7262C28.5755 17.8364 28.1317 17.7784 27.7567 17.5649L22.1978 14.3962C21.8415 14.1953 21.5758 13.8652 21.4555 13.4741C21.4011 13.3046 21.3761 13.1271 21.3816 12.9492C21.3857 12.8217 21.4044 12.6949 21.4385 12.5674C21.5497 12.1733 21.8096 11.8199 22.1954 11.5973L27.7526 8.43267C28.128 8.21835 28.5726 8.16043 28.9904 8.27141C29.4081 8.38239 29.7654 8.65337 29.9851 9.02578C30.4407 9.79763 30.1743 10.7824 29.3906 11.2292ZM26.4516 19.8163L20.8968 16.6533C20.61 16.4881 20.2797 16.4144 19.9499 16.442C19.5412 16.4692 19.158 16.6502 18.8774 16.9487C18.5968 17.2472 18.4397 17.641 18.4378 18.0507V24.3848C18.4378 25.2785 19.1662 26 20.0717 26C20.9764 26 21.7073 25.2769 21.7073 24.3848V20.8424L24.8176 22.6144C25.1924 22.8299 25.6369 22.889 26.0548 22.7787C26.4728 22.6684 26.8304 22.3977 27.0501 22.0254C27.5008 21.2535 27.2353 20.2631 26.4516 19.8163ZM20.0408 13.6211L17.7312 15.8977C17.6519 15.9712 17.5493 16.0143 17.4413 16.0196H16.7632C16.6557 16.0134 16.5536 15.9703 16.4741 15.8977L14.1645 13.6211C14.0927 13.5432 14.0504 13.4426 14.0451 13.3368V12.6657C14.0505 12.5589 14.0927 12.4573 14.1645 12.3781L16.4725 10.1007C16.5522 10.0288 16.6543 9.98663 16.7616 9.98125H17.4413C17.5489 9.98611 17.6514 10.0283 17.7312 10.1007L20.0408 12.3781C20.1126 12.4573 20.1548 12.5589 20.1602 12.6657V13.3368C20.1602 13.4261 20.1074 13.5561 20.0408 13.6211ZM18.1949 12.989C18.1875 12.8821 18.1443 12.7808 18.0723 12.7014L17.4039 12.0433C17.3237 11.9717 17.2214 11.9295 17.114 11.9239H17.0872C16.9806 11.9297 16.8791 11.9718 16.7997 12.0433L16.1314 12.7014C16.0609 12.7812 16.0197 12.8827 16.0144 12.989V13.015C16.0144 13.1068 16.0656 13.2344 16.1314 13.2994L16.7997 13.9591C16.8663 14.0241 16.9946 14.0794 17.0872 14.0794H17.114C17.2215 14.0732 17.3236 14.0308 17.4039 13.9591L18.0723 13.2994C18.1446 13.2215 18.188 13.1211 18.1949 13.015V12.989ZM7.7537 6.17968L13.3101 9.34671C13.6098 9.51733 13.9411 9.58395 14.2587 9.55795C14.6675 9.52988 15.0506 9.34823 15.3312 9.04944C15.6118 8.75064 15.7691 8.35678 15.7716 7.94681V1.61357C15.7716 0.723102 15.0391 0 14.1377 0C13.233 0 12.5021 0.723102 12.5021 1.61357V5.15759L9.38927 3.38152C9.01417 3.16699 8.56977 3.10869 8.15206 3.21921C7.73435 3.32973 7.37686 3.60019 7.1568 3.97219C7.04921 4.15593 6.97927 4.35926 6.95107 4.57033C6.92286 4.7814 6.93695 4.99597 6.99251 5.20153C7.04808 5.40709 7.144 5.59953 7.27469 5.7676C7.40538 5.93568 7.56821 6.07523 7.7537 6.17968ZM19.9499 9.55795C20.2682 9.58395 20.5996 9.51733 20.8968 9.34671L26.4516 6.18049C26.637 6.07594 26.7997 5.93556 26.9304 5.76751C27.0611 5.59947 27.157 5.40711 27.2127 5.20163C27.2684 4.99615 27.2827 4.78164 27.2548 4.57058C27.2269 4.35952 27.1573 4.15611 27.0501 3.97219C26.8299 3.60035 26.4724 3.33003 26.0548 3.21953C25.6371 3.10902 25.1928 3.16721 24.8176 3.38152L21.7073 5.15759V1.61357C21.7073 0.723102 20.9764 0 20.0717 0C19.1662 0 18.4378 0.723102 18.4378 1.61357V7.946C18.4353 8.79666 19.1021 9.4962 19.9499 9.55795ZM14.2587 16.4412C13.9283 16.4132 13.5974 16.4869 13.3101 16.6525L7.7537 19.8154C7.56834 19.9202 7.40564 20.0608 7.27502 20.229C7.1444 20.3972 7.04847 20.5897 6.99279 20.7953C6.93711 21.0008 6.92279 21.2154 6.95067 21.4266C6.97854 21.6378 7.04806 21.8413 7.15517 22.0254C7.37579 22.3968 7.73345 22.6666 8.15107 22.7766C8.56868 22.8867 9.01279 22.8281 9.38765 22.6136L12.5004 20.8416V24.384C12.5004 25.2777 13.2313 25.9992 14.136 25.9992C15.0375 25.9992 15.77 25.2761 15.77 24.384V18.0507C15.7686 17.641 15.612 17.247 15.3316 16.9483C15.0513 16.6496 14.6673 16.4684 14.2587 16.4412ZM12.7522 13.4741C12.8054 13.3044 12.8301 13.127 12.8253 12.9492C12.8162 12.6724 12.736 12.4025 12.5923 12.1657C12.4486 11.9289 12.2464 11.7331 12.0051 11.5973L6.45351 8.43349C5.66983 7.98825 4.67013 8.2523 4.22104 9.02659C3.76707 9.79844 4.03588 10.7832 4.81956 11.23L7.92261 13.002L4.81794 14.7692C4.63234 14.8734 4.46937 15.0136 4.33853 15.1815C4.20769 15.3495 4.1116 15.5418 4.05588 15.7473C4.00016 15.9528 3.98593 16.1674 4.014 16.3785C4.04208 16.5895 4.11191 16.7929 4.21941 16.9767C4.44004 17.3481 4.79764 17.6179 5.21521 17.7281C5.63277 17.8383 6.07688 17.7799 6.45189 17.5657L12.0051 14.397C12.3819 14.1858 12.6353 13.8503 12.7522 13.4741ZM81.6739 4.00956H81.5205C81.5001 4.00956 81.4807 4.012 81.4604 4.01362C81.4409 4.012 81.4222 4.00956 81.4011 4.00956C81.0072 4.00956 80.6231 4.05506 80.2649 4.17206C79.9064 4.28302 79.5851 4.49011 79.3359 4.77085L79.3343 4.76841V4.77248C79.0728 5.05847 78.9022 5.40052 78.7958 5.78969C78.6919 6.17968 78.6488 6.61923 78.6448 7.12053V8.089H77.5639C77.3874 8.08747 77.2176 8.15581 77.0913 8.27909C76.965 8.40237 76.8926 8.57061 76.8898 8.7471C76.888 8.93263 76.9585 9.11157 77.0864 9.24596C77.2151 9.37684 77.3879 9.45505 77.5712 9.46533H78.6448V17.3423L78.6432 17.361C78.6432 17.5462 78.7203 17.716 78.847 17.8379C78.9721 17.9573 79.1483 18.028 79.3391 18.028C79.5158 18.0271 79.685 17.9563 79.8096 17.831C79.9343 17.7057 80.0043 17.5361 80.0043 17.3593V9.46127H81.1664C81.3485 9.45312 81.521 9.37686 81.6496 9.24759C81.7144 9.18321 81.7657 9.10662 81.8007 9.02224C81.8357 8.93787 81.8536 8.84739 81.8534 8.75604V8.73004C81.8502 8.37499 81.5489 8.08494 81.1745 8.08494H80.0034V7.12053C80.0116 6.69398 80.0562 6.37468 80.1204 6.14312C80.1829 5.90913 80.2698 5.76288 80.3461 5.67189C80.4381 5.57718 80.5527 5.50754 80.6791 5.46958C80.8399 5.41758 81.0632 5.38589 81.3645 5.38589H81.4003C81.4173 5.38589 81.4368 5.38183 81.4539 5.38183C81.4742 5.38183 81.4945 5.38589 81.5164 5.38589H81.6683C82.054 5.38589 82.3642 5.07715 82.3642 4.69773C82.365 4.60694 82.3476 4.51691 82.3132 4.43291C82.2787 4.34892 82.2279 4.27264 82.1636 4.20855C82.0993 4.14447 82.0229 4.09386 81.9388 4.05969C81.8547 4.02552 81.7647 4.00848 81.6739 4.00956ZM105.643 9.1184C105.709 9.05549 105.761 8.98011 105.797 8.89668C105.833 8.81326 105.853 8.72345 105.854 8.63254C105.853 8.54357 105.834 8.45572 105.797 8.37458C105.761 8.29344 105.708 8.22081 105.642 8.16131H105.643C105.642 8.15806 105.639 8.15806 105.639 8.15806C105.639 8.154 105.636 8.154 105.636 8.154H105.633C105.507 8.02769 105.336 7.95645 105.157 7.95575C104.976 7.95769 104.804 8.03032 104.676 8.15806L99.325 13.3059V4.65548C99.325 4.28337 99.0091 3.97869 98.6209 3.97869C98.5316 3.97858 98.4431 3.99619 98.3606 4.0305C98.2781 4.0648 98.2031 4.11513 98.1402 4.17856C98.0124 4.30463 97.9395 4.47598 97.9372 4.65548V17.322C97.9381 17.4106 97.9565 17.4983 97.9913 17.5798C98.0262 17.6614 98.0768 17.7353 98.1402 17.7973C98.2684 17.9239 98.4408 17.9956 98.6209 17.9971C99.0091 17.9971 99.325 17.6965 99.325 17.3244V15.2323L101.067 13.5147L104.619 17.7453C104.685 17.8428 104.776 17.9094 104.867 17.9451C104.969 17.9825 105.07 17.9971 105.158 17.9971C105.319 18.0003 105.476 17.9497 105.605 17.8533L105.613 17.8476L105.622 17.8387C105.692 17.7727 105.747 17.6935 105.786 17.6058C105.824 17.518 105.845 17.4235 105.846 17.3276C105.845 17.1629 105.785 17.0041 105.677 16.8792V16.8775L102.061 12.5389L105.639 9.12165H105.643V9.1184ZM95.9816 8.24743C96.1083 8.3693 96.1863 8.54317 96.1863 8.73166V17.322C96.1857 17.4104 96.1676 17.4978 96.1332 17.5792C96.0988 17.6606 96.0487 17.7344 95.9857 17.7964C95.8566 17.9233 95.6834 17.995 95.5025 17.9963C95.3218 17.9949 95.1488 17.9232 95.0201 17.7964C94.9563 17.7349 94.9054 17.6612 94.8706 17.5798C94.8357 17.4983 94.8175 17.4106 94.817 17.322V16.4843C93.9562 17.4024 92.7462 17.9963 91.4078 17.9963C90.7722 17.9958 90.1433 17.865 89.5601 17.6121C88.9768 17.3592 88.4515 16.9895 88.0165 16.5257C87.1204 15.5823 86.6227 14.3294 86.627 13.028C86.627 11.672 87.1548 10.4289 88.0165 9.52789C88.4519 9.06491 88.9774 8.69591 89.5606 8.44357C90.1438 8.19123 90.7724 8.06089 91.4078 8.06056C92.7462 8.06056 93.9562 8.63661 94.817 9.55064V8.73329C94.8168 8.64378 94.8345 8.55512 94.869 8.47254C94.9035 8.38997 94.9542 8.31513 95.0181 8.25244C95.0819 8.18976 95.1577 8.14049 95.2409 8.10753C95.3241 8.07458 95.413 8.05861 95.5025 8.06056C95.6844 8.06056 95.8565 8.12962 95.9816 8.24743ZM94.817 13.028C94.817 12.0124 94.4289 11.1025 93.8084 10.4444C93.1888 9.78951 92.3369 9.39139 91.4078 9.38977C90.4853 9.38977 89.6374 9.78951 89.0105 10.4444C88.3542 11.1439 87.9909 12.0686 87.9954 13.028C87.9954 14.0428 88.3892 14.9455 89.0105 15.5979C89.6334 16.2503 90.4837 16.6427 91.4078 16.6427C91.8582 16.6419 92.3036 16.5489 92.7167 16.3695C93.1298 16.1901 93.5019 15.9281 93.81 15.5995C94.4631 14.9034 94.8237 13.9827 94.817 13.028ZM39.745 12.7867C39.1919 12.5284 38.565 12.3399 37.9405 12.1343C37.3647 11.9418 36.7816 11.7793 36.365 11.564C36.1554 11.4535 35.9922 11.3365 35.8858 11.2048C35.7786 11.0809 35.7208 10.9218 35.7234 10.758C35.725 10.5094 35.7965 10.3095 35.9199 10.1299C36.1075 9.86507 36.4218 9.65707 36.7645 9.52464C37.1032 9.38977 37.4711 9.3264 37.7342 9.3264C38.5106 9.32802 39.0011 9.58233 39.3779 9.84801C39.563 9.98044 39.7206 10.1169 39.87 10.2274C39.9455 10.2851 40.017 10.3379 40.1007 10.3769C40.1786 10.4143 40.2712 10.446 40.3719 10.446C40.4361 10.446 40.4986 10.4346 40.5571 10.4102C40.6179 10.3856 40.6741 10.351 40.7235 10.3079C40.7741 10.2606 40.8159 10.2048 40.847 10.1429C40.8728 10.0814 40.8864 10.0155 40.8868 9.94875C40.8836 9.82995 40.851 9.7138 40.7918 9.61076C40.6878 9.42552 40.5286 9.24759 40.3264 9.06803C39.9875 8.77818 39.6077 8.53999 39.1992 8.36118C38.7696 8.17106 38.31 8.04187 37.8722 8.04187C36.8555 8.04187 36.0076 8.26937 35.3921 8.6886C35.0705 8.90797 34.7879 9.14684 34.5897 9.47752C34.3867 9.80901 34.273 10.2177 34.2584 10.7507V10.8222C34.2559 11.3381 34.4249 11.7646 34.6896 12.0986C35.0908 12.6015 35.6877 12.9005 36.2732 13.1142C36.8555 13.327 37.441 13.4538 37.8081 13.5756C38.327 13.7454 38.8776 13.9307 39.2812 14.1752C39.4818 14.3004 39.6426 14.4352 39.7523 14.5831C39.8578 14.7342 39.9187 14.8918 39.9228 15.0893V15.1047C39.9212 15.3923 39.8359 15.6166 39.6938 15.8091C39.4794 16.0976 39.1253 16.3064 38.7493 16.4412C38.4221 16.5556 38.079 16.6181 37.7326 16.6265C36.8457 16.6265 36.2537 16.4152 35.8217 16.204C35.6057 16.0976 35.4319 15.9927 35.2727 15.9034C35.199 15.8605 35.1225 15.8228 35.0437 15.7904C34.9657 15.758 34.8821 15.7409 34.7976 15.7401C34.7387 15.7401 34.6803 15.7512 34.6254 15.7726C34.5695 15.7955 34.5181 15.8283 34.4736 15.8693C34.4134 15.9252 34.3633 15.9911 34.3258 16.0642C34.2907 16.1361 34.2726 16.215 34.273 16.295C34.273 16.4282 34.3217 16.5477 34.3948 16.6582C34.5061 16.8166 34.6709 16.9572 34.8748 17.0993C35.0875 17.2391 35.3393 17.3756 35.6284 17.5121C36.274 17.8127 37.0999 17.9703 37.7285 17.9792H37.7301C38.7071 17.9792 39.5492 17.7574 40.2598 17.2415V17.2391H40.2615C40.9566 16.7232 41.3878 15.9554 41.3878 15.0877C41.3878 14.6107 41.2741 14.2069 41.0776 13.8771C40.7788 13.3774 40.2939 13.0467 39.745 12.7867ZM84.4968 3.97788C84.4072 3.97787 84.3185 3.99552 84.2358 4.02981C84.153 4.0641 84.0778 4.11437 84.0144 4.17774C83.9508 4.23988 83.9001 4.31402 83.8652 4.39588C83.8304 4.47774 83.8121 4.5657 83.8114 4.65467V17.3211C83.8114 17.41 83.8294 17.4979 83.8643 17.5796C83.8992 17.6613 83.9503 17.735 84.0144 17.7964C84.1433 17.923 84.3162 17.9946 84.4968 17.9963C84.885 17.9963 85.1993 17.6957 85.2009 17.3236V4.65467C85.1993 4.28093 84.8866 3.97788 84.4968 3.97788ZM116 12.7079V12.7754C116 12.9622 115.915 13.1304 115.786 13.2409C115.654 13.3538 115.486 13.415 115.312 13.4131H107.633C107.828 15.2631 109.326 16.6305 111.111 16.6427H111.563C112.155 16.6452 112.73 16.4429 113.237 16.1106C113.746 15.7746 114.175 15.3301 114.493 14.809C114.553 14.7064 114.641 14.6228 114.746 14.5677C114.85 14.5134 114.965 14.4861 115.082 14.4884C115.199 14.4907 115.313 14.5224 115.414 14.5807L115.423 14.5847L115.43 14.5904C115.525 14.6559 115.603 14.7432 115.657 14.845C115.712 14.9467 115.741 15.06 115.743 15.1754C115.743 15.2948 115.71 15.4151 115.646 15.5248L115.643 15.5288L115.642 15.5305C115.203 16.2239 114.62 16.815 113.932 17.2635C113.236 17.7103 112.429 17.9923 111.563 17.9923H111.104C110.461 17.9877 109.825 17.8553 109.234 17.6029C108.643 17.3504 108.108 16.9829 107.66 16.5217C106.75 15.5926 106.241 14.3432 106.243 13.0427C106.243 11.6663 106.787 10.42 107.671 9.51652C108.123 9.05401 108.663 8.68665 109.259 8.43604C109.855 8.18544 110.495 8.05667 111.141 8.05731C112.438 8.05731 113.604 8.56755 114.468 9.40114C115.332 10.2347 115.895 11.3941 115.996 12.6965L116 12.7079ZM114.5 12.0685C114.11 10.5094 112.724 9.39952 111.141 9.40114C109.519 9.40114 108.152 10.4874 107.728 12.0685H114.5ZM47.0417 8.07762C46.0146 8.07809 45.0241 8.45964 44.2619 9.14846V8.75604C44.2626 8.57981 44.1947 8.41023 44.0727 8.28318C44.0111 8.21922 43.9373 8.16828 43.8557 8.13339C43.7741 8.0985 43.6863 8.08036 43.5976 8.08006C43.5062 8.07897 43.4156 8.09625 43.3311 8.13086C43.2465 8.16547 43.1698 8.21671 43.1054 8.28155C42.9815 8.40836 42.9121 8.57868 42.9122 8.75604V17.5251L42.9406 17.5535L42.943 17.5568C42.9536 17.5893 42.9687 17.6202 42.9877 17.6486C43.0811 17.8111 43.2338 17.9346 43.4238 17.989L43.4498 17.9971H43.5976C43.6986 17.9968 43.7983 17.9746 43.8899 17.9321C43.9722 17.8914 44.044 17.8322 44.0995 17.7591H44.1011C44.1092 17.7509 44.1108 17.7428 44.1181 17.7347C44.1554 17.6903 44.1865 17.6411 44.2107 17.5885C44.2302 17.5365 44.2432 17.4861 44.253 17.4487L44.2586 17.4243V12.1587C44.2757 11.431 44.5758 10.7388 45.0951 10.2291C45.6112 9.71559 46.3098 9.4278 47.0377 9.42877C47.8083 9.42877 48.4954 9.73588 48.994 10.2291C49.4935 10.723 49.7964 11.4015 49.7964 12.1506V17.322C49.7964 17.5105 49.8776 17.6859 50.001 17.8054C50.1311 17.9274 50.3027 17.9953 50.481 17.9953C50.6593 17.9953 50.8309 17.9274 50.9609 17.8054C51.026 17.7429 51.0777 17.6678 51.1129 17.5847C51.148 17.5016 51.166 17.4122 51.1656 17.322V12.1506C51.1713 9.92031 49.3245 8.08168 47.0417 8.07762ZM60.651 9.53358C61.5462 10.476 62.0444 11.7271 62.0421 13.0272C62.0434 14.3269 61.5453 15.5774 60.651 16.52C59.7934 17.4243 58.5947 17.9947 57.2612 17.9947C55.94 17.9947 54.7397 17.4227 53.878 16.5192C52.9827 15.5769 52.4835 14.3265 52.4835 13.0264C52.4835 11.7263 52.9827 10.4759 53.878 9.53358C54.7397 8.63092 55.9408 8.05894 57.2612 8.05894C58.5947 8.06056 59.7934 8.63092 60.651 9.53358ZM60.6697 13.0272C60.6697 12.0222 60.2774 11.1098 59.6545 10.4517C59.0284 9.79194 58.1822 9.38977 57.2596 9.38977C56.3395 9.38977 55.4892 9.79357 54.8647 10.4517C54.2098 11.1489 53.8466 12.0705 53.8496 13.0272C53.8457 13.9805 54.2093 14.8986 54.8647 15.5906C55.49 16.2471 56.3395 16.6427 57.2604 16.6427C58.1797 16.6427 59.0316 16.2462 59.6545 15.5906C60.3097 14.8988 60.6733 13.9802 60.6697 13.0272ZM75.4451 8.13612L75.441 8.13368L75.4378 8.13206C75.3601 8.09817 75.2764 8.08021 75.1917 8.07925C75.0589 8.0813 74.9292 8.1195 74.8165 8.18974C74.6986 8.26248 74.6054 8.36927 74.5493 8.49605V8.50011L71.9344 15.5621L69.9203 10.8295L69.9163 10.827C69.8589 10.6996 69.764 10.5927 69.6442 10.5207C69.5291 10.4479 69.3956 10.4094 69.2595 10.4097C69.1233 10.41 68.99 10.449 68.8752 10.5224C68.7569 10.5945 68.6632 10.7007 68.6064 10.827L68.6047 10.8295L66.5858 15.5662L63.9603 8.5058H63.9587C63.9135 8.37558 63.8252 8.26467 63.7086 8.19137C63.5943 8.11975 63.4625 8.08096 63.3277 8.07925C63.2392 8.07926 63.1516 8.09722 63.0702 8.13206H63.0662L63.0629 8.13531C62.9448 8.19002 62.8449 8.27737 62.7748 8.38707C62.7047 8.49677 62.6675 8.62423 62.6674 8.75441C62.6674 8.83647 62.6837 8.91853 62.7162 9.00059L65.9483 17.5698V17.5738C65.975 17.643 66.0135 17.7071 66.062 17.7631C66.1046 17.8099 66.156 17.848 66.2131 17.8753C66.2245 17.8842 66.2399 17.8996 66.2667 17.9143C66.2962 17.9314 66.3287 17.9427 66.3625 17.9476C66.4194 17.9663 66.4973 17.9947 66.5996 17.9947C66.7296 17.9947 66.8514 17.9476 66.961 17.8785C67.071 17.8072 67.156 17.7032 67.2039 17.5811L67.2112 17.5755L69.256 12.751L71.3025 17.5551H71.3042C71.3513 17.6843 71.4349 17.7826 71.5299 17.8541C71.6314 17.9289 71.7451 17.976 71.8645 17.9947H71.9498C72.031 17.9947 72.1106 17.9793 72.1772 17.9541C72.2395 17.9301 72.2981 17.8973 72.351 17.8566C72.4612 17.7726 72.547 17.6607 72.5995 17.5324V17.5291L75.8105 8.99734C75.8758 8.83462 75.8741 8.65264 75.8056 8.49124C75.7371 8.32983 75.6075 8.20214 75.4451 8.13612Z" fill="#7CD3FF"/>
</g>
<defs>
<filter id="filter0_d_1802_6378" x="0" y="0" width="120" height="34" filterUnits="userSpaceOnUse" color-interpolation-filters="sRGB">
<feFlood flood-opacity="0" result="BackgroundImageFix"/>
<feColorMatrix in="SourceAlpha" type="matrix" values="0 0 0 0 0 0 0 0 0 0 0 0 0 0 0 0 0 0 127 0" result="hardAlpha"/>
<feOffset dy="4"/>
<feGaussianBlur stdDeviation="2"/>
<feComposite in2="hardAlpha" operator="out"/>
<feColorMatrix type="matrix" values="0 0 0 0 0 0 0 0 0 0 0 0 0 0 0 0 0 0 0.05 0"/>
<feBlend mode="normal" in2="BackgroundImageFix" result="effect1_dropShadow_1802_6378"/>
<feBlend mode="normal" in="SourceGraphic" in2="effect1_dropShadow_1802_6378" result="shape"/>
</filter>
</defs>
</svg>
