<svg width="128" height="28" viewBox="0 0 128 28" fill="none" xmlns="http://www.w3.org/2000/svg">
<path d="M13.411 1.29435V2.59399H11.158V3.43928H13.411V6.02798H14.2918V3.43928H16.6012V2.59399H14.2918V0H13.411V1.29435Z" fill="#9EE8FF"/>
<path d="M6.04716 4.58918V6.47524H2.63684V7.65864H6.04716V11.4889H7.31195V7.65864H10.7735V6.47524H7.31195V2.70312H6.04716V4.58918Z" fill="#FFBD74"/>
<path d="M20.3389 4.58918V6.47524H16.9286V7.71676H20.3389V11.4889H21.6549V7.71676H25.0652V6.47524H21.6549V2.70312H20.3389V4.58918Z" fill="#86DAFF"/>
<path d="M13.0827 11.0156V13.1288H9.28833V14.7032H13.0827V18.9296H14.6189V14.7032H18.4132V13.1288H14.6189V8.90234H13.0827V11.0156Z" fill="#FF9E60"/>
<path d="M24.241 12.0805V13.4066H21.9316V14.479H24.241V17.1259H25.3932V14.479H27.7026V13.4066H25.3932V10.7598H24.241V12.0805Z" fill="#B3C1FF"/>
<path d="M2.25307 12.1976V13.4656H0V14.3637H2.25307V16.8996H3.13381V14.3637L5.4432 14.2792V13.4656H3.13381V10.9297H2.25307V12.1976Z" fill="#9EE8FF"/>
<path d="M6.04716 18.1673V20.0534H2.63684V21.2949H6.04716V25.067H7.36316V21.2949H10.7735V20.0534H7.36316V16.2812H6.04716V18.1673Z" fill="#FF2641"/>
<path d="M20.3389 18.1673V20.0534H16.9286V21.2368H20.3389V25.067H21.6549V21.2368H25.0652V20.0534H21.6549V16.2812H20.3389V18.1673Z" fill="#74AAFF"/>
<path d="M13.3035 22.9608V24.2816H10.9941V25.354H13.3035V28.0009H14.4557V25.354H16.7651V24.2816H14.4557V21.6348H13.3035V22.9608Z" fill="#B3C1FF"/>
<path d="M84.316 5.63281V21.6933H82.5597V5.63281H84.316ZM40.6731 7.88868V13.0133H45.3994V14.7038H40.6731V20.2247H38.9167V14.7038H34.1904V13.0133H38.9167V7.88868H40.6731ZM95.6428 11.4072C95.9603 11.4231 96.3648 11.4759 96.5492 11.5234C96.7284 11.571 97.0254 11.6819 97.2046 11.7717C97.3889 11.8563 97.6859 12.0412 97.8652 12.1838C98.0495 12.3265 98.3055 12.5906 98.4387 12.7702C98.5718 12.9499 98.7613 13.2774 98.8637 13.494C98.9661 13.7106 99.0992 14.091 99.1607 14.3393C99.2221 14.5876 99.2938 15.0895 99.3501 16.1144H93.2771L93.3129 16.3257C93.3283 16.442 93.3949 16.6903 93.4461 16.8752C93.5024 17.0601 93.6458 17.3507 93.7584 17.5144C93.8711 17.6782 94.0401 17.8737 94.1271 17.9424C94.2193 18.011 94.4036 18.1273 94.5419 18.2012C94.675 18.2699 94.9106 18.3597 95.0642 18.402C95.2178 18.4443 95.6274 18.4812 95.9961 18.4812C96.3597 18.4812 96.882 18.4443 97.1534 18.3967C97.4248 18.3492 97.8088 18.2541 98.0034 18.1907C98.198 18.1273 98.454 18.0269 98.5667 17.9688C98.6793 17.9107 98.7971 17.8578 98.8278 17.8578C98.8621 17.8578 98.8824 18.1533 98.884 19.3794L98.8841 19.5484L98.582 19.6911C98.4131 19.7703 98.0649 19.8971 97.7986 19.9763C97.5323 20.0503 97.0459 20.1454 96.713 20.1824C96.2573 20.2299 95.95 20.2299 95.4738 20.1824C95.1256 20.1454 94.6187 20.0503 94.3473 19.9711C94.0759 19.8918 93.6816 19.7333 93.4768 19.6171C93.2668 19.5009 92.9135 19.2314 92.6882 19.0148C92.4578 18.7982 92.171 18.4443 92.0379 18.2277C91.9048 18.011 91.7409 17.6412 91.6641 17.4088C91.5873 17.1763 91.4951 16.7695 91.4593 16.5107C91.4183 16.2201 91.4081 15.8133 91.4286 15.4963C91.4439 15.2005 91.5105 14.7567 91.5719 14.5084C91.6334 14.2601 91.7819 13.8533 91.8996 13.605C92.0174 13.3567 92.2376 13.0027 92.381 12.8178C92.5295 12.6329 92.8214 12.3476 93.0313 12.1838C93.2412 12.02 93.5946 11.814 93.8148 11.7189C94.0298 11.6238 94.4036 11.5129 94.6392 11.4653C94.9208 11.4125 95.2588 11.3914 95.6428 11.4072ZM113.888 11.3227V14.1544C113.888 15.7129 113.872 17.5778 113.806 19.6118L113.365 19.7492C113.125 19.8231 112.638 19.9394 112.28 19.9975C111.824 20.082 111.389 20.1137 110.8 20.1137C110.334 20.1137 109.796 20.0873 109.602 20.0556C109.407 20.0186 109.023 19.9182 108.752 19.8284C108.46 19.7333 108.081 19.5484 107.845 19.3899C107.615 19.2367 107.297 18.9673 107.133 18.7824C106.975 18.6027 106.749 18.2858 106.642 18.085C106.534 17.8843 106.386 17.5144 106.314 17.2714C106.207 16.9174 106.176 16.6427 106.15 16.0035C106.135 15.491 106.15 15.0367 106.191 14.7884C106.227 14.5718 106.319 14.2072 106.396 13.9748C106.468 13.7423 106.637 13.3725 106.77 13.1559C106.898 12.9393 107.174 12.5959 107.384 12.3951C107.62 12.1733 107.927 11.9461 108.178 11.8193C108.403 11.7083 108.731 11.571 108.915 11.5182C109.095 11.4706 109.54 11.4125 109.904 11.3966C110.39 11.3755 110.672 11.3966 110.974 11.46C111.204 11.5129 111.547 11.6291 111.747 11.7242C111.942 11.814 112.111 11.8932 112.116 11.888C112.125 11.888 112.13 11.7814 112.131 11.6457L112.131 11.3227H113.888ZM59.5272 11.3227L59.5271 14.8455L59.5265 15.2133C59.5227 16.8669 59.5006 18.4897 59.4453 19.6118L59.0049 19.7492C58.7642 19.8231 58.2573 19.9394 57.8783 20.008C57.2997 20.1084 57.0386 20.119 56.2039 20.0979C55.4307 20.0767 55.1183 20.045 54.7753 19.9552C54.5295 19.8865 54.1096 19.7228 53.8382 19.5854C53.5514 19.4375 53.2084 19.205 53.0138 19.0307C52.8346 18.8616 52.5785 18.5605 52.4556 18.365C52.3276 18.1643 52.1586 17.8473 52.0869 17.6624C52.0153 17.4775 51.9077 17.1076 51.8565 16.8488C51.7848 16.4684 51.7695 16.1884 51.7899 15.5227C51.8156 14.8835 51.8514 14.5718 51.9384 14.2548C52.005 14.0223 52.1586 13.6419 52.2764 13.4095C52.3942 13.177 52.6297 12.8231 52.8038 12.6276C52.983 12.4268 53.2749 12.1627 53.4541 12.0359C53.6334 11.9144 53.9304 11.7506 54.1147 11.6766C54.2939 11.6027 54.6216 11.5023 54.8418 11.46C55.062 11.4178 55.4717 11.3808 55.7482 11.3808C56.0298 11.3808 56.4292 11.4231 56.6443 11.4653C56.8542 11.5129 57.1871 11.6291 57.3868 11.7242C57.5814 11.814 57.7503 11.8932 57.7555 11.888C57.7606 11.888 57.7708 11.7612 57.7708 11.608V11.3227H59.5272ZM69.8042 7.3234L69.8045 10.0081C69.8063 11.6638 69.8213 11.7697 69.9015 11.7453C69.9579 11.7242 70.2241 11.6502 70.4955 11.571C70.8181 11.4812 71.2073 11.4231 71.6221 11.3966C72.0931 11.3755 72.3697 11.3914 72.7179 11.46C73.0149 11.5182 73.3682 11.6449 73.6805 11.8034C73.9519 11.9408 74.3104 12.1733 74.4793 12.3265C74.6432 12.4744 74.9044 12.7861 75.0529 13.0185C75.2065 13.251 75.3959 13.6208 75.4779 13.848C75.5649 14.0699 75.6725 14.4872 75.7237 14.7778C75.7851 15.1582 75.8005 15.4857 75.78 16.0035C75.7646 16.3891 75.7083 16.8699 75.6571 17.0707C75.611 17.2714 75.4881 17.6148 75.3908 17.8314C75.2935 18.048 75.0989 18.3809 74.9607 18.5658C74.8276 18.7507 74.5562 19.0254 74.3616 19.1786C74.1721 19.3318 73.8239 19.5431 73.5986 19.6488C73.3733 19.7597 72.9995 19.8971 72.7742 19.9605C72.4209 20.0609 72.1956 20.0767 71.1817 20.082C70.2241 20.0873 69.9118 20.0662 69.5328 19.9816C69.2768 19.9235 68.8518 19.8126 68.5958 19.7386C68.3397 19.6646 68.1144 19.5801 68.094 19.559C68.0735 19.5379 68.0479 16.7801 68.0376 13.4253L68.0171 7.3234H69.8042ZM122.521 11.5499L122.516 14.3816L122.516 14.6042C122.516 14.6404 122.516 14.676 122.516 14.7111L122.516 15.1101C122.518 16.8683 122.528 17.2064 122.595 17.4769L122.603 17.5057C122.609 17.5296 122.616 17.5533 122.623 17.5778C122.69 17.7892 122.813 18.0375 122.915 18.1643C123.012 18.2805 123.217 18.439 123.371 18.5129C123.519 18.5869 123.806 18.6714 124.001 18.6978C124.211 18.7295 124.508 18.7295 124.718 18.6978C124.912 18.6714 125.199 18.5869 125.347 18.5129C125.501 18.439 125.706 18.2805 125.803 18.1643C125.906 18.0375 126.034 17.7892 126.095 17.5778C126.103 17.5504 126.111 17.5239 126.118 17.4957L126.123 17.4741C126.187 17.1956 126.2 16.6925 126.202 13.5622L126.202 13.3096C126.202 13.2666 126.202 13.2231 126.202 13.1791L126.203 12.4836C126.203 12.4348 126.203 12.3854 126.203 12.3356L126.203 11.5499H128L127.99 14.6087C127.985 17.161 127.981 17.5988 127.909 17.8874L127.903 17.913C127.9 17.9256 127.896 17.938 127.892 17.9504L127.885 17.9753L127.877 18.0005C127.816 18.1854 127.688 18.4654 127.59 18.6186C127.493 18.7771 127.324 18.9937 127.206 19.1099C127.094 19.2262 126.848 19.4111 126.669 19.522C126.489 19.6329 126.141 19.7862 125.9 19.8654C125.624 19.9552 125.255 20.0239 124.912 20.0503C124.605 20.0662 124.113 20.0662 123.811 20.045C123.468 20.0239 123.094 19.9552 122.823 19.8654C122.577 19.7862 122.234 19.6329 122.05 19.522C121.871 19.4111 121.63 19.2262 121.512 19.1099C121.399 18.9937 121.225 18.7771 121.128 18.6186C121.036 18.4654 120.908 18.1854 120.846 18.0005L120.842 17.988L120.834 17.9633C120.826 17.9387 120.819 17.9142 120.812 17.8883L120.806 17.862C120.737 17.5707 120.732 17.0713 120.718 14.6087L120.698 11.5499H122.521ZM110.37 13.0767C110.175 13.0767 109.878 13.1189 109.714 13.1612C109.545 13.2087 109.289 13.3144 109.141 13.3989C108.992 13.4835 108.777 13.6578 108.659 13.7899C108.542 13.9219 108.388 14.1544 108.311 14.3129C108.234 14.4661 108.137 14.7514 108.091 14.9469C108.045 15.1371 108.009 15.5122 108.009 15.7763C108.009 16.0405 108.045 16.4156 108.091 16.6057C108.137 16.8012 108.224 17.0654 108.291 17.1975C108.357 17.3295 108.526 17.562 108.665 17.7099C108.803 17.8631 109.028 18.0427 109.161 18.1114C109.299 18.1854 109.545 18.2858 109.714 18.3333C109.904 18.3914 110.216 18.4231 110.58 18.4231C110.887 18.4231 111.322 18.3967 111.537 18.365C111.757 18.3333 111.967 18.2858 111.998 18.2646C112.044 18.2382 112.07 17.5567 112.085 15.9242L112.1 13.6155C111.547 13.325 111.24 13.2035 111.056 13.1559C110.877 13.1084 110.569 13.0714 110.37 13.0767ZM55.3488 13.1612C55.1849 13.2087 54.9289 13.3144 54.7804 13.3989C54.6319 13.4835 54.4168 13.6578 54.299 13.7899C54.1813 13.9219 54.0225 14.1544 53.9508 14.3129C53.874 14.4661 53.7767 14.7514 53.7307 14.9469C53.6846 15.1371 53.6487 15.4857 53.6487 15.7182C53.6487 15.9506 53.6743 16.294 53.7051 16.479C53.7409 16.6639 53.8331 16.9703 53.9201 17.1552C54.0225 17.3771 54.1864 17.6042 54.3963 17.805C54.6012 18.0005 54.8418 18.1643 55.0518 18.2488C55.3078 18.3544 55.5126 18.3861 56.0401 18.4126C56.4139 18.4284 56.8849 18.4073 57.1359 18.3703C57.3765 18.3333 57.6018 18.2858 57.6377 18.2646C57.6786 18.2382 57.7094 17.5039 57.735 15.9295L57.7708 13.6367C57.3202 13.3831 57.0693 13.2668 56.9157 13.214C56.7672 13.1559 56.419 13.1031 56.1476 13.0925C55.8096 13.0767 55.5587 13.0978 55.3488 13.1612ZM71.4838 13.0767C71.2738 13.0819 70.9973 13.1084 70.8796 13.1348C70.7567 13.1612 70.475 13.251 70.2446 13.3355L69.835 13.4835V18.1695C70.6952 18.402 70.8796 18.4178 71.4531 18.402C72.0163 18.3861 72.2007 18.3597 72.4721 18.2541C72.6513 18.1801 72.9022 18.0427 73.02 17.9424C73.1429 17.8473 73.317 17.6676 73.4091 17.5461C73.5013 17.4246 73.6345 17.171 73.701 16.9861C73.7727 16.8012 73.8546 16.4473 73.8854 16.199C73.9314 15.8608 73.9314 15.6284 73.8802 15.2691C73.8393 14.9469 73.7522 14.6563 73.6242 14.3816C73.5218 14.1544 73.3426 13.8744 73.2299 13.7582C73.1173 13.6419 72.9124 13.4782 72.7742 13.3989C72.641 13.3144 72.3799 13.2087 72.1956 13.1612C72.0163 13.1084 71.6937 13.0714 71.4838 13.0767ZM95.0335 13.1559C94.8696 13.2035 94.6033 13.325 94.4395 13.4253C94.2756 13.5257 94.0452 13.7212 93.9223 13.8586C93.8045 14.0012 93.6458 14.2336 93.5741 14.3816C93.5024 14.5295 93.441 14.6721 93.441 14.7038C93.441 14.7391 94.068 14.7599 95.2291 14.7618L97.3736 14.762C97.3172 14.3446 97.266 14.1386 97.2251 14.0276C97.179 13.9219 97.0459 13.7212 96.9281 13.5891C96.7847 13.4253 96.6106 13.3091 96.4109 13.2299C96.2419 13.1718 95.9347 13.1084 95.7247 13.0925C95.4789 13.0819 95.228 13.1031 95.0335 13.1559Z" fill="#5496FF"/>
</svg>
